<?xml version="1.0" encoding="utf-8"?>
<!-- Generator: Adobe Illustrator 24.0.1, SVG Export Plug-In . SVG Version: 6.00 Build 0)  -->
<svg version="1.1" id="Warstwa_1" xmlns="http://www.w3.org/2000/svg" xmlns:xlink="http://www.w3.org/1999/xlink" x="0px" y="0px"
	 viewBox="0 0 23.5 24" style="enable-background:new 0 0 23.5 24;" xml:space="preserve">
<style type="text/css">
	.st0{fill:#FBBC1B;}
	.st1{fill:#FFFFFF;}
	.st2{fill:#010202;}
	.st3{fill:#18191F;}
	.st4{clip-path:url(#SVGID_2_);}
</style>
<g id="Group_20" transform="translate(6 6)">
	<path id="Combined_Shape-2_1_" class="st3" d="M12.5,15.6l-0.2-0.1L5.8,8.8l-6.6,6.6c-0.8,0.8-2,0.8-2.8,0
		c-0.7-0.7-0.8-1.9-0.1-2.7l0.1-0.2L2.9,6l-6.6-6.6c-0.8-0.8-0.8-2,0-2.8C-2.9-4.1-1.8-4.2-1-3.6l0.2,0.1l6.6,6.6l6.6-6.6
		c0.8-0.8,2-0.8,2.8,0c0.7,0.7,0.8,1.9,0.1,2.7l-0.1,0.2L8.6,6l6.6,6.6c0.8,0.8,0.8,2,0,2.8C14.5,16.1,13.3,16.2,12.5,15.6
		L12.5,15.6z"/>
	<g>
		<defs>
			<path id="SVGID_1_" d="M12.5,15.6l-0.2-0.1L5.8,8.8l-6.6,6.6c-0.8,0.8-2,0.8-2.8,0c-0.7-0.7-0.8-1.9-0.1-2.7l0.1-0.2L2.9,6
				l-6.6-6.6c-0.8-0.8-0.8-2,0-2.8C-2.9-4.1-1.8-4.2-1-3.6l0.2,0.1l6.6,6.6l6.6-6.6c0.8-0.8,2-0.8,2.8,0c0.7,0.7,0.8,1.9,0.1,2.7
				l-0.1,0.2L8.6,6l6.6,6.6c0.8,0.8,0.8,2,0,2.8C14.5,16.1,13.3,16.2,12.5,15.6L12.5,15.6z"/>
		</defs>
		<clipPath id="SVGID_2_">
			<use xlink:href="#SVGID_1_"  style="overflow:visible;"/>
		</clipPath>
		<g id="Mask_Group_20" class="st4">
			<g id="COLOR_black_1_" transform="translate(-6 -6)">
				<rect id="Rectangle_1_" x="-4.2" y="-4" class="st3" width="32" height="32"/>
			</g>
		</g>
	</g>
</g>
</svg>
