<?xml version="1.0" encoding="utf-8"?>
<!-- Generator: Adobe Illustrator 24.0.1, SVG Export Plug-In . SVG Version: 6.00 Build 0)  -->
<svg version="1.1" id="Warstwa_1" xmlns="http://www.w3.org/2000/svg" xmlns:xlink="http://www.w3.org/1999/xlink" x="0px" y="0px"
	 viewBox="0 0 23.5 24" style="enable-background:new 0 0 23.5 24;" xml:space="preserve">
<style type="text/css">
	.st0{fill:#FBBC1B;}
	.st1{fill:#FFFFFF;}
	.st2{fill:#010202;}
	.st3{fill:#18191F;}
	.st4{clip-path:url(#SVGID_2_);}
</style>
<g id="Group_26" transform="translate(7 2)">
	<path id="Path-2" class="st3" d="M11,0H8C5.2,0,3,2.2,3,5v3H0v4h3v8h4v-8h3l1-4H7V5c0-0.6,0.4-1,1-1h3V0z"/>
	<g>
		<defs>
			<path id="SVGID_1_" d="M11,0H8C5.2,0,3,2.2,3,5v3H0v4h3v8h4v-8h3l1-4H7V5c0-0.6,0.4-1,1-1h3V0z"/>
		</defs>
		<clipPath id="SVGID_2_">
			<use xlink:href="#SVGID_1_"  style="overflow:visible;"/>
		</clipPath>
		<g id="Mask_Group_26" class="st4">
			<g id="COLOR_black" transform="translate(-7 -2)">
				<rect id="Rectangle" class="st1" width="24" height="24"/>
			</g>
		</g>
	</g>
</g>
</svg>
