<?xml version="1.0" encoding="utf-8"?>
<!-- Generator: Adobe Illustrator 24.0.1, SVG Export Plug-In . SVG Version: 6.00 Build 0)  -->
<svg version="1.1" id="Warstwa_1" xmlns="http://www.w3.org/2000/svg" xmlns:xlink="http://www.w3.org/1999/xlink" x="0px" y="0px"
	 viewBox="0 0 416.1 712.5" style="enable-background:new 0 0 416.1 712.5;" xml:space="preserve">
<style type="text/css">
	.st0{fill:#FBBC1B;}
	.st1{fill:#FFFFFF;}
	.st2{fill:#18191F;}
	.st3{clip-path:url(#SVGID_2_);}
	.st4{fill:#010202;}
</style>
<g id="peep-standing-6_copy_1_" transform="translate(-32)">
	<g id="BODY_1_" transform="translate(69.264 89.264)">
		<path id="_Background_1_" class="st1" d="M165.6,610.8c-11.4,0-19.9-2.1-26-6.6c-0.3,0.7-0.5,1.5-0.7,2.3
			c-0.2,1.2-0.6,2.3-1.1,3.4c-3.6-0.1-7.2-0.2-10.7-0.3h0c-7.9-0.2-16-0.5-24-1l-0.9-1.1l0,0l0,0c-0.1-0.9-0.2-1.7-0.3-2.6
			c-0.4-2.1-0.5-4.3-0.2-6.4c0.1-1.3,0.2-2.5,1.3-3l0,0c0-0.3,0.2-0.6,0.5-0.8c0,0,0.2-0.3,0.6-0.7l0,0c-0.7-2.3-0.6-5.4,0.3-9.1
			c0.8-3,1.9-5.9,3.2-8.7c0.6-3.1,1.3-6.2,2.4-9.2l0.5-0.2l0.1-0.7c0.2-0.1,0.4-0.2,0.5-0.2c0.5,0,0.9,0.1,1.4,0.3
			c0.3,0.1,0.5,0.2,0.8,0.2c0.2-5.5,0.1-10.9-0.3-16.3c-0.2-3-0.3-6.1-0.4-9.2c-0.5-0.7-0.9-1.4-1.3-2.1c-0.2,0.2-0.4,0.2-0.7,0.2
			c-0.5-0.1-1-0.3-1.4-0.6c-0.2,0.1-0.4,0.1-0.6,0.1c-1.4,0-2.3-1.4-2.6-2.5c-4.3-16.5-6.9-33.5-7.7-50.5
			c-0.4-8.7-0.4-17.4,0.2-26.1c0.5-8.4,1.7-16.7,3.4-24.9c1.6-11.5,2.7-23.2,3.5-35.8c0.6-11.2,0.9-22.9,0.9-35.7
			c-0.1-23.8-1.4-48-2.6-71.4v0c-0.5-9.7-1-19.6-1.5-29.5c-1.5-0.1-2.8-0.7-3.7-1.9c-2.3-2.9-1.5-8.5-1-11.8
			c0.4-4.3,0.6-8.1,0.8-11.5c0-3.4,0.2-6.8,1.4-9.8c-2.4-1.9-5.1-3.7-7.6-5.4c-8.7-6-17.7-12.1-21.2-22.3c-1.1-7.4-1.8-14.8-2-22.3
			c-0.2-7.2,0-14.8,0.6-22.7c1.2-15.1,3.4-30.1,6.5-44.9c1.6-8.6,4-17.1,7.1-25.4c1.4-3.7,3.1-7.3,5-10.8c1.8-3.3,3.9-6.4,6.2-9.3
			c2.3-2.8,4.8-5.4,7.6-7.6c2.8-2.3,5.9-4.2,9.1-5.7c3.5-1.6,7.1-2.8,10.9-3.6c4.2-0.8,8.5-1.3,12.7-1.2c0.9,0,1.9,0,2.9,0.1
			l0.1,0.1c0.8,0.1,1.6,0.2,2.4,0.2c2.1,0,4.2-0.4,6.2-1.2c2-0.8,3.9-1.9,5.6-3.4c1.7-1.4,3.1-3.1,4.3-5c1.1-1.9,1.9-3.9,2.2-6.1
			c0.2-1.3,0.4-2.4,1.4-3c0.1-1.7,1.3-3,3.8-3.8c2.8-0.8,5.6-1.2,8.5-1.1c3.7,0,7.4,0.4,11,1.3c3.5,0.8,5.9,2,6.7,3.2
			c0.1,0,0.2,0,0.4,0c0.7,0,0.9,0.5,1,1.1c0.1,0.3,0.2,0.5,0.3,0.8c0.3,1.6,0.7,3.2,1,4.5l1.2,0c0.3,0.6,0.5,1.3,0.7,2
			c0.9,2.7,1.8,5.5,4.6,6.9c4.1,0.1,8.8,0.4,12.9,2.8c3.8,0.8,7.6,2.1,11.1,3.8c3.2,1.6,6.1,3.6,8.7,5.9c2.5,2.3,4.8,4.9,6.6,7.7
			c1.9,2.9,3.5,5.9,4.8,9.1c2.6,6.7,4.3,13.8,5,21c0.8,7.4,1,14.8,0.6,22.2c-0.3,9,0.4,18.1,2.1,26.9c1.7,9,4.1,18.2,6.4,27.1
			c3.3,12.5,6.7,25.5,8,38.1c0.7,6.2,0.8,12.5,0.3,18.8c-0.5,6.3-1.9,12.6-4.1,18.6c1.7,4.3,3,8.7,3.7,13.2
			c0.7,4.6,0.9,9.2,0.4,13.9c-1,9.9-5,18-11.5,23.3c1,1.6,1.6,3.4,1.7,5.2l0,0.2c2.4,13.3,3.7,27.7,4.7,39.3c0.4,3.9,0.7,8,1.1,11.8
			c4.9,55.1,9.9,112.1,33.2,163.6c0,0-0.6,0.2-1,0.3h0c-0.2,0.1-0.4,0.1-0.5,0.2c1.3,2,2.3,4.1,3.1,6.4c0.5,1.3,1,2.6,1.6,3.9
			c2.2,5.2,5.1,10.1,8.6,14.6c0.4-0.5,1-0.8,1.7-0.9c0.9,0.2,1.7,0.6,2.4,1.2c0.3,0.3,0.7,0.5,1.1,0.7c0.7,0.4,1.5,0.8,1.6,1.5
			c1.1,0.6,2.5,1.5,3.6,2.3l0,0c1.1,0.8,2.3,1.5,3.5,2.3l0.4,0.3c0.7-1.1,1.3-2.3,1.8-3.6c0,0,0.1,0,0.1,0c0.1,0,0.2,0,0.3,0
			c0.1,0,0.2,0,0.2-0.1c-0.2,0.6-0.4,1.3-0.7,1.9c-0.4,1-0.7,1.8-0.8,2.4c9.6,6.1,20.3,10.2,31.5,12.4c3.1,0.5,5.6,1.3,7.8,3
			c2,1.7,3.6,4.2,5.3,8.5c0,0,0.1,0,0.2,0c0.3,0.1,0.6,0.1,0.7,0.3c0.2,0.8,0.4,1.6,0.6,2.4c0.5,2,1,4.1,1.4,6.2c0,0.1,0,0.2,0,0.3
			c0,0.1-0.1,0.2-0.2,0.2c-10.2,2.1-19.7,3.3-29,4.4c-7.4,1.2-14.9,1.8-22.3,2c-9.1,0-16.1-1.4-21.4-4.4c-1.3,4.4-6.3,4.4-10.4,4.4
			h-0.8c-0.9,0-1.8,0-2.6,0.1h-0.4c-1.5,0-4,0-6.9,0c-9.3,0-14.3-0.3-14.6-0.8c-1-3.8-1.7-8,1.5-9.8c-0.2-2.6-0.2-5.1-0.3-7.6
			c-0.1-1.7-0.1-3.3-0.2-4.9c-0.7-2.7-1-5.6-1-8.4c0-0.9-0.1-1.9-0.1-2.8c0-0.5,0-1.1-0.1-1.7v0c-0.1-2.4-0.2-4.9,1-6.7
			c0.6-0.1,1.2-0.2,1.9-0.2c1.2,0.1,2.4-0.2,3.5-0.8c-1.8-6.8-4.3-13.8-10-19c-2.7,0.2-5.3,0.3-7.9,0.3c-1.7,0-3.4,0-5-0.1h-0.2
			c-2.8,0-4.8-0.6-6.2-1.8c-1.5-1.2-2.5-3.1-3.1-6c-3-10.6-6-22.1-8.9-33.1l-0.1-0.5l-0.9-3.5c-4.7-18.8-8.9-34.2-13.2-48.4
			c-4.8-16-10.5-31.8-17-47.3c-0.3-0.9-0.7-1.7-1-2.6l0,0c-2.7-6.4-4.9-13-6.8-19.7c-4.7,12.9-8.8,26.1-12.2,39.5
			c-3.2,12.7-5.9,25.8-8.2,39.8c-2.1,12.8-3.8,26.4-5.3,41.6c-1.3,13.1-2.4,27.3-3.4,44.8v0c-0.1,3.3-0.5,6.7-1.1,9.9
			c-0.1,0.4-0.2,0.5-0.6,0.5c-0.2,0-0.4-0.1-0.6-0.1l-0.2,0c-1.9,1.2-4.2,1.2-6.4,1.2h-0.1c-0.1,8.7,1.2,17.3,3.8,25.6
			c2.2-0.8,4.5-1.4,6.8-1.7c0.2,0,0.2,0.4,0.2,0.7c0,0.1,0,0.1,0,0.2c0.8,0.8,1.6,1.7,2.4,2.5c0.2-0.3,0.3-0.5,0.5-0.7
			c0.3,0.2,0.7,0.5,1,0.7c0.4,0.4,0.9,0.7,1.3,1c0.1,0.1,0.2,0.1,0.3,0.1c0.1,0,0.2,0,0.3-0.1c0.4,0.2,0.8,0.5,1.2,0.6l0.3,0.2l0,0
			l0,0l0.2,0.1c-0.5,0.5-1,1-1.5,1.5c8.3,7.1,18.5,11.7,31.2,14.2c0.6,0.1,1.2,0.2,1.8,0.3h0c6.3,1,13.5,2.1,16.3,8.2
			c1.1,2.5,1.2,4.2,0.2,5.2c0.1,1.4,0.1,2.9-0.1,4.3v0c-0.1,0.8-0.1,1.7-0.2,2.5c0,0.1,0,0.3-0.4,0.4c-5.9,0.3-12.5,1.3-19.5,2.3
			l-1.5,0.2l-0.3,0C184.3,609.4,174.8,610.8,165.6,610.8z M120.4,153L120.4,153c-1,3.2-2.1,6.4-3.2,9.5c-1.3,3.6-2.6,7.3-3.7,11
			c-0.4,2,0,4.1,1.1,5.8c1.2,1.7,2.7,3.1,4.3,4.3c1.3-7.8,2.5-16,2.6-24.3l0.3,0.5l0.3-4l0.1-0.8l-1.4-0.3L120.4,153z"/>
		<path id="_Ink_1_" class="st4" d="M164.7,611.1c-4.5,0.1-9.1-0.4-13.5-1.3c-4.1-0.8-8-2.4-11.5-4.6c-0.1,0.4-0.2,0.7-0.3,1.1
			c-0.3,1-0.6,1.9-0.8,2.9c-0.2,0.6-0.7,1-1.3,1.1h0c-3.6-0.1-7.2-0.2-10.6-0.3c-7.9-0.2-16.1-0.5-24.1-1h0c-0.3,0-0.6-0.2-0.8-0.4
			c-0.1,0.1-0.3,0.2-0.5,0.2c-0.3,0-0.5-0.2-0.6-0.4c-0.1-0.6-0.2-1.2-0.2-1.7c0-0.3,0-0.5-0.1-0.8c-0.1-0.6-0.2-1.2-0.3-1.7
			c-0.1-0.4-0.2-0.7-0.2-1.1c-0.2-1.8-0.2-3.6,0-5.4l0-0.4c0.1-1.2,0.3-2.5,1.4-3.1l0.1,0l0,0c0.1-0.4,0.4-0.7,0.7-0.9l0,0
			c-0.4-1.4-0.5-2.8-0.2-4.2l0-0.1c0.4-4.8,1.8-9.4,4-13.7c0.6-3.3,1.4-6.5,2.5-9.6c0,0,0-0.1,0-0.1c0,0,0.1-0.1,0.2-0.1
			c0,0,0.1,0,0.1,0c0,0,0.1,0,0.1-0.1c0,0,0-0.1,0-0.1c0.2-0.5,0.8-0.9,1.4-1c0.1,0,0.2,0,0.3,0c0.3,0,0.6,0.1,0.9,0.2l0,0l0.1,0
			c0.2-4.9-0.1-9.9-0.4-14.8c-0.2-3.3-0.4-6.7-0.4-10.1c-0.2,0.1-0.5,0.2-0.7,0.2c-0.6,0-1.2-0.2-1.7-0.6c-0.2,0-0.3,0-0.5,0
			c-2,0-3.2-1.8-3.7-3.4l-0.3-1.5c-3.2-13.8-5.6-27.7-7.3-41.8c-0.9-9.8-1-19.6-0.2-29.4c0.8-10.2,2.2-20.5,3.6-29.3
			c1.4-8.9,2.4-18,3.2-27.9c0.6-8.8,1-17.9,1.1-27.9c0.2-18.6-0.6-37.6-1.3-56c-0.6-13.9-1.1-28.3-1.3-42.4
			c-0.2-2.3-0.3-4.6-0.5-6.9c-0.2-3.3-0.4-6.7-0.8-10c-2.4-0.3-4.1-2.6-4.8-4.5c-1-2.6-0.6-5.5-0.3-8.3v0c0.1-0.7,0.2-1.4,0.2-2.1
			c0.3-3.7,0.6-7.4,0.8-11.1l0-1.1c-0.1-2.9,0.3-5.8,1.1-8.6c-2.4-1.8-5-3.6-7.5-5.3c-8.6-5.8-17.4-11.8-20.8-22
			c-1.5-1.3-1.6-6.3-1.7-9.9c0-1.3-0.1-2.4-0.2-3.1c-1.3-26.2,0.9-52.4,6.6-78c1.6-8.3,3.9-16.5,6.8-24.4c1.4-3.7,3-7.4,4.9-10.9
			c1.8-3.4,3.9-6.6,6.2-9.7c2.3-3,4.8-5.7,7.7-8.1c2.9-2.4,6-4.5,9.4-6.2c3.6-1.8,7.4-3.1,11.3-3.9c4.4-0.9,8.9-1.4,13.4-1.4
			c0.9,0,1.8,0,2.8,0.1l0,0l-0.1-0.1c0.1,0,0.2-0.1,0.3-0.1c0.3,0,0.6,0.1,0.8,0.3c0.6,0.1,1.3,0.1,1.9,0.1c3.1,0,6.1-0.9,8.7-2.6
			c2.6-1.7,4.8-3.9,6.4-6.6c0.9-1.4,1.5-3,1.8-4.7l0-0.1c0-0.2,0.1-0.4,0.1-0.7v0c0.3-1.7,0.6-3.6,2.6-4c0.2,0,0.3,0,0.5,0
			c0.5,0,1,0.2,1.4,0.5c0.1,1,0.1,2.1,0,3.1c-0.1,0.1-0.2,0.1-0.3,0.2l0.1-0.1c0.1,0,0.1-0.1,0.2-0.1c-0.5,3.3-1.9,6.5-4,9.1
			c-2.1,2.7-4.7,4.9-7.8,6.4c-0.3,0.4-0.7,0.6-1.2,0.6c-0.2,0-0.4,0.1-0.7,0.2l-0.9,0.3c-2.3,0.8-4.8,1.3-7.2,1.5
			c3.6,10.2,13,16.8,20.2,20.6c4.6,2.4,9.4,4.3,14.4,5.7c4.6,1.3,9.4,2.2,14.1,2.6c0.5,0,0.9,0,1.4,0c6.5,0,12-2.5,15.5-7.1
			c3.7-5,4.8-11.8,2.8-18.8c-5.3-0.8-10-3.9-12.8-8.5c-1-1.6-1.7-3.4-2-5.3c-0.3-1.9-0.1-3.9,0.5-5.7l0.1-0.3c0,0,0-0.1,0.1-0.1
			c0,0,0.1,0,0.1,0.1c0.1,0.6,0.3,1.2,0.5,1.8c0.1,0.4,0.3,0.7,0.4,1.1l0.1,0.3c0.1,0.3,0.2,0.5,0.3,0.8c0.7,2.2,1.6,4.7,3.7,5.9
			l0.4,0c2.2,0,4.3,0.2,6.5,0.6c2.1,0.4,4.2,1.1,6.1,2.2c4.2,0.9,8.3,2.4,12,4.6c3,1.6,5.8,3.5,8.4,5.8c2.4,2,4.5,4.3,6.3,6.8
			c3.5,4.9,6.1,10.4,7.6,16.2c3.2,11.7,3.3,24.8,3.3,37.5c0,4.1,0,8.3,0.2,12.4c1,13.9,4.8,28,8.4,41.6c3.3,12.4,6.7,25.1,8,37.7
			c0.7,6.3,0.8,12.6,0.3,18.9c-0.5,6.5-1.9,12.8-4.1,18.9c3.4,8.5,4.8,17.7,4.1,26.8c-0.4,4.5-1.5,8.9-3.3,13
			c-1.8,4.1-4.5,7.9-7.9,10.9c0.2,0.2,0.3,0.5,0.4,0.8c0.5,1.4,0.8,2.8,1,4.2v0c0.1,0.4,0.1,0.7,0.2,1.1l0,0.2c0.7,4,1.3,8,1.8,12.4
			c1.1,8.3,1.8,16.7,2.5,24.5l0.1,1.2c0.4,4.7,0.8,9.4,1.2,13.9v0c1.3,15.7,2.7,31.9,4.6,47.7l0.4,3c2.9,19.9,6.5,43,12,65.5
			l0.1,0.4c0.1,0.4,0.2,0.9,0.4,1.4c1.4,4.9,2.9,9.9,4.4,14.6c0.6,1.9,1.2,3.9,1.8,5.9c0.6,2,1.3,4.1,2.2,6.4l1,2.4
			c0.2,0.4,0.3,0.8,0.5,1.2c1.7,4.1,3.5,8.3,5.5,12.5c0.1,0.3,0.2,0.6,0,0.9c-0.1,0.3-0.4,0.6-0.8,0.7c1,1.6,1.7,3.4,2.3,5.2
			c0.5,1.3,1,2.6,1.6,3.9c2.1,4.8,4.6,9.3,7.7,13.5c0.4-0.3,0.9-0.5,1.4-0.5c1.2,0.2,2.3,0.7,3.2,1.4c0.2,0.1,0.4,0.2,0.5,0.4
			c0.2,0.1,0.4,0.2,0.6,0.4c0.8,0.3,1.4,0.9,1.8,1.6c0.6,0.3,1.2,0.8,2,1.3l0.1-0.2c0.6-2.1,2.1-5.7,4.8-6.9c0.5-0.2,1-0.3,1.5-0.3
			c0.9,0,1.8,0.4,2.4,1.2c0.7,0.9,0.8,2.1,0.5,3.2c-0.6,2.6-1.3,5.1-2.2,7.5c8.9,5.4,18.6,9.3,28.8,11.4l0.3,0.1
			c0.4,0.1,0.7,0.1,1.1,0.2l0,0c2.1,0.3,4.2,0.9,6.1,1.8c1.8,1.1,3.4,2.5,4.7,4.2c1.2,1.7,2.2,3.6,3,5.6c0.5,0.1,1,0.6,1.1,1.1
			l1,4.3c0.3,1.4,0.7,2.8,1,4.3c0.1,0.5,0,0.9-0.2,1.3c-0.2,0.3-0.5,0.5-0.9,0.6c-6,1.2-12,2.2-17.9,3.1c-3.6,0.3-7.3,0.8-11.2,1.3
			c-7.5,1-15.2,2-22.7,2c-8.4,0-15.1-1.3-20.6-4c-0.8,1.7-2.4,3-4.2,3.4c-1.9,0.5-3.9,0.7-5.9,0.6h-0.8h-0.8c-0.9,0-1.8,0-2.6,0.1
			c-0.3,0-0.7,0-1.3,0c-0.9,0-2.1,0-3.4,0l-0.7,0c-1.7,0-3.5,0-5.3,0c-7.4,0-11.3-0.4-12.1-1.3c-0.1-0.1-0.2-0.2-0.1-0.4l-0.1-0.4
			c-0.9-3.6-1.6-8.1,1.6-10.4c-0.2-4.2-0.4-8-0.4-11.6c-0.7-2.8-1.1-5.8-1.1-8.7c0-0.9-0.1-1.9-0.1-2.8c0-0.7,0-1.3-0.1-2.1
			c-0.1-2.3-0.2-4.7,1-6.6c0.1-1.1,1.6-1.1,3-1.1c0.7,0,1.4-0.1,2.1-0.3l-0.1-0.4c-0.8-3.1-1.9-6.1-3.3-9c-1.4-2.9-3.3-5.5-5.6-7.8
			c-2.5,0.2-5,0.2-7.4,0.2c-1.7,0-3.4,0-5.1-0.1h-0.1c-6.1,0-9.1-2.5-10.5-8.7c-0.9-3.3-1.9-6.7-2.9-10.5c-2.4-8.8-4.7-17.9-7-26.6
			v0c-4.8-18.5-9.8-37.7-15.4-56.3c-3.2-9.2-6.7-18.6-10.1-27.3c-1.6-4.1-3.2-8.2-4.8-12.4l-2.3-6c-1.1-2.9-2.4-6.2-3.5-9.5
			c-0.3-0.9-0.6-1.9-0.9-3c-8.5,23.6-14.9,49.3-19.4,78.6c-3.6,23.1-6.1,48-8.1,80.7c-0.1,0.9-0.1,1.8-0.2,2.7
			c-0.1,3.4-0.5,6.8-1.2,10.2c-0.1,0.9-0.9,1.5-1.7,1.5c-0.2,0-0.4,0-0.6-0.1c-1.7,0.8-3.5,1.2-5.4,1.1l0,0.7
			c0,5.3,0.6,10.6,1.7,15.8c0.2,1.1,0.6,2.1,0.9,3.2c0.3,1.1,0.7,2.2,0.9,3.2c1.9-0.6,3.8-1.1,5.8-1.3c0.1,0,0.1,0,0.2,0
			c0.8,0.1,1.4,0.8,1.4,1.6c0.4,0.4,0.8,0.8,1.1,1.2l0.2-0.2l0.3-0.3c1.7-2.3,3.9-5.1,6.8-5.3c0.1,0,0.1,0,0.2,0
			c1.3-0.1,2.5,0.8,2.8,2.1c0.3,3.9-3.5,7.9-4.7,9c7.7,6.4,17.7,10.8,29.6,13.1l0.4,0.1c0.4,0.1,0.9,0.1,1.3,0.2l0,0
			c3.4,0.4,6.7,1.2,9.9,2.3c3.2,1.1,5.8,3.5,7.3,6.5l0.1,0.2c0.5,1.2,1.6,4.2,0.2,5.9c0.1,1.3,0,2.7-0.1,4c-0.1,0.8-0.1,1.7-0.2,2.6
			c0,0.8-0.7,1.5-1.5,1.5c-5.8,0.3-12.4,1.3-19.5,2.3C184.2,609.6,174.2,611.1,164.7,611.1z M137.3,602.2L137.3,602.2
			c1.1,0,2.2,0.1,3.4,0.1c5.4,3.9,13.2,5.8,23.7,5.8c9.4,0,19.8-1.5,29-2.8c6.8-1,13.2-1.9,18.5-2.1l0.2-3.3
			c-0.2,0.1-0.4,0.2-0.6,0.2c0.1-0.2,0.1-0.5-0.1-0.7c-0.1-0.2-0.3-0.3-0.5-0.3c-0.1,0-0.2,0-0.2,0c-1,0.3-2.1,0.6-3.2,0.8
			c-0.1,0-0.1,0-0.2,0h-0.1c-8.5,0.7-17.1,0.7-25.4,0.8h-0.2l-2.8,0c-4.4,0-8.9,0.1-13.2,0.2h0c-4.7,0.1-9.5,0.2-14.2,0.2h-0.9
			c-3.9,0-7.8-0.1-11.5-0.2c-5-0.9-10.1-2-15.1-3h0c-5.9-1.2-11.9-2.4-17.8-3.4c-0.4,0.2-0.8,0.4-1.3,0.5c-0.6,0.2-1.2,0.4-1.7,0.8
			c-0.6,3.5-0.6,7.1,0.2,10.5c7.7,0.1,15.6,0.4,23.1,0.7c3.1,0.1,6.3,0.2,9.4,0.4c0.2-0.6,0.3-1.2,0.5-1.8c0.3-1.1,0.6-2.2,0.8-3.2
			L137.3,602.2L137.3,602.2L137.3,602.2z M288.8,576.9c-10.7,0-19.3,0.3-27.2,0.9c-1.2,1.8-1.3,4.1-0.3,7.1
			c6.2,0.2,11.2,0.3,15.8,0.3h0c3.7,0,7.1-0.1,10.4-0.2l0.7,0c1.1,0,2.2-0.2,3.2-0.5c0.8-0.3,2-1.2,1.8-2.3l0-0.1
			c-0.1-0.5,0.1-1.1,0.4-1.5c0.3-0.3,0.7-0.6,1.1-0.6c0.3,0,0.6,0.1,0.8,0.3c5,3.3,11.1,4.8,19.2,4.8c4.6-0.1,9.3-0.4,13.9-0.9h0
			c3-0.3,5.7-0.6,8.5-0.7c9.5-1,19.2-2.5,28.9-4.3c-0.4-1.7-0.7-3.2-1.1-5c-0.4,0.3-0.9,0.4-1.4,0.4h0l-0.3,0l-0.1,0
			c-0.5,0.1-1.2,0.2-1.8,0.2c-1.3,0.6-2.8,0.9-4.2,0.9c-0.6,0-1.2,0.1-1.6,0.2c-10.5,1-21.1,1.4-31.6,1.3c-5.8,0-11.7-0.1-17.5-0.2
			h-0.1C300.5,577,294.6,576.9,288.8,576.9z M112.8,539.3L112.8,539.3c1.6,8.5,2.4,17.1,2.4,25.7c0.4,0.5,0.5,1.1,0.3,1.7l0.1,0.4
			c0.3,0.9,0.5,1.8,0.7,2.7c3,1.9,6.5,2.9,10,2.9c6,0,11.5-2.8,17.3-5.7c1.5-0.8,3.1-1.6,4.7-2.3c-1.8-4.6-2.3-9.6-2.6-14.4
			c-0.2-3.7,0.2-7.5,1.1-11.1c-1,0.1-2,0.2-3,0.3c-3.5,0.3-7.3,0.5-12.1,0.7l-1.9,0.1c-2.1,0.1-4.2,0.1-6.3,0.1c-1.8,0-3.5,0-5-0.1
			C116.6,540,114.7,539.7,112.8,539.3L112.8,539.3z M168,561.4L168,561.4c-0.5,0.1-0.9,0.3-1.3,0.6c-1.6,1.2-3,2.5-4.3,4
			c0.5,0.5,1,1,1.5,1.4C165.8,565.9,167.3,563.8,168,561.4L168,561.4z M292,517.4l-1.6,0.5c-9.4,3.2-19.5,6.3-30.1,7.2
			c0.6,0.6,1,1.2,1.4,1.9c0.3,0.3,0.7,0.7,0.6,1.2c0.3,0.6,0.6,1.3,0.9,1.9l0,0.1c0.5,1.3,1.1,2.5,1.6,3.7v0c1.1,2.6,2.3,5.3,3.3,8
			c0.2,0.6,0.4,1.1,0.6,1.7c0.5,1.3,1.1,2.8,0.6,3.9c3.8,1.6,8,2.5,12.1,2.5c3.9,0,7.7-0.7,11.3-2.2c3.6-1.4,6.9-3.6,9.6-6.4
			l-0.3-0.4c-2.5-3.6-4.6-7.3-6.5-11.3C293.9,525.9,292.6,521.7,292,517.4L292,517.4z M321.5,537.5c-0.7,0-1.5,1.1-1.8,1.5l0,0
			c-1.1,1.4-1.9,3-2.4,4.7c0.6,0.4,1.2,0.8,1.8,1.2h0l0.3,0.2l0-0.1c0.6-1,3.1-6.7,2.4-7.5C321.7,537.5,321.6,537.5,321.5,537.5
			L321.5,537.5z M112.5,537.5L112.5,537.5L112.5,537.5c0.7,0.2,1.2,0.2,1.8,0.3c1.3,0.1,2.7,0.2,4.4,0.3
			C116.6,537.8,114.5,537.6,112.5,537.5L112.5,537.5z M111.1,532.8c0,0,0.1,0.1,0.1,0.2c7,1.8,14.3,2.6,21.5,2.5
			c2.9,0,5.9-0.1,9.2-0.3c1.2-0.1,2.5-0.2,3.7-0.3h0c0.7,0,1.4-0.1,2-0.1c1.5-0.6,3.1-1.1,4.7-1.3c1.9-29.1,3.9-53.4,7.2-77.7
			c3.9-28.6,9.4-53.5,16.7-76.1c3.4-10.4,7.1-20.8,10.6-30.9c7.3-20.6,14.8-42,19.9-63.7c0.1-0.3,0.4-0.5,0.7-0.5
			c0.2,0,0.5,0.1,0.6,0.3c0.1,0.2,0.2,0.4,0.1,0.6l-0.2,1.2c-0.2,1.3-0.5,2.7-0.7,3.9v0c-1.5,8.8-3.5,17.6-5.9,26.2c0.9-1,2-2,2.9-3
			c1.4-1.3,2.8-2.8,4-4.2c0.7-0.8,1.3-1.7,1.8-2.6c0.4-1.1,1.4-2,2.5-2.3c0.1,0,0.2-0.1,0.3-0.1c0.5,0.1,0.8,0.4,1,0.8
			c0.5,1.1,0.3,2.5-0.5,3.4l-0.2,0.3c-2.3,3.4-5.5,5.8-8.7,8.2c-1.5,1.1-3.1,2.3-4.5,3.5c-3.2,10.8-7,21.7-10.6,32.2
			c-0.5,1.5-1.1,3.1-1.6,4.6c0,2.4,0.4,4.8,1.1,7.1c0.1,0.4,0.3,0.9,0.4,1.3c0.6,2,1.4,4,2.4,5.9c3.4,7.1,6.6,14.6,9.7,22.7
			c2.8,7.2,5.4,14.8,8,23.3c4.9,15.7,9.2,31.8,13.3,47.5v0c1.8,6.7,3.6,13.7,5.5,20.5c3.1,11.5,5.7,21.1,8.6,30.7l0,0.2
			c0.2,1.2,0.7,2.2,1.5,3.1c1,0.7,2.2,1.1,3.4,0.9h0c1.7,0.1,3.5,0.1,5.2,0.1c7.1,0,14.2-0.7,21.1-2c6.9-1.3,13.7-3.5,20.1-6.3
			c-3.8-10.1-7.2-20.7-10.2-32.2c-2.7-10.2-5.2-21-7.5-32.9c-2-9.9-3.8-20.2-5.4-31.6c-1.8-11.9-3.5-24.1-5.1-35.8
			c-0.2-1.6-0.4-3.2-0.6-4.8c-1.7-11.7-2.6-23.6-3.4-35.2c-1.1-14.6-2.3-29.7-4.9-44.4h-0.1c-0.9,0-1.7-0.5-2.1-1.3
			c-0.4-0.6-0.3-1.4,0.1-2c-0.3-1.5-0.1-3,0.5-4.3l-0.1-0.3c-2.5,2.2-5.3,3.5-7.3,3.5c-0.9,0.1-1.8-0.3-2.3-1.1
			c-0.8-1.2-0.7-3.5,0.5-6.4l0.3-0.6c0.3-0.7,0.6-1.4,0.8-2.1c2.7-6.5,5.4-13.2,4-20.1c-4.4,2.3-9.1,4-13.9,5
			c-4.9,1-9.8,1.5-14.8,1.5c-8.4-0.1-16.7-1.1-24.9-3c0.6,1.6,0.4,3.4-0.6,4.8c-0.6,0.8-1.5,1.2-2.5,1.2c-1.3-0.1-2.4-0.6-3.4-1.4
			c-0.7-0.6-1.5-1.2-2.2-1.9c0.5,2.1,0.7,4.2,0.5,6.3c-0.2,2.1-0.5,4.2-1,6.3l-0.1,0.5l-0.1,0.4v0c-0.5,2.4-1,5.5-2.8,7.1
			c-0.5,0.4-1.1,0.7-1.7,0.7c-1.1,0-2-0.7-2.4-1.7c-0.3-5.9-2-11.7-5-16.8c0.5,3.7,0.3,7.5-0.5,11.2c-0.1,0.3-0.2,0.7-0.3,1
			c-0.3,1-0.6,2.1-0.7,3.1l0,0.2c0.1,1.3,0.1,3-0.8,3.9c-0.7,0.6-1.6,1-2.5,0.9c-1-0.2-1.9-0.7-2.5-1.4c-0.7-0.9-1.1-1.8-1.4-2.9
			c-0.6-2.7-0.9-5.5-1-8.3c-0.3-4.6-0.5-9.3-2.6-11.7c-0.4,1.9-0.6,3.9-0.7,5.9c-0.4,5.3-0.9,10.8-5.6,14c-0.5,0.3-1.2,0.5-1.8,0.5
			c-1.3,0-2.4-1-2.6-2.2l0.1-1.7c0.4-5,0.6-8.6-0.2-11.9c-0.7-3.2-2.4-6.4-5.9-11.5c-2.1,0.5-4.2,0.7-6.3,0.7
			c-2.6,0-5.3-0.3-7.7-0.5l-0.5,0l-0.6-0.1c-0.9-0.1-1.8-0.2-2.7-0.3c-4.7-0.7-9.5-1.1-14.3-1.2c-2.4,0-4.8,0.2-7.2,0.5
			c0.8,4.1,1.2,8.2,1.3,12.4v0c0.1,1.1,0.1,2.3,0.2,3.4c0.4,12.9,1.2,26.1,1.9,38.8c1,18.7,2.1,38.1,2.3,57.1
			c0.1,10.2-0.1,19.6-0.6,28.5c-0.5,10-1.4,19.4-2.6,28.5l-0.2,1.5c-0.3,1.8-0.5,3.6-0.8,5.4v0c-1.1,8-2.3,16.3-3.1,24.5
			c-0.8,8.2-1,16.4-0.5,24.6c0.9,16.6,4.4,33.2,7.7,49.3l0,0.1c0.6,0.2,1.5,0.4,2.4,0.6C111,532.9,111,532.8,111.1,532.8
			L111.1,532.8z M260.1,528.1L260.1,528.1c0,0,0,0.1,0,0.1c0.1,0.1,0.2,0.2,0.2,0.2l0.1,0.1l-0.1-0.3
			C260.3,528.2,260.2,528.2,260.1,528.1L260.1,528.1L260.1,528.1z M254,294.8l-0.3,0.3l-0.2,0.1c0.2,1.1,0.5,2.2,0.8,3.6l0-0.8
			c0-0.2,0-0.5,0-0.7C254.3,296.4,254.2,295.6,254,294.8L254,294.8z M257.6,267.6c0.3,0,0.6,0.1,0.8,0.3c1,1.1,1,2.4,0.8,3.9
			c-0.3,2.5-1,4.9-2,7.1c-1,2.2-2.4,4.3-4.2,6.1c-0.1,1.2-0.4,2.3-0.7,3.5c-0.1,0.5-0.3,1.1-0.4,1.7l0,0v0c0.1,0.4,0.3,0.7,0.4,1.1
			c2.3-2,4.3-4.5,5.8-7.2c6.4-11.2,4.7-24,2.9-36.4c-0.1-0.7-0.2-1.4-0.3-2.1c-0.3,0.7-1,1.2-1.7,1.1c-0.1,0-0.2,0-0.2,0
			c-0.1,0.4-0.4,0.6-0.6,0.6c-0.5,0-1-0.6-1-1.6c-0.5-11.7-1.7-23.4-3.7-35c-1.2-6.9-2.6-14.4-4.5-23.1c-0.6-2.7-1.2-5.2-1.8-7
			c-0.5-1.7-0.9-2.7-1.1-2.7c0,0,0,0-0.1,0c-0.3,0.4,0.2,4,1.3,9.9l0.3,1.7c1.4,7.5,2.7,15,3.8,22.3l0.3,1.7
			c0.1,0.7,0.2,1.4,0.3,2.1c1.3,8.2,3,19.4,3.2,28.4c0.1,4.7-0.9,8.5-2.8,11.4c-1.2,1.8-2.9,3.3-4.7,4.4l0,0l-0.2,0.1
			c-0.2,0.9-0.2,1.9,0.3,2.8c0.1,0.2,0.1,0.4,0.2,0.6c0.5,1.9,0.6,3.8,0.5,5.7c-0.3,4.1-1.8,8-3.2,11.8c-0.9,2.3-1.7,4.7-2.4,7.1
			c2.1-0.6,4.5-2.5,6.2-3.9c1.6-1.3,3-2.9,4.1-4.6c1.1-1.8,1.9-3.7,2.4-5.7c0.1-0.7,0.2-1.3,0.3-2c0-1.4,0.4-2.7,1.1-3.8
			C257,267.7,257.3,267.6,257.6,267.6L257.6,267.6z M158.2,262.1c0.3,0,0.6,0.1,0.8,0.4c3.3,3.5,4.1,8.2,4.6,12.7l0,0.2
			c0.1,1.2,0.2,2.4,0.3,3.5v0c0,2.4,0.4,4.8,1,7.1l0,0.1c0.1,0.4,0.6,1.6,1.1,1.8c0.1,0,0.2,0.1,0.3,0.1c0.1,0,0.3,0,0.3-0.1
			c0.3-0.3,0.2-1.1,0.2-1.7c0-0.2,0-0.4,0-0.7c0.1-1.3,0.4-2.7,0.8-3.9c0.3-1,0.5-1.9,0.7-2.9c0.7-5,0.1-10.2-1.7-14.9
			c-0.1-0.3-0.1-0.7,0.1-1c0.3-0.3,0.7-0.5,1.1-0.5c0.5,0,0.9,0.2,1.2,0.5c3.3,4.3,5.9,9.2,7.7,14.3c0.5,1.6,0.9,3.3,1.3,5
			c0.1,0.5,0.2,0.9,0.3,1.4c1.5-4.3,2.1-8.8,1.7-13.4c-0.5-4.5-2.4-8.8-5.5-12.2c-0.5-0.6-0.6-1.4-0.3-2.2c0.3-0.7,1-1.2,1.7-1.2
			c0.5,0,1,0.2,1.3,0.6l0.7,0.9l0,0c1.5,1.8,3,3.6,4.6,5.2c0.5,0.5,0.9,1,1.4,1.5c1.3,1.6,2.9,3,4.6,4.1c-0.3-5.8-4.7-9.5-8.9-13
			c-2-1.6-3.8-3.3-5.5-5.1c-4.1-4.9-6.7-10.8-9.2-16.5l0,0c-0.5-1.2-1-2.4-1.6-3.6c-1.1,3.2-3.2,6-5.9,8c-2.8,2-5.9,3.8-9,5.3
			c-3.3,1.5-6.5,3.4-9.4,5.6c1.4,3.3,3,6.4,4.8,9.4c2.3,3.8,4.3,7.7,5.8,11.9c1.6,4.2,1.9,8.7,0.9,13.1l0,0.1l0,0.1
			c-0.1,0.6-0.4,1.8,0,2.1c0,0,0,0,0.1,0c0.3,0,1.5-1.2,1.7-1.4c1.3-1.5,2.1-3.4,2.5-5.3c0.4-1.9,0.6-3.9,0.6-5.9
			c0-2.9,0.5-5.7,1.4-8.5C157.1,262.6,157.6,262.2,158.2,262.1L158.2,262.1z M119.5,156.8c-0.7,2.1-1.5,4.2-2.2,6.3
			c-1.1,3.2-2.3,6.5-3.3,9.9c-0.2,1.5,0,3,0.6,4.3c0.8,1.3,1.7,2.4,2.9,3.3c1-5.6,1.5-11.3,2-16.8v0c0.1-1.1,0.2-2.3,0.3-3.5
			c0-0.3,0-0.6-0.1-0.9C119.7,158.5,119.6,157.6,119.5,156.8z M228.9,86.4L228.9,86.4L228.9,86.4l0.7,4.5c2.5,16.7,5.1,33,8.6,49
			c0,0.2,0.1,0.3,0.3,0.3c0.1,0,0.3-0.1,0.4-0.2c0.4-0.6,0.6-1.4,0.5-2.1c-1.1-9.3-3.9-22.7-6-32.4C231,95,229,86.5,228.9,86.4z
			 M207.9,50.5c0.1,0.2,0.3,0.4,0.5,0.6c0-0.2-0.1-0.4-0.1-0.5C208.1,50.5,208,50.5,207.9,50.5z"/>
	</g>
	<g id="Head_1_" transform="translate(99.946 0.662)">
		<g id="HEAD-2_1_">
			<path id="_Background-2_1_" class="st1" d="M161.9,45.7c-27.3-1-53.5,17.3-62.2,43.2c-0.4,1.6,0.6,3.2,2.1,3.5
				c0.4,0.1,0.8,0.1,1.2,0c-2.1,10.3,2.4,24.2,14.1,25.7c2.4,0.3,4.8,0.1,7.2,0.3c2.1,0.2,13.8,6.7,18.1,8.3
				c9.2,3.2,32.2,2.6,41.4,0c0.3,0.8,7.5-28.4,9.1-37.4c0.6-3.9-4.8-6.8-4.4-10.9c0.5-5.2,6.6-11.5,4.7-16.4
				C188.4,49.5,174.1,46,161.9,45.7z"/>
			<path id="_Ink-2_1_" class="st4" d="M180.7,139.5c-1.7,0-3.3-0.2-4.9-0.6l-0.3-0.1c-1.4-0.3-2.7-0.9-3.9-1.7
				c-1.2-0.4-2.2-1.1-3.1-2c-1-1.2-2-3-1.7-4.4c-1.2,0.1-2.5,0.1-4,0.1h-0.2c-3.5,0.1-7-0.4-10.3-1.3c-4.1-1.2-6.8-2.9-8.2-5.1
				c0-0.1,0-0.1,0-0.2c0-0.1,0.1-0.1,0.2-0.1c0,0,0,0,0,0c0.5,0.2,1.1,0.4,1.6,0.6c0.9,0.4,1.7,0.7,2.6,0.9c1.4,0.4,2.9,0.7,4.4,0.9
				c1.6,0.2,3.2,0.2,4.8,0.2c1.2,0,2.5,0,4-0.1l1-0.1c3.2,0,6.3-0.5,9.3-1.6c1.1-0.5,2.2-1.1,3.2-1.9l0.2-0.1c0.5-0.4,1-0.8,1.6-1.1
				l0.1-0.1l0,0c0.1-0.1,0.1-0.1,0.2-0.2c0.4-0.5,0.7-0.9,1.1-1.4c0.9-1.1,1.8-2.2,2.6-3.4c2.1-3.2,3.2-6.9,3.2-10.8
				c0.1-3.1,0.1-6.3,0.2-9.4c0-1,0-2.1,0-3.2l0-1.4c0-0.6,0-1.3,0-1.9v0c0-4.1,0.1-8.3,0.4-12.5c0.2-2.5,0.4-4.6,0.8-6.6l0.1-0.5
				l0.6-3.4c0.1-0.3,0.1-0.6,0.1-0.9c0.1-0.5,0.2-1,0.3-1.5c-0.2-0.3-0.5-0.7-0.7-1c-0.3-0.3-0.5-0.5-0.8-0.8l-0.2-0.2
				c-0.4-0.4-0.8-0.8-1.1-1.3l-0.1-0.1c-0.4-0.4-0.7-0.9-1-1.4l-0.1-0.1l-0.1-0.1c-0.1-0.1-0.1-0.2-0.2-0.2
				c-0.2-0.3-0.5-0.6-0.8-0.8c-0.9,1.9-2.4,3.4-4.2,4.4c-0.2,0.1-0.4,0.1-0.6,0.1c-0.5,0-1-0.3-1.1-0.9c-0.6-1.9-1.4-3.7-2.6-5.3
				c-1.9,3.2-4.9,5.6-8.5,6.8c-0.1,0-0.2,0.1-0.3,0.1c-0.3,0-0.7-0.2-0.9-0.5c-0.2-0.3-0.3-0.7-0.2-1.1c0.6-2.5,0.8-5.1,0.4-7.7
				c-1.4,1-2.8,1.9-4.1,2.7c-3.1,2.5-6.5,4.6-10.2,6.2c-0.6,0.2-1.2,0.1-1.6-0.4c-0.2-0.3-0.2-0.6-0.1-0.9c0.3-0.9,0.6-1.9,0.8-2.8
				l0-0.2v0c-2.5,3.5-7.7,9-18,15.9c-6.4,4.3-12,7.2-12.8,7.2h0c1,1,1.8,2.1,2.3,3.5c0.1,0.3,0.1,0.7-0.1,0.9
				c-0.2,0.3-0.6,0.5-1,0.5c-0.5,0-1-0.3-1.2-0.8l0,0c-1-2.3-3-3.9-5.5-4.3c-1.4,0.2-2.8,0.9-3.8,2c-1.7,1.9-2,4.8-0.6,7l0.2,0.3
				l0.2,0.3c0.7,1.1,1.2,2.4,1.6,3.6c0.2,0.9,0.3,1.9,0.3,2.8c0,0.8,0,1.5,0.1,2.3l0,0.1c0.2,1,0.5,1.4,1.1,1.4c0.1,0,0.2,0,0.3,0
				c0.1,0,0.1,0,0.2-0.1c0.2,0.2,0.4,0.3,0.7,0.4c0.3,0.1,0.6,0.1,0.9,0.1c0.4,0,0.9-0.1,1.3-0.2c0.7-0.2,1.3-0.4,2-0.7
				c0.1,0.2,0.1,0.3,0.1,0.5c0,0.8-0.3,1.6-0.9,2.2c0.5,0.6,1,1.3,1.4,2c0.3,0.5,0.7,1,1.1,1.5c1.4,1.9,2.7,3.4,3.9,4.9
				c1.4,1.6,2.9,3.2,4.5,4.6c0.3,0.3,0.7,0.6,1.1,0.9c1.1,0.7,1.9,1.6,2.6,2.7c0.9,0.3,1.5,1,1.7,1.9c0.5,2.6,0.6,5.3,0.2,8
				c-0.5,1.7-1.6,3.1-3.2,4c-0.2,0.1-0.4,0.2-0.7,0.2c-0.2,0-0.4-0.1-0.6-0.2c-0.3,0.3-0.7,0.6-1.1,0.9c-1.6,0.9-3.4,1.4-5.3,1.5
				c-1.6,0.5-3.3,0.8-4.9,0.8c-1,0-1.9-0.1-2.9-0.3c-0.9,0.1-1.8,0.2-2.6,0.3c-2.4,0.2-4.8,0.3-7.2,0.3c-6.5,0-13-0.8-19.3-2.3
				c-4-1-7.8-2.7-11.2-5c-1.6-1.1-2.9-2.5-3.8-4.1c-1.1-1.9-1.9-3.9-2.3-6.1c-1-5-0.6-10.2,1-15.1l0.3-0.8c1.5-4.7,3.3-9.3,5.6-13.7
				l0.3-0.5c2-4.1,4.5-7.8,7.4-11.2c1.5-1.7,3.3-3.1,5.3-4.2c0.6-0.3,1.3-0.6,2-0.8h0c0.2-0.1,0.4-0.1,0.5-0.2l0-0.2l0-0.2
				c0.1-0.7,0.1-1.4,0.2-2.1c0.3-2.6,0.9-5.1,1.5-7.7c0.7-2.5,1.6-5,2.6-7.4c1.8-4,3.9-7.8,6.4-11.4c0.2-0.4,0.4-0.8,0.6-1.1
				c2.1-4.2,4.9-8,8.4-11.2c4.1-3.4,8.9-5.8,14.1-7.2c5.3-1.6,10.8-2.6,16.4-3c1.4-0.1,2.8-0.1,4.1-0.1c1.6,0,3.1,0.1,4.6,0.2
				c1.2,0.1,2.5,0.3,3.7,0.5c0.9-0.2,1.9-0.2,2.9-0.2c2.8,0,5.6,0.5,8.2,1.5c4.2,1.4,8.3,3.2,12.1,5.5c3.8,2.3,7.4,5,10.6,8.1
				c3.3,3.1,5.9,6.9,7.5,11.1c0.8,2.2,1.3,4.4,1.4,6.8l0,0.3c0.1,0.9,0,1.7,0,2.6c0.3,1.8,0.5,3.7,0.6,5.5c0,0.9,0,1.7-0.2,2.6
				l0,0.1c-0.1,1-0.3,2-0.5,3l-0.1,0.1c0,0.1,0,0.3-0.1,0.4l0,0.2c-0.1,0.6-0.2,1.1-0.4,1.5c-0.3,1.1-0.6,2.2-0.9,3.3
				c-0.1,0.2,0,0.3,0.1,0.4c-0.2,0.9-0.5,1.7-0.8,2.5c0.1,0.7,0.3,1.4,0.4,2.2c0.3,1.3,0.5,2.6,0.8,3.9v0c0.5,2.4,1,4.9,1.5,7.3
				c0.6,2.4,1.2,4.8,1.9,7.2c1.6,5.1,2.7,10.2,3.4,15.5c0.7,6.9-0.8,13.1-4.1,17.4c-3.3,4.1-8,6.8-13.3,7.4
				C182.4,139.5,181.6,139.5,180.7,139.5z M115.7,94c-0.6,0-1.2-0.4-1.3-1.1c-0.2-0.9-0.8-1.7-1.6-2.3c-0.8-0.6-1.7-0.9-2.7-0.9
				c-0.2,0-0.4,0-0.6,0h0c-0.1,0-0.1,0-0.1-0.1c0-0.1,0-0.1,0.1-0.1c0.8-0.5,1.8-0.8,2.7-0.8c2.1,0,4,1.2,4.9,3.1
				c0.3,0.5,0.2,1,0,1.5C116.8,93.7,116.3,94,115.7,94z"/>
		</g>
		<g id="FACE_1_" transform="translate(74.761 46.084)">
			<path id="_Ink-3_1_" class="st4" d="M93.5,65.1c-1.8,0-3.5-0.8-4.7-2.2c-0.9-1-1.3-2.3-1.2-3.6c0-0.4,0.4-0.6,0.7-0.6
				c0.3,0,0.6,0.1,0.8,0.4l0.1,0.2c1.6,2.2,2.8,2.5,3.7,2.5c1,0,1.9-0.5,2.5-1.3c0.3-0.4,0.5-0.9,0.6-1.3c0.1-0.4,0.2-0.8,0.4-1.1
				c0.4-0.6,1-1,1.7-0.9c0.9,0,1.7,0.6,1.9,1.4c0.2,1.3-0.1,2.7-1,3.7c-1.3,1.7-3.3,2.7-5.4,2.9L93.5,65.1z M95.2,52.4L95.2,52.4
				c-1.9-0.1-3.9-0.5-5.6-1.3c-0.6-0.2-1-0.9-0.9-1.6c0.1-0.6,0.7-1.1,1.3-1.1c0.2,0,0.4,0,0.5,0.1l0.3,0.1c1.5,0.7,3.1,1.1,4.7,1.3
				c1,0.1,2-0.4,2.5-1.3c0.3-0.7,0.3-1.4,0-2.1c-0.7-1.4-2.7-2.5-4.4-3c-0.3-0.1-0.4-0.4-0.4-0.7c0.1-0.4,0.5-0.7,0.9-0.6h0.2
				c1.7,0,3.3,0.5,4.5,1.6c1,0.9,1.7,2.1,1.8,3.5c0.2,1.2-0.2,2.5-1.1,3.4C98.5,51.9,96.9,52.5,95.2,52.4L95.2,52.4z M68.9,42.1
				c-0.2,0-0.4-0.2-0.5-0.4c-0.1-0.2,0-0.4,0.1-0.5c2.1-1.7,4.5-2.9,7-3.7c-0.4-0.6-0.5-1.3-0.2-2c0-0.1,0.1-0.3,0.1-0.4l0.1-0.3
				c0-0.1,0-0.2,0.1-0.4l0,0c0.2-0.6,0.7-1.1,1.3-1.3c0.2,0,0.3-0.1,0.5-0.1c0.3,0,0.5,0.1,0.7,0.2c0.8,0.2,1.5,0.8,1.7,1.6
				c0,0.1,0,0.1,0.1,0.2l0,0.1l-0.1-0.2c0,0.1,0.1,0.3,0.2,0.4c0.1,0.1,0.1,0.2,0.2,0.3c0.1,0.3,0.1,0.7,0.1,1c0.3,0,0.6,0,0.8,0
				l0.3,0c1.4,0.1,3,0.4,3.8,1.6c0.2,0.4,0.3,0.9,0.1,1.3c-0.1,0.4-0.5,0.7-0.9,0.8c-0.2,0-0.3,0-0.5,0c-0.6,0-1.2-0.2-1.8-0.4
				c-0.5-0.2-1-0.3-1.5-0.4c-0.4,0-0.8-0.1-1.3-0.1c-0.8,0-1.7,0.1-2.5,0.2c-1.5,0.3-3,0.7-4.4,1.2c-1,0.3-2,0.6-3,0.9L69,42.1
				C69,42.1,69,42.1,68.9,42.1z M108.4,40.1c-0.4,0-0.7-0.2-0.9-0.6l0,0c-0.3-0.7-1.1-1-2.4-1c-0.4,0-0.8,0-1.2,0.1
				c-0.7,0.1-1.5,0.3-2.2,0.5c-0.3,0.1-0.5,0.2-0.8,0.2l-0.3,0.1c-0.1,0-0.6,0.3-0.5,0.3c0,0,0,0,0,0c0,0,0.1,0,0.1,0h0
				c0.1,0,0.1,0,0.1,0.1c0,0,0,0.1-0.1,0.1c-0.1,0-0.2,0.1-0.3,0.1c-0.2,0-0.4-0.1-0.5-0.2c-0.2-0.2-0.2-0.4-0.2-0.6
				c0.1-0.9,1.2-1.4,2-1.7c0.1,0,0.2-0.1,0.3-0.1l0,0c0.3-0.1,0.6-0.3,0.9-0.4c-0.2-0.3-0.3-0.5-0.4-0.8c-0.1-0.3-0.2-0.6-0.2-0.9
				c0-0.1,0-0.3,0-0.5l0,0c0-0.1,0-0.2,0-0.3v0c0-0.4,0.2-0.7,0.4-1c0.2-0.2,0.6-0.4,0.9-0.4c0.4,0,0.7,0.1,1,0.3l0.1,0.1
				c0.5,0.3,1,0.7,1.3,1.2c0.3,0.5,0.5,1,0.5,1.6c1.3-0.1,2.6,0.5,3.5,1.5c0.3,0.3,0.5,0.9,0.4,1.3l-0.1,0.3
				C109.6,39.7,109,40.1,108.4,40.1L108.4,40.1z M67.7,33c-0.2,0-0.5-0.2-0.5-0.4c-0.3-0.9,0-2,0.9-3.5c0.7-1.2,1.8-2.2,2.9-2.9
				c1.3-0.7,2.7-1.3,4.1-1.7l0.4-0.1c0.3-0.1,0.5-0.2,0.8-0.2c0.8-0.3,1.7-0.5,2.5-0.5c0.8,0,1.5,0.3,2,0.8c0.6,0.6,0.8,1.7,0.3,2.4
				c-0.9,1.3-2.1,1.4-3.5,1.5c-0.3,0-0.6,0-0.8,0c-1.3,0.1-2.6,0.5-3.8,1c-1,0.4-1.9,0.9-2.8,1.5c-0.4,0.3-0.7,0.6-1.1,1
				c-0.4,0.4-0.8,0.8-1.2,1.1C67.9,33,67.8,33,67.7,33z M108.3,30.5c-0.7,0-1.3-0.4-1.7-0.9l0,0c-1-1.3-2.3-2.4-3.8-3.1
				c-0.8-0.3-1.6-0.6-2.4-0.7l-0.3,0c-0.3-0.1-0.5-0.1-0.8-0.1c-0.1,0-0.2,0-0.3,0c-0.2,0-0.3,0.1-0.5,0.2c0,0.1,0,0.1,0,0.2
				c0,0.1-0.1,0.1-0.2,0.1c0,0-0.1,0-0.1,0c-0.3-0.1-0.5-0.4-0.5-0.7c0-0.4,0.2-0.8,0.5-1.1c0.7-0.6,2-1,3.9-1
				c1.6,0,3.1,0.4,4.5,1.2c1.4,0.8,2.5,1.8,3.4,3.1c0.3,0.4,0.3,0.9,0.2,1.3c-0.1,0.5-0.4,1-0.9,1.3
				C108.9,30.4,108.6,30.5,108.3,30.5z"/>
		</g>
	</g>
</g>
</svg>
