<?xml version="1.0" encoding="utf-8"?>
<!-- Generator: Adobe Illustrator 24.0.1, SVG Export Plug-In . SVG Version: 6.00 Build 0)  -->
<svg version="1.1" id="Warstwa_1" xmlns="http://www.w3.org/2000/svg" xmlns:xlink="http://www.w3.org/1999/xlink" x="0px" y="0px"
	 viewBox="0 0 23.5 24" style="enable-background:new 0 0 23.5 24;" xml:space="preserve">
<style type="text/css">
	.st0{fill:#FBBC1B;}
	.st1{fill:#FFFFFF;}
	.st2{fill:#010202;}
	.st3{fill:#18191F;}
	.st4{clip-path:url(#SVGID_2_);}
</style>
<g id="Group_14" transform="translate(-3 -2)">
	<path id="Combined_Shape-2" class="st3" d="M22.6,23.9c-0.6,0-1-0.4-1-1v-2c0-1.7-1.3-3-3-3h-8c-1.7,0-3,1.3-3,3v2c0,0.6-0.4,1-1,1
		s-1-0.4-1-1v-2c0-2.8,2.2-5,5-5h8c2.8,0,5,2.2,5,5v2C23.6,23.4,23.1,23.9,22.6,23.9z M14.6,13.9c-2.8,0-5-2.2-5-5s2.2-5,5-5
		s5,2.2,5,5C19.6,11.6,17.3,13.9,14.6,13.9z M14.6,5.9c-1.7,0-3,1.3-3,3s1.3,3,3,3s3-1.3,3-3S16.2,5.9,14.6,5.9z"/>
	<g>
		<defs>
			<path id="SVGID_1_" d="M22.6,23.9c-0.6,0-1-0.4-1-1v-2c0-1.7-1.3-3-3-3h-8c-1.7,0-3,1.3-3,3v2c0,0.6-0.4,1-1,1s-1-0.4-1-1v-2
				c0-2.8,2.2-5,5-5h8c2.8,0,5,2.2,5,5v2C23.6,23.4,23.1,23.9,22.6,23.9z M14.6,13.9c-2.8,0-5-2.2-5-5s2.2-5,5-5s5,2.2,5,5
				C19.6,11.6,17.3,13.9,14.6,13.9z M14.6,5.9c-1.7,0-3,1.3-3,3s1.3,3,3,3s3-1.3,3-3S16.2,5.9,14.6,5.9z"/>
		</defs>
		<clipPath id="SVGID_2_">
			<use xlink:href="#SVGID_1_"  style="overflow:visible;"/>
		</clipPath>
		<g id="Mask_Group_14" class="st4">
			<g id="COLOR_black">
				<rect id="Rectangle" x="2.6" y="1.9" class="st3" width="24" height="24"/>
			</g>
		</g>
	</g>
</g>
</svg>
