<?xml version="1.0" encoding="utf-8"?>
<!-- Generator: Adobe Illustrator 24.0.1, SVG Export Plug-In . SVG Version: 6.00 Build 0)  -->
<svg version="1.1" id="Warstwa_1" xmlns="http://www.w3.org/2000/svg" xmlns:xlink="http://www.w3.org/1999/xlink" x="0px" y="0px"
	 viewBox="0 0 375 596" style="enable-background:new 0 0 375 596;" xml:space="preserve">
<style type="text/css">
	.st0{fill:#FBBC1B;}
	.st1{fill:#FFFFFF;}
	.st2{fill:#010202;}
</style>
<rect id="bg" class="st0" width="375" height="596"/>
<g id="openpeeps_peep-standing-1" transform="translate(3 71)">
	<g id="peep-standing-6_copy" transform="translate(27.919 0.766)">
		<g id="BODY" transform="translate(0 65.389)">
			<path id="_Background" class="st1" d="M72.9,433.8c-8.4,0-14.7-1.6-19.2-4.8c-0.2,0.5-0.3,1.1-0.5,1.7c-0.2,0.9-0.5,1.7-0.8,2.5
				c-2.6-0.1-5.3-0.2-7.9-0.2h0c-5.8-0.2-11.8-0.4-17.7-0.7l-0.7-0.8l0,0l0,0c-0.1-0.6-0.2-1.3-0.2-1.9c-0.3-1.6-0.4-3.2-0.2-4.7
				c0.1-0.9,0.2-1.9,1-2.2l0,0c0-0.3,0.2-0.5,0.4-0.6l0.4-0.5l0,0c-0.5-2.2-0.4-4.5,0.2-6.7c0.6-2.2,1.4-4.4,2.4-6.4
				c0.4-2.3,1-4.6,1.7-6.8l0.4-0.1l0.1-0.5c0.1-0.1,0.3-0.1,0.4-0.1c0.3,0,0.7,0.1,1,0.2c0.2,0.1,0.4,0.1,0.6,0.1
				c0.1-4,0.1-8-0.2-12.1c-0.1-2.2-0.2-4.5-0.3-6.8c-0.3-0.5-0.7-1-0.9-1.5c-0.1,0.1-0.3,0.2-0.5,0.2c-0.4,0-0.7-0.2-1-0.4
				c-0.2,0-0.3,0.1-0.5,0.1c-1,0-1.7-1-2-1.9c-3.2-12.2-5.1-24.7-5.7-37.3c-0.3-6.4-0.3-12.9,0.1-19.3c0.4-6.2,1.2-12.3,2.5-18.4
				c1.2-8.5,2-17.1,2.5-26.4c0.5-8.3,0.7-16.9,0.6-26.3c-0.1-17.6-1-35.4-1.9-52.6v0c-0.4-7.1-0.8-14.5-1.1-21.7
				c-1.1,0-2.1-0.5-2.8-1.4c-1.7-2.1-1.1-6.2-0.7-8.7c0.3-3.2,0.5-6,0.6-8.5c-0.1-2.5,0.2-4.9,1-7.2c-1.8-1.4-3.7-2.7-5.6-4
				C12,142.5,5.3,138,2.8,130.4C1.9,125,1.4,119.5,1.3,114c-0.1-5.3,0-10.9,0.4-16.8C2.6,86.1,4.2,75,6.5,64.1
				c1.2-6.4,3-12.6,5.3-18.7c1.1-2.7,2.3-5.4,3.7-8c1.3-2.4,2.9-4.7,4.6-6.9c1.7-2.1,3.5-4,5.6-5.6c2.1-1.7,4.3-3.1,6.7-4.2
				c2.6-1.2,5.2-2.1,8-2.6c3.1-0.6,6.2-0.9,9.4-0.9c0.7,0,1.4,0,2.1,0l0.1,0.1c0.6,0.1,1.2,0.1,1.8,0.1c1.6,0,3.1-0.3,4.6-0.9
				c1.5-0.6,2.9-1.4,4.1-2.5c1.2-1,2.3-2.3,3.1-3.7C66.5,9,67,7.5,67.3,5.9c0.2-1,0.3-1.8,1-2.2c0-1.2,1-2.2,2.8-2.8
				c2-0.6,4.2-0.9,6.3-0.8c2.7,0,5.5,0.3,8.1,0.9c2.6,0.6,4.3,1.5,5,2.3c0.1,0,0.2,0,0.3,0c0.5,0,0.6,0.4,0.8,0.8
				c0,0.2,0.1,0.4,0.2,0.6C91.9,5.9,92.2,7,92.4,8l0.9,0c0.2,0.5,0.4,1,0.5,1.5c0.7,2,1.3,4,3.4,5.1c3,0,6.5,0.3,9.5,2
				c2.8,0.6,5.6,1.5,8.2,2.8c2.3,1.2,4.5,2.6,6.4,4.4c1.9,1.7,3.5,3.6,4.9,5.7c1.4,2.1,2.6,4.4,3.5,6.7c1.9,5,3.2,10.2,3.7,15.5
				c0.6,5.4,0.7,10.9,0.4,16.4c-0.3,6.7,0.3,13.3,1.6,19.9c1.2,6.7,3,13.5,4.7,20c2.4,9.2,4.9,18.8,5.9,28.1
				c0.5,4.6,0.6,9.3,0.2,13.9c-0.4,4.7-1.4,9.3-3,13.7c1.3,3.1,2.2,6.4,2.7,9.8c0.5,3.4,0.7,6.8,0.3,10.2
				c-0.8,7.3-3.7,13.3-8.5,17.2c0.7,1.2,1.2,2.5,1.3,3.9l0,0.1c1.8,9.8,2.7,20.4,3.5,29c0.3,2.9,0.5,5.9,0.8,8.7
				c3.6,40.7,7.3,82.7,24.5,120.7c0,0-0.4,0.2-0.7,0.2h0c-0.2,0.1-0.3,0.1-0.3,0.1c1,1.5,1.7,3,2.3,4.7c0.4,0.9,0.7,1.9,1.2,2.8
				c1.7,3.8,3.8,7.5,6.3,10.8c0.3-0.4,0.8-0.6,1.3-0.7c0.7,0.1,1.3,0.4,1.8,0.9c0.2,0.2,0.5,0.4,0.8,0.5c0.5,0.3,1.1,0.6,1.2,1.1
				c0.8,0.4,1.8,1.1,2.6,1.7v0c0.8,0.6,1.7,1.1,2.6,1.7l0.3,0.2c0.5-0.8,1-1.7,1.4-2.6c0,0,0.1,0,0.1,0c0.1,0,0.1,0,0.2,0
				c0.1,0,0.1,0,0.2,0c-0.2,0.5-0.3,0.9-0.5,1.4c-0.3,0.7-0.5,1.3-0.6,1.8c7.1,4.5,15,7.6,23.2,9.1c2.1,0.2,4.1,1,5.7,2.2
				c1.5,1.2,2.7,3.1,3.9,6.2c0,0,0.1,0,0.1,0c0.2,0,0.4,0.1,0.5,0.2c0.1,0.6,0.3,1.2,0.4,1.8c0.3,1.5,0.7,3.1,1,4.6
				c0,0.1,0,0.1,0,0.2c0,0.1-0.1,0.1-0.1,0.2c-7.5,1.6-14.6,2.4-21.4,3.3c-5.5,0.9-11,1.4-16.5,1.5c-6.7,0-11.9-1.1-15.8-3.2
				c-1,3.3-4.7,3.3-7.6,3.3h-0.6c-0.6,0-1.3,0-1.9,0h-0.3c-1.1,0-3,0-5.1,0c-6.9,0-10.6-0.2-10.8-0.6c-0.8-2.8-1.2-5.9,1.1-7.2
				c-0.1-1.9-0.2-3.8-0.2-5.6c0-1.3-0.1-2.5-0.1-3.6c-0.5-2-0.8-4.1-0.7-6.2c0-0.7,0-1.4-0.1-2.1c0-0.4,0-0.8,0-1.2v0
				c-0.1-1.8-0.1-3.6,0.7-5c0.5-0.1,0.9-0.1,1.4-0.1c0.9,0,1.8-0.2,2.6-0.6c-1.3-5-3.1-10.2-7.4-14.1c-2,0.1-3.9,0.2-5.8,0.2
				c-1.2,0-2.5,0-3.7-0.1h-0.1c-1.6,0.1-3.3-0.3-4.6-1.3c-1.2-1.2-2-2.7-2.3-4.4c-2.2-7.8-4.4-16.3-6.5-24.4l-0.1-0.4l-0.7-2.6
				c-3.4-13.9-6.6-25.3-9.8-35.7c-3.6-11.8-7.7-23.5-12.5-34.9c-0.2-0.6-0.5-1.3-0.7-1.9l0,0c-2-4.7-3.6-9.6-5-14.5
				c-3.5,9.5-6.5,19.3-9,29.1c-2.4,9.4-4.4,19-6,29.4c-1.5,9.4-2.8,19.5-3.9,30.7c-0.9,9.7-1.7,20.2-2.5,33.1v0
				c-0.1,2.5-0.3,4.9-0.8,7.3c0,0.3-0.2,0.4-0.4,0.4c-0.2,0-0.3,0-0.5-0.1l-0.1,0c-1.5,0.7-3.1,1-4.7,0.9h-0.1
				c-0.1,6.4,0.9,12.8,2.8,18.9c1.6-0.6,3.3-1,5-1.3c0.2,0,0.2,0.3,0.2,0.5c0,0.1,0,0.1,0,0.1c0.6,0.6,1.2,1.3,1.7,1.9
				c0.1-0.2,0.2-0.4,0.3-0.5c0.2,0.2,0.5,0.4,0.7,0.5c0.3,0.3,0.6,0.5,1,0.7c0.1,0,0.2,0.1,0.3,0.1c0.1,0,0.2,0,0.2-0.1
				c0.3,0.2,0.6,0.3,0.9,0.5l0.2,0.2h0l0,0l0.1,0.1c-0.4,0.4-0.7,0.7-1.1,1.1c6.1,5.2,13.6,8.6,23,10.5c0.4,0.1,0.9,0.1,1.3,0.2h0
				c4.7,0.7,10,1.6,12,6c0.8,1.8,0.9,3.1,0.1,3.8c0.1,1.1,0,2.1-0.1,3.2l0,0c-0.1,0.6-0.1,1.3-0.1,1.9c0,0.1,0,0.2-0.3,0.3
				c-4.3,0.2-9.2,0.9-14.4,1.7l-1.1,0.2l-0.2,0C86.2,433,79.6,433.6,72.9,433.8z M39.5,96.1L39.5,96.1c-0.7,2.3-1.6,4.7-2.4,7
				c-0.9,2.6-1.9,5.4-2.7,8.1c-0.3,1.5,0,3,0.8,4.3c0.9,1.2,2,2.3,3.2,3.2c1.1-5.9,1.7-11.9,1.9-17.9l0.2,0.3l0.2-3l0-0.6l-1-0.2
				C39.8,97.4,39.6,96.1,39.5,96.1z"/>
			<path id="_Ink" class="st2" d="M72.2,434c-3.3,0-6.7-0.3-10-0.9c-3-0.6-5.9-1.8-8.5-3.4c-0.1,0.3-0.2,0.5-0.2,0.8
				c-0.2,0.7-0.4,1.4-0.6,2.2c-0.1,0.4-0.5,0.8-1,0.8h0c-2.6-0.1-5.3-0.2-7.9-0.2c-5.8-0.2-11.9-0.4-17.8-0.7h0
				c-0.2,0-0.5-0.1-0.6-0.3c-0.1,0.1-0.2,0.2-0.3,0.1c-0.2,0-0.4-0.1-0.4-0.3c-0.1-0.4-0.1-0.8-0.1-1.3c0-0.2,0-0.4,0-0.6
				c0-0.4-0.1-0.9-0.2-1.3c-0.1-0.3-0.1-0.5-0.2-0.8c-0.2-1.3-0.2-2.7,0-4l0-0.3c0-0.9,0.3-1.7,1-2.3l0.1,0h0
				c0.1-0.3,0.3-0.5,0.5-0.7l0,0c-0.3-1-0.3-2.1-0.1-3.1l0-0.1c0.3-3.5,1.3-6.9,2.9-10.1c0.4-2.4,1.1-4.8,1.9-7.1c0,0,0-0.1,0-0.1
				c0,0,0.1-0.1,0.1-0.1c0,0,0,0,0.1,0c0,0,0.1,0,0.1,0c0,0,0-0.1,0-0.1c0.2-0.4,0.6-0.7,1-0.7c0.1,0,0.1,0,0.2,0
				c0.2,0,0.5,0,0.7,0.1l0,0l0.1,0c0.1-3.6-0.1-7.3-0.3-10.9c-0.1-2.4-0.3-5-0.3-7.4c-0.2,0.1-0.4,0.1-0.5,0.1
				c-0.4,0-0.9-0.2-1.2-0.4c-0.1,0-0.2,0-0.4,0c-1.4,0-2.4-1.4-2.7-2.5l-0.2-1.1c-2.4-10.2-4.2-20.5-5.4-30.8
				c-0.7-7.2-0.7-14.5-0.1-21.7c0.6-7.5,1.7-15.1,2.7-21.6c1-6.6,1.8-13.3,2.3-20.5c0.5-6.5,0.7-13.2,0.8-20.6
				c0.1-13.8-0.4-27.8-1-41.3c-0.4-10.3-0.8-20.9-0.9-31.3c-0.1-1.7-0.3-3.4-0.4-5.1c-0.2-2.4-0.3-4.9-0.6-7.4
				c-1.8-0.2-3-1.9-3.5-3.3c-0.7-1.9-0.5-4-0.2-6.1v0c0.1-0.5,0.1-1,0.2-1.5c0.2-2.7,0.4-5.5,0.6-8.2l0-0.8
				c-0.1-2.1,0.2-4.3,0.8-6.3c-1.7-1.3-3.7-2.6-5.5-3.9c-6.3-4.3-12.9-8.7-15.3-16.2c-1.1-1-1.2-4.6-1.3-7.3c0-0.9-0.1-1.8-0.1-2.3
				c-1-19.3,0.7-38.7,4.8-57.6c1.2-6.1,2.9-12.2,5-18c1-2.8,2.2-5.5,3.6-8.1c1.3-2.5,2.8-4.9,4.6-7.1c1.7-2.2,3.6-4.2,5.7-6
				c2.1-1.8,4.4-3.3,6.9-4.5c2.6-1.3,5.4-2.3,8.3-2.9c3.2-0.7,6.5-1,9.9-1c0.7,0,1.4,0,2,0l0,0l-0.1,0c0.1,0,0.2,0,0.3,0
				c0.2,0,0.5,0.1,0.6,0.2c0.5,0.1,0.9,0.1,1.4,0.1c2.3,0,4.5-0.7,6.4-1.9c1.9-1.2,3.6-2.9,4.7-4.9c0.6-1.1,1.1-2.2,1.3-3.4l0-0.1
				c0-0.2,0.1-0.3,0.1-0.5l0,0c0.2-1.2,0.4-2.6,1.9-2.9c0.1,0,0.2,0,0.4,0c0.4,0,0.8,0.1,1,0.4c0.1,0.8,0.1,1.5,0,2.3
				c-0.1,0.1-0.1,0.1-0.2,0.2l0.1,0c0.1,0,0.1-0.1,0.1-0.1c-0.4,2.5-1.4,4.8-2.9,6.7c-1.5,2-3.5,3.6-5.7,4.7
				c-0.2,0.3-0.5,0.4-0.9,0.5c-0.2,0-0.3,0.1-0.5,0.2l-0.6,0.2c-1.7,0.6-3.5,1-5.3,1.1c2.7,7.5,9.6,12.4,14.9,15.2
				c3.4,1.8,7,3.2,10.7,4.2c3.4,1,6.9,1.6,10.4,1.9c0.3,0,0.7,0,1,0c4.4,0.2,8.7-1.8,11.4-5.3c2.8-3.7,3.5-8.7,2.1-13.8
				c-3.9-0.6-7.3-2.9-9.4-6.2c-0.8-1.2-1.3-2.5-1.5-3.9c-0.2-1.4-0.1-2.9,0.4-4.2l0.1-0.2c0,0,0,0,0,0c0,0,0.1,0,0.1,0.1
				c0.1,0.4,0.2,0.9,0.4,1.3c0.1,0.3,0.2,0.5,0.3,0.8L94,8.1c0.1,0.2,0.1,0.4,0.2,0.6c0.5,1.6,1.2,3.5,2.7,4.3l0.3,0
				c1.6,0,3.2,0.2,4.8,0.5c1.6,0.3,3.1,0.8,4.5,1.6c3.1,0.7,6.1,1.8,8.9,3.4c2.2,1.2,4.3,2.6,6.2,4.3c1.7,1.5,3.3,3.2,4.7,5
				c2.6,3.6,4.5,7.6,5.6,11.9c2.4,8.6,2.4,18.3,2.5,27.7c0,3,0,6.2,0.1,9.1c0.8,10.2,3.5,20.6,6.2,30.7c2.4,9.1,4.9,18.5,5.9,27.8
				c0.5,4.6,0.6,9.3,0.2,13.9c-0.4,4.8-1.4,9.4-3,13.9c2.5,6.3,3.5,13,3,19.8c-0.3,3.3-1.1,6.6-2.4,9.6c-1.4,3.1-3.3,5.8-5.8,8
				c0.1,0.2,0.2,0.4,0.3,0.6c0.4,1,0.6,2,0.7,3.1v0c0,0.3,0.1,0.5,0.1,0.8l0,0.1c0.5,2.9,0.9,5.9,1.4,9.1c0.8,6.1,1.4,12.3,1.9,18.1
				l0.1,0.9c0.3,3.4,0.6,6.9,0.9,10.3v0c1,11.6,2,23.5,3.4,35.2l0.3,2.2c2.2,14.7,4.8,31.7,8.9,48.3l0.1,0.3c0.1,0.3,0.2,0.7,0.3,1
				c1,3.6,2.2,7.3,3.3,10.8c0.4,1.4,0.9,2.9,1.4,4.3c0.5,1.5,1,3,1.6,4.7l0.7,1.8c0.1,0.3,0.2,0.6,0.4,0.9c1.2,3,2.6,6.1,4,9.3
				c0.1,0.2,0.1,0.5,0,0.7c-0.1,0.2-0.3,0.4-0.6,0.5c0.7,1.2,1.3,2.5,1.7,3.8c0.3,1,0.7,1.9,1.2,2.9c1.5,3.5,3.4,6.8,5.7,9.9
				c0.3-0.2,0.6-0.3,1-0.3c0.9,0.1,1.7,0.5,2.3,1.1c0.1,0.1,0.3,0.2,0.4,0.3c0.1,0.1,0.3,0.2,0.5,0.3c0.6,0.2,1.1,0.7,1.4,1.2
				c0.4,0.3,0.9,0.6,1.5,0.9l0-0.2c0.5-1.5,1.6-4.2,3.5-5.1c0.3-0.2,0.7-0.2,1.1-0.2c0.7,0,1.3,0.3,1.7,0.9c0.5,0.7,0.6,1.6,0.3,2.4
				c-0.4,1.9-1,3.7-1.6,5.6c6.5,4,13.7,6.9,21.2,8.4l0.3,0c0.3,0.1,0.5,0.1,0.8,0.2h0c1.6,0.2,3.1,0.7,4.5,1.3
				c1.4,0.8,2.5,1.8,3.4,3.1c0.9,1.3,1.7,2.7,2.2,4.1c0.4,0.1,0.7,0.4,0.8,0.8l0.7,3.2c0.2,1,0.5,2.1,0.7,3.2c0.1,0.3,0,0.7-0.2,1
				c-0.1,0.2-0.4,0.4-0.6,0.4c-4.4,0.9-8.8,1.6-13.2,2.3c-2.6,0.2-5.4,0.6-8.3,1c-5.6,0.9-11.2,1.4-16.8,1.5c-6.2,0-11.2-1-15.2-3
				c-0.6,1.3-1.8,2.2-3.1,2.5c-1.4,0.3-2.9,0.5-4.3,0.4h-1.1c-0.6,0-1.3,0-1.9,0.1c-0.2,0-0.5,0-1,0c-0.7,0-1.5,0-2.5,0l-0.5,0
				c-1.2,0-2.6,0-3.9,0c-5.4,0-8.4-0.3-8.9-0.9c-0.1-0.1-0.1-0.2-0.1-0.3l-0.1-0.3c-0.7-2.7-1.2-5.9,1.2-7.6
				c-0.2-3.1-0.3-5.9-0.3-8.5c-0.5-2.1-0.8-4.3-0.8-6.4c0-0.7,0-1.4-0.1-2.1c0-0.5,0-1,0-1.5c-0.1-1.7-0.2-3.4,0.7-4.9
				c0.1-0.8,1.2-0.8,2.2-0.8c0.5,0,1.1,0,1.6-0.2l-0.1-0.3c-0.6-2.3-1.4-4.5-2.4-6.7c-1-2.1-2.4-4.1-4.1-5.7
				c-1.8,0.1-3.7,0.2-5.5,0.2c-1.2,0-2.5,0-3.7-0.1h-0.1c-4.5,0-6.7-1.9-7.8-6.4c-0.7-2.4-1.4-4.9-2.1-7.8
				c-1.8-6.5-3.5-13.2-5.2-19.6v0c-3.6-13.7-7.2-27.8-11.4-41.5c-2.3-6.8-5-13.7-7.5-20.1c-1.2-3-2.4-6.1-3.5-9.1l-1.7-4.4
				c-0.8-2.1-1.8-4.6-2.6-7c-0.2-0.7-0.4-1.4-0.7-2.2c-6.3,17.4-11,36.4-14.3,58c-2.7,17-4.5,35.4-6,59.5c0,0.7-0.1,1.3-0.1,2
				c-0.1,2.5-0.4,5-0.9,7.5c-0.1,0.6-0.6,1.1-1.3,1.1c-0.2,0-0.3,0-0.5-0.1c-1.2,0.6-2.6,0.9-4,0.8l0,0.5c0,3.9,0.4,7.8,1.2,11.6
				c0.2,0.8,0.4,1.6,0.7,2.3c0.2,0.8,0.5,1.6,0.7,2.4c1.4-0.5,2.8-0.8,4.2-1c0,0,0.1,0,0.1,0c0.6,0,1.1,0.6,1,1.2
				c0.3,0.3,0.6,0.6,0.8,0.9l0.1-0.2l0.2-0.2c1.3-1.7,2.9-3.7,5-3.9c0.1,0,0.1,0,0.2,0c1,0,1.8,0.6,2,1.6c0.3,2.9-2.6,5.8-3.5,6.6
				c5.7,4.7,13,7.9,21.8,9.6l0.3,0c0.3,0.1,0.6,0.1,1,0.2l0,0c2.5,0.3,5,0.9,7.3,1.7c2.4,0.8,4.3,2.6,5.4,4.8l0.1,0.1
				c0.4,0.9,1.2,3.1,0.2,4.4c0,1,0,2-0.1,3c-0.1,0.6-0.1,1.3-0.1,1.9c0,0.6-0.5,1.1-1.1,1.1c-4.3,0.2-9.2,0.9-14.4,1.7
				C86.6,432.9,79.2,434,72.2,434z M52,427.5L52,427.5c0.8,0,1.6,0.1,2.5,0.1c4,2.9,9.7,4.2,17.5,4.2c6.9,0,14.6-1.1,21.4-2.1
				c5-0.7,9.7-1.4,13.7-1.6l0.2-2.5c-0.1,0.1-0.3,0.2-0.4,0.2c0.1-0.2,0-0.4-0.1-0.5c-0.1-0.1-0.2-0.2-0.4-0.2c-0.1,0-0.1,0-0.2,0
				c-0.8,0.2-1.5,0.4-2.4,0.6c-0.1,0-0.1,0-0.2,0h0c-6.2,0.5-12.6,0.5-18.8,0.6h-0.1h-2.1c-3.2,0-6.5,0.1-9.7,0.1h0
				c-3.4,0.1-7,0.1-10.5,0.1h-0.7c-2.9,0-5.8-0.1-8.5-0.1c-3.7-0.7-7.5-1.4-11.1-2.2h0c-4.3-0.9-8.8-1.8-13.1-2.5
				c-0.3,0.2-0.6,0.3-0.9,0.4c-0.5,0.1-0.9,0.3-1.3,0.6c-0.5,2.6-0.4,5.2,0.1,7.8c5.7,0.1,11.5,0.3,17.1,0.5
				c2.3,0.1,4.6,0.2,6.9,0.3c0.1-0.4,0.2-0.9,0.3-1.3C51.6,429.1,51.8,428.3,52,427.5L52,427.5L52,427.5L52,427.5z M163.7,408.8
				c-7.9,0-14.3,0.2-20.1,0.7c-0.9,1.3-1,3-0.2,5.3c4.6,0.2,8.3,0.3,11.6,0.3l0,0c2.7,0,5.2-0.1,7.7-0.2l0.5,0
				c0.8,0,1.6-0.1,2.3-0.4c0.6-0.2,1.5-0.9,1.4-1.7l0,0c-0.1-0.4,0.1-0.8,0.3-1.1c0.2-0.3,0.5-0.4,0.8-0.4c0.2,0,0.4,0.1,0.6,0.2
				c3.7,2.4,8.2,3.6,14.2,3.6c3.4-0.1,6.8-0.3,10.2-0.7h0c2.2-0.2,4.2-0.4,6.2-0.5c7-0.7,14.2-1.8,21.3-3.2
				c-0.3-1.2-0.5-2.4-0.8-3.7c-0.3,0.2-0.7,0.3-1.1,0.3h0l-0.2,0l-0.1,0c-0.4,0.1-0.9,0.1-1.3,0.2c-1,0.4-2,0.7-3.1,0.7
				c-0.5,0-0.9,0.1-1.2,0.1c-7.8,0.7-15.5,1-23.3,1c-4.3,0-8.7-0.1-12.9-0.1h0C172.4,408.8,168,408.8,163.7,408.8L163.7,408.8z
				 M33.9,381L33.9,381c1.2,6.2,1.8,12.6,1.8,18.9c0.3,0.3,0.4,0.8,0.2,1.3l0.1,0.3c0.2,0.6,0.4,1.3,0.5,2c2.2,1.4,4.8,2.1,7.4,2.1
				c4.4,0,8.5-2.1,12.8-4.2c1.1-0.6,2.3-1.1,3.4-1.7c-1.2-3.4-1.8-7-1.9-10.6c-0.2-2.8,0.1-5.5,0.8-8.2c-0.7,0.1-1.5,0.2-2.2,0.2
				c-2.6,0.2-5.4,0.4-8.9,0.5l-1.4,0c-1.6,0-3.1,0.1-4.7,0.1c-1.4,0-2.6,0-3.7-0.1C36.7,381.6,35.3,381.4,33.9,381L33.9,381z
				 M74.6,397.4L74.6,397.4c-0.4,0.1-0.7,0.2-1,0.5c-1.2,0.9-2.2,1.9-3.2,3c0.4,0.4,0.7,0.7,1.1,1.1C73,400.7,74.1,399.1,74.6,397.4
				L74.6,397.4z M166.1,364.9l-1.2,0.4c-6.9,2.3-14.4,4.7-22.2,5.3c0.4,0.4,0.8,0.9,1.1,1.4c0.3,0.2,0.5,0.5,0.5,0.9
				c0.2,0.5,0.4,0.9,0.6,1.4l0,0.1c0.4,0.9,0.8,1.9,1.2,2.8l0,0c0.8,1.9,1.7,3.9,2.4,5.9c0.1,0.4,0.3,0.8,0.4,1.3
				c0.4,1,0.8,2.1,0.5,2.9c2.8,1.2,5.9,1.8,9,1.8c2.9,0,5.7-0.5,8.4-1.6c2.7-1.1,5.1-2.7,7.1-4.7l-0.2-0.3c-1.8-2.6-3.4-5.4-4.8-8.3
				C167.5,371.2,166.5,368.1,166.1,364.9L166.1,364.9z M187.9,379.7c-0.5,0-1.1,0.8-1.3,1.1l0,0c-0.8,1.1-1.4,2.2-1.8,3.5
				c0.4,0.3,0.9,0.6,1.4,0.9l0,0l0.2,0.1l0,0c0.4-0.8,2.3-4.9,1.8-5.5C188,379.8,187.9,379.7,187.9,379.7L187.9,379.7z M33.7,379.7
				L33.7,379.7L33.7,379.7c0.5,0.1,0.9,0.2,1.3,0.2c1,0.1,2,0.2,3.2,0.2C36.7,379.9,35.2,379.8,33.7,379.7L33.7,379.7z M32.6,376.3
				c0,0,0.1,0.1,0.1,0.1c5.2,1.3,10.5,1.9,15.9,1.9c2.1,0,4.4-0.1,6.8-0.2c0.9-0.1,1.9-0.1,2.8-0.2h0c0.5,0,1-0.1,1.5-0.1
				c1.1-0.5,2.3-0.8,3.5-1c1.4-21.4,2.9-39.4,5.3-57.3c2.9-21.1,6.9-39.5,12.3-56.1c2.5-7.7,5.2-15.4,7.8-22.8
				c5.4-15.2,10.9-31,14.7-47c0.1-0.2,0.3-0.4,0.5-0.4c0.2,0,0.3,0.1,0.5,0.2c0.1,0.1,0.1,0.3,0.1,0.5l-0.2,0.9
				c-0.2,1-0.4,2-0.5,2.9v0c-1.1,6.5-2.5,13-4.3,19.4c0.7-0.8,1.4-1.5,2.2-2.2c1-1,2-2,3-3.1c0.5-0.6,0.9-1.2,1.3-1.9
				c0.3-0.8,1-1.5,1.9-1.7c0.1,0,0.1,0,0.2,0c0.3,0,0.6,0.3,0.7,0.6c0.4,0.8,0.2,1.8-0.3,2.5l-0.1,0.2c-1.8,2.4-4,4.4-6.4,6
				c-1.1,0.8-2.3,1.7-3.3,2.6c-2.4,8-5.1,16-7.8,23.7c-0.4,1.1-0.8,2.3-1.2,3.4c0,1.8,0.3,3.6,0.8,5.3c0.1,0.3,0.2,0.6,0.3,0.9
				c0.4,1.5,1,2.9,1.7,4.3c2.5,5.3,4.9,10.7,7.1,16.7c2,5.3,4,10.9,5.9,17.2c3.6,11.6,6.8,23.5,9.8,35v0c1.3,5,2.7,10.1,4.1,15.1
				c2.3,8.5,4.2,15.5,6.3,22.6l0,0.1c0.1,0.9,0.5,1.7,1.1,2.3c0.7,0.5,1.6,0.8,2.5,0.7h0c1.3,0.1,2.6,0.1,3.8,0.1
				c5.2,0,10.4-0.5,15.6-1.5c5.1-1,10.1-2.5,14.8-4.6c-2.8-7.5-5.3-15.2-7.5-23.7c-2-7.6-3.8-15.5-5.5-24.3
				c-1.5-7.3-2.8-14.9-4-23.3c-1.3-8.8-2.6-17.8-3.7-26.4c-0.2-1.2-0.3-2.3-0.5-3.5c-1.2-8.6-1.9-17.4-2.5-26
				c-0.8-10.8-1.7-21.9-3.6-32.7h0c-0.6,0-1.2-0.4-1.5-1c-0.3-0.5-0.2-1.1,0.1-1.5c-0.2-1.1-0.1-2.2,0.4-3.2l0-0.2
				c-1.8,1.6-3.9,2.6-5.4,2.6c-0.7,0.1-1.3-0.2-1.7-0.8c-0.6-0.9-0.5-2.5,0.4-4.7l0.2-0.5c0.2-0.5,0.4-1,0.6-1.5
				c2-4.8,4-9.7,2.9-14.8c-3.2,1.7-6.7,2.9-10.3,3.7c-3.6,0.7-7.2,1.1-10.9,1.1c-6.2-0.1-12.3-0.8-18.4-2.2c0.4,1.2,0.3,2.5-0.4,3.5
				c-0.4,0.6-1.1,0.9-1.9,0.9c-0.9-0.1-1.8-0.4-2.5-1c-0.6-0.4-1.1-0.9-1.6-1.4c0.4,1.5,0.5,3.1,0.4,4.7c-0.1,1.6-0.4,3.1-0.7,4.7
				l-0.1,0.4l-0.1,0.3v0c-0.3,1.8-0.8,4-2.1,5.2c-0.3,0.3-0.8,0.5-1.3,0.5c-0.8,0-1.5-0.5-1.7-1.3c-0.2-4.4-1.5-8.6-3.7-12.4
				c0.4,2.7,0.3,5.5-0.4,8.2c-0.1,0.3-0.1,0.5-0.2,0.8c-0.2,0.8-0.4,1.5-0.5,2.3l0,0.2c0.2,1,0,2-0.6,2.9c-0.5,0.5-1.1,0.7-1.8,0.7
				c-0.7-0.1-1.4-0.5-1.8-1.1c-0.5-0.6-0.8-1.4-1-2.1c-0.4-2-0.7-4-0.7-6.1c-0.2-3.4-0.4-6.9-1.9-8.7c-0.3,1.4-0.4,2.9-0.5,4.4
				c-0.3,3.9-0.6,8-4.1,10.3c-0.4,0.3-0.9,0.4-1.3,0.4c-1,0-1.8-0.7-1.9-1.7l0.1-1.3c0.3-3.7,0.4-6.3-0.2-8.8
				c-0.6-2.4-1.8-4.7-4.3-8.4c-1.5,0.3-3.1,0.5-4.6,0.5c-1.9,0-3.9-0.2-5.7-0.4l-0.4,0l-0.5-0.1c-0.7-0.1-1.3-0.2-2-0.2
				c-3.5-0.5-7-0.8-10.6-0.9c-1.8,0-3.5,0.1-5.3,0.4c0.6,3,0.9,6.1,1,9.1v0c0,0.8,0.1,1.7,0.2,2.5c0.3,9.5,0.9,19.2,1.4,28.6
				c0.8,13.8,1.6,28.1,1.7,42.1c0.1,7.6-0.1,14.4-0.4,21c-0.4,7.4-1,14.3-1.9,21l-0.2,1.1c-0.2,1.3-0.4,2.7-0.6,4v0
				c-0.8,5.9-1.7,12-2.3,18c-0.6,6-0.7,12.1-0.4,18.2c0.7,12.3,3.2,24.5,5.7,36.4l0,0.1C31.2,376,31.9,376.2,32.6,376.3
				C32.6,376.3,32.6,376.3,32.6,376.3L32.6,376.3z M142.6,372.8L142.6,372.8C142.6,372.8,142.6,372.8,142.6,372.8
				c0.1,0.1,0.1,0.2,0.2,0.3l0.1,0.1l-0.1-0.2C142.7,372.9,142.7,372.8,142.6,372.8L142.6,372.8L142.6,372.8z M138.1,200.7l-0.2,0.2
				l-0.1,0.1c0.2,0.8,0.4,1.7,0.6,2.7l0-0.6c0-0.2,0-0.3,0-0.5C138.3,201.9,138.2,201.3,138.1,200.7z M140.7,180.6
				c0.2,0,0.4,0.1,0.6,0.2c0.6,0.8,0.9,1.9,0.6,2.9c-0.2,1.8-0.7,3.6-1.5,5.2c-0.8,1.7-1.8,3.2-3.1,4.5c-0.1,0.9-0.3,1.7-0.5,2.5
				c-0.1,0.4-0.2,0.8-0.3,1.2l0,0v0c0.1,0.3,0.2,0.5,0.3,0.8c1.7-1.5,3.2-3.3,4.3-5.3c4.7-8.3,3.4-17.7,2.2-26.9
				c-0.1-0.5-0.1-1-0.2-1.6c-0.2,0.5-0.7,0.9-1.3,0.8c-0.1,0-0.1,0-0.2,0c-0.1,0.3-0.3,0.4-0.5,0.4c-0.3,0-0.7-0.5-0.8-1.2
				c-0.4-8.7-1.3-17.3-2.7-25.8c-0.9-5.1-1.9-10.7-3.3-17c-0.4-2-0.9-3.8-1.3-5.2c-0.4-1.3-0.7-2-0.8-2c0,0,0,0,0,0
				c-0.2,0.3,0.1,2.9,0.9,7.3l0.2,1.2c1.1,5.6,2,11.1,2.8,16.4l0.2,1.3c0.1,0.5,0.2,1,0.2,1.6c0.9,6,2.2,14.3,2.3,21
				c0.2,3-0.6,5.9-2.1,8.4c-0.9,1.3-2.1,2.4-3.5,3.2l0,0l-0.1,0.1c-0.2,0.7-0.1,1.4,0.2,2.1c0.1,0.2,0.1,0.3,0.2,0.5
				c0.3,1.4,0.5,2.8,0.3,4.2c-0.4,3-1.2,5.9-2.4,8.7c-0.7,1.7-1.3,3.5-1.8,5.3c1.7-0.7,3.2-1.6,4.6-2.9c1.2-1,2.2-2.1,3-3.4
				c0.8-1.3,1.4-2.7,1.7-4.2c0.1-0.5,0.2-1,0.2-1.5c0-1,0.3-2,0.8-2.8C140.3,180.7,140.5,180.6,140.7,180.6z M67.4,176.6
				c0.2,0,0.5,0.1,0.6,0.3c2.4,2.6,3,6,3.4,9.4l0,0.1c0.1,0.9,0.1,1.7,0.2,2.6l0,0c0,1.8,0.3,3.5,0.7,5.3l0,0.1
				c0.1,0.3,0.4,1.2,0.8,1.3c0.1,0,0.2,0,0.2,0.1c0.1,0,0.2,0,0.3-0.1c0.2-0.2,0.2-0.8,0.1-1.2c0-0.2,0-0.3,0-0.5
				c0.1-1,0.3-2,0.6-2.9c0.2-0.7,0.4-1.4,0.5-2.2c0.5-3.7,0.1-7.5-1.2-11c-0.1-0.2-0.1-0.5,0.1-0.8c0.2-0.2,0.5-0.4,0.8-0.4
				c0.3,0,0.6,0.1,0.9,0.4c2.5,3.2,4.4,6.8,5.7,10.6c0.4,1.2,0.7,2.4,0.9,3.7c0.1,0.3,0.1,0.7,0.2,1c1.1-3.2,1.5-6.5,1.2-9.9
				c-0.3-3.3-1.8-6.5-4-9c-0.4-0.4-0.5-1.1-0.2-1.6c0.2-0.5,0.7-0.9,1.3-0.9c0.4,0,0.7,0.2,1,0.5l0.5,0.7l0,0
				c1.1,1.3,2.2,2.6,3.4,3.9c0.3,0.4,0.7,0.7,1,1.1c1,1.2,2.1,2.2,3.4,3c-0.2-4.3-3.4-7-6.6-9.6c-1.5-1.1-2.8-2.4-4.1-3.8
				c-3-3.6-5-8-6.8-12.2l0,0c-0.4-0.9-0.8-1.8-1.2-2.6c-0.8,2.4-2.3,4.4-4.4,5.9c-2.1,1.5-4.3,2.8-6.7,3.9c-2.5,1.1-4.8,2.5-6.9,4.1
				c1,2.4,2.2,4.7,3.6,7c1.7,2.8,3.1,5.7,4.3,8.7c1.2,3.1,1.4,6.5,0.7,9.7l0,0.1l0,0.1c-0.1,0.4-0.3,1.3,0,1.5c0,0,0,0,0,0
				c0.2,0,1.1-0.9,1.3-1c0.9-1.1,1.6-2.5,1.8-3.9c0.3-1.4,0.4-2.9,0.5-4.4c0-2.1,0.4-4.2,1-6.2C66.6,176.9,67,176.6,67.4,176.6z
				 M38.8,98.8c-0.5,1.6-1.1,3.1-1.6,4.7c-0.8,2.4-1.7,4.8-2.4,7.3c-0.2,1.1,0,2.2,0.5,3.2c0.6,0.9,1.3,1.8,2.1,2.4
				c0.7-4.1,1.1-8.3,1.5-12.4v0c0.1-0.8,0.2-1.7,0.2-2.6c0-0.2,0-0.5,0-0.7C39,100.1,39,99.5,38.8,98.8z M119.6,47L119.6,47
				L119.6,47l0.5,3.3c1.9,12.3,3.8,24.3,6.4,36.2c0,0.1,0.1,0.2,0.2,0.2c0.1,0,0.2-0.1,0.3-0.2c0.3-0.5,0.5-1,0.4-1.6
				c-0.8-6.8-2.9-16.8-4.4-23.9C121.1,53.3,119.6,47,119.6,47z M104.1,20.4c0.1,0.1,0.2,0.3,0.3,0.4c0-0.1,0-0.3-0.1-0.4
				C104.2,20.5,104.2,20.5,104.1,20.4z"/>
		</g>
		<g id="Head" transform="translate(22.251)">
			<g id="HEAD-2" transform="translate(0)">
				<path id="_Background-2" class="st1" d="M70.5,17c-20.2-0.7-39.4,12.8-45.9,31.9c-0.3,1.2,0.4,2.3,1.6,2.6
					c0.3,0.1,0.6,0.1,0.9,0c-1.5,7.6,1.8,17.8,10.4,18.9c1.8,0.2,3.5,0.1,5.3,0.3c1.6,0.1,10.2,5,13.4,6.1c6.8,2.4,23.8,1.9,30.5,0
					c0.2,0.6,5.5-21,6.7-27.6c0.4-2.9-3.6-5-3.3-8c0.4-3.8,4.9-8.5,3.5-12.1C90,19.8,79.5,17.2,70.5,17z"/>
				<path id="_Ink-2" class="st2" d="M84.4,86.2c-1.2,0-2.5-0.2-3.6-0.5l-0.2-0.1c-1-0.2-2-0.7-2.9-1.2c-0.9-0.3-1.7-0.8-2.3-1.5
					c-0.9-0.9-1.3-2-1.3-3.3c-0.9,0.1-1.9,0.1-3,0.1h-0.2c-2.6,0.1-5.1-0.3-7.6-1c-3-0.9-5-2.1-6.1-3.8c0,0,0-0.1,0-0.1
					c0,0,0.1-0.1,0.1-0.1c0,0,0,0,0,0c0.4,0.1,0.8,0.3,1.2,0.5c0.6,0.3,1.3,0.5,1.9,0.7c1.1,0.3,2.1,0.5,3.2,0.7
					c1.2,0.1,2.4,0.2,3.5,0.2c0.9,0,1.9,0,3-0.1l0.7,0c2.3,0,4.7-0.4,6.9-1.2c0.8-0.3,1.6-0.8,2.4-1.4l0.1-0.1
					c0.4-0.3,0.8-0.6,1.2-0.8l0-0.1l0,0l0.1-0.2c0.3-0.3,0.5-0.7,0.8-1c0.7-0.8,1.3-1.6,1.9-2.5c1.6-2.4,2.4-5.1,2.4-8
					c0.1-2.3,0.1-4.7,0.1-6.9c0-0.8,0-1.6,0-2.4l0-1c0-0.5,0-0.9,0-1.4v0c0-3,0.1-6.1,0.3-9.2c0.1-1.8,0.3-3.4,0.6-4.9l0.1-0.3
					l0.4-2.5c0-0.2,0.1-0.5,0.1-0.7c0.1-0.4,0.1-0.8,0.2-1.1c-0.2-0.3-0.3-0.5-0.5-0.7c-0.2-0.2-0.4-0.4-0.6-0.6l-0.1-0.1
					c-0.3-0.3-0.6-0.6-0.8-0.9l-0.1-0.1c-0.3-0.3-0.5-0.7-0.8-1.1l0-0.1l0,0l-0.1-0.2c-0.2-0.2-0.4-0.4-0.6-0.6
					c-0.7,1.4-1.7,2.5-3.1,3.2c-0.1,0.1-0.3,0.1-0.4,0.1c-0.4,0-0.7-0.3-0.8-0.6c-0.4-1.4-1.1-2.7-1.9-3.9c-1.4,2.4-3.6,4.1-6.2,5
					c-0.1,0-0.2,0-0.3,0c-0.3,0-0.5-0.1-0.6-0.3c-0.2-0.2-0.2-0.5-0.2-0.8c0.5-1.9,0.6-3.8,0.3-5.7c-1,0.7-2,1.4-3.1,2
					c-2.3,1.8-4.8,3.4-7.5,4.6c-0.4,0.2-0.9,0-1.2-0.3c-0.1-0.2-0.2-0.5-0.1-0.7c0.2-0.7,0.4-1.4,0.6-2.1l0-0.2v0
					c-1.9,2.5-5.7,6.7-13.3,11.8c-4.8,3.2-8.9,5.3-9.4,5.3h0c0.7,0.7,1.3,1.6,1.7,2.5c0.1,0.2,0.1,0.5-0.1,0.7
					c-0.2,0.2-0.5,0.4-0.8,0.4c-0.4,0-0.7-0.2-0.9-0.6l0,0c-0.7-1.7-2.2-2.9-4.1-3.2c-1.1,0.2-2,0.7-2.8,1.5
					c-1.3,1.4-1.5,3.5-0.4,5.1l0.1,0.3l0.1,0.2c0.5,0.8,0.9,1.7,1.2,2.7c0.2,0.7,0.2,1.4,0.2,2.1c0,0.6,0,1.1,0.1,1.7l0,0.1
					c0.1,0.7,0.4,1.1,0.8,1.1c0.1,0,0.1,0,0.2,0c0.1,0,0.1,0,0.2,0c0.2,0.1,0.3,0.2,0.5,0.3c0.2,0.1,0.4,0.1,0.6,0.1
					c0.3,0,0.6,0,1-0.1c0.5-0.1,1-0.3,1.4-0.5c0.1,0.1,0.1,0.3,0.1,0.4c0,0.6-0.2,1.2-0.7,1.6c0.4,0.5,0.7,1,1.1,1.5
					c0.3,0.4,0.5,0.8,0.8,1.1c1.1,1.4,2,2.5,2.9,3.6c1,1.2,2.2,2.4,3.3,3.4c0.2,0.2,0.5,0.4,0.8,0.7c0.8,0.5,1.4,1.2,1.9,2
					c0.6,0.2,1.1,0.7,1.3,1.4c0.4,1.9,0.4,3.9,0.2,5.9c-0.3,1.3-1.2,2.3-2.3,2.9c-0.1,0.1-0.3,0.1-0.5,0.1c-0.2,0-0.3,0-0.5-0.1
					c-0.3,0.2-0.5,0.5-0.8,0.7c-1.2,0.7-2.5,1.1-3.9,1.1c-1.2,0.4-2.4,0.6-3.6,0.6c-0.7,0-1.4-0.1-2.1-0.2c-0.7,0.1-1.3,0.1-1.9,0.2
					c-1.8,0.2-3.5,0.2-5.3,0.2c-4.8,0-9.6-0.6-14.3-1.7c-2.9-0.8-5.7-2-8.3-3.7c-1.2-0.8-2.1-1.8-2.8-3c-0.8-1.4-1.4-2.9-1.7-4.5
					c-0.7-3.7-0.5-7.5,0.8-11.1l0.2-0.6c1.1-3.5,2.5-6.8,4.1-10.1l0.2-0.4c1.5-3,3.3-5.8,5.5-8.3c1.1-1.3,2.4-2.3,3.9-3.1
					c0.5-0.2,1-0.4,1.5-0.6h0l0.4-0.1l0-0.2l0-0.2c0-0.5,0.1-1,0.2-1.5c0.2-1.9,0.6-3.8,1.1-5.7c0.5-1.9,1.2-3.7,1.9-5.5
					c1.3-3,2.9-5.8,4.8-8.4c0.2-0.3,0.3-0.6,0.4-0.8c1.5-3.1,3.6-5.9,6.2-8.2c3-2.5,6.6-4.3,10.4-5.3c3.9-1.2,8-1.9,12.1-2.2
					C55.1,0,56.1,0,57.1,0c1.2,0,2.3,0,3.4,0.1c0.9,0.1,1.8,0.2,2.7,0.4c0.7-0.1,1.4-0.2,2.1-0.2c2.1,0,4.1,0.4,6.1,1.1
					c3.1,1,6.1,2.4,9,4.1c2.8,1.7,5.5,3.7,7.8,6c2.4,2.3,4.3,5.1,5.6,8.2c0.6,1.6,1,3.3,1.1,5l0,0.2c0,0.6,0,1.3,0,1.9
					c0.2,1.3,0.4,2.7,0.4,4.1c0,0.6,0,1.3-0.1,1.9l0,0.1c-0.1,0.7-0.2,1.5-0.4,2.2l0,0c0,0.1,0,0.2,0,0.3l0,0.1
					c-0.1,0.4-0.2,0.8-0.3,1.1c-0.2,0.8-0.4,1.6-0.7,2.4c0,0.1,0,0.2,0.1,0.3c-0.2,0.7-0.4,1.3-0.6,1.8c0.1,0.5,0.2,1,0.3,1.6
					c0.2,0.9,0.4,1.9,0.6,2.8l0,0c0.3,1.8,0.7,3.6,1.1,5.4c0.4,1.8,0.9,3.5,1.4,5.3c1.2,3.7,2,7.6,2.5,11.4c0.5,5.1-0.6,9.7-3,12.9
					c-2.4,3.1-5.9,5-9.8,5.4C85.7,86.1,85,86.2,84.4,86.2z M36.4,52.6c-0.5,0-0.9-0.3-1-0.8c-0.2-0.7-0.6-1.3-1.2-1.7
					c-0.6-0.4-1.2-0.7-2-0.7c-0.1,0-0.3,0-0.4,0h0c0,0-0.1,0-0.1-0.1c0,0,0-0.1,0-0.1c0.6-0.4,1.3-0.6,2-0.6c1.5,0,2.9,0.9,3.6,2.3
					c0.2,0.3,0.2,0.8,0,1.1C37.2,52.4,36.9,52.6,36.4,52.6z"/>
			</g>
			<g id="FACE" transform="translate(55.709 34.443)">
				<path id="_Ink-3" class="st2" d="M19.5,30.8c-1.3,0-2.6-0.6-3.5-1.6c-0.7-0.7-1-1.7-0.9-2.7c0-0.3,0.3-0.5,0.5-0.4
					c0.2,0,0.5,0.1,0.6,0.3l0.1,0.1c1.2,1.6,2.1,1.8,2.7,1.8c0.7,0,1.4-0.4,1.8-1c0.2-0.3,0.3-0.6,0.4-1c0.1-0.3,0.2-0.6,0.3-0.8
					c0.3-0.4,0.7-0.7,1.3-0.7c0.7,0,1.2,0.4,1.4,1c0.2,1-0.1,2-0.7,2.8C22.6,29.9,21.2,30.7,19.5,30.8L19.5,30.8z M20.8,21.4
					L20.8,21.4c-1.4,0-2.8-0.4-4.2-0.9c-0.5-0.2-0.7-0.7-0.6-1.2c0.1-0.5,0.5-0.8,1-0.8c0.1,0,0.3,0,0.4,0.1l0.2,0.1
					c1.1,0.5,2.3,0.8,3.5,0.9c0.7,0.1,1.5-0.3,1.9-0.9c0.2-0.5,0.2-1.1,0-1.5c-0.8-1.1-1.9-1.9-3.2-2.2c-0.2-0.1-0.3-0.3-0.3-0.5
					c0.1-0.3,0.3-0.5,0.6-0.4h0.2c1.2,0,2.4,0.4,3.3,1.2c0.8,0.7,1.2,1.6,1.4,2.6c0.1,0.9-0.2,1.8-0.8,2.5
					C23.2,21.1,22,21.5,20.8,21.4L20.8,21.4z M1.4,13.8c-0.2,0-0.3-0.1-0.4-0.3c0-0.1,0-0.3,0.1-0.3C2.6,12,4.4,11,6.3,10.4
					C6,10,5.9,9.5,6.1,9c0-0.1,0.1-0.2,0.1-0.3l0.1-0.2c0-0.1,0-0.2,0.1-0.3v0c0.1-0.5,0.5-0.8,1-1c0.1,0,0.2,0,0.3,0
					c0.2,0,0.4,0,0.5,0.1c0.6,0.1,1.1,0.6,1.3,1.2c0,0,0,0.1,0,0.1l0,0.1L9.5,8.6c0,0.1,0.1,0.2,0.1,0.3c0,0.1,0.1,0.2,0.1,0.3
					c0.1,0.2,0.1,0.5,0.1,0.7c0.2,0,0.4,0,0.6,0l0.2,0c1.1,0,2.1,0.4,2.8,1.2c0.2,0.3,0.2,0.6,0,0.9c-0.1,0.3-0.4,0.5-0.7,0.6
					c-0.1,0-0.2,0-0.3,0c-0.5,0-0.9-0.1-1.3-0.3c-0.4-0.1-0.7-0.2-1.1-0.3C9.6,12,9.3,12,9,12c-0.6,0-1.2,0.1-1.9,0.2
					c-1.1,0.2-2.2,0.5-3.2,0.9c-0.7,0.2-1.4,0.5-2.2,0.7L1.4,13.8C1.4,13.8,1.4,13.8,1.4,13.8L1.4,13.8z M30.5,12.4
					c-0.3,0-0.6-0.2-0.7-0.4l0,0c-0.2-0.5-0.8-0.8-1.8-0.8c-0.3,0-0.6,0-0.9,0.1c-0.6,0.1-1.1,0.2-1.6,0.4c-0.2,0.1-0.4,0.1-0.6,0.2
					l-0.2,0.1c-0.1,0-0.4,0.2-0.4,0.2c0,0,0,0,0,0c0,0,0.1,0,0.1,0h0c0,0,0.1,0,0.1,0.1c0,0,0,0.1,0,0.1c-0.1,0-0.1,0-0.2,0
					c-0.1,0-0.3-0.1-0.4-0.2c-0.1-0.1-0.2-0.3-0.2-0.5c0-0.6,0.9-1,1.5-1.3c0.1,0,0.2-0.1,0.2-0.1l0,0c0.2-0.1,0.4-0.2,0.7-0.3
					c-0.1-0.2-0.2-0.4-0.3-0.6c-0.1-0.2-0.1-0.4-0.2-0.6c0-0.1,0-0.2,0-0.3v0c0-0.1,0-0.1,0-0.2v0c0-0.3,0.1-0.5,0.3-0.7
					c0.2-0.2,0.4-0.3,0.7-0.3c0.3,0,0.5,0.1,0.7,0.3l0.1,0c0.4,0.2,0.7,0.5,0.9,0.9c0.2,0.3,0.4,0.7,0.4,1.1c1,0,1.9,0.4,2.6,1.1
					c0.3,0.3,0.4,0.6,0.3,1l-0.1,0.2C31.3,12.1,30.9,12.4,30.5,12.4L30.5,12.4z M0.5,7.1C0.3,7.1,0.1,7,0.1,6.8
					C-0.1,5.9,0.1,5,0.7,4.3C1.3,3.4,2,2.7,2.9,2.1c0.9-0.6,2-1,3-1.2l0.3-0.1c0.2-0.1,0.4-0.1,0.6-0.2C7.4,0.4,8,0.3,8.6,0.2
					c0.6,0,1.1,0.2,1.5,0.6c0.5,0.5,0.6,1.2,0.2,1.8c-0.6,1-1.5,1-2.6,1.1c-0.2,0-0.4,0-0.6,0c-1,0.1-1.9,0.3-2.8,0.7
					C3.7,4.7,3,5.1,2.4,5.6C2.1,5.8,1.8,6,1.6,6.3C1.3,6.6,1,6.9,0.7,7.1C0.6,7.1,0.6,7.1,0.5,7.1z M30.4,5.3c-0.5,0-1-0.3-1.2-0.7
					l0,0c-0.7-1-1.7-1.8-2.8-2.3c-0.6-0.3-1.2-0.4-1.8-0.5l-0.2,0c-0.2,0-0.4-0.1-0.6-0.1c-0.1,0-0.2,0-0.2,0
					c-0.1,0-0.3,0.1-0.4,0.1c0,0,0,0.1,0,0.1C23.1,2,23.1,2,23,2c0,0,0,0-0.1,0c-0.2-0.1-0.4-0.3-0.4-0.5c0-0.3,0.1-0.6,0.4-0.8
					c0.8-0.6,1.8-0.8,2.8-0.7c1.2,0,2.3,0.3,3.3,0.9c1,0.6,1.9,1.3,2.5,2.3c0.2,0.3,0.3,0.6,0.2,1c-0.1,0.4-0.3,0.7-0.7,1
					C30.9,5.2,30.6,5.3,30.4,5.3z"/>
			</g>
		</g>
	</g>
</g>
<g id="openpeeps_peep-standing-1_copy" transform="translate(120 63)">
	<g id="peep-standing-8_copy" transform="translate(48.001 0.986)">
		<g id="BODY-2" transform="translate(0 61.35)">
			<path id="_Background-3" class="st1" d="M29.8,441.5c-0.5,0-1.1,0-1.6-0.1c-0.4,0-1.3-0.1-2.4-0.1c-2.9,0-5.9-0.2-8.8-0.5
				c-3.6-0.5-5.6-1.4-6.1-2.6c-0.2-0.9,0.1-1.9,0.8-2.5c-0.6-1.5-0.4-3.2,0.6-4.5c1-1.5,2.1-2.8,3.4-4c0.5-0.5,1-1,1.5-1.5
				c2.7-2.9,5.2-6,7.6-9.2c2.8-3.5,5.1-7.4,6.9-11.5c0.3-0.6,0.7-1.1,1.2-1.5l0.2-0.2l0.1-0.3c1-1.8,1.9-3.7,2.8-5.5
				c0.4-0.9,0.8-1.7,1.3-2.6c-3.4-1.4-6.4-2.8-10-4.5c2.5-16.9,5.7-33.9,8.8-50.3v0c3.3-17.5,6.7-35.6,9.3-53.6
				c0.7-6.4,1.2-12.9,1.8-19.2l0,0c1.1-11.9,2.2-24.1,3.7-36.2c1.5-12,3.6-24,6.3-35.8l0.9,0.1l0.5-2c-0.8,0-2.3-0.1-3-0.1l0.2,1
				c-2.7-0.4-5.4-1.1-8.1-1.9c-0.6-0.2-1.3-0.4-1.9-0.5c-1-0.1-2-0.7-2.5-1.6c-0.4-0.7-0.5-1.5-0.2-2.3c0.1-1.8,0.3-3.7,0.6-5.4
				c0.2-1.4,0.4-2.9,0.5-4.3c-1-0.8-2.1-1.7-3.2-2.7c-1,0.6-2,1.4-2.9,2.2c-1.7,1.5-3.5,3.1-5.3,3.1c-0.4,0-0.7-0.1-1-0.2
				c-5.4-8.1-10.1-17.6-14.4-26l0,0c-1.4-2.9-2.8-5.6-4.2-8.2c-3-5.4-5.7-10.9-8-16.6c-2-4.8-3.3-9.9-3.8-15
				c-0.5-5.1-0.1-10.3,1.1-15.2c1.6-6,3.9-11.8,6.9-17.2c2.1-3.7,4.1-7.8,6.3-12.1c2.5-5,5.2-10.1,8-15.2c2.8-5,5.8-9.8,9.2-14.4
				c3.1-4.3,6.8-8.2,10.9-11.5c2-1.5,4-2.9,6.3-4c2.2-1.1,4.5-1.9,6.9-2.5c0.8-0.2,1.5-0.3,2.3-0.4c1.9-0.2,3.8-0.7,5.6-1.5
				c0-0.8,0.2-1.6,0.6-2.3c0.3-0.5,0.7-0.8,1-0.8c0.4-0.1,0.8-0.2,1.2-0.3l0,0c1.1-0.4,2.3-0.6,3.5-0.7c0.2-0.1,0.4-0.1,0.6-0.1
				c0.3,0,0.6,0.1,0.9,0.1h0l0.2,0c0.7-1.7,1.1-3.5,1.4-5.3c0.3-2,0.8-3.9,1.6-5.7c-0.1-1.3,0.4-2.5,1.2-3.5
				c1.1-1.2,3.1-1.8,6.1-2.1C85.1,0.2,87.2,0,89.3,0c3.8,0,6.6,0.6,8.5,1.7c1.3,1.4,2,3.1,2.2,5c0.2,2,0.3,4,0.1,6
				c-0.5,3,0.1,6.2,1.6,8.8c0.8-0.3,1.6-0.4,2.5-0.4c2.1,0.1,4,1,5.3,2.6c1.8,2.1,3.3,4.5,4.4,7.1c6.7,1,10.9,1.8,14.1,4.4
				c1.7,1.4,3.1,3.2,4.1,5.2c1.5,2.9,2.7,6,3.7,9.1c2.5,6.6,5.2,13.7,7.1,21c1.2,4.5,2.2,9.1,2.8,13.8c0.6,4.5,1.5,9,2.7,13.4
				c1.7,4.8,3.4,9.2,5,13.4c2.5,6.6,5,12.7,6.9,19.4c2.2,7.4,3.6,15,4.4,22.6c0.5,3.8,0.6,7.7,0.5,11.6c-0.2,3.2-0.7,4.5-1.1,5.1
				c-3.2-1-6.5-1.7-9.9-2.1l3.3,2.9c-0.7,3.8-0.7,9.6-0.7,15.8c0.1,6.3-0.1,12.5-0.6,18.8c-0.8,6.8-2.4,11.5-5,14.4
				c-0.9,1.1-2.1,2-3.4,2.6c-1.5,0.6-3,0.9-4.6,0.9c-0.8,0-1.5-0.1-2.3-0.2c-0.1-1.2,0-2.4,0.2-3.6v0c0-0.4,0.1-0.8,0.1-1.1
				c-0.3,0-0.9,0.1-1.4,0.1c-0.3,0-0.6,0-0.9,0c-0.5,1.6-1.1,3.2-1.7,4.7c-0.7,1.7-1.4,3.5-1.9,5.3c-0.5,2.1-1.1,4.1-1.7,6.3
				c-3.4,13-6.2,26.2-8.3,39.1c-2.1,12.8-3.5,25.9-4.4,38.8c-0.8,12.7-1,25.8-0.6,38.8c0.4,12.8,1.4,26,2.9,39.3l-0.3,0.1l-0.1,0.2
				l-0.2,0.1c-0.4,0.7-1,0.7-2,0.7c-2.6,0.1-5.1,0.2-7.4,0.3c-3.1,0.1-6,0.3-8.8,0.4c0.4,2.7,0.4,5.4,0,8.2c0,0.3,0,0.6-0.1,0.9
				c0.2,0,0.4,0,0.7,0c2.5,0,4.8,1.1,7.5,2.7c5.8,3.2,10.5,6.1,14.8,8.9c0.9,0.6,1.9,1.3,2.9,1.9c3.1,2,6.3,4,6.8,6.7
				c0.2,1.4-0.1,2.9-1,4.1l1.1,0.5c0,0,0.1,0,0.1,0c-0.1,0.6-0.3,1.1-0.7,1.5c-0.4,0.6-0.9,1.2-1.2,1.2h0c-0.9,0-1.8,0.1-2.7,0.1
				c-7.4,0-14.3-1.6-23-3.6c-2.4-0.5-4.8-1.1-7.5-1.7c-1.7-0.6-3.5-1-5.2-1.4c-5.7-1.3-13.5-3.1-13.5-5.4c0-0.9,0.7-1,1.3-1
				c0.1,0,0.2,0,0.3-0.1c-0.5-2.5-0.5-5.1,0.1-7.6c0.5-1.9,1.3-3.6,2.3-5.3c1.8-2.9,2.9-6.2,3.3-9.7c-0.8,0.2-1.7,0.3-2.5,0.3
				c-0.5,0-1.1-0.1-1.6-0.2c-0.5-9.6-0.4-19.4-0.4-28.9c0.1-12.4,0.2-25.2-1-37.8l-2.2-0.3l-1.1,3.6l0,0.1
				c-6.9,22.8-14,46.4-19.5,70.3c0,0.2-0.1,0.3-0.3,0.3c-0.2,0-0.4-0.1-0.6-0.3c-3.8-0.1-7.6-0.5-11.3-1.3c-0.1,2.1-0.2,4.2-0.2,6.2
				l0,1.2l0.6,0.3c0.4,0.6,0.2,3.3,0.1,4.5l0,0.2c-0.1,0.9-0.1,1.8,0,2.7c0.5,1.1,0.1,2.8-1.1,5.2c-1.1,2-2.3,4-3.6,5.8l0,0
				l-0.4,0.5c-0.9,1.3-1.8,2.8-2.7,4.2C39.5,435.7,35.9,441.5,29.8,441.5z M46,71.3c-4.8,10.8-10.5,21.1-17,31
				c-4.3,5.6-3.9,7.2-1.6,12.9c5.3,13.7,12.2,26.7,20.4,38.8c-0.1-5.1-0.2-10.3-0.3-15.3l0-0.5C47.1,116.3,46.7,93.7,46,71.3
				L46,71.3z"/>
			<path id="_Ink-4" class="st2" d="M28.4,443c-4.5,0-9-0.4-13.4-1.1l-0.6-0.1c-1.5-0.3-3.1-0.7-4-2.2c-0.7-1.2-0.6-2.8,0.2-3.9
				c-0.4-1.7-0.1-3.4,0.8-4.9c0.9-1.4,2.1-2.7,3.3-3.8c0.6-0.6,1.3-1.2,1.8-1.8c4.8-5.2,9.1-10.9,12.8-17l0.2-0.6
				c0.7-1.9,1.5-3.9,2.8-4.8c0.9-1.6,1.7-3.4,2.6-5.1l0,0c0.3-0.6,0.5-1.1,0.8-1.7c-2.7-1.1-5.7-2.5-9-4.1c-0.6-0.4-0.8-1.1-0.7-1.8
				l0,0c2.5-14.4,5.2-29,7.8-43.2c3.5-18.9,7.1-38.5,10.2-57.8c0.9-8.1,1.7-16.3,2.4-24.2l0,0c1.1-11.4,2.2-23.2,3.6-34.7
				c1.4-11.5,3.4-22.9,6-34.2c-2.9-0.4-5.8-1.1-8.6-2c-0.6-0.2-1.2-0.3-1.8-0.5c-2.3-0.2-4-2.3-3.8-4.6c0-0.3,0.1-0.6,0.2-0.9
				c0.1-1.7,0.3-3.4,0.5-5.1c0.2-1.2,0.3-2.4,0.4-3.6c-0.7-0.5-1.4-1.2-2.1-1.8c-1.3,1.1-2.6,2.1-4,3.1c-1.7,1.4-3,2-4.1,2
				c-1.5,0-2.7-1.1-3.7-3.3C23,168,17.5,157.6,12.4,147.4c-0.9-1.8-1.8-3.6-2.7-5.4c-4.2-8.5-8.6-17.4-9.7-27.2
				c-0.2-2.8-0.1-5.6,0.4-8.4c0.5-3.1,1.2-6.2,2.1-9.3c2.2-6.8,4.9-13.4,8.1-19.7c6.6-13.2,14.9-26.2,20.4-34.9l0.6-1
				c3.1-4.3,6.5-8.3,10.4-12c1.9-1.7,3.9-3.3,6.1-4.6c2.2-1.3,4.5-2.3,6.9-2.9c0.8-0.1,1.7-0.2,2.5-0.3l0,0c2.2-0.2,4.4-0.7,6.5-1.5
				c0.2-1.3,0.8-3,2.4-3.4c0.4-0.1,0.8-0.2,1.2-0.3c1.2-0.4,2.4-0.6,3.6-0.7c0.3-0.1,0.5-0.1,0.8-0.1c0.1,0,0.2,0,0.3,0
				c0.5-1.5,0.8-3,1.1-4.5c0.3-1.8,0.7-3.5,1.4-5.2c0.1,0,0.1-0.1,0.2-0.1c0.1,0,0.1,0,0.1,0.1c0.4,0.6-0.2,4.1-0.6,6.5
				c-0.2,0.9-0.3,1.7-0.3,1.9l0,0.2c-0.3,1.5-0.8,3.7-2.2,4.9c0.6,5.6,1.4,11.2,2.3,16.4l0.5,0.1c1.2,0.2,2.4,0.4,3.6,0.6
				c5.2,1,10.5,1.5,15.8,1.7c1.6,0,3.1-0.1,4.7-0.2h0.1c4.8,0,7.5-4.1,8.9-7.5l0-0.1v0c-0.1-0.5-0.2-0.9-0.3-1.4
				c-1.4-1-2.7-2.2-3.8-3.5c-1.2-1.4-2.1-2.9-2.8-4.6c-1.5-3.4-1.8-7.3-0.6-10.8c0.1-0.2,0.3-0.3,0.5-0.3c0.1,0,0.1,0,0.2,0.1
				c0,0,0.1,0,0.1,0.1l-0.1,1.6c-0.2,3.2-0.2,6.3,1.3,9.1c0.6-0.2,1.3-0.3,2-0.3c1.2,0,2.3,0.3,3.4,0.9c1.1,0.6,2,1.3,2.8,2.2
				c1.7,2,3.1,4.2,4.2,6.7l1.8,0.3c3.4,0.4,6.7,1.3,9.8,2.7c1.5,0.7,2.9,1.8,4.1,3c1.3,1.4,2.4,3.1,3.1,4.9l0.5,1.1
				c2.8,6.8,5,12.4,6.7,17.6c2.1,6,3.8,12.1,5.1,18.2c0.5,2.4,0.9,4.9,1.2,7.3c0.5,4.2,1.4,8.4,2.5,12.5c1.6,4.6,3.4,9.2,5.1,13.7
				l0,0c3,7.1,5.5,14.4,7.6,21.9c0.8,1.9,2.4,9.7,3.4,18.1c0.5,3.9,0.8,7.7,0.9,11.6c0,3.8-0.3,6.3-1,7.6c-0.2,0.5-0.7,0.9-1.3,1
				c-1.9-0.6-3.8-1.2-5.8-1.5c0.3,0.3,0.4,0.7,0.4,1.1c-0.6,5.4-0.8,10.8-0.7,16.3c0.2,5.9,0,11.8-0.6,17.6
				c-0.9,7.5-2.8,12.9-5.6,16.2c-0.9,1.1-2.1,2-3.4,2.7c-1.4,0.7-2.9,1-4.4,1c-1.2,0-2.4-0.2-3.6-0.5c-0.9-0.4-0.8-1.6-0.6-2.9
				c0.1-0.5,0.1-1,0.1-1.6c0,0-0.1,0-0.1,0c-0.1,0-0.1,0-0.2,0c-0.4,1.3-1,2.7-1.5,3.9c-0.7,1.7-1.3,3.4-1.8,5.1
				c-0.2,0.8-0.5,1.7-0.7,2.6c-0.4,1.9-1,3.7-1.7,5.6c-5.6,22.4-9.4,45.1-11.4,68.1c-1,11.6-1.5,23.2-1.5,34.6
				c0,11.7,0.6,23.3,1.6,34.6c0.2,2.8,0.5,5.6,0.8,8.3c0,0.9,0.2,1.8,0.3,2.7c0.4,2.7,1,6.3-0.2,6.7c-0.1,0.2-0.2,0.3-0.4,0.3
				c-0.7,0.7-1.7,1-2.6,0.9h-0.3c-0.3,0-0.6,0-1,0c-5.3,0.3-9.7,0.5-13.8,0.6c0.2,2,0.2,4-0.1,6c0,0.2,0,0.5-0.1,0.7
				c2.6,0,5.1,1.4,7.4,2.8c0.6,0.4,1.3,0.7,1.9,1.1c4.4,2.4,8.7,5.1,13,7.8c1,0.7,2,1.4,3,2h0c2.1,1.2,4.1,2.7,5.7,4.4
				c1.6,1.8,2,4.5,0.9,6.6c0.6,0.3,0.9,1,0.8,1.6c-0.3,1.6-2.1,3.7-3.3,3.8c-10-0.1-20.1-2.4-29.8-4.7c-1.1-0.2-2.1-0.5-3.2-0.7
				c-2-0.6-4-1.1-6-1.5c-4.3-1-8.7-2-12.6-4.2c-0.8-0.5-1.2-1.5-1-2.5c0-0.9,0.6-1.7,1.5-2c-0.4-2.4-0.3-4.9,0.3-7.3
				c0.5-1.6,1.2-3.2,2.2-4.6c1.6-2.4,2.6-5.2,3.1-8c-0.3,0.1-0.6,0.1-1,0.1c-0.6,0-1.2-0.1-1.8-0.2c-0.1,0.1-0.2,0.2-0.3,0.2
				c-0.5,0-0.8-1.4-1-4.4c-0.1-2.5-0.1-5.6-0.1-8.1c0-2,0-3.5-0.1-3.9c0-4.3,0-8.6,0.1-12.9c0.1-12.7,0.2-25.8-1-38.7l-2.8,9.2
				c-6.5,21.7-12.8,43-17.8,64.7c-0.1,0.7-0.7,1.2-1.4,1.2c-0.3,0-0.7-0.1-0.9-0.3c-3.3-0.1-6.6-0.5-9.9-1.1
				c-0.1,1.7-0.1,3.5-0.2,5.2c1,0.6,0.8,3.4,0.7,5.6c-0.1,0.8-0.1,1.6-0.1,2.5c1.3,3.2-2.7,8.9-5.2,12.7c-0.6,0.8-1.1,1.6-1.4,2.2
				c-0.5,0.8-1.1,1.7-1.6,2.6c-1.5,2.7-3.2,5.2-5.2,7.6c-2.3,2.4-4.7,3.7-7.4,3.8l-0.2,0C29.9,443,29.2,443,28.4,443z M15.2,438.2
				L15.2,438.2c0.3,0.1,0.5,0.3,0.8,0.4c0.4,0.1,0.7,0.1,1,0.1C16.4,438.6,15.8,438.4,15.2,438.2z M37.7,403L37.7,403
				c-1.5,0-3.1,0.4-4.5,1c-3.9,8.1-8.9,15.7-14.9,22.4c-0.7,0.8-1.4,1.6-2.2,2.4c-1.7,1.6-3.5,3.4-3.7,5.4c0,1,0.3,2,1,2.7L14,437
				c4.6,1,9.3,1.6,13.9,1.7c1.2,0,2.3-0.1,3.5-0.2c2.2-0.7,4.2-2,5.9-3.7c1.7-1.7,3.2-3.6,4.6-5.7c2-3.8,4.1-7.5,6.5-11.1
				c1.3-1.8,1.4-4.2,1.4-6.3c0-1.4,0.1-2.8,0.1-4c-0.4,0.2-0.9,0.3-1.4,0.3c-1.4,0-2.6-0.9-4-2c-0.2-0.1-0.4-0.3-0.6-0.5
				C42.2,404,40,403.1,37.7,403L37.7,403z M87.2,405c-1.5,2.9-2.1,6.1-1.6,9.4v0.2c0,1.3,0.2,2.5,1.6,2.6l4.1,1.2
				c6.6,1.9,13.7,3.8,20.7,5.4c6.9,1.6,14,2.7,21.1,3.3c0.9-0.6,1.6-1.3,2.2-2.2c0.5-0.7,0.7-1.5,0.7-2.3c0-1.5-1.1-3-3-4.1l-1-0.7
				c-3.6-2.5-7.8-5.3-12-7.9c-4-2.5-8.2-4.8-12.5-6.8c-0.6-0.3-1.3-0.4-1.9-0.4c-1.6,0.1-3.1,0.6-4.5,1.4c-1.4,0.7-2.8,1.2-4.3,1.6
				c-1.7,0.5-3.4,0.7-5.1,0.8C90.1,406.4,88.5,405.9,87.2,405L87.2,405z M137.4,425.5L137.4,425.5L137.4,425.5l-0.1,0.2
				c0.1,0,0.1,0.1,0.2,0.1C137.4,425.8,137.4,425.6,137.4,425.5L137.4,425.5z M38.4,401.7c2.2,0.1,4.4,0.9,6.1,2.3
				c0.3,0.2,0.6,0.5,0.9,0.7c1.1,0.9,2.1,1.6,3,1.6c0.3,0,0.6-0.1,0.9-0.2l0.1-0.1c-0.6-1.5,0-3.7,0.4-5.2c0-0.1,0.1-0.2,0.1-0.4
				c-4.5-1-9-2.3-13.3-4.1c0,1.1-0.3,2.3-0.7,3.3c0,0.1-0.1,0.2-0.1,0.3c-0.1,0.2-0.1,0.4-0.2,0.6c-0.2,0.6-0.4,1.1-0.6,1.7
				C36,401.9,37.2,401.7,38.4,401.7L38.4,401.7z M90.6,394.1c0.4,3.1-0.4,8.3-2.2,10.8c0,0,0,0,0,0c0.7,0.1,1.4,0.2,2,0.2
				c4,0,7.8-1.9,11.4-3.7l1-0.5c0.3-2.4,0.9-4.8,1.8-7.1l-2.5,0.1c-3.4,0.1-7.4,0.2-11.3,0.2L90.6,394.1L90.6,394.1z M88,403.3
				c-0.1,0.2-0.2,0.4-0.3,0.6l-0.2,0.3c0.1,0.1,0.1,0.2,0.2,0.2C87.8,404.1,87.8,403.7,88,403.3z M57.7,195L57.7,195
				c-4.6,26.6-7.8,53.4-9.4,80.3c-1.2,11.9-3,24.9-5.4,39.7c-2.2,13.2-4.7,26.5-7.2,39.4c-2.2,11.5-4.5,23.4-6.5,35.2
				c5,2.5,10.2,4.6,15.5,6.2c5.3,1.6,10.7,2.6,16.2,2.8c5-21,11.6-42.8,18-64c6.8-22.5,13.8-45.8,19.2-68.7
				c2.9-12.3,5-23.5,6.6-34.2c0.9-5.8,1.5-11.5,2-16.9c0.5-5.7,0.8-11.4,1-16.8c0,0,0.1-0.1,0.1-0.1c0.1,0,0.2,0.1,0.2,0.1
				c0.4,3.2,0.4,6.4,0.2,9.6c0,0.4,0,0.9,0,1.3c-0.5,11.1-1.5,22.3-3.2,33.3c-2.1,13.6-4.9,27.1-8.4,40.4
				c-3.5,13.6-7.4,27-11.1,39.6c-0.1,0.8-0.1,1.6,0,2.3c0.1,0.4,0.1,0.9,0.1,1.4c1.3,16.1,1.7,32.5,2,48.4v0
				c0.1,3.9,0.2,7.9,0.3,11.9c0,0.8,0,1.6,0.1,2.5c0.2,1.5,0.1,2.9-0.2,4.4c5-0.7,10-1.2,14.9-1.7l0.1,0c0.9-0.1,1.8-0.2,2.7-0.3
				l0,0c0.2-0.1,0.3-0.2,0.5-0.2c0.1,0,0.3,0.1,0.3,0.2c4.7-0.4,9.6-0.8,15-1.2c-3.6-28.7-4-57.8-1.4-86.6
				c2.6-28.7,8.8-56.9,18.3-84c-0.8-0.9-0.8-2.4-0.9-3.9c0-0.6,0-1.3-0.1-1.9c-0.2-6.5-0.3-14.1,1-21.4l-0.3,0
				c-0.7,0-4.2,0.3-8.2,0.3c-5.7,0-12.5-0.4-12.8-2.5c-0.3-3.5-0.1-7,0.6-10.4c0.3-1.9,0.5-3.9,0.7-5.8c0.5-11.2,0.4-22.7,0.4-33.7
				c0-1,0-2,0-3c-0.9,0.1-1.7,0.2-2.6,0.2c-1.4,0-2.8-0.1-4.1-0.3c-1-0.1-2.1-0.2-3.1-0.2c-0.7,0-1.4,0-2.2,0c-1,0-2.1,0-3.1,0h0
				c-1,0-2,0-3.1,0c-2.1,0-3.7,0-5.3-0.1c3,16.2,5,32.6,5.9,49.1l0,0.2c0,0.2,0,0.3,0,0.5c0.1,1.6,0.2,3.2-0.7,4.4
				c-1,1.4-2.4,1.6-3.8,1.8h0l-0.3,0c-10.4,1.8-20.9,2.6-31.4,2.6C62.5,195.1,60.1,195.1,57.7,195L57.7,195z M36,396.1
				c-0.1,0.4-0.2,0.8-0.3,1.3c0.1-0.4,0.3-0.7,0.5-1.1l0.1-0.1L36,396.1L36,396.1z M90.3,394.1L90.3,394.1H90v0.2
				c0.1,0.1,0.1,0.3,0,0.4c0,0.6,0,1.1-0.1,1.6l0,0v0C90.1,395.5,90.2,394.8,90.3,394.1L90.3,394.1z M86.8,393.9l0,0.3
				c0.2,0,0.3,0,0.5,0l0,0c0.2,0,0.4,0,0.6,0c0.2,0,0.4,0,0.6-0.1C87.9,394.1,87.4,394,86.8,393.9L86.8,393.9z M145,201.4
				c0.1,0,0.2,0.1,0.2,0.2c0.9,5.5-0.7,11-2.5,16c-0.9,0.7-0.9,2.3-1,3.7c0,0.4,0,0.8-0.1,1.1c0.7,0.1,1.3,0.2,2,0.2
				c1.4,0,2.8-0.3,4.1-0.9c1.2-0.6,2.2-1.5,3.1-2.6c1.6-2.1,2.8-5,3.7-9c1.6-7.3,1.6-16.5,1.6-24.7c0-6.1,0-11.5,0.7-14.9
				c0.1-0.3,0.3-0.6,0.6-0.7c-2.7-0.4-5.4-0.6-8.1-0.6l-0.7,0c-0.1,0.2-0.3,0.3-0.6,0.4c0,2.6-0.2,5.1-0.8,7.6
				c-0.5,2.5-1.4,4.9-2.7,7.1c-1,1.6-1.7,3.4-2.2,5.3c-1.3,4.3-2.2,8.7-2.5,13.2c-0.3,4.5-0.2,9,0.3,13.5c2.7-4.4,3.7-9.7,4.4-14.7
				C144.8,201.5,144.9,201.4,145,201.4z M57.2,195L57.2,195c0,0.1,0,0.3,0.1,0.4c0-0.1,0.1-0.3,0.1-0.4h0L57.2,195L57.2,195z
				 M45,180.5c-0.1,0.9-0.2,1.7-0.3,2.6v0c-0.2,1.5-0.4,3.1-0.5,4.7l0,0.1c-0.2,0.8-0.2,1.6,0.1,2.4c0.3,0.5,0.9,0.8,1.9,1
				c2.6,0.8,5.2,1.2,7.9,1.3c3.7,0.2,7.5,0.3,11.2,0.3c9,0,18.1-0.7,27-2c0.7-0.2,1.4-0.3,2.1-0.3c1-0.1,2-0.2,2.9-0.5
				c0.8-0.2,1.5-0.7,1.9-1.5c-0.2-7.9-0.7-15.9-1.7-24.4c-0.8-7.6-2-15.5-3.5-24.1c-2.8-16-6.4-32.1-9.9-47.6v0l0,0
				c-2.7-12.1-5.6-24.6-8-37c-2.7-13.9-4.6-26.1-5.7-37.3c-0.1-0.5-0.1-1.1,0.1-1.6L70,16.8c-0.3,0.1-0.6,0.2-0.9,0.3h0
				c-2.9,0.8-3.9,1.1-4.1,5.5c-0.6,3.7-1.6,7.3-3.1,10.8c-1,2.6-1.9,5.3-2.6,8.1c-0.2,0.8-0.3,1.7-0.2,2.5c0.1,0.8,0.3,1.7,0.7,2.4
				c0.4,0.6,1,1,1.7,1c0.2,0,0.4,0,0.5-0.1c0.1,0,0.2,0,0.3,0c0.4,0,0.7,0.3,0.9,0.7c0.2,0.4,0.1,0.8-0.2,1.1
				c-1.7,1.8-3.4,3.7-5,5.5l-1,1.1c3.9,15,8.5,29.9,13.6,44.5c5.1,14.6,10.8,29,17,42.9c0.1,0.3,0.1,0.7,0,0.9
				c-0.2,0.3-0.5,0.5-0.8,0.5c-0.3,0-0.6-0.2-0.7-0.5c-6.2-14-11.9-28.5-17-43c-5.1-14.6-9.7-29.5-13.7-44.5l-0.2-0.9
				c-0.2-0.7,1.6-2.7,3.1-4.3c0.7-0.7,1.3-1.4,1.9-2.1c-1.2-0.6-2.2-1.7-2.6-3c-0.4-1.4-0.5-2.9-0.2-4.3c0.5-3.2,2-6.9,3.4-10.5
				c1.5-3.7,2.9-7.3,3-9.9c-1.5,0.6-3.2,1-4.8,0.9c-0.9,0-1.8,0.1-2.7,0.3c-5.1,1-9.5,4.5-12.7,7.4C29.5,44.3,20.1,63.5,11,82.1l0,0
				c-0.6,1.3-1.3,2.6-1.9,3.9C7.4,89.3,6,92.7,4.9,96.1c-1.1,3.5-1.9,7.1-2.3,10.7c-0.9,7.3,0.2,14.8,3.4,21.5
				c3.7,8.4,7.7,16.9,12.4,25.9c4.1,8,8.6,16.2,13.7,25.1c0.2,0.4,0.6,0.6,1,0.6c0.7-0.1,1.4-0.5,2-1c0.3-0.2,0.5-0.4,0.7-0.5
				c3.2-2.2,6.1-4.7,8.7-7.5c2.7-2.9,5.1-6,7.2-9.4c-5.1-7.1-9.8-14.4-14.1-22.1c-4.3-7.7-8-15.8-11.2-24.1l-0.1-0.2
				c-0.8-1.6-1.3-3.3-1.5-5.1c-0.1-0.9,0-1.7,0.2-2.6c0.2-0.9,0.6-1.7,1.2-2.4C34.4,93.1,42,80.4,48.8,67.4c0,0,0-0.1,0.1-0.1
				c0,0,0.1,0,0.1,0.1c0,0,0,0.1,0,0.1c-0.7,1.8-1.5,3.6-2.3,5.4c1,17.5,1.3,35.6,1.5,53c0.1,9,0.2,18.2,0.5,27.3
				c1.8,2.7,3.7,5.4,5.7,8.1c3.1-2.4,6.5-4.5,10.2-6c3.6-1.5,7.3-2.6,11.2-3.1l0.5-0.1l0.2,0c1.1-0.1,2.2-0.2,3.3-0.3
				c1.3-0.1,2.5,0.2,3.6,0.8c1.1,0.7,1.8,1.9,1.9,3.2c0,0.7-0.3,1.5-0.8,2c-0.5,0.5-1.1,0.9-1.8,1.1c-1.7,0.5-3.4,0.8-5.2,0.9
				c-2.7,0.2-5.4,0.5-6.9,1.8c2.1,0.9,4.3,1.7,6.5,2.3c3.7,1.2,7.5,2.4,10.7,4.8c0.8,0.5,1.4,1.2,2,1.9c0.6,0.7,1,1.5,1,2.5
				c-0.1,0.7-0.6,1.3-1.3,1.5c-0.1,0-0.3,0-0.4,0c-0.7,0-1.4-0.1-2.2-0.3c-0.5-0.1-1.1-0.2-1.6-0.3c1.6,0.6,3,1.7,3.9,3.2
				c0.5,0.8,0.7,1.9,0.5,2.9c-0.1,0.4-0.5,0.8-0.9,0.9c-0.1,0-0.3,0-0.4,0c-2.3-0.1-4.6-0.5-6.9-1.1c-1.1-0.3-2.2-0.5-3.3-0.7
				l0.3,0.1c1.9,0.9,4.2,2.1,4.4,3.8c0,1-0.5,2-1.3,2.6c-0.7,0.4-1.5,0.6-2.4,0.6c-1.9-0.2-3.8-0.7-5.4-1.7c-1-0.5-2.1-0.9-3.2-1.3
				c-1.5-0.4-3-0.6-4.5-0.6c-1.9,0-3.8,0.2-5.6,0.5l-0.1,0c-1.8,0.3-3.6,0.5-5.4,0.5c-1.6,0-3.2-0.2-4.8-0.7
				C48.2,182.7,46.5,181.7,45,180.5z M106.2,22.9c2.8,7.8,5,15.8,6.7,23.9c1.6,7.7,2.9,16,4,25.2c2,17.1,2.7,34.4,3.5,51.2l0,0.8
				c0.4,15.3,0.8,33.3,0,51c-0.1,1.5-0.3,3-0.5,4.4c-0.5,3-0.7,6.1-0.6,9.2c3.7,0.6,7.4,0.9,11.2,0.9c2.9,0,5.8-0.2,8.7-0.5
				c0.2-0.6,0.4-1.2,0.7-1.7c4.4-6.1,6.2-13.4,5.4-22.3c-0.7-8.1-3.4-16.5-5.6-23.2c-0.7,0-1.4,0-2.2,0c-0.9,0-1.9,0-2.8,0h0
				c-0.9,0-1.9,0-2.8,0c-0.3,0-0.5,0-0.8,0c0.6,2.3,1,4.6,1.2,7c0.1,0.9,0.2,1.8,0.4,2.6c0.3,2.2,0.7,4.4,1.2,6.8l0.1,0.6l0,0.2v0
				c0.2,0.8,0.3,1.6,0.1,2.4c-0.1,0.5-0.5,0.8-1,0.8c-0.3,0-0.5-0.1-0.7-0.3c-0.7-1.1-1-2.3-1.1-3.6c-0.1-0.5-0.1-1-0.2-1.5
				l-0.1-0.5c0-0.4-0.1-0.8-0.1-1.2c-0.5-4.4-1.1-9-0.1-13.4c-0.2,0-0.3-0.1-0.5,0c-0.3,0-0.5,0-0.8,0h0c-0.3,0-0.6,0-1,0
				c-0.7,0-1.6-0.1-1.7-0.9c0-1-0.1-2-0.3-3c-0.4-2.7-0.8-5.7,0.5-6.9c0.8-0.6,1.8-0.8,2.8-0.7c0.2,0,0.4,0,0.5,0h0
				c0.2,0,0.3,0,0.5,0s0.3,0,0.4,0c1.4-0.1,2.8-0.1,4.1-0.1h0.3c-2.2-5.9-4.1-11.9-5.7-17.9c-1.2-4.8-2.1-9.6-2.6-14.5
				c-0.9-9.1-0.5-17.6,0.1-28.4c0.2-4.4,0.5-9.3,0.7-14.8l0-1c0,0,0-0.1,0-0.1c0,0,0.1-0.1,0.1-0.1c0.1,0,0.1,0.1,0.2,0.1
				c1,7.3,0.7,14.7,0.5,21.9c-0.3,6.2-0.3,12.3,0.1,18.5c0.6,6.4,1.8,12.7,3.5,18.8c1.7,6.1,3.8,12.2,5.9,18.1
				c2,5.7,4.1,11.7,5.8,17.6c1.7,6,2.9,12.1,3.6,18.3c1.2-0.2,2.5-0.2,3.7-0.2c3.9,0.1,7.9,0.7,11.6,1.9c0.1-1,0.2-2.1,0.2-3.1
				c0.2-4.7,0.1-9.4-0.5-14.1c-0.5-4.7-1.4-9.3-2.5-13.8c-2.3-9-5.2-17.9-8.8-26.5c-4.1-9.1-6.7-18.8-7.7-28.7
				c-1.1-6.5-2.7-12.9-4.7-19.2c-2.1-6.5-4.5-12.8-6.6-18.5c-0.6-2-1.6-3.9-2.8-5.6c-1.1-1.4-2.4-2.6-3.9-3.6c-3.2-2-7-2.7-10.4-3.1
				c2.4,4.4,4.8,9,7.9,14.9c0.4,1.2-0.5,2-1.3,2.8c-0.2,0.2-0.5,0.4-0.7,0.7c3.2,2,5,5.4,5.5,10.6c0.5,4.5-0.1,9.6-0.6,14.5
				c-0.4,3.1-0.6,6.2-0.7,9.4c-0.2,2.9-0.4,5.9-0.6,8.8l0,0c-0.4,6.4-0.8,13-1.7,19.5c0,0.2-0.2,0.4-0.4,0.4c-0.3,0-0.5-0.3-0.6-0.6
				c0.1-8.7,0.7-17.6,1.3-26.1v0c0.4-5.2,0.7-10.6,1-15.9l0.1-1c0.4-3.6,0.3-7.2-0.2-10.8c-0.3-1.6-0.9-3.2-1.9-4.6
				c-1-1.3-2.4-2.3-4-2.7c-0.4-0.1-0.7-0.5-0.8-0.9c-0.1-0.5,0.1-1,0.5-1.3c1-0.6,1.9-1.4,2.7-2.4c-2.6-4.9-5.4-10.2-8.1-15.4
				l-0.1-0.2c-0.3-0.5-0.6-1.1-0.8-1.6c-1.6-3.2-3.3-6.6-6.1-8.5c-0.6,0-1.2,0.1-1.8,0.2c-0.4,0.1-0.8,0.1-1.2,0.2
				c0.5,0.8,1.1,1.5,1.9,2.1c0.8,0.8,1.5,1.4,1.4,1.8c0.2,0.2,0.4,0.4,0.6,0.5C106.9,25.4,106.6,24.2,106.2,22.9L106.2,22.9z
				 M66.7,180.8c1,0,2,0.1,3,0.2c1.4,0.4,2.8,0.9,4.2,1.6c1.8,1,3.9,1.6,5.9,1.8c0.8-0.2,1.2-0.5,1.2-0.8c0-0.6-1.1-1.2-2.1-1.6
				c-2.9-1.5-5.8-3-8.3-4.2l-2.2-1.1c-0.5-0.2-0.7-0.8-0.6-1.3c0-0.5,0.4-0.8,0.9-0.8c0.1,0,0.2,0,0.3,0c1.9,0.5,3.9,1,6.5,1.7
				c1,0.2,2.1,0.5,3.1,0.7c3.1,0.8,6.3,1.5,9.5,1.9c-0.3-1.1-1.9-2.3-4.7-3.6c-2.4-1.1-5.1-2.2-7.1-2.9c-0.8-0.3-1.4-0.5-1.9-0.7
				c-0.4-0.2-0.9-0.3-1.3-0.4c-0.9-0.2-2-0.5-2.4-1.1c-0.1-0.3-0.2-0.6-0.1-0.9c0-0.4,0.4-0.8,0.9-0.7c0,0,0,0,0,0
				c0.8,0.1,1.7,0.3,2.4,0.7c0.4,0.2,0.9,0.3,1.3,0.4c4.5,1.2,9,2.1,13.5,2.8l0.1,0c-3.4-3.9-8.3-5.3-12.9-6.7c-2-0.6-4-1.2-5.9-2
				l-0.1,0c-0.8-0.2-1.8-0.5-2-1.2c-0.1-0.4,0-0.8,0.2-1.1c1.8-2.9,6.4-3.5,10.1-3.9c2.4-0.3,4.6-0.5,5.1-1.4
				c0.1-0.2,0.2-0.5,0.1-0.8c-0.3-0.9-1.5-1.4-3.7-1.4c-1.9,0.1-3.8,0.3-5.7,0.6c-0.4,0.1-0.8,0.1-1,0.2c-7.8,1.6-14.9,5.5-20.6,11
				c-0.2,0.2-0.4,0.3-0.6,0.3c-0.2,0-0.3,0-0.5-0.1c-2.5,3.6-5.4,6.9-8.7,9.9c0.6,0.5,1.2,1,1.8,1.5c0.3,0,0.6,0.2,0.7,0.5
				c2.8,2.5,6.4,3.8,10.1,3.8c1.8,0,3.6-0.2,5.4-0.5l0.2,0C62.7,181,64.7,180.8,66.7,180.8z M45.2,76.4c-3.6,7.7-7.7,15.2-12.2,22.4
				c-0.9,1.4-1.8,2.9-2.9,4.6l-0.2,0.3c-0.2,0.2-0.3,0.4-0.5,0.7c-0.9,1.1-1.6,2.4-2.2,3.8c-0.5,1.5-0.3,3.1,0.5,4.5
				c2.4,6.7,5.3,13.2,8.5,19.5c3.2,6.3,6.7,12.3,10.5,18.2c-0.1-4.3-0.2-8.6-0.2-12.8l0-0.3C46.1,117.3,45.7,96.6,45.2,76.4
				L45.2,76.4z M136,130.5L136,130.5c-1.8,0.4-3.6,0.7-5.4,0.8c-1.5,0.1-2.3,0.2-2.7,0.8c-0.6,0.8-0.3,2.5,0.2,6.7l0,0.1
				c0.1,0.4,0.1,0.8,0.2,1.2c0.4,0,0.9,0,1.5,0c1.1,0,2.2,0,3.2,0h0c1,0,2.1,0,3.2,0c1.1,0,2.1,0,3,0c-0.8-2.6-1.7-5.2-2.6-7.7
				l0-0.1L136,130.5L136,130.5z M54.7,152.3c-0.4,0-0.7-0.2-0.9-0.5c-1.3-3.5-0.4-8.1,0.5-11.6c-1.2-0.2-2.3-1-2.9-2.1
				c-0.8-1.8-0.9-3.9-0.2-5.8l0-0.2c-0.1-1,0-2,0.4-3c0.5-0.6,1.2-0.9,2-0.8c0.4,0,0.9,0,1.3,0.1l0,0c0.4,0.1,0.8,0.1,1.2,0.1
				c0.1,0,0.2,0,0.3,0c1.5-0.2,3.1-0.3,4.5-0.4c3.2-0.2,6.3-0.6,9.4-1.2c0.4-0.1,0.8-0.3,1.3-0.5c0.8-0.3,1.5-0.6,2.4-0.7
				c0.3-0.3,0.7-0.5,1.2-0.6c0.4,0,0.8,0.2,1.1,0.6c0.8,1.3,1.2,2.7,1.1,4.2c0,0.5,0.1,1,0.1,1.5v0c0.1,1.1,0.2,2.3,0.2,3.5
				c0,0.6,0,1.2,0.1,1.9c0.2,1.5,0.4,3.3-0.1,4c-0.1,0.2-0.3,0.3-0.5,0.3c-3.4-0.2-6.8-0.3-10.1-0.4h0c-3.8-0.1-7.8-0.2-11.6-0.4
				c0,0.5,0,1,0,1.5c0,1.1,0,2.3,0,3.5c0,0.8,0.1,1.7,0.2,2.5c0.2,1.2,0.2,2.5,0.1,3.7C55.5,151.9,55.1,152.2,54.7,152.3z
				 M53.4,129.3c-0.6,0-1.3,0.1-1.3,1.1c0.1,0.9,0,1.8-0.1,2.6c-0.2,1.1-0.2,2.3,0,3.4c0.3,1,1.2,1.8,2.3,2c1.1,0.2,2.2,0.4,3.2,0.3
				c0.2,0,0.4,0,0.6,0c3.4,0.1,6.5,0.2,9.5,0.3c1,0,2,0.1,3,0.1c1.8,0.1,3.7,0.1,5.5,0.2c-0.2-1.6-0.3-3.2-0.4-4.7
				c0-0.7-0.1-1.5-0.1-2.2c-0.1-0.5-0.1-1.1-0.1-1.6c0.1-1.2-0.1-2.3-0.6-3.4c-3.8,1.5-7.9,1.6-11.9,1.7h0c-0.9,0-1.9,0.1-2.8,0.1
				c0,0.1,0,0.2-0.1,0.2c-0.2,0.2-0.7,0.3-1.4,0.3c-0.7,0-1.6-0.1-2.3-0.2l-0.3,0c-0.7-0.1-1.3-0.1-1.6-0.1c-0.1,0-0.2,0-0.3,0
				l-0.4,0C53.8,129.3,53.6,129.3,53.4,129.3z"/>
		</g>
		<g id="Head-3" transform="translate(56.946 0)">
			<g id="HEAD-4" transform="translate(0.954)">
				<path id="_Background-4" class="st1" d="M39.4,82.1c-3.2,0.1-6.3-1-8.8-3c-3-1.2-5.9-2.8-8.4-4.8c-0.8,0.2-1.8-0.7-2.4-1.3
					c-4-3.3-6.7-7.8-7.8-12.9c-1.4,2-3.4,2.1-5.3,1.1c-4-2.5-3.8-7.9-2.4-11.9c-3-7.6-5.1-27.8-0.5-35.9C4.6,12.2,6,11.5,7,10.2
					c0.8-1.1,1.7-2.1,2.8-3.1c3.1-2.7,8.6-4.1,11.9-4.8c14.2-3.5,25,2.8,37.9,8c-0.7,2-1.7,4-2.9,5.7c3.2,1.3,1.7,4.4-0.7,5.9
					l-1.5-0.8c2.3,9.2,7.6,32.2,5.3,39.6C57.9,72.3,49.9,82.2,39.4,82.1"/>
				<path id="_Ink-5" class="st2" d="M39.4,83.2c-2.1,0-4.1-0.4-6.1-1.2c-2-0.8-3.7-2.1-5-3.9c-0.1-0.1-0.1-0.3-0.1-0.4
					c0-0.1,0-0.3,0.1-0.4c0.1-0.1,0.2-0.2,0.3-0.2c0,0,0.1,0,0.1,0c0.1,0,0.2,0,0.3,0.1l0.3,0.2c2,1.3,4.3,2.3,6.6,2.9
					c1.1,0.2,2.2,0.3,3.3,0.3c1.4,0,2.7-0.2,4.1-0.5c4.4-1.2,8.1-4,10.6-7.8c3-4.5,4.7-9.6,5.1-15c0.5-6.3-0.6-12.5-2-19.3
					c-1.5-7.4-3-13.9-4.6-19.8c0-0.2-0.1-0.4-0.1-0.5c-0.2-0.1-0.5-0.1-0.7-0.1c-0.3,0-0.6,0.1-0.9,0.2c-1,0.5-1.9,1.1-2.8,1.9l0,0
					c-0.3,0.2-0.6,0.5-0.8,0.7c-1,0.8-2.1,1.3-3.4,1.4c-0.1,0-0.2,0-0.3,0c-1.2-0.1-2.4-0.4-3.4-0.9c-0.6-0.3-1.1-0.6-1.8-0.9l0,0
					c-1.6-0.9-3.3-1.6-5.1-2.2c-2.3-0.7-4.7-1.1-7.2-1.1h-0.2c-5.4,0.1-9.3,1.9-11.7,5.6c-1.3,1.7-1.7,3.8-1.3,5.8
					c0.3,1.1,0.8,2.2,1.5,3.2l0.2,0.3c0.4,0.5,0.6,1,0.7,1.6c0.1,0.5,0,1.1-0.3,1.5c-0.2,0.3-0.4,0.7-0.7,1l0,0
					c-0.2,0.2-0.3,0.4-0.5,0.7c-0.3,0.5-0.6,1-0.8,1.5c-0.4,1.1-0.6,2.2-0.6,3.3c0,1.4,0.1,2.7,0.3,4.1v0c0.1,0.9,0.2,1.9,0.3,2.9
					c0,0.1,0,0.3-0.1,0.4c-0.1,0.1-0.2,0.2-0.3,0.2c0,0,0,0-0.1,0h-0.1c0,0.1,0,0.2,0.1,0.3c-0.1-0.1-0.2-0.2-0.3-0.3l0,0
					c-0.1-0.1-0.2-0.2-0.2-0.3c-0.1-0.1-0.3-0.3-0.4-0.4c-0.7-0.6-1.6-1-2.5-1h0c-0.9,0-1.7,0.4-2.3,1c-0.8,0.8-1.7,2.4-1.7,5.6
					c0,1.5,0.2,4.2,1.9,5.6C7.3,59.7,8.1,60,8.8,60h0c0.6,0,1.2-0.2,1.7-0.5l0.1,0l0,0c0.2-0.1,0.3-0.1,0.5-0.2
					c0.1,0,0.2-0.1,0.3-0.1c0.1,0,0.2,0,0.3,0c0.2,0.1,0.3,0.2,0.5,0.4c0.2,0.4,0.3,0.8,0.1,1.3c0,0,0,0.1-0.1,0.1l0.3,0.6
					c1.2,2.4,2.7,4.7,4.3,6.8c1,1.2,2,2.3,3.2,3.3l0.2,0.1c0.1,0.1,0.2,0.2,0.3,0.3l0.1,0.1c0.3,0.3,0.7,0.6,1,0.6h0
					c0.1,0,0.2,0,0.2,0h0c0.1,0,0.2,0,0.3,0c0.1,0,0.2,0,0.3,0.1c0.2,0.1,0.3,0.3,0.4,0.4c0.1,0.2,0.2,0.4,0.2,0.6
					c0,0.2,0,0.4-0.1,0.6c-0.2,0.3-0.4,0.5-0.7,0.7c-0.2,0.1-0.4,0.1-0.6,0.1c-0.1,0-0.2,0-0.4,0c-0.9-0.3-1.6-0.8-2.3-1.4l-0.1-0.1
					c-1.3-1.1-2.5-2.3-3.5-3.6c-1.9-2.3-3.4-5-4.2-7.9C10.7,62.7,10,63,9.3,63c-0.1,0-0.1,0-0.2,0c-1,0-2-0.3-2.9-0.7
					c-1.9-1.1-3.2-3-3.6-5.1c-0.6-2.6-0.5-5.3,0.4-7.8c0-0.1,0-0.1,0.1-0.2c-2.3-7.1-3.3-14.6-3-22.1c0-3.5,0.4-7,1-10.5
					c0.3-1.5,0.9-2.9,1.8-4.2c0.5-0.6,1.1-1.2,1.8-1.7l0,0c0.6-0.4,1.1-0.9,1.5-1.5L6.4,9l0.1-0.1l0.1-0.1c0.8-1,1.6-1.9,2.5-2.8
					c1.1-0.9,2.3-1.7,3.7-2.3c2.8-1.3,5.7-2.2,8.7-2.7c3-0.6,6-1,9.1-1c3.5,0,6.9,0.5,10.3,1.4c2.9,0.9,5.8,2,8.7,3.2L50.3,5
					c1.9,0.8,3.8,1.6,5.7,2.4l1,0.4l1.2,0.5l1.9,0.8c0.2,0.1,0.4,0.3,0.6,0.5c0.1,0.2,0.2,0.5,0.1,0.8c-0.6,1.8-1.4,3.5-2.4,5.1
					c0.3,0.3,0.6,0.6,0.8,1c0.3,0.5,0.4,1.1,0.4,1.8c0,1-0.4,2-1,2.7c-0.6,0.7-1.3,1.4-2.1,1.9c-0.1,0.1-0.3,0.2-0.4,0.2
					c1.1,4.9,2.6,11.5,3.9,18.1l0.1,0.4c1.1,5.7,2,12.5,0.8,19.3c-0.5,2.8-1.3,5.5-2.4,8c-1.1,2.5-2.5,4.9-4.2,7
					c-3.2,3.9-7.8,6.5-12.8,7.2C40.7,83.1,40.1,83.2,39.4,83.2z M30.7,2.1c-3.5,0-6.9,0.5-10.3,1.3L20,3.5c-2.6,0.6-5.2,1.5-7.5,2.7
					c-1.2,0.7-2.3,1.5-3.2,2.5c-0.4,0.4-0.8,0.9-1.2,1.4l0,0C7.6,10.8,7,11.4,6.4,12l-0.6,0.5c-0.9,0.7-1.7,1.7-2.1,2.8
					c-0.5,1.3-0.8,2.7-1,4.1C2.2,22.9,2,26.4,2,29.9c0.1,5.9,0.7,11.7,1.8,17.5c0.7-1.3,1.9-2.2,3.4-2.5c0.2,0,0.4,0,0.6,0
					c0.7,0,1.5,0.2,2.1,0.6c0.5,0.3,0.9,0.6,1.3,1.1c-0.6-2.2-0.9-4.4-0.7-6.7c0.1-1.4,0.5-2.7,1.1-3.9c0.3-0.7,0.7-1.3,1.2-1.9
					l0.2-0.2l0,0c0.1-0.1,0.1-0.2,0.2-0.3c0-0.1,0-0.2,0-0.2c-0.1-0.2-0.2-0.4-0.3-0.5l0,0c-0.1-0.1-0.2-0.2-0.3-0.4
					c-1.5-2-2.2-4.5-2-6.9c0.4-2.5,1.6-4.7,3.3-6.5c1.5-1.7,3.4-2.9,5.5-3.6c2.1-0.7,4.3-1,6.4-1c0.4,0,0.8,0,1.3,0
					c2.7,0.1,5.4,0.7,7.9,1.6c1.3,0.5,2.5,1,3.7,1.7l0.3,0.1l0.1,0.1l0,0l0.3,0.2l0,0c0.9,0.5,1.9,1,2.9,1.3c0.3,0.1,0.7,0.1,1,0.1
					c1.4,0,2.5-0.9,3.7-1.8l0.1-0.1c0.5-0.4,1-0.8,1.5-1.2l0.1-0.1c0.9-0.6,2-1,3.1-1h0.1c1,0,1.9,0.4,2.6,1.2
					c0.1,0.1,0.2,0.3,0.3,0.5c0.1,0.1,0.2,0.3,0.2,0.5c0.2,1,0.5,2,0.8,3.4l0.2-0.2c0.7-0.4,1.3-1,1.6-1.8c0.1-0.4,0.1-0.8,0-1.2
					c0-0.1-0.1-0.2-0.2-0.3c-0.1,0-0.1-0.1-0.2-0.1h0c-0.1,0-0.1,0-0.2,0c-0.2,0-0.3,0-0.5-0.1c-0.2-0.1-0.4-0.3-0.5-0.5
					c-0.1-0.2-0.2-0.5-0.1-0.7c0-0.2,0.1-0.5,0.3-0.7c1.1-1.4,2-3,2.7-4.6L54,8.8c-1.7-0.7-3.3-1.4-4.9-2l-0.9-0.4
					c-2.9-1.3-6-2.4-9.1-3.2C36.3,2.4,33.5,2.1,30.7,2.1z M12.6,55.2L12.6,55.2c-0.6,0-1.1-0.3-1.4-0.7l0,0l0,0L11,54.4
					c-0.4-0.4-0.9-0.6-1.4-0.9C9,53.2,8.2,53,7.4,53c-0.3,0-0.7,0-1,0.1c0,0-0.1,0-0.1,0c-0.1,0-0.2,0-0.2-0.1
					C6,53,5.9,52.9,5.9,52.8c0-0.1-0.1-0.3,0-0.4c0-0.1,0.1-0.2,0.2-0.3c0.9-0.5,2-0.8,3.1-0.8c0.3,0,0.6,0,0.9,0.1l0.1,0
					c0.8,0.1,1.6,0.4,2.4,0.8c0.6,0.3,1,0.9,1.1,1.6c0.1,0.3,0,0.7-0.2,1C13.2,55.1,12.9,55.2,12.6,55.2L12.6,55.2z"/>
			</g>
			<g id="FACE-2" transform="translate(28.314 33.366)">
				<path id="_Ink-6" class="st2" d="M17.2,34.4c-0.8,0-1.6-0.2-2.3-0.5c-1.1-0.5-2.1-1.3-2.7-2.4c-0.2-0.3-0.3-0.7-0.3-1.1
					c0.1-0.4,0.3-0.7,0.5-1c0.2-0.2,0.5-0.3,0.8-0.3c0.1,0,0.1,0,0.2,0c0.4,0.1,0.7,0.3,0.8,0.6l0,0.1c0.4,0.6,0.9,1.1,1.6,1.5
					c0.5,0.3,1,0.4,1.6,0.4c0.1,0,0.3,0,0.4,0c1.3-0.3,2.4-1,3.2-2c0.1-0.1,0.2-0.3,0.4-0.4c0.1-0.1,0.2-0.2,0.3-0.3
					c0.1,0,0.1,0,0.2,0c0.1,0,0.1,0,0.2,0c0.1,0.1,0.2,0.2,0.3,0.3c0.1,0.1,0.1,0.3,0.1,0.4c-0.1,1.1-0.6,2.1-1.3,2.9
					c-0.8,0.8-1.8,1.4-2.9,1.7C17.9,34.4,17.5,34.4,17.2,34.4z M18.8,24.1L18.8,24.1c-1.6-0.1-3.1-0.8-4.3-1.9
					c-0.3-0.3-0.4-0.8-0.3-1.2c0.1-0.5,0.5-0.8,1-0.9c0.2,0,0.3,0.1,0.5,0.2l0.2,0.1l0,0c0.8,0.7,2,1.8,3.2,1.8
					c0.6,0,1.1-0.3,1.4-0.7c0.4-0.6,0.5-1.2,0.4-1.9c-0.1-0.6-0.4-1.2-0.9-1.7c-0.4-0.4-0.8-0.8-1.3-1.2c-0.1-0.1-0.2-0.3-0.1-0.5
					c0.1-0.3,0.3-0.5,0.6-0.5c0,0,0.1,0,0.1,0c1,0.2,2,0.8,2.5,1.7c0.5,0.8,0.7,1.8,0.7,2.8c-0.1,1-0.4,2-1.1,2.8
					C20.8,23.6,19.8,24.1,18.8,24.1z M5.9,14c-0.7-0.1-1.2-0.6-1.3-1.3c-0.1-0.9-0.1-1.9,0.1-2.8c0-0.3,0.1-0.6,0.1-0.9
					c0-0.5,0.2-0.9,0.6-1.2C5.6,7.5,6,7.4,6.4,7.4c0.7,0,1.2,0.5,1.3,1.2c0.2,1.6,0,3.2-0.7,4.6C6.8,13.7,6.4,14,5.9,14z M24.8,13.4
					c-0.3,0-0.7-0.2-0.9-0.4c-0.5-0.7-0.8-1.5-0.8-2.3C23,9.8,23.2,9,23.8,8.3c0-0.1,0.1-0.1,0.1-0.2c0.2-0.4,0.6-0.7,1.1-0.7
					c0.1,0,0.2,0,0.3,0.1c0.5,0.2,0.9,0.6,1.1,1.1c0.3,1.4,0.2,2.8-0.4,4C25.8,13.1,25.3,13.4,24.8,13.4z M0.2,6.7
					C0.1,6.7,0.1,6.6,0,6.5c0-0.1,0-0.2,0-0.3C0.9,4.5,2.4,3,4.1,2C5,1.5,6,1.1,6.9,0.9l0.3-0.1C7.6,0.7,8,0.7,8.5,0.7
					C9,0.6,9.6,0.8,10,1.3c0.2,0.3,0.3,0.7,0.3,1c0,0.3-0.1,0.5-0.3,0.7c-0.4,0.4-1,0.6-1.6,0.5c-0.1,0-0.3,0-0.4,0h0
					c-0.1,0-0.3,0-0.4,0s-0.2,0-0.3,0C6.4,3.6,5.7,3.7,4.9,4C3.2,4.6,1.7,5.5,0.3,6.6C0.3,6.7,0.2,6.7,0.2,6.7z M29,5.3L29,5.3
					l-0.1,0c-0.5-0.1-0.9-0.4-1.4-0.6l-0.4-0.2c-0.5-0.3-1-0.6-1.6-0.8c-1.2-0.4-2.4-0.7-3.7-0.9c-0.3,0-0.5-0.1-0.7-0.3
					c-0.2-0.2-0.4-0.4-0.4-0.7c-0.1-0.4-0.1-0.7,0.1-1.1c0.1-0.2,0.3-0.4,0.6-0.6C21.5,0,21.7,0,21.9,0C22,0,22,0,22.1,0l0.2,0.1
					c1.4,0.3,2.7,0.8,3.9,1.4c1.3,0.7,2.3,1.7,3,3.1c0,0.4,0,0.5,0,0.5l0,0l0,0C29.2,5.2,29.1,5.3,29,5.3L29,5.3z"/>
			</g>
			<g id="ACCESORIES" transform="translate(0 35.519)">
				<path id="_Ink-7" class="st2" d="M34.1,21.6L34.1,21.6c-1.3,0-2.6-0.3-3.8-0.9c-1.2-0.6-2.3-1.4-3.2-2.5c-0.8-1-1.5-2.1-1.9-3.3
					c-0.5-1.4-0.7-2.8-0.6-4.2c-0.9-0.2-1.1-0.8-1.2-1.5C23.3,8,22.3,7.1,21.1,7c-0.6-0.2-1.1-0.6-1.5-1.1c-1.4-0.2-2.9-0.3-4.3-0.3
					c-3.3,0-6.7,0.6-9.8,1.8C5.3,7.5,5,7.7,4.7,7.8C3.6,8.2,2.6,8.6,2.3,9.6C2,10.3,2.1,11,2.4,11.7c0,0.5-0.4,1-0.9,1
					c-0.2,0-0.4-0.1-0.6-0.3l0,0l0,0C0.4,11.6,0.2,10.7,0,9.8c-0.1-0.7,0-1.3,0.2-1.9c0.7-1.2,1.8-2.2,3.2-2.5
					C5,4.9,6.6,4.5,8.2,4.3l0.3-0.1c2.2-0.5,4.4-0.8,6.7-0.8c0.2,0,0.5,0,0.7,0c0.3,0,0.6,0,0.9,0c0.9,0,1.9,0.1,2.8,0.3h0h0
					c0.2-0.8,1.6-1.6,3.8-2.1c2.5-0.5,5.1-0.8,7.6-0.8c2.9,0,5.7,0.3,8.5,1c1.1,0.3,2.1,0.7,3,1.4c0.7,0.5,1.2,1.2,1.5,2
					c0.1,0,0.2,0,0.2,0c0.5,0,0.9,0,1.3,0.1l0.1,0c0.4,0,0.8,0.1,1.2,0.1c0.5,0,1-0.1,1.5-0.3c0.1-1.1,0.9-2.7,4.3-3.9
					C55.1,0.4,57.7,0,60.4,0c1.2,0,2.3,0.1,3.4,0.4c0.3,0,0.6,0.1,1,0.2c0.1,0,0.3,0.1,0.4,0.1c0.1,0,0.3,0,0.4,0.1
					c0.5,0.1,0.8,0.6,0.8,1.1c0.1,0.5-0.1,1.1-0.6,1.4c-0.7,0.4-1.1,1.2-0.9,2c0.1,0.5-0.1,1.1-0.5,1.4c0,2.1-0.3,4.2-0.7,6.2
					c-0.4,2-1.4,3.9-2.8,5.4c-1.3,1.1-2.9,1.7-4.6,1.7c-2,0-3.8-1-5-2.7c-0.9-1.2-1.5-2.6-1.8-4c-0.4-1.8-0.4-3.6-0.1-5.4
					c-0.1-0.1-0.2-0.2-0.2-0.3c0-0.1-0.1-0.1-0.1-0.2c-0.5-0.3-1.2-0.4-1.8-0.4c-0.2,0-0.5,0-0.7,0.1c-0.9,0.1-1.7,0.6-2.2,1.4
					c-0.1,0.1-0.2,0.2-0.3,0.3c-0.1,0.2-0.3,0.4-0.6,0.5l0,0.2c-0.5,3.3-1.1,7-3.4,9.5C38.6,20.6,36.4,21.6,34.1,21.6z M37.7,5.1
					c-0.4,0-0.6,0.3-0.6,0.7c-0.1,0.3,0.1,0.6,0.5,0.7c0.6,0.1,1.1,0.5,1.4,1l0,0.1C39,7.8,39.2,7.9,39.5,8c0.4,0,0.7-0.3,0.7-0.7
					c0-0.1,0-0.2-0.1-0.3c-0.4-0.9-1.2-1.5-2.2-1.7C37.8,5.1,37.8,5.1,37.7,5.1z M61,4.2L61,4.2c-0.2,0-0.5,0.1-0.6,0.4
					c-0.2,0.3-0.1,0.7,0.2,1l0,0c0.3,0.2,0.5,0.5,0.5,0.9v0c0,0.4,0.3,0.7,0.6,0.7c0,0,0,0,0,0c0.2,0,0.3-0.1,0.5-0.2
					c0.1-0.1,0.2-0.3,0.2-0.5c0-0.9-0.5-1.7-1.1-2.2C61.2,4.2,61.1,4.2,61,4.2L61,4.2z"/>
			</g>
		</g>
	</g>
</g>
</svg>
