<?xml version="1.0" encoding="utf-8"?>
<!-- Generator: Adobe Illustrator 24.0.1, SVG Export Plug-In . SVG Version: 6.00 Build 0)  -->
<svg version="1.1" id="Warstwa_1" xmlns="http://www.w3.org/2000/svg" xmlns:xlink="http://www.w3.org/1999/xlink" x="0px" y="0px"
	 viewBox="0 0 23.5 24" style="enable-background:new 0 0 23.5 24;" xml:space="preserve">
<style type="text/css">
	.st0{fill:#FBBC1B;}
	.st1{fill:#FFFFFF;}
	.st2{fill:#010202;}
	.st3{fill:#18191F;}
	.st4{clip-path:url(#SVGID_2_);}
</style>
<g id="Group_36" transform="translate(1 3)">
	<path id="Combined_Shape-2" class="st3" d="M2.8,18c-1.7,0-3-1.3-3-3V3c0,0,0,0,0,0c0-1.6,1.4-3,3-3h16c1.7,0,3,1.3,3,3v12
		c0,1.7-1.3,3-3,3H2.8z M1.8,15c0,0.6,0.4,1,1,1h16c0.6,0,1-0.4,1-1V4.9l-8.4,5.9c-0.3,0.2-0.8,0.2-1.1,0L1.8,4.9V15z M10.8,8.8
		l8.9-6.2C19.5,2.2,19.1,2,18.8,2h-16C2.4,2,2,2.2,1.9,2.6L10.8,8.8z"/>
	<g>
		<defs>
			<path id="SVGID_1_" d="M2.8,18c-1.7,0-3-1.3-3-3V3c0,0,0,0,0,0c0-1.6,1.4-3,3-3h16c1.7,0,3,1.3,3,3v12c0,1.7-1.3,3-3,3H2.8z
				 M1.8,15c0,0.6,0.4,1,1,1h16c0.6,0,1-0.4,1-1V4.9l-8.4,5.9c-0.3,0.2-0.8,0.2-1.1,0L1.8,4.9V15z M10.8,8.8l8.9-6.2
				C19.5,2.2,19.1,2,18.8,2h-16C2.4,2,2,2.2,1.9,2.6L10.8,8.8z"/>
		</defs>
		<clipPath id="SVGID_2_">
			<use xlink:href="#SVGID_1_"  style="overflow:visible;"/>
		</clipPath>
		<g id="Mask_Group_36" class="st4">
			<g id="COLOR_black" transform="translate(-1 -3)">
				<rect id="Rectangle" x="-0.2" y="0" class="st1" width="24" height="24"/>
			</g>
		</g>
	</g>
</g>
</svg>
