<?xml version="1.0" encoding="utf-8"?>
<!-- Generator: Adobe Illustrator 25.0.0, SVG Export Plug-In . SVG Version: 6.00 Build 0)  -->
<svg version="1.1" id="Warstwa_1" xmlns="http://www.w3.org/2000/svg" xmlns:xlink="http://www.w3.org/1999/xlink" x="0px" y="0px"
	 viewBox="0 0 28.3 28.3" style="enable-background:new 0 0 28.3 28.3;" xml:space="preserve">
<style type="text/css">
	.st0{fill:#214BDC;}
	.st1{clip-path:url(#SVGID_2_);}
</style>
<g id="Group_21">
	<path id="Combined_Shape-2" class="st0" d="M14.2,26.2c-0.2,0-0.4-0.1-0.6-0.2c-0.1-0.1-0.2-0.2-0.4-0.3c-0.3-0.2-0.7-0.5-1.1-0.8
		C11,24,9.9,23,8.9,22c-3.2-3.3-4.8-6.7-4.8-9.8c0-5.5,4.5-10,10-10s10,4.5,10,10c0,3.2-1.6,6.5-4.8,9.8c-1,1-2.1,2-3.2,2.9
		c-0.4,0.3-0.7,0.6-1.1,0.8c-0.2,0.2-0.4,0.3-0.4,0.3C14.6,26.1,14.4,26.2,14.2,26.2z M14.2,4.2c-4.4,0-8,3.6-8,8
		c0,2.6,1.4,5.5,4.2,8.4c0.9,1,1.9,1.9,3,2.7c0.3,0.2,0.5,0.4,0.8,0.6c0.3-0.2,0.5-0.4,0.8-0.6c1.1-0.8,2.1-1.8,3-2.7
		c2.8-3,4.2-5.8,4.2-8.4C22.2,7.8,18.6,4.2,14.2,4.2z M14.2,16.2c-2.2,0-4-1.8-4-4s1.8-4,4-4s4,1.8,4,4S16.4,16.2,14.2,16.2z
		 M14.2,10.2c-1.1,0-2,0.9-2,2s0.9,2,2,2s2-0.9,2-2S15.3,10.2,14.2,10.2z"/>
	<g>
		<defs>
			<path id="SVGID_1_" d="M14.2,26.2c-0.2,0-0.4-0.1-0.6-0.2c-0.1-0.1-0.2-0.2-0.4-0.3c-0.3-0.2-0.7-0.5-1.1-0.8
				C11,24,9.9,23,8.9,22c-3.2-3.3-4.8-6.7-4.8-9.8c0-5.5,4.5-10,10-10s10,4.5,10,10c0,3.2-1.6,6.5-4.8,9.8c-1,1-2.1,2-3.2,2.9
				c-0.4,0.3-0.7,0.6-1.1,0.8c-0.2,0.2-0.4,0.3-0.4,0.3C14.6,26.1,14.4,26.2,14.2,26.2z M14.2,4.2c-4.4,0-8,3.6-8,8
				c0,2.6,1.4,5.5,4.2,8.4c0.9,1,1.9,1.9,3,2.7c0.3,0.2,0.5,0.4,0.8,0.6c0.3-0.2,0.5-0.4,0.8-0.6c1.1-0.8,2.1-1.8,3-2.7
				c2.8-3,4.2-5.8,4.2-8.4C22.2,7.8,18.6,4.2,14.2,4.2z M14.2,16.2c-2.2,0-4-1.8-4-4s1.8-4,4-4s4,1.8,4,4S16.4,16.2,14.2,16.2z
				 M14.2,10.2c-1.1,0-2,0.9-2,2s0.9,2,2,2s2-0.9,2-2S15.3,10.2,14.2,10.2z"/>
		</defs>
		<clipPath id="SVGID_2_">
			<use xlink:href="#SVGID_1_"  style="overflow:visible;"/>
		</clipPath>
		<g id="Mask_Group_21" class="st1">
			<g id="COLOR_black">
				<rect id="Rectangle" x="2.2" y="2.2" class="st0" width="24" height="24"/>
			</g>
		</g>
	</g>
</g>
</svg>
