<?xml version="1.0" encoding="utf-8"?>
<!-- Generator: Adobe Illustrator 25.0.0, SVG Export Plug-In . SVG Version: 6.00 Build 0)  -->
<svg version="1.1" id="Warstwa_1" xmlns="http://www.w3.org/2000/svg" xmlns:xlink="http://www.w3.org/1999/xlink" x="0px" y="0px"
	 viewBox="0 0 28.3 28.3" style="enable-background:new 0 0 28.3 28.3;" xml:space="preserve">
<style type="text/css">
	.st0{fill:#18191F;}
	.st1{clip-path:url(#SVGID_2_);}
</style>
<g id="Group_45" transform="translate(0.001 3)">
	<path id="Combined_Shape-2_1_" class="st0" d="M14.2,21.2c-3.5,0-6.7-1.6-9.6-4.8c-0.9-1-1.7-2.1-2.4-3.2c-0.3-0.5-0.6-1-0.9-1.5
		c-0.2-0.3-0.2-0.7,0-1c0.3-0.5,0.5-1,0.9-1.5C2.9,8,3.7,7,4.6,6c2.9-3.2,6.1-4.8,9.6-4.8s6.7,1.6,9.6,4.8c0.9,1,1.7,2.1,2.4,3.2
		c0.3,0.5,0.6,1,0.9,1.5c0.2,0.3,0.2,0.7,0,1c-0.3,0.5-0.5,1-0.9,1.5c-0.7,1.1-1.5,2.2-2.4,3.2C20.9,19.6,17.6,21.2,14.2,21.2z
		 M14.2,3.4c-2.8,0-5.5,1.4-8,4.1C5.3,8.4,4.6,9.4,4,10.4c-0.2,0.3-0.3,0.5-0.5,0.8C3.6,11.4,3.8,11.7,4,12c0.6,1,1.4,2,2.2,2.9
		c2.5,2.7,5.2,4.1,8,4.1s5.5-1.4,8-4.1C23,14,23.7,13,24.4,12c0.2-0.3,0.3-0.5,0.5-0.8c-0.1-0.2-0.3-0.5-0.5-0.8
		c-0.6-1-1.4-2-2.2-2.9C19.7,4.8,17,3.4,14.2,3.4z M14.2,15.6c-2.5,0.1-4.5-1.9-4.6-4.3c-0.1-2.5,1.9-4.5,4.3-4.6s4.5,1.9,4.6,4.3
		c0,0,0,0.1,0,0.1C18.5,13.6,16.6,15.6,14.2,15.6z M14.2,9c-1.2,0-2.2,0.9-2.3,2.2c0,1.2,0.9,2.2,2.2,2.3s2.2-0.9,2.3-2.2
		c0,0,0,0,0-0.1C16.4,10,15.4,9,14.2,9z"/>
	<g>
		<defs>
			<path id="SVGID_1_" d="M14.2,21.2c-3.5,0-6.7-1.6-9.6-4.8c-0.9-1-1.7-2.1-2.4-3.2c-0.3-0.5-0.6-1-0.9-1.5c-0.2-0.3-0.2-0.7,0-1
				c0.3-0.5,0.5-1,0.9-1.5C2.9,8,3.7,7,4.6,6c2.9-3.2,6.1-4.8,9.6-4.8s6.7,1.6,9.6,4.8c0.9,1,1.7,2.1,2.4,3.2c0.3,0.5,0.6,1,0.9,1.5
				c0.2,0.3,0.2,0.7,0,1c-0.3,0.5-0.5,1-0.9,1.5c-0.7,1.1-1.5,2.2-2.4,3.2C20.9,19.6,17.6,21.2,14.2,21.2z M14.2,3.4
				c-2.8,0-5.5,1.4-8,4.1C5.3,8.4,4.6,9.4,4,10.4c-0.2,0.3-0.3,0.5-0.5,0.8C3.6,11.4,3.8,11.7,4,12c0.6,1,1.4,2,2.2,2.9
				c2.5,2.7,5.2,4.1,8,4.1s5.5-1.4,8-4.1C23,14,23.7,13,24.4,12c0.2-0.3,0.3-0.5,0.5-0.8c-0.1-0.2-0.3-0.5-0.5-0.8
				c-0.6-1-1.4-2-2.2-2.9C19.7,4.8,17,3.4,14.2,3.4z M14.2,15.6c-2.5,0.1-4.5-1.9-4.6-4.3c-0.1-2.5,1.9-4.5,4.3-4.6s4.5,1.9,4.6,4.3
				c0,0,0,0.1,0,0.1C18.5,13.6,16.6,15.6,14.2,15.6z M14.2,9c-1.2,0-2.2,0.9-2.3,2.2c0,1.2,0.9,2.2,2.2,2.3s2.2-0.9,2.3-2.2
				c0,0,0,0,0-0.1C16.4,10,15.4,9,14.2,9z"/>
		</defs>
		<use xlink:href="#SVGID_1_"  style="overflow:visible;fill:#18191F;"/>
		<clipPath id="SVGID_2_">
			<use xlink:href="#SVGID_1_"  style="overflow:visible;"/>
		</clipPath>
		<g id="Mask_Group_45" class="st1">
			<g id="COLOR_black_1_" transform="translate(-0.001 -3.333)">
				<rect id="Rectangle_1_" x="1.2" y="1.2" class="st0" width="26" height="26.7"/>
			</g>
		</g>
	</g>
</g>
</svg>
