<?xml version="1.0" encoding="utf-8"?>
<!-- Generator: Adobe Illustrator 24.0.1, SVG Export Plug-In . SVG Version: 6.00 Build 0)  -->
<svg version="1.1" id="Warstwa_1" xmlns="http://www.w3.org/2000/svg" xmlns:xlink="http://www.w3.org/1999/xlink" x="0px" y="0px"
	 viewBox="0 0 23.5 24" style="enable-background:new 0 0 23.5 24;" xml:space="preserve">
<style type="text/css">
	.st0{fill:#FBBC1B;}
	.st1{fill:#FFFFFF;}
	.st2{fill:#010202;}
	.st3{fill:#18191F;}
</style>
<path id="Combined_Shape" class="st3" d="M4.7,23c-1.7,0-3-1.3-3-3v-7c0-1.7,1.3-3,3-3h1V7c0-3.3,2.7-6,6-6s6,2.7,6,6v3h1
	c1.7,0,3,1.3,3,3v7c0,1.7-1.3,3-3,3H4.7z M3.7,13v7c0,0.6,0.4,1,1,1h14c0.6,0,1-0.4,1-1v-7c0-0.6-0.4-1-1-1h-14
	C4.2,12,3.7,12.4,3.7,13z M15.7,10V7c0-2.2-1.8-4-4-4s-4,1.8-4,4v3H15.7z"/>
</svg>
