<?xml version="1.0" encoding="utf-8"?>
<!-- Generator: Adobe Illustrator 25.0.0, SVG Export Plug-In . SVG Version: 6.00 Build 0)  -->
<svg version="1.1" id="Warstwa_1" xmlns="http://www.w3.org/2000/svg" xmlns:xlink="http://www.w3.org/1999/xlink" x="0px" y="0px"
	 viewBox="0 0 28.3 28.3" style="enable-background:new 0 0 28.3 28.3;" xml:space="preserve">
<style type="text/css">
	.st0{fill:#18191F;}
</style>
<g id="Rectangle_6">
	<path class="st0" d="M11.8,9.5c-0.1-0.2-0.2-0.4-0.4-0.6c-0.1-0.1-0.2-0.2-0.2-0.2c-0.3-0.3-0.6-0.5-1-0.7V2.7h-3V8
		c-1.2,0.6-2,1.8-2,3.2v14.5h7V11.2C12.2,10.6,12,10,11.8,9.5z M10.2,23.7h-3V11.2c0-0.8,0.7-1.5,1.5-1.5c0.8,0,1.5,0.7,1.5,1.5
		V23.7z"/>
</g>
<g id="Rectangle_11">
	<path class="st0" d="M23.2,15.7v-3h-8v3c0,1.9,1.3,3.4,3,3.9v4.1h-2v2h6v-2h-2v-4.1C21.9,19.1,23.2,17.5,23.2,15.7z M19.2,17.7
		c-1.1,0-2-0.9-2-2v-1h4v1C21.2,16.8,20.3,17.7,19.2,17.7z"/>
</g>
</svg>
