<?xml version="1.0" encoding="utf-8"?>
<!-- Generator: Adobe Illustrator 25.0.0, SVG Export Plug-In . SVG Version: 6.00 Build 0)  -->
<svg version="1.1" id="Warstwa_1" xmlns="http://www.w3.org/2000/svg" xmlns:xlink="http://www.w3.org/1999/xlink" x="0px" y="0px"
	 viewBox="0 0 28.3 28.3" style="enable-background:new 0 0 28.3 28.3;" xml:space="preserve">
<style type="text/css">
	.st0{fill:#18191F;}
	.st1{clip-path:url(#SVGID_2_);}
</style>
<g id="Group_37" transform="translate(-2 -2)">
	<path id="Combined_Shape-2" class="st0" d="M9.1,26.1c-1.6,0-3-1.4-3-3v-14c0-1.7,1.3-3,3-3h14c1.7,0,3,1.3,3,3v10c0,0,0,0,0,0.1v4
		c0,1.7-1.3,3-3,3H9.1z M23.1,24.1c0.6,0,1-0.4,1-1v-3.6l-4-4l-8.6,8.6H23.1z M8.1,9.1v14c0,0.4,0.3,0.8,0.6,0.9l10.6-10.6
		c0.4-0.4,1-0.4,1.4,0l3.3,3.3V9.1c0-0.6-0.4-1-1-1h-14C8.6,8.1,8.1,8.6,8.1,9.1z M10.1,12.6c0-1.4,1.1-2.5,2.5-2.5s2.5,1.1,2.5,2.5
		s-1.1,2.5-2.5,2.5S10.1,14,10.1,12.6z M12.1,12.6c0,0.3,0.2,0.5,0.5,0.5c0.3,0,0.5-0.2,0.5-0.5s-0.2-0.5-0.5-0.5
		C12.4,12.1,12.1,12.4,12.1,12.6z"/>
	<g>
		<defs>
			<path id="SVGID_1_" d="M9.1,26.1c-1.6,0-3-1.4-3-3v-14c0-1.7,1.3-3,3-3h14c1.7,0,3,1.3,3,3v10c0,0,0,0,0,0.1v4c0,1.7-1.3,3-3,3
				H9.1z M23.1,24.1c0.6,0,1-0.4,1-1v-3.6l-4-4l-8.6,8.6H23.1z M8.1,9.1v14c0,0.4,0.3,0.8,0.6,0.9l10.6-10.6c0.4-0.4,1-0.4,1.4,0
				l3.3,3.3V9.1c0-0.6-0.4-1-1-1h-14C8.6,8.1,8.1,8.6,8.1,9.1z M10.1,12.6c0-1.4,1.1-2.5,2.5-2.5s2.5,1.1,2.5,2.5s-1.1,2.5-2.5,2.5
				S10.1,14,10.1,12.6z M12.1,12.6c0,0.3,0.2,0.5,0.5,0.5c0.3,0,0.5-0.2,0.5-0.5s-0.2-0.5-0.5-0.5C12.4,12.1,12.1,12.4,12.1,12.6z"
				/>
		</defs>
		<clipPath id="SVGID_2_">
			<use xlink:href="#SVGID_1_"  style="overflow:visible;"/>
		</clipPath>
		<g id="Mask_Group_37" class="st1">
			<g id="COLOR_black">
				<rect id="Rectangle" x="4.1" y="4.1" class="st0" width="24" height="24"/>
			</g>
		</g>
	</g>
</g>
</svg>
