<?xml version="1.0" encoding="utf-8"?>
<!-- Generator: Adobe Illustrator 25.0.0, SVG Export Plug-In . SVG Version: 6.00 Build 0)  -->
<svg version="1.1" id="Warstwa_1" xmlns="http://www.w3.org/2000/svg" xmlns:xlink="http://www.w3.org/1999/xlink" x="0px" y="0px"
	 viewBox="0 0 28.3 28.3" style="enable-background:new 0 0 28.3 28.3;" xml:space="preserve">
<style type="text/css">
	.st0{fill:#18191F;}
	.st1{fill:none;}
</style>
<g id="Group_68">
	<path id="Path" class="st0" d="M11.1,7.1c0.5-0.5,1.4-0.6,2-0.1l0.1,0.1l6,6c0.5,0.5,0.6,1.4,0.1,2l-0.1,0.1l-6,6
		c-0.6,0.6-1.5,0.6-2.1,0c-0.5-0.5-0.6-1.4-0.1-2l0.1-0.1l4.9-4.9l-4.9-4.9c-0.5-0.5-0.6-1.4-0.1-2L11.1,7.1z"/>
	<g id="COLOR_black">
		<rect id="Rectangle" x="2.2" y="2.1" class="st1" width="24" height="24"/>
	</g>
	<path id="Path-2" class="st0" d="M11.1,7.1c0.5-0.5,1.4-0.6,2-0.1l0.1,0.1l6,6c0.5,0.5,0.6,1.4,0.1,2l-0.1,0.1l-6,6
		c-0.6,0.6-1.5,0.6-2.1,0c-0.5-0.5-0.6-1.4-0.1-2l0.1-0.1l4.9-4.9l-4.9-4.9c-0.5-0.5-0.6-1.4-0.1-2L11.1,7.1z"/>
</g>
</svg>
