<?xml version="1.0" encoding="utf-8"?>
<!-- Generator: Adobe Illustrator 25.0.0, SVG Export Plug-In . SVG Version: 6.00 Build 0)  -->
<svg version="1.1" id="Warstwa_1" xmlns="http://www.w3.org/2000/svg" xmlns:xlink="http://www.w3.org/1999/xlink" x="0px" y="0px"
	 viewBox="0 0 26.6 26.6" style="enable-background:new 0 0 26.6 26.6;" xml:space="preserve">
<style type="text/css">
	.st0{clip-path:url(#SVGID_2_);}
	.st1{fill:#18191F;}
</style>
<g id="Group_40" transform="translate(0)">
	<g>
		<defs>
			<path id="SVGID_1_" d="M13.9,25.8c-0.5,0-1-0.4-1.2-0.9L10.5,16l-8.8-2.2c-0.6-0.2-1-0.8-0.9-1.4c0.1-0.3,0.3-0.6,0.6-0.8
				L24.1,0.9c0.5-0.3,1.2-0.1,1.5,0.4c0.2,0.3,0.2,0.8,0.1,1.1L14.9,25.1C14.8,25.5,14.3,25.8,13.9,25.8z M22.1,4.5L22.1,4.5
				L5.5,12.3l6.3,1.6c0.4,0.1,0.8,0.4,0.9,0.9l1.6,6.3L22.1,4.5L22.1,4.5z"/>
		</defs>
		<clipPath id="SVGID_2_">
			<use xlink:href="#SVGID_1_"  style="overflow:visible;"/>
		</clipPath>
		<g id="Mask_Group_40" class="st0">
			<g id="COLOR_black" transform="translate(-1.19 -1.19)">
				<rect id="Rectangle" x="0.8" y="0.8" class="st1" width="28.6" height="28.6"/>
			</g>
		</g>
	</g>
</g>
</svg>
