<?xml version="1.0" encoding="utf-8"?>
<!-- Generator: Adobe Illustrator 25.0.0, SVG Export Plug-In . SVG Version: 6.00 Build 0)  -->
<svg version="1.1" id="Warstwa_1" xmlns="http://www.w3.org/2000/svg" xmlns:xlink="http://www.w3.org/1999/xlink" x="0px" y="0px"
	 viewBox="0 0 347.8 325.3" style="enable-background:new 0 0 347.8 325.3;" xml:space="preserve">
<style type="text/css">
	.st0{fill:#00C5AE;}
	.st1{fill:#FFFFFF;}
</style>
<rect class="st0" width="347.8" height="325.3"/>
<g>
	<g id="BODY_1_" transform="translate(6.253 142.242)">
		<path id="_Background_1_" class="st1" d="M258.2,149.3c-1-5.6-1.9-11.3-2.7-17c-0.4-2.7-0.8-5.4-1.1-8.1c-0.2-1.9-0.6-4,0.7-5.4
			c1.8-2,3.4-3.7,3.6-6.5c0.2-2.7-0.7-5.5-1.2-8.1c-1.1-5.4-2.6-10.7-4.2-16c-1.6-5.4-3.4-10.7-5.1-16c-1.6-5-3.4-9.9-5.4-14.7
			c-4.1-9-11.1-15.7-19.7-20.2c-2.1-1.1-6.5-5.1-8.8-6c-2.1-0.8-2.1,1.6-4.1,0.7c-1.7-0.6-3.1-1.8-4-3.3c-1-1.7-3.5-4.2-3.8-6.2
			c-0.8-4.3,0.1-8-2.9-11.2c-2.7-2.8-6.1-4.9-9.9-5.9c-8.1-2.3-19-0.7-23.9,7c-2.3,3.7-3.2,8.2-6.3,11.2c-2.8,2.6-2.1,4.4-5.7,5.8
			c-0.2,0.1-5.7-1.1-5.9-1.1c-3.9-0.9-7.6,1.5-11.2,2.9c-5.4,2.1-10.5,4.8-15.2,8c-9.6,6.6-18,14.9-24.7,24.4
			c-6.9,9.7-12.2,20.3-16,31.6c-0.9,2.7-1.7,5.5-2.5,8.3c-0.4,1.6-0.8,3.2-0.3,4.8c0.4,1.3,1.3,2.3,2.4,3.1c1.4,1.1,4.3,1.8,4.3,3.9
			c-0.2,1.7-0.5,3.3-0.8,4.9c-0.3,1.9-0.6,3.8-0.8,5.8c-1.2,8.8-2.1,17.6-2.5,26.4c-0.4,8.7-0.7,17.6-0.1,26.3
			c0,0.5,0.2,1.1,0.5,1.5c-0.2,0.1-0.2,0.3-0.2,0.5c0,0.1,0.1,0.1,0.2,0.2l0.7,0.1c0.5,0.4,1.1,0.6,1.7,0.6c0.4,0,0.9,0,1.3,0.1
			c4.7,1,9.3,1.9,14,2.7c5.7,0.9,11.5,1.6,17.3,2.2c11.9,1.2,23.6,0.8,35.5,0.2c11.9-0.6,23.7-0.8,35.6-0.5
			c11.9,0.3,23.8,0.8,35.7,1.1c13.3,0.2,26.5-0.1,39.8-1.2c1.5-0.1,2.7-1.4,2.7-2.9c0-0.2,0-0.4-0.1-0.6
			C262.6,171.5,260.1,160.5,258.2,149.3z"/>
		<path id="_Ink_1_" d="M114.9,187.2c-0.1,0-0.2,0-0.2,0c-1.1-0.2-1.9-1.1-1.9-2.2c0-2.1,0.2-4.2,0.3-6.3c0.1-0.9,0.1-1.7,0.2-2.6
			c0.2-3,0.4-6.1,0.6-8.4c0.5-6.5,1-13.1,1.6-19.5v0c0.3-3.6,0.6-7.4,0.9-11.1c0.3-3.2,0.5-6.6,0.9-10.8c-11.4-0.4-22-4.9-30.8-9.4
			c-0.1,3.1-0.5,6.3-0.8,9.4l0,0.4c-1,10.2-1.8,19.1-2.3,27.4c-0.3,4-0.5,8.3-0.7,13.9c-0.1,2.3-0.2,4.6-0.2,6.8
			c0,0.7,0,1.4-0.1,2.3l0,1.7c0.1,1.1-0.3,2.2-1,2.9c-0.4,0.4-1,0.6-1.6,0.6c-0.6,0-1.1-0.2-1.5-0.6c-1.1-1-1-2.3-1-3.7
			c0-0.2,0-0.3,0-0.5c0-1.3,0.1-2.6,0.1-3.9c0.1-2.6,0.2-5.2,0.3-7.8c0.4-8.4,1.3-17.3,2.6-27.1l0.5-3.5c0.9-6.7,1.9-13.2,3.8-19.3
			c-0.8-0.4-1.5-0.8-2.3-1.2c-0.4-0.2-0.8-0.4-1.2-0.6l0,0c-0.9-0.5-1.9-1-2.8-1.5c-1.1-0.5-1.9-1.5-2.2-2.7
			c-0.2-1.2-0.1-2.5,0.4-3.6c0-0.2,0.1-0.4,0.1-0.6l0-0.1c0.3-1.3,0.6-2.6,1-4c1.5-5.4,3.3-10.7,5.4-15.8c4.2-10.3,9.7-20.1,16.4-29
			c6.5-8.7,13.8-15.6,21.4-20.6c4-2.7,8.4-4.8,13-6.4c2.2-0.8,4.4-1.3,6.7-1.6c1.1-0.1,2.2-0.2,3.6-0.3c0.1,0,0.3,0,0.4,0
			c0.8,0,1.6,0.1,2.4,0.2c0.3,0,0.6,0.1,0.8,0.1c0.1,0,0.1,0.1,0.1,0.1c0,0,0,0.1-0.1,0.1c-2.2,0.5-4.3,1.1-6.5,1.8l-0.9,0.3
			c-2.4,0.7-4.8,1.5-7.1,2.5c-4.7,2-9.1,4.6-13.2,7.6c-7.9,6-14.8,13.2-20.4,21.4c-5.7,8.2-10.4,17.1-14,26.4c-2,5-3.6,10.1-5,15.3
			c-0.3,1.2-0.6,2.5-0.9,3.8c0,0.1-0.1,0.2-0.1,0.3c-0.1,0.4-0.3,1.1-0.2,1.4c0.2,0.3,0.5,0.5,0.9,0.6c0.1,0.1,0.2,0.1,0.3,0.1
			l1.1,0.6c2.2,1.2,5.7,3,6.1,3.2l0.6,0.3c4.6,2.4,9.3,4.4,14.2,6c4.9,1.6,9.9,2.6,15,2.8l0.1-0.9c0.4-5,1.2-10,2.4-14.8
			c0-0.1,0.1-0.2,0.2-0.2c0.1,0,0.2,0.1,0.2,0.2c0.7,5.9,0.5,11.9,0.2,17.2c-0.3,7-0.7,14.2-1.1,21.1v0v0.1
			c-0.2,3.1-0.3,6.2-0.5,9.3c-0.2,3.6-0.4,7.2-0.6,10.8v0c-0.1,1.5-0.2,3-0.3,4.5c-0.1,1.3-0.1,2.7-0.2,4c-0.2,3.8-0.4,7.6-0.9,11.4
			C116.8,186.6,115.9,187.3,114.9,187.2z M262.9,183.1c-0.2,0-0.4-0.1-0.6-0.1l-0.1-0.1c-0.8-0.3-1.5-0.9-1.8-1.7
			c-0.1-0.4-0.2-0.9-0.3-1.3c0-0.2-0.1-0.4-0.1-0.6c-0.2-1.2-0.5-2.4-0.7-3.6c-0.4-2.3-0.8-4.8-1.2-7.2l-0.4-2.3
			c-1.2-7.5-2.5-15.4-3.1-23.4c-0.3-3.3-0.5-6.6-0.8-10.4l-0.2-2.6c0-0.5-0.1-1.1-0.1-1.6c-0.2-2.8-0.5-5.6-0.5-8.4l-1.1,0.4
			l-5.3,1.9c-0.3,0.1-0.7,0.3-1.1,0.4c-0.9,0.5-2,0.8-3,0.9c-0.1,0-0.2,0-0.4,0c-0.6,0-1.2-0.3-1.6-0.7c0.5,7.4,1.2,14.5,2,21.3
			c0.9,7.2,1.8,13.5,2.8,19.2c0.6,3.8,1.1,6.8,1.6,9.5c0.3,1.6,0.6,3.2,0.9,4.7c0,0.2,0.1,0.5,0.1,0.7v0c0.1,0.5,0.2,1.1,0.3,1.6
			c0.1,0.8-0.1,1.6-0.6,2.2c-0.3,0.4-0.7,0.7-1.2,0.7c-0.2,0-0.5-0.1-0.7-0.2c-0.8-0.4-1.4-1.2-1.6-2.1c-0.2-0.6-0.3-1.3-0.4-2
			c-0.1-0.3-0.1-0.6-0.2-0.9c-0.3-1.7-0.6-3.4-1-5.2c-0.7-3.7-1.3-7.4-1.8-10.9c-1.8-12.5-3.1-25.5-3.7-38.9
			c-0.3-6.1-0.4-12.4-0.3-19.3c0-3.6,0.1-6.8,0.4-9.9c0.2-2.7,0.6-5.5,0.9-8.1v0c0.1-0.6,0.2-1.2,0.2-1.7c0-0.1,0-0.1,0.1-0.1
			c0,0,0.1,0,0.1,0.1c0,0,0,0,0,0c0.1,1.5,0.2,3.1,0.3,4.6c0.1,2.1,0.3,4.3,0.4,6.5c0.1,2.2,0.1,4.4,0.2,6.5v0
			c0,1.3,0.1,2.7,0.1,4.1c0.2,4.8,0.4,9.5,0.7,13.9c0.4-0.5,1.1-0.8,1.7-0.8c0.1,0,0.2,0,0.3,0c0.8-0.2,1.5-0.4,2.2-0.8
			c0.4-0.2,0.8-0.3,1.2-0.5l4-1.4c2-0.7,4.2-1.4,6.4-2.2c-1.8-6.6-3.3-13.3-4.3-20l-0.5-3c-0.9-6-2.2-12-3.8-17.8
			c-1.8-6.1-4.7-11.8-8.4-16.9c-3.8-5-8-9.6-12.7-13.7c-2.3-2.1-4.7-4.1-7.1-6c-1.7-1.4-3.4-2.8-5.1-4.3c0,0.3,0,0.5,0,0.8
			c-0.4,3.2-1.4,6.3-2.9,9.1c-1.5,2.8-3.4,5.4-5.7,7.7c-5.9,5.7-13.9,8.8-22.1,8.7c-4.2,0-8.3-0.7-12.2-2.1
			c-5.8-2.1-11-5.4-15.3-9.8c-4.4-4.4-7.7-9.7-9.5-15.7c0,0,0-0.1,0-0.1c0,0,0.1-0.1,0.1-0.1c0.1,0,0.1,0,0.1,0.1l0.6,0.8
			c0-0.1,0.1-0.2,0.2-0.3c4.2-1.6,8.1-4,11.2-7.2c1.5-1.6,2.8-3.4,3.8-5.3c0.5-0.9,0.9-1.9,1.3-2.9l0.1-0.3c0-0.1,0.1-0.3,0.1-0.4
			c0.3-1.1,0.8-2.2,1.6-3.1c0.4-0.4,0.9-0.6,1.4-0.6c0.8,0,1.5,0.4,1.9,1c0.4,0.5,0.5,1.2,0.3,1.8c-1.8,5.5-4.6,9.9-8.4,12.9
			c-1.7,1.4-3.6,2.6-5.7,3.4c-2,0.8-4.2,1.3-6.4,1.3c-0.4,0-0.9,0-1.3-0.1c0,0-0.1,0-0.1,0l0.4,0.6c3.2,4.5,6.8,9.2,11.1,13
			c3.4,3,7.2,5.5,11.4,7.2c4.1,1.7,8.5,2.7,13,2.7c2.5,0,5.1-0.3,7.5-1c4.5-1.2,8.7-3.6,12.1-6.8c3.4-3.3,5.9-7.4,7.1-12
			c-0.2,0.1-0.5,0.2-0.7,0.2c-0.1,0-0.3,0-0.4-0.1c-1.9-0.4-3.7-2.4-4.9-3.9c-1.3-1.5-2.3-3.3-3-5.1c-0.7-1.8-1.1-3.7-1.2-5.7
			c-0.1-1.9,0.3-3.9,1.2-5.6c0.1-0.1,0.2-0.2,0.3-0.2c0.2,0,0.4,0.2,0.5,0.4l0.1,0.6c0.4,3.1,0.8,6.2,2.3,9.1c0.7,1.4,1.6,2.8,2.6,4
			c0.6,0.6,1.2,1.2,1.8,1.8c0.3,0.2,0.5,0.4,0.8,0.6c0.4,0.3,0.8,0.6,1.2,0.9l0.1,0.1v0c0-1,0.8-1.8,1.8-1.8h0.1
			c0.7,0.1,1.5,0.3,2.1,0.6l0,0c5.6,2.9,10.9,6.3,15.7,10.4c5,4.1,9.4,8.9,13.1,14.3c3.7,5.4,6.5,11.4,8.3,17.6
			c1.6,5.8,2.8,11.8,3.7,17.8c0.1,0.5,0.2,0.9,0.2,1.4l0.7,3.9c1,6.1,2.2,12,4.5,17.5c0.3,0.6,0.3,1.4,0.1,2.1
			c-0.3,0.6-0.8,1.1-1.4,1.3c-1.6,0.6-3.3,1.2-5.5,2.1c0.6,2.9,1.1,5.8,1.6,8.7c0.2,1.1,0.4,2.2,0.5,3.3c0.8,4.8,1.7,9.6,2.6,14.2
			c0.7,3.6,1.4,7.4,2.1,11.1c0.4,2.2,0.8,4.4,1.1,6.6v0c0.4,2.1,0.7,4.2,1.1,6.4c0.2,1.3,0.5,2.5,0.7,3.7c0.1,0.8,0.3,1.7,0.5,2.5
			c0.1,0.7,0.3,1.5,0.4,2.2c0.1,0.4,0.1,0.8,0.2,1.2l0,0.2l0,0.1c0.1,0.5,0.2,1.1,0.1,1.7c-0.2,0.6-0.5,1.1-1,1.5l0,0l-0.1,0.1
			C263.5,183,263.2,183.1,262.9,183.1L262.9,183.1z"/>
	</g>
	<g id="HEAD_1_" transform="translate(57.219 7.726)">
		<path id="Path_1_" class="st1" d="M111.8,47.9l2.1,2.5c-1.2,0.8-2.2,1.7-3.3,2.5l0,0c4.6-3.2,10.1-5,15.7-5.1
			c10.9,0,33.2,9.6,38.2,16.6c2.5,3.5,7.1,14,9.5,25.6c1.9,9.3,4.8,35.4,1.9,45.2c-3.7,12.6-15.8,24.2-28.2,24.2
			c-12.5,0-31.8-9.2-45.6-29.5c-0.6-0.9-7.9-2-13-5.5l1.4,15.3l1,8.9l-0.2,0.6c-3.7,10.3-6.6,15.6-8.8,16.1
			c-2.2,0.5-6.7-3.3-13.5-11.1l-0.9-3.7c-2.2-9.5-3.3-14.6-3.3-15.3v-0.1c0-1.6,0.6-10.7,0.6-13.2V85.2
			c7.3-24.9,14.3-37.3,20.9-37.3H111.8z"/>
		<path id="_Ink-2_1_" d="M81,176.8c-1.2,0-2.2-0.9-2.4-2.1c-0.8-0.7-1.3-1.7-1.4-2.8c-0.1-0.7-0.2-1.5-0.3-2.2
			c-0.1-0.9-0.2-1.8-0.3-2.7l-0.1,0.1l-0.1,0l0,0.1c-0.1,0.7-0.5,1.4-1.2,1.7c0.2,1.4-0.2,2.8-1,3.9c-0.5,0.6-1.2,0.9-2,0.9
			c-0.2,0-0.3,0-0.5,0h-0.1c0,0-0.1,0-0.1,0c-0.9-0.1-1.7-0.6-2.2-1.4c-0.5-0.7-0.6-1.6-0.3-2.5c-0.8-1-1.1-2.2-0.9-3.4
			c-0.7-0.5-1.2-1.3-1.2-2.2c-0.1-1,0-1.9,0.3-2.8c-1.6-1.4-2.2-3.6-1.4-5.6c-1.4-1.8-1.6-4.3-0.7-6.4c-0.7-0.6-1.2-1.6-1.2-2.6
			c0-1,0.4-2,1.2-2.6c-0.6-1.2-1.4-3.5-0.5-5.2c-0.6-0.7-0.9-1.6-0.8-2.5c0.1-1.2,0.9-2.3,2-2.9l0.1-0.4c0.3,0,0.6-0.1,0.8-0.3
			c0.2-0.2,0.5-0.4,0.7-0.6c0.3,0,0.5-0.1,0.7-0.3c0.5-0.2,1-0.2,1.5-0.2c0.5,0,1-0.5,0.9-1.1c0-0.5-0.4-0.8-0.8-0.9
			c-0.2-0.2-0.4-0.3-0.7-0.3H69c-0.5,0-1,0.1-1.4,0.2c-0.3,0.1-0.5,0.3-0.7,0.6c0,0.4-0.3,0.8-0.6,1c-0.3,0.2-0.6,0.3-0.9,0.3
			c-0.3,0-0.5-0.1-0.7-0.2c-0.6-0.4-0.8-1.1-0.6-1.8c0-0.8,0-1.6-0.3-2.3c-0.2-0.8-0.3-1.6-0.2-2.4c0.1-0.7,0.3-1.3,0.7-1.8
			c-0.8-1.2-0.9-2.8-0.3-4.2c-1.3-1.5-1.5-3.6-0.7-5.3c0,0,0,0,0-0.1c0,0,0,0,0-0.1c0.1-0.3,0.2-0.5,0.4-0.8c-0.7-1.3-0.7-2.8,0-4.1
			c-1.1-1.4-1.2-3.4-0.2-4.9c0-0.1,0-0.2,0-0.2c0,0,0-0.1,0-0.1c-0.4-1.2-0.4-2.5,0.2-3.7c-0.2-0.5-0.4-1-0.5-1.6
			c-0.2-1.4-0.1-2.9,0.3-4.2c0.1-0.2,0.1-0.4,0.2-0.7c0-0.9,0-1.8,0.1-2.9c-0.2-0.8-0.2-1.7-0.2-2.5V87c0-0.1,0-0.2,0-0.3v0
			c0-1.3,0-3.1,0.7-4.2c-0.5-1.3-0.3-2.7,0.6-3.8c-0.7-1.1-0.7-2.5-0.1-3.7c0.1-0.2,0.2-0.4,0.3-0.6c-0.1-1.2,0.2-2.4,0.8-3.4
			c0.4-0.7,1-1.4,1.6-1.9c0-0.2,0-0.3,0-0.4c0-0.7,0.1-1.3,0.4-1.9c-0.5-0.7-0.6-1.7-0.4-2.5c0.3-1,1-1.9,1.9-2.4
			c0.1-1,0.2-1.9,0.4-2.9c-0.6-1.4-0.1-3,1.2-3.8c-0.2-1,0-2.1,0.7-2.9c0.3-0.3,0.6-0.5,1-0.7c-0.2-1,0.1-2.1,0.7-3
			c0.6-0.7,1.4-1.1,2.3-1.2c0.2-0.9,0.6-1.6,1.3-2.2c0.6-0.6,1.5-0.9,2.3-0.9c0.1,0,0.1,0,0.2,0c0.2-0.8,0.8-1.5,1.6-1.8
			c0.2-0.1,0.4-0.1,0.6-0.2c1.5-1.4,3.4-2.5,5.4-3c0.9-0.3,1.8-0.4,2.8-0.4c0.9,0,1.7,0.1,2.6,0.4l0.1,0l0.1,0
			c0.5-0.1,1.1-0.1,1.7-0.1c0.9-0.4,1.8-0.5,2.8-0.5c1.4,0,2.7,0.4,3.9,1.1c0.1,0,0.3,0,0.4,0c1.9,0,3.9,0.6,5.5,1.6
			c1.7,1,3.1,2.4,4.1,4.1l0,0l0,0c0,0,0.1,0.1,0.1,0.1l0.4,0.5c0.4,0.5,0.8,1.1,1.2,1.6c-1.7,0-3.2,0.8-4.1,2.2
			c-0.2,0.3-0.2,0.6-0.1,0.9c0.2,0.3,0.6,0.6,0.9,0.6c0.3,0,0.6-0.1,0.8-0.4l0,0c0.6-0.8,1.5-1.3,2.5-1.2c0.3,0,0.5-0.1,0.7-0.3
			c0.1,0.2,0.1,0.5,0.2,0.7c3.9-1.5,8.1-2.3,12.3-2.2c1.2,0,2.4,0.1,3.7,0.2c-0.2,0.4-0.4,0.8-0.6,1.3c-0.1,0.2-0.1,0.5,0.1,0.7
			c0.1,0.2,0.3,0.4,0.6,0.5c0.1,0,0.2,0,0.3,0c0.4,0,0.8-0.3,0.9-0.7l0,0c0.2-0.6,0.5-1.1,1-1.5c2.6,0.4,5.1,0.9,7.6,1.7
			c3,0.9,5.9,1.9,8.8,3.2c-0.5,0.2-1,0.6-1.2,1.1c-0.2,0.3-0.2,0.7,0,1c0.2,0.3,0.5,0.5,0.9,0.5c0.3,0,0.6-0.2,0.7-0.5l0,0
			c0-0.1,0.1-0.2,0.2-0.2l0,0l0.1,0l0.2,0l0.1,0c0,0,0.1,0,0.1,0h0.1c0.2,0,0.3,0,0.5,0h0.1c0.4,0,0.7-0.2,0.9-0.6
			c1.4,0.7,2.9,1.4,4.2,2.1l0.3,0.2c2.2,1.1,4.2,2.5,6,4c1.9,1.6,3.4,3.5,4.6,5.6c0.1,0.3,0.2,0.6,0.2,0.9c0.5,0.6,1,1.2,1.4,1.9
			c1.4,2,2.5,4.2,3.4,6.4c1.9,4.5,3.4,9.1,4.3,13.8c1.1,5,1.9,9.8,2.6,13.9c0.9,5.2,1.5,10.4,1.7,15.7c0.2,4.7-0.3,9.3-1.3,13.9
			c-1,4.5-2.8,8.9-5.3,12.8c-2.3,3.5-5.1,6.6-8.5,9.2c-3.3,2.5-7.1,4.3-11.2,5.2c-2.1,0.5-4.2,0.7-6.3,0.7c-3.1,0-6.2-0.5-9.2-1.6
			c-3-1.1-5.8-2.7-8.2-4.8c-0.5-0.4-0.7-1-0.7-1.6c0-0.8,0.2-1.5,0.7-2.1c0.4-0.5,1.1-0.7,1.7-0.7c0.7,0,1.4,0.3,1.9,0.7
			c3.9,3.3,8.9,5,14,5c2.9,0,5.8-0.5,8.6-1.5c3.4-1.3,6.5-3.3,9.1-5.9c2.6-2.6,4.8-5.6,6.4-8.9c3.5-6.9,4.8-15.4,4.1-25.9
			c-0.3-4.7-1-9.3-1.8-14.4l-0.4-2.9c-0.4-2.8-0.9-6.1-1.6-9.3l-0.2-0.7c-0.7-3.8-1.8-7.5-3.2-11.1c-0.8-1.8-1.6-3.6-2.6-5.4
			c-0.2-0.4-0.4-0.7-0.6-1c-0.1,0-0.3,0.1-0.4,0.1c-0.1,0-0.3,0-0.4-0.1c-2.6-0.9-5.4-1.4-8.1-1.6c-0.8-0.1-1.5-0.1-2.3-0.1
			c-0.5,0-1,0-1.5,0c-0.4,0-0.8,0-1.2,0c-1.8,0-3.5,0.2-5.2,0.8c-0.2-0.2-0.4-0.3-0.5-0.5l-0.1-0.1h0c-0.1,0-0.1,0-0.2,0
			c-0.5-0.1-0.9-0.5-1.1-1c0,0,0,0,0-0.1l0,0c-0.3-0.2-0.5-0.4-0.8-0.6c-0.1,0-0.2,0-0.2,0c-0.6-0.1-1-0.5-1.1-1
			c-0.1-0.1-0.2-0.1-0.3-0.2l-0.1-0.1c-0.1,0-0.2,0.1-0.3,0.1c-0.1,0-0.1,0-0.2,0c-0.4,0-0.8-0.1-1.1-0.3c-0.5-0.3-0.9-0.8-1.1-1.3
			c-0.1,0-0.1,0-0.2,0c-0.8,0-1.5-0.3-2.2-0.7c-0.6-0.4-1.1-0.9-1.5-1.5c-5.5-2.5-11.4-4-17.4-4.4c-0.6,0.1-1.2,0.3-1.7,0.4
			c-0.1,0-0.3,0.1-0.6,0.2c0.7-0.1,1.3-0.1,2-0.1c0.7,0,1.4,0,2,0.1c3.2,0.6,6.2,1.9,8.7,3.9c2.6,2,5,4.3,7.1,6.7c0.1,0,0.1,0,0.2,0
			c0.5,0,1,0.4,1.2,0.9c0.2,0.4,0.1,0.9-0.3,1.2l-7.5,7.1c0.1,0.3,0,0.6-0.2,0.9c-0.2,0.3-0.6,0.5-1,0.5c-0.1,0-0.2,0-0.2,0
			c-1.2-0.3-2.5-0.6-3.9-0.9c-0.6,0.3-1.2,0.4-1.8,0.4c-0.9,0-1.8-0.3-2.5-0.8c0,0-0.1-0.1-0.2-0.1c0,0-0.1-0.1-0.1-0.1
			c-0.1,0.1-0.2,0.1-0.3,0.2l0,0c-0.3,0.2-0.7,0.3-1.1,0.3c-0.1,0-0.2,0-0.4,0c-0.5-0.1-1-0.3-1.4-0.7c-0.1-0.1-0.3-0.3-0.4-0.4
			c-0.3-0.3-0.6-0.7-0.8-0.8h0c0,0,0,0,0,0c0,0.1-0.6,0.7-0.7,0.8c-0.4,0.3-0.8,0.5-1.3,0.5c-0.1,0-0.2,0-0.2,0
			c-1-0.3-1.9-0.9-2.3-1.9l0-0.1l0,0l0,0l0,0v0c-0.1,0.2-0.3,0.4-0.5,0.6c-0.3,0.3-0.8,0.5-1.2,0.5c-0.1,0-0.2,0-0.3,0
			c-0.5-0.1-0.9-0.4-1.2-0.8l-0.1-0.1c-0.1-0.1-0.7-1-0.6-1.2l0,0l0,0c-0.1,0-0.2,0-0.3,0c-0.2,0-0.5-0.1-0.7-0.2
			c-1.3-0.3-2.7-0.7-4-1.1c-0.1,0.3-0.2,0.6-0.3,0.9c0.4,0.3,0.9,0.6,1.3,1c0.2,0.2,0.5,0.4,0.7,0.6l0.8,0.6l0.1,0
			c0.9,0.7,1.7,1.3,2.6,2l4.5,3.4l0.5-0.1c0.1,0,0.2,0,0.3,0c0.5,0,1,0.4,1.1,0.9l0,0.1c0.1,0.3,0.2,0.5,0.3,0.7h0.1
			c1.1,0,2,0.7,2.3,1.7h0.2c0.2,0,0.5,0,0.7,0c0.4,0,0.7,0.2,1,0.5c0.2,0.3,0.3,0.6,0.2,1l0,0.1l0,0.1c0.5,0.2,0.8,0.6,0.9,1.2
			c0.1,0.2,0.2,0.4,0.3,0.6c0.3,1-0.1,2.1-0.4,3.1c-0.1,0.2-0.1,0.4-0.2,0.6l0,0.1c-0.2,0.7-0.4,1.4-0.7,2.2l-0.6,1.8
			c-1.7,5.6-3.1,10.7-1.8,15.9c0.1,0.3,0,0.6-0.1,0.8c-0.2,0.2-0.5,0.4-0.8,0.4c-0.3,0-0.7-0.2-0.8-0.5c-1.5-2.1-3.1-4.2-4.8-6.1
			l-0.1,0c-1.1-0.2-1.6-1-2.1-1.8l-0.1-0.2c-0.2,0.1-0.4,0.1-0.6,0.1c-0.1,0-0.3,0-0.4,0c-0.5-0.1-0.9-0.4-1.3-0.7
			c-0.1-0.2-0.3-0.4-0.4-0.5c-0.1-0.3-0.3-0.5-0.5-0.7c-0.1-0.1-0.3-0.1-0.4-0.1c-0.2,0-0.4,0-0.6,0.1c-0.2,0-0.4,0.1-0.6,0.1
			c-0.1,0-0.1,0-0.2,0c-0.4-0.1-0.8-0.2-1.2-0.4c-0.7,1-1.1,2.1-1.3,3.3c0,0.4-0.2,0.8-0.4,1.2c0.1,0,0.2,0,0.4,0
			c0.6,0,1.2,0.1,1.8,0.2c2.5,0.5,4.7,2.2,5.6,4.7c0,0,0,0.1,0,0.1c0,0,0,0-0.1,0c0,0-0.1,0-0.1,0c-1-1.5-2.8-2.4-4.6-2.2
			c-1,0-1.9,0.2-2.9,0.5c-2.4,0.8-4.1,3-4.7,6c-0.5,3,0.1,6.2,1.8,8.8c0.7,1.2,1.8,2.2,3.1,2.7c0.4,0.1,0.7,0.2,1.1,0.2
			c0.4,0,0.8-0.1,1.3-0.1c0.4-0.1,0.9-0.1,1.3-0.1c0.4,0,0.7,0,1,0.1c1.1,0.3,1.7,1.4,1.4,2.5c-0.1,0.4-0.2,0.8-0.4,1.1
			c0.1,0.3,0.3,0.6,0.4,0.9c0.4,0.9,0.9,1.8,1.4,2.7c1.1,1.7,2.3,3.2,3.7,4.6c1.7,1.8,3.1,3.1,4.5,4.3c0.9,0.8,1.8,1.4,2.8,2.1
			c0.7,0.4,1.3,0.9,2,1.4c1.3,0.8,1.7,2.5,0.9,3.9c-0.5,0.8-1.3,1.3-2.2,1.3c-0.2,0-0.5,0-0.7-0.1c-4.4-2.2-8.1-5.7-10.5-9.9
			c-1-2-1.9-4.1-2.5-6.3l-0.1-0.3c-0.3-1.1-0.6-2.2-0.9-3.3c-1,0.5-2,0.7-3.1,0.7c-0.4,0-0.8,0-1.2-0.1c-2.2-0.3-4.2-1.4-5.7-3.1
			c-0.7-0.8-1.3-1.7-1.9-2.6c0,0.5,0.1,0.9,0.1,1.4l0,0.3c1.3,1.5,1.8,3.4,1.3,5.3c1.1,1.1,1.4,2.8,0.8,4.2c1.3,1.4,1,3.6,0.6,4.7
			c1.3,1.6,1.5,3.9,0.4,5.8l0,0.1c0.5,0.9,0.8,2,0.7,3c-0.1,1-0.5,2-1.2,2.9c0.6,1,0.7,2.3,0.3,3.4c-0.3,0.8-1,1.4-1.8,1.6
			c-0.2,0.1-0.5,0.1-0.7,0.1c-0.6,0-1.1-0.2-1.5-0.6c0.7,3.5,0.7,6.1,0.1,8.6c-0.3,1.1-1.3,1.9-2.5,2c-0.9,0-1.7-0.5-2.1-1.2
			c0.1,1.4,0,2.9-0.3,4.3c-0.2,0.9-0.9,1.6-1.8,1.8c0.3,0.4,0.4,0.9,0.1,1.4C82.7,176.2,81.9,176.7,81,176.8z M80.1,161.7
			c-0.5,0-1,0.5-1,1c0,0.4,0.3,0.8,0.7,0.9c0.6,0.2,1.3,0.3,1.9,0.2c0.5,0,1-0.5,1-1c0-0.5-0.4-0.9-1-1c-0.5,0-1,0-1.4-0.2
			C80.3,161.7,80.2,161.7,80.1,161.7L80.1,161.7z M75.9,151.2c-0.7,0-1.4,0.2-1.9,0.7c-0.2,0.2-0.3,0.4-0.3,0.7
			c0,0.3,0.1,0.5,0.3,0.7c0.2,0.2,0.4,0.3,0.7,0.3c0.2,0,0.5-0.1,0.6-0.2l0.1-0.1l0,0l0,0l0,0c0,0,0.1,0,0.1-0.1l-0.1,0c0,0,0,0,0,0
			c0,0,0.1,0,0.1,0l0.1,0l0,0h0h0.1c0.1,0,0.2,0,0.3,0c0.3,0,0.5-0.1,0.7-0.3c0.2-0.2,0.3-0.4,0.3-0.7
			C76.9,151.6,76.5,151.2,75.9,151.2L75.9,151.2z M87.2,143.5c-0.5,0-1,0.5-0.9,1.1c0,0.5,0.4,0.9,0.9,0.9h0.2
			c0.9,0.1,1.8-0.1,2.6-0.6c0.4-0.2,0.5-0.7,0.4-1.1c-0.1-0.4-0.5-0.7-0.9-0.8c-0.2,0-0.3,0-0.5,0.1l0,0c-0.4,0.2-0.9,0.3-1.4,0.3
			L87.2,143.5L87.2,143.5z M78.8,137.5c-0.2,0-0.4,0.1-0.6,0.2c-0.3,0.1-0.5,0.3-0.8,0.5c-0.3,0.2-0.4,0.6-0.3,0.9
			c0.2,0.4,0.5,0.7,1,0.7c0.2,0,0.5-0.1,0.6-0.3c0.1,0,0.1-0.1,0.2-0.1l0.1,0h1c0.1,0,0.2,0,0.3,0c0.3,0,0.5,0.1,0.7,0.1h0l0.2,0
			c0.1,0,0.1,0,0.2,0c0.5,0,1-0.5,1-1c0.1-0.4-0.2-0.9-0.7-0.9c0,0,0,0,0,0c-0.6-0.1-1.3-0.2-1.9-0.2c-0.2,0-0.4,0-0.6,0l-0.1,0
			L78.8,137.5z M78.7,118.1L78.7,118.1c-0.9,0-1.7,0.3-2.5,0.8c-0.4,0.3-0.5,0.7-0.4,1.2c0.1,0.4,0.4,0.7,0.8,0.7
			c0.2,0,0.3-0.1,0.5-0.2l0,0c0.1-0.1,0.3-0.2,0.4-0.2c0.3,0.1,0.7,0.2,1,0.2c0.4,0,0.7-0.1,1.1-0.2l0.1,0l0.1,0
			c0.1,0.1,0.3,0.1,0.4,0.1c0.5,0,0.9-0.4,1-0.9c0.1-0.4-0.1-0.8-0.5-0.9C80.2,118.3,79.5,118.1,78.7,118.1L78.7,118.1z M79.4,104.8
			L79.4,104.8c0.2,0,0.4,0,0.6,0c0.5,0.1,1,0.1,1.5,0.3c0.1,0,0.1,0,0.2,0c0.5,0,1-0.4,1-1c0.1-0.5-0.2-0.9-0.7-0.9c0,0,0,0,0,0
			l-0.5-0.1c-0.2,0-0.4-0.1-0.6-0.1c-0.1-0.1-0.2-0.1-0.4-0.1h-0.1h-0.3c-0.3,0-0.5,0-0.8,0c-0.1,0-0.2,0-0.2,0
			c-0.5,0-1,0.3-1.3,0.7c-0.2,0.3-0.2,0.6-0.1,0.9c0.1,0.4,0.5,0.7,0.9,0.7C79,105,79.2,104.9,79.4,104.8L79.4,104.8z M69.5,87.4
			L69.5,87.4c-0.8,0-1.5,0.1-2.2,0.4c-0.7,0.3-1.1,1-1.2,1.7c0,0.2,0,0.5,0.2,0.7c0.2,0.2,0.4,0.3,0.7,0.3c0.5,0,0.9-0.3,1-0.7
			c0.7-0.1,1.5-0.2,2.2-0.2c0.5,0,0.9,0,1.4,0.1c0.3-0.3,0.4-0.7,0.3-1c-0.1-0.3-0.3-0.5-0.6-0.6c-0.1-0.3-0.3-0.5-0.6-0.6l-0.1,0
			C70.2,87.4,69.8,87.4,69.5,87.4L69.5,87.4z M107.2,83.6c-0.2,0-0.5,0.1-0.7,0.3c-0.2,0.2-0.4,0.5-0.5,0.8l-0.1,0.2l0,0.1
			c0,0.1-0.1,0.1-0.1,0.1l0,0l0,0l0,0l0,0c-0.2,0.2-0.3,0.5-0.3,0.8c0,0.2,0.1,0.5,0.3,0.6c0.2,0.2,0.4,0.3,0.7,0.3
			c0.2,0,0.5-0.1,0.7-0.3c0.2-0.2,0.4-0.5,0.5-0.8l0.1-0.2c0,0,0-0.1,0-0.1c0,0,0.1-0.1,0.1-0.1l0,0l0,0l0,0
			c0.2-0.2,0.3-0.5,0.3-0.8c0-0.2-0.1-0.5-0.3-0.6C107.7,83.7,107.5,83.6,107.2,83.6L107.2,83.6z M86.4,83L86.4,83L86.4,83l0.1,0.1
			c0.2,0.2,0.4,0.3,0.7,0.3c0.2,0,0.5-0.1,0.6-0.3c0.4-0.1,0.6-0.5,0.6-0.9c0.1-0.4-0.1-0.8-0.4-1c-0.6-0.5-1.3-0.7-2.1-0.7
			c-0.8,0-1.6,0.3-2.1,0.9c-0.3,0.2-0.4,0.6-0.2,1c0.2,0.4,0.5,0.7,1,0.7c0.2,0,0.4-0.1,0.6-0.2l0,0c0,0,0.1-0.1,0.1-0.1
			c0.2,0.1,0.4,0.2,0.6,0.2h0.2l0.1,0l0,0h0L86.4,83L86.4,83C86.4,83,86.4,83,86.4,83C86.4,83,86.4,83,86.4,83L86.4,83z M101.2,76.1
			c-0.1,0-0.2,0-0.3,0c-1.4,0.4-1.9,1.8-2.1,2.8c-0.1,0.5,0.2,1.1,0.7,1.2c0.1,0,0.2,0,0.2,0c0.4,0,0.8-0.3,0.9-0.7
			c0.1-0.3,0.2-0.7,0.3-1l0.1-0.2c0-0.1,0-0.1,0.2-0.2c0.1,0,0.1-0.1,0.2-0.1l0,0c0.5-0.1,0.8-0.6,0.7-1.1
			C102.1,76.5,101.7,76.1,101.2,76.1L101.2,76.1z M79.6,67.8c-0.8-0.1-1.6,0.3-2,1c-0.2,0.3-0.2,0.6,0,0.9c0.2,0.3,0.5,0.5,0.9,0.5
			c0.3,0,0.6-0.2,0.8-0.4h0h0h0l0.3,0h0c0.4,0,0.7,0.1,1.1,0.1c0.1,0,0.2,0,0.2,0c0.5,0,0.9-0.4,1-0.9c0.1-0.5-0.2-0.9-0.7-1L81,68
			C80.5,67.9,80.1,67.8,79.6,67.8z M122.2,58.7L122.2,58.7c-0.2,0-0.5,0.1-0.6,0.3c-0.7,0.7-1.3,1.5-1.8,2.3
			c-0.3,0.5-0.1,1.1,0.3,1.4c0.1,0.1,0.3,0.1,0.5,0.1c0.3,0,0.7-0.2,0.8-0.5c0.4-0.7,0.9-1.4,1.5-1.9l0,0c0.3-0.3,0.4-0.7,0.2-1
			C123,59,122.6,58.8,122.2,58.7L122.2,58.7z M111.8,58.1L111.8,58.1c-0.9,0.6-1.5,1.4-1.8,2.4c-0.1,0.2-0.1,0.5,0.1,0.7
			c0.1,0.2,0.3,0.4,0.6,0.5c0.1,0,0.2,0,0.3,0c0.4,0,0.8-0.3,0.9-0.7l0,0c0.1-0.3,0.2-0.6,0.4-0.8c0.1-0.2,0.3-0.4,0.6-0.5
			c0.4-0.1,0.7-0.6,0.7-1c-0.2,0.1-0.3,0.1-0.5,0.1C112.6,58.7,112.1,58.5,111.8,58.1L111.8,58.1z M84,55L84,55L84,55L84,55
			c0.1,0,0.1,0,0.2,0l0.1,0c0,0,0,0,0.1,0.1l0.1,0l0,0c0.2,0.2,0.4,0.3,0.6,0.3c0.4,0,0.8-0.3,1-0.7c0.1-0.3,0-0.7-0.2-1
			C85.3,53.3,84.6,53,84,53c-0.4,0-0.9,0.1-1.3,0.3c-0.2,0.1-0.4,0.3-0.4,0.5c-0.1,0.3-0.1,0.6,0.1,0.8c0.2,0.3,0.5,0.5,0.8,0.5
			c0.2,0,0.3,0,0.5-0.1l0,0c0,0,0.1,0,0.1,0h0l0.1,0c0,0,0,0,0,0L84,55L84,55z M104.8,119.6c-0.3,0-0.6-0.1-0.8-0.4l0,0
			c-1.7-2-4.1-3.3-6.7-3.7c-0.7-0.1-1.2-0.7-1.1-1.5c0-0.5,0.4-1,1-1c0,0,0,0,0,0c0.1,0,0.1,0,0.2,0c3.3,0.3,6.3,1.9,8.4,4.4
			c0.3,0.4,0.4,0.9,0.2,1.4C105.7,119.3,105.3,119.6,104.8,119.6z"/>
	</g>
	<g id="FACE" transform="translate(142.262 81.643)">
		<path id="_Ink-3" d="M67.9,63.6c-1.9,0-3.6-0.9-4.8-2.3c-0.9-1-1.4-2.4-1.2-3.8c0-0.4,0.4-0.7,0.7-0.6c0.3,0,0.6,0.1,0.9,0.4
			l0.1,0.2c0.9,1.2,2.1,2.6,3.7,2.6c0.2,0,0.4,0,0.6-0.1c0.8-0.2,1.5-0.6,2-1.3c0.3-0.4,0.5-0.9,0.6-1.4c0.1-0.4,0.2-0.8,0.4-1.2
			c0.4-0.6,1-1,1.7-1c0.9,0,1.7,0.6,1.9,1.5c0.3,1.4-0.1,2.8-1,3.9c-1.3,1.7-3.3,2.8-5.5,3L67.9,63.6z M69.6,50.3L69.6,50.3
			c-2-0.1-3.9-0.5-5.7-1.3c-0.7-0.3-1-1-0.9-1.7c0.1-0.7,0.7-1.1,1.3-1.2c0.2,0,0.4,0,0.5,0.1l0.3,0.1c1.3,0.5,3.1,1.3,4.8,1.3
			c1,0.1,2-0.4,2.6-1.3c0.3-0.7,0.3-1.5,0-2.2c-0.7-1.5-2.8-2.6-4.5-3.1c-0.3-0.1-0.4-0.4-0.4-0.7c0.1-0.4,0.5-0.7,0.9-0.6
			c0.1,0,0.1,0,0.2,0c1.7,0,3.3,0.5,4.6,1.6c1,0.9,1.7,2.2,1.9,3.6c0.2,1.3-0.2,2.6-1.1,3.6C72.9,49.8,71.3,50.4,69.6,50.3
			L69.6,50.3z M42.9,39.5c-0.2,0-0.4-0.2-0.5-0.4c-0.1-0.2,0-0.4,0.1-0.5c2.1-1.7,4.5-3.1,7.1-3.9c-0.4-0.6-0.5-1.4-0.2-2.1
			c0-0.1,0.1-0.3,0.1-0.4l0.1-0.3c0-0.1,0-0.3,0.1-0.4l0,0c0.2-0.6,0.7-1.2,1.3-1.4c0.2,0,0.3-0.1,0.5-0.1c0.3,0,0.5,0.1,0.7,0.2
			c0.9,0.2,1.5,0.8,1.8,1.7c0,0.1,0,0.1,0.1,0.2l0,0.1L54,32.1c0,0.2,0.1,0.3,0.2,0.4c0.1,0.1,0.1,0.2,0.2,0.4
			c0.1,0.3,0.1,0.7,0.1,1c0.3,0,0.6,0,0.8,0l0.3,0c1.4,0.1,3,0.4,3.8,1.7c0.2,0.4,0.3,0.9,0.1,1.3c-0.1,0.4-0.5,0.7-0.9,0.8
			c-0.2,0-0.3,0-0.5,0c-0.6,0-1.3-0.2-1.9-0.4c-0.5-0.2-1-0.3-1.5-0.4c-0.4,0-0.9-0.1-1.3-0.1c-0.9,0-1.7,0.1-2.6,0.2
			c-1.5,0.3-3,0.8-4.5,1.3c-1,0.3-2,0.7-3,0.9L43,39.5C43,39.5,42.9,39.5,42.9,39.5z M83,37.5c-0.4,0-0.8-0.2-0.9-0.6l0-0.1
			c-0.3-0.7-1.1-1.1-2.5-1.1c-0.4,0-0.8,0-1.2,0.1c-0.8,0.1-1.5,0.3-2.2,0.5c-0.2,0.1-0.5,0.1-0.8,0.2l-0.3,0.1
			c-0.1,0-0.6,0.3-0.5,0.3c0,0,0,0,0,0c0,0,0.1,0,0.1,0c0,0,0,0,0,0c0.1,0,0.1,0,0.1,0.1c0,0,0,0.1-0.1,0.1c-0.1,0-0.2,0.1-0.3,0.1
			c-0.2,0-0.4-0.1-0.5-0.3c-0.2-0.2-0.2-0.4-0.2-0.7c0.1-0.9,1.3-1.4,2.1-1.8c0.1,0,0.2-0.1,0.3-0.1l0,0c0.3-0.1,0.6-0.3,0.9-0.4
			c-0.2-0.3-0.3-0.6-0.4-0.9c-0.1-0.3-0.2-0.6-0.2-0.9c0-0.2,0-0.3,0-0.5l0,0c0-0.1,0-0.2,0-0.3l0,0c0-0.4,0.2-0.7,0.4-1
			c0.2-0.3,0.6-0.4,0.9-0.4c0.4,0,0.7,0.1,1,0.4l0.1,0.1c0.5,0.3,1,0.7,1.3,1.3c0.3,0.5,0.5,1,0.5,1.6c1.4-0.1,2.7,0.5,3.6,1.5
			c0.4,0.4,0.5,0.9,0.4,1.4l-0.1,0.3C84.2,37.1,83.7,37.4,83,37.5L83,37.5z M41.7,30.1c-0.3,0-0.5-0.2-0.5-0.4
			c-0.3-0.9,0-2.1,0.9-3.7c0.8-1.2,1.8-2.2,3-3c1.3-0.8,2.7-1.4,4.2-1.8l0.4-0.1c0.3-0.1,0.5-0.2,0.8-0.3c0.8-0.3,1.7-0.5,2.6-0.6
			c0.8,0,1.5,0.3,2.1,0.8c0.7,0.7,0.8,1.7,0.3,2.6c-0.9,1.4-2.1,1.5-3.5,1.5c-0.3,0-0.6,0-0.9,0c-1.3,0.1-2.6,0.5-3.8,1
			c-1,0.4-1.9,1-2.8,1.6c-0.4,0.3-0.8,0.7-1.1,1c-0.4,0.4-0.8,0.8-1.2,1.1C41.9,30,41.8,30.1,41.7,30.1z M82.9,27.5
			c-0.7,0-1.3-0.4-1.7-0.9l0-0.1c-1-1.4-2.3-2.5-3.9-3.2c-0.8-0.4-1.6-0.6-2.4-0.8l-0.3,0c-0.3-0.1-0.6-0.1-0.8-0.1
			c-0.1,0-0.2,0-0.3,0c-0.2,0-0.3,0.1-0.5,0.2c0,0.1,0,0.1,0,0.2c0,0.1-0.1,0.1-0.2,0.1c0,0-0.1,0-0.1,0c-0.3-0.1-0.5-0.4-0.6-0.7
			c0-0.4,0.2-0.8,0.5-1.1c0.7-0.7,2-1,3.9-1c3.2,0.1,6.2,1.8,8,4.5c0.3,0.4,0.3,0.9,0.2,1.4c-0.1,0.6-0.5,1.1-0.9,1.4
			C83.6,27.4,83.2,27.5,82.9,27.5L82.9,27.5z"/>
	</g>
</g>
</svg>
