<?xml version="1.0" encoding="utf-8"?>
<!-- Generator: Adobe Illustrator 25.0.0, SVG Export Plug-In . SVG Version: 6.00 Build 0)  -->
<svg version="1.1" id="Warstwa_1" xmlns="http://www.w3.org/2000/svg" xmlns:xlink="http://www.w3.org/1999/xlink" x="0px" y="0px"
	 viewBox="0 0 347.8 325.3" style="enable-background:new 0 0 347.8 325.3;" xml:space="preserve">
<style type="text/css">
	.st0{fill:#FFFFFF;}
</style>
<g id="BODY" transform="translate(4.724 109.279)">
	<path id="_Background" class="st0" d="M258.4,183.2c-1-5.8-1.9-11.7-2.7-17.5c-0.4-2.8-0.8-5.6-1.1-8.3c-0.2-2-0.6-4.2,0.7-5.6
		c1.8-2,3.4-3.8,3.6-6.7c0.2-2.7-0.7-5.7-1.2-8.4c-1.2-5.6-2.6-11.1-4.2-16.6c-1.6-5.5-3.4-11-5.2-16.5c-1.6-5.2-3.4-10.2-5.5-15.2
		c-4.1-9-11.2-16.4-20-20.9c-2.2-1.1-6.6-5.2-8.9-6.2c-2.1-0.8-2.1,1.6-4.1,0.7c-1.7-0.6-3.1-1.8-4.1-3.4c-1-1.8-3.5-4.3-3.9-6.4
		c-0.8-4.4,0.1-8.2-3-11.6c-2.7-2.9-6.2-5-10.1-6.1c-8.2-2.4-19.2-0.7-24.2,7.3c-2.4,3.8-3.2,8.4-6.4,11.5c-2.8,2.7-2.2,4.6-5.8,6
		c-0.2,0.1-5.8-1.2-6-1.1c-4-0.9-7.8,1.6-11.4,3c-5.4,2.2-10.6,4.9-15.4,8.3C109.5,76.4,101,85,94.2,94.8c-7,10-12.4,21-16.2,32.6
		c-0.9,2.8-1.8,5.7-2.5,8.6c-0.6,1.6-0.7,3.3-0.4,4.9c0.4,1.3,1.3,2.4,2.4,3.2c1.5,1.1,4.4,1.8,4.3,4c-0.2,1.7-0.5,3.4-0.9,5.1
		c-0.3,2-0.6,4-0.8,6c-1.2,9-2.1,18.1-2.5,27.3c-0.5,9-0.6,18.1-0.1,27.1c0,0.6,0.2,1.1,0.5,1.6c-0.3,0.1-0.3,0.6,0,0.7l0.7,0.1
		c0.5,0.4,1.1,0.6,1.7,0.6c0.4,0,0.9,0,1.3,0.1c4.7,1,9.5,2,14.3,2.7c5.8,0.9,11.7,1.6,17.5,2.2c12,1.2,24,0.8,36.1,0.2
		c12-0.7,24.1-0.8,36.1-0.5c12.1,0.3,24.1,0.9,36.2,1.1c13.5,0.3,27-0.2,40.4-1.3c1.6-0.1,2.8-1.4,2.7-3c0-0.2,0-0.4-0.1-0.6
		C262.8,206.1,260.3,194.7,258.4,183.2z"/>
	<path id="_Ink" d="M112.8,222.3c-0.1,0-0.2,0-0.2,0c-1.1-0.2-2-1.2-1.9-2.3c0-2.1,0.2-4.3,0.3-6.5c0.1-0.9,0.1-1.8,0.2-2.7
		c0.2-3.1,0.4-6.3,0.6-8.6c0.5-6.7,1-13.5,1.6-20.1v0c0.3-3.7,0.6-7.6,0.9-11.4c0.3-3.3,0.6-6.8,0.9-11.2
		c-11.6-0.4-22.3-5.1-31.3-9.7c-0.1,3.2-0.5,6.5-0.8,9.7l0,0.5c-1,10.5-1.8,19.7-2.4,28.3c-0.3,4.1-0.5,8.5-0.7,14.3
		c-0.1,2.4-0.2,4.7-0.2,7c0,0.7,0,1.5-0.1,2.3l0,1.8c0.1,1.1-0.3,2.2-1.1,3c-0.4,0.4-1,0.6-1.6,0.6c-0.6,0-1.1-0.2-1.5-0.6
		c-1.1-1.1-1-2.4-1-3.9c0-0.2,0-0.4,0-0.5c0-1.3,0.1-2.7,0.1-4c0.1-2.7,0.2-5.4,0.3-8c0.4-8.7,1.3-17.9,2.6-28l0.5-3.6
		c0.7-6.7,2-13.4,3.8-19.9c-0.8-0.4-1.6-0.8-2.3-1.2c-0.4-0.2-0.8-0.4-1.2-0.6l0,0c-1-0.5-1.9-1-2.9-1.6c-1.1-0.6-1.9-1.6-2.2-2.7
		c-0.2-1.3-0.1-2.5,0.4-3.7c0-0.2,0.1-0.4,0.1-0.6l0-0.1c0.3-1.3,0.7-2.7,1-4.1c1.5-5.6,3.3-11,5.5-16.3
		c4.3-10.6,9.8-20.7,16.6-29.9c6-8.3,13.3-15.5,21.8-21.3c4.1-2.7,8.5-5,13.2-6.6c2.2-0.8,4.5-1.3,6.8-1.7c1.1-0.1,2.3-0.2,3.7-0.3
		c0.1,0,0.3,0,0.4,0c0.8,0,1.7,0.1,2.5,0.2c0.3,0,0.6,0.1,0.9,0.1c0.1,0,0.1,0.1,0.1,0.1c0,0,0,0.1-0.1,0.1
		c-2.2,0.5-4.4,1.1-6.6,1.8l-0.9,0.3c-2.5,0.7-4.9,1.6-7.2,2.6c-4.8,2.1-9.3,4.7-13.4,7.9c-8,6.2-15,13.7-20.7,22.1
		c-5.8,8.5-10.5,17.6-14.2,27.2c-2,5.2-3.7,10.4-5,15.8c-0.3,1.3-0.6,2.6-0.9,3.9c0,0.1-0.1,0.2-0.1,0.3c-0.1,0.5-0.3,1.1-0.2,1.4
		c0.2,0.3,0.6,0.5,0.9,0.6c0.1,0.1,0.2,0.1,0.3,0.2l1.1,0.6c2.2,1.2,5.8,3.1,6.2,3.3l0.6,0.3c4.6,2.4,9.5,4.5,14.4,6.2
		c4.9,1.7,10.1,2.7,15.3,2.9l0.1-0.9c0.4-5.2,1.2-10.3,2.4-15.3c0-0.1,0.1-0.2,0.2-0.2c0.1,0,0.2,0.1,0.2,0.2
		c0.6,5.9,0.7,11.9,0.2,17.8c-0.3,7.3-0.7,14.7-1.1,21.8v0v0.1c-0.2,3.2-0.3,6.4-0.5,9.6c-0.2,3.7-0.4,7.5-0.7,11.1v0.1
		c-0.1,1.5-0.2,3.1-0.3,4.6c-0.1,1.4-0.2,2.8-0.2,4.1c-0.2,3.9-0.4,7.9-0.9,11.8C114.8,221.7,113.8,222.4,112.8,222.3z M263.2,218.1
		c-0.2,0-0.4-0.1-0.6-0.1l-0.2-0.1c-0.8-0.3-1.5-1-1.8-1.8c-0.1-0.4-0.2-0.9-0.3-1.3c0-0.2-0.1-0.4-0.1-0.6
		c-0.2-1.2-0.5-2.5-0.7-3.7c-0.4-2.4-0.8-4.9-1.2-7.4l-0.4-2.3c-1.2-7.7-2.5-15.9-3.1-24.2c-0.3-3.4-0.5-6.8-0.9-10.8l-0.2-2.7
		c0-0.5-0.1-1.1-0.1-1.6c-0.2-2.9-0.5-5.8-0.5-8.7l-1.1,0.4l-5.4,2c-0.3,0.1-0.7,0.3-1.1,0.4c-1,0.5-2,0.8-3.1,0.9
		c-0.1,0-0.2,0-0.4,0c-0.6,0-1.2-0.3-1.7-0.7c0.5,7.6,1.2,15,2.1,22c0.9,7.4,1.8,13.9,2.8,19.9c0.6,4,1.2,7,1.7,9.8
		c0.3,1.6,0.6,3.3,0.9,4.9c0,0.3,0.1,0.5,0.2,0.8v0c0.1,0.5,0.2,1.1,0.3,1.7c0.1,0.8-0.1,1.6-0.6,2.3c-0.3,0.4-0.7,0.7-1.2,0.7
		c-0.2,0-0.5-0.1-0.7-0.2c-0.8-0.4-1.4-1.2-1.6-2.1c-0.2-0.7-0.3-1.4-0.4-2c-0.1-0.3-0.1-0.6-0.2-0.9c-0.3-1.7-0.7-3.6-1-5.4
		c-0.7-3.9-1.3-7.7-1.8-11.3c-1.9-12.9-3.1-26.4-3.7-40.1c-0.3-6.3-0.4-12.8-0.3-19.9c0-3.7,0.1-7,0.4-10.2c0.2-2.8,0.6-5.6,0.9-8.4
		v0c0.1-0.6,0.2-1.2,0.2-1.8c0-0.1,0-0.1,0.1-0.1c0,0,0.1,0,0.1,0.1c0,0,0,0,0,0c0.1,1.6,0.2,3.2,0.3,4.7c0.1,2.2,0.3,4.5,0.4,6.7
		s0.2,4.5,0.2,6.7v0c0,1.4,0.1,2.8,0.1,4.2c0.2,4.9,0.4,9.8,0.7,14.4c0.4-0.5,1.1-0.8,1.8-0.8c0.1,0,0.2,0,0.3,0
		c0.8-0.2,1.5-0.5,2.2-0.8c0.4-0.2,0.8-0.3,1.2-0.5l4.1-1.4c2-0.7,4.2-1.5,6.5-2.2c-1.9-6.8-3.3-13.7-4.4-20.7l-0.5-3.1
		c-0.9-6.2-2.2-12.3-3.9-18.4c-1.9-6.2-4.7-12.1-8.5-17.5c-3.8-5.1-8.1-9.9-12.9-14.1c-2.3-2.1-4.8-4.2-7.2-6.2
		c-1.7-1.4-3.5-2.9-5.2-4.4c0,0.3,0.1,0.5,0,0.8c-0.4,3.3-1.5,6.5-3,9.4c-1.5,2.9-3.5,5.6-5.8,7.9c-6,5.9-14.1,9.1-22.4,9
		c-4.2,0-8.4-0.7-12.4-2.2c-5.9-2.2-11.2-5.6-15.5-10.1c-4.5-4.5-7.8-10.1-9.6-16.2c0,0,0-0.1,0-0.1c0,0,0.1-0.1,0.1-0.1
		c0.1,0,0.1,0,0.2,0.1l0.6,0.9c0-0.1,0.1-0.2,0.2-0.3c4.3-1.6,8.2-4.2,11.4-7.4c1.5-1.7,2.9-3.5,3.9-5.5c0.5-1,0.9-2,1.3-3l0.1-0.3
		c0-0.1,0.1-0.3,0.1-0.4c0.3-1.2,0.8-2.3,1.6-3.2c0.4-0.4,0.9-0.7,1.5-0.7c0.8,0,1.5,0.4,2,1.1c0.4,0.5,0.5,1.2,0.3,1.9
		c-1.9,5.7-4.7,10.2-8.5,13.3c-1.7,1.4-3.7,2.6-5.8,3.5c-2,0.9-4.3,1.3-6.5,1.4c-0.4,0-0.9,0-1.3-0.1c0,0-0.1,0-0.1,0l0.4,0.6
		c3.3,4.9,7.1,9.4,11.3,13.4c3.4,3.1,7.3,5.6,11.5,7.4c4.2,1.8,8.6,2.7,13.2,2.8c2.6,0,5.2-0.3,7.7-1c4.6-1.3,8.9-3.7,12.3-7.1
		c3.5-3.4,6-7.7,7.2-12.4c-0.2,0.1-0.5,0.2-0.7,0.2c-0.1,0-0.3,0-0.4-0.1c-1.9-0.4-3.7-2.5-5-4c-1.3-1.6-2.4-3.4-3.1-5.3
		c-0.7-1.9-1.1-3.9-1.2-5.9c-0.1-2,0.3-4,1.3-5.8c0.1-0.1,0.2-0.2,0.3-0.2c0.2,0,0.4,0.2,0.5,0.5l0.1,0.7c0.2,3.2,1,6.4,2.3,9.4
		c0.7,1.5,1.6,2.8,2.6,4.1c0.6,0.7,1.2,1.3,1.8,1.8c0.3,0.2,0.5,0.4,0.8,0.6c0.4,0.3,0.8,0.6,1.2,0.9l0.1,0.1v0c0-1,0.8-1.8,1.8-1.8
		h0.1c0.7,0.1,1.5,0.3,2.2,0.6l0,0c5.7,3,11.1,6.6,16,10.8c5.1,4.3,9.6,9.2,13.3,14.8c3.7,5.6,6.6,11.8,8.4,18.2
		c1.6,6,2.8,12.2,3.7,18.3c0.1,0.5,0.2,1,0.2,1.5l0.7,4.1c1.1,6.3,2.2,12.4,4.5,18.1c0.3,0.7,0.3,1.4,0.1,2.1
		c-0.3,0.6-0.8,1.1-1.4,1.3c-1.6,0.6-3.3,1.3-5.6,2.1c0.7,2.9,1.1,6,1.6,9c0.2,1.1,0.4,2.3,0.6,3.4c0.8,4.9,1.8,9.9,2.7,14.7
		c0.7,3.7,1.4,7.6,2.1,11.4c0.4,2.3,0.8,4.6,1.1,6.8v0c0.4,2.2,0.7,4.4,1.1,6.6c0.2,1.3,0.5,2.6,0.7,3.9c0.2,0.9,0.3,1.7,0.5,2.6
		c0.1,0.7,0.3,1.5,0.4,2.2c0.1,0.4,0.1,0.8,0.2,1.2l0,0.2l0,0.1c0.1,0.6,0.2,1.1,0.1,1.7c-0.2,0.6-0.6,1.1-1,1.5l0,0l-0.1,0.2
		C263.7,218,263.5,218.1,263.2,218.1L263.2,218.1z"/>
</g>
<g id="HEAD" transform="translate(43.227 5.935)">
	<path id="Path_1_" class="st0" d="M122.9,42.9l2.1,2.6c-1.2,0.9-2.3,1.7-3.3,2.6l0,0c4.7-3.3,10.2-5.1,15.9-5.2
		c11.1,0,33.7,10,38.8,17.1c2.5,3.6,7.2,14.5,9.7,26.4c2,9.6,4.9,36.6,2,46.7c-3.7,13-16,25-28.7,25s-32.3-9.5-46.3-30.5
		c-0.6-1-8-2.1-13.2-5.7l1.4,15.8l1,9.2l-0.2,0.7c-3.8,10.6-6.7,16.1-8.9,16.6c-2.2,0.5-6.8-3.4-13.7-11.5l-0.9-3.9
		c-2.2-9.8-3.4-15.1-3.4-15.8V133c0-1.7,0.6-11.1,0.6-13.6v-38C83.2,55.7,90.2,42.9,97,42.9H122.9z"/>
	<path id="_Ink-2" d="M91.7,176c-1.2,0-2.3-1-2.4-2.2c-0.8-0.8-1.4-1.8-1.4-2.9c-0.1-0.8-0.2-1.5-0.3-2.3c-0.1-0.9-0.2-1.9-0.3-2.8
		l-0.1,0.1l-0.1,0l0,0.1c-0.1,0.7-0.6,1.4-1.2,1.8c0.2,1.4-0.2,2.9-1,4.1c-0.5,0.6-1.2,0.9-2,0.9c-0.2,0-0.3,0-0.5,0h-0.1
		c0,0-0.1,0-0.1,0c-0.9-0.1-1.7-0.7-2.2-1.4c-0.5-0.8-0.6-1.7-0.4-2.5c-0.8-1-1.1-2.3-0.9-3.6c-0.7-0.5-1.2-1.4-1.3-2.3
		c-0.1-1,0-2,0.3-2.9c-1.6-1.4-2.2-3.7-1.4-5.7c-1.4-1.9-1.7-4.4-0.7-6.6c-0.8-0.7-1.2-1.6-1.2-2.6c0-1,0.4-2,1.2-2.7
		c-0.6-1.2-1.5-3.6-0.5-5.4c-0.6-0.7-0.9-1.6-0.8-2.6c0.1-1.3,0.9-2.4,2.1-3l0.1-0.4c0,0,0.1,0,0.1,0c0.2,0,0.5-0.1,0.7-0.3
		c0.2-0.2,0.5-0.4,0.7-0.6c0.3,0,0.5-0.1,0.7-0.3c0.5-0.2,1-0.3,1.5-0.2c0.6,0,1-0.5,0.9-1.1c0-0.5-0.4-0.8-0.8-0.9
		c-0.2-0.2-0.4-0.3-0.7-0.3h-0.2c-0.5,0-1,0.1-1.4,0.2c-0.3,0.1-0.5,0.3-0.7,0.6c0,0.4-0.3,0.8-0.6,1c-0.3,0.2-0.6,0.3-0.9,0.3
		c-0.3,0-0.5-0.1-0.8-0.2c-0.6-0.4-0.9-1.2-0.6-1.9c0-0.8,0-1.6-0.3-2.4c-0.2-0.8-0.3-1.7-0.3-2.5c0.1-0.7,0.3-1.3,0.7-1.9
		c-0.8-1.3-0.9-2.9-0.3-4.3c-1.3-1.5-1.6-3.7-0.7-5.5c0,0,0,0,0-0.1c0,0,0,0,0-0.1c0.1-0.3,0.2-0.6,0.4-0.8c-0.7-1.3-0.7-2.9,0-4.3
		c-1.1-1.5-1.2-3.5-0.2-5c0-0.1,0-0.2,0-0.2c0,0,0-0.1,0-0.1c-0.4-1.3-0.4-2.6,0.2-3.8c-0.2-0.5-0.4-1.1-0.5-1.6
		c-0.2-1.5-0.2-2.9,0.3-4.4c0.1-0.2,0.1-0.4,0.2-0.7c0-0.9,0-1.9,0.1-3c-0.2-0.9-0.2-1.7-0.2-2.6v-0.5c0-0.1,0-0.2,0-0.3v0
		c0-1.4,0-3.2,0.7-4.3c-0.6-1.3-0.3-2.8,0.6-3.9c-0.7-1.2-0.7-2.6-0.1-3.8c0.1-0.2,0.2-0.4,0.4-0.6c-0.1-1.2,0.2-2.4,0.8-3.5
		c0.4-0.8,1-1.4,1.6-1.9c0-0.2,0-0.3,0-0.5c0-0.7,0.2-1.4,0.4-2c-0.5-0.8-0.6-1.7-0.4-2.6c0.3-1.1,1-2,2-2.5c0.1-1,0.2-2,0.4-3
		c-0.6-1.4-0.1-3,1.2-3.9c-0.2-1.1,0-2.2,0.7-3c0.3-0.3,0.6-0.5,1-0.7c-0.2-1.1,0.1-2.2,0.7-3.1c0.6-0.7,1.4-1.1,2.3-1.2
		c0.2-0.9,0.6-1.7,1.3-2.2c0.6-0.6,1.5-0.9,2.3-0.9c0.1,0,0.1,0,0.2,0c0.2-0.8,0.8-1.5,1.6-1.9c0.2-0.1,0.4-0.2,0.6-0.2
		c1.6-1.5,3.5-2.6,5.5-3.1c0.9-0.3,1.9-0.4,2.8-0.4c0.9,0,1.8,0.1,2.6,0.5l0.1,0l0.1,0c0.6-0.1,1.1-0.1,1.7-0.1
		c0.9-0.4,1.8-0.5,2.8-0.5c1.4,0,2.8,0.4,4,1.2c0.1,0,0.3,0,0.4,0c2,0,3.9,0.6,5.6,1.7c1.7,1.1,3.2,2.5,4.2,4.3l0,0l0,0
		c0,0,0.1,0.1,0.1,0.1l0.4,0.5c0.4,0.5,0.9,1.1,1.2,1.7c-1.7,0-3.3,0.8-4.2,2.3c-0.2,0.3-0.2,0.6-0.1,0.9c0.2,0.4,0.6,0.6,1,0.6
		c0.3,0,0.6-0.2,0.8-0.4l0,0c0.6-0.8,1.5-1.3,2.5-1.3c0.3,0,0.5-0.1,0.7-0.3c0.1,0.2,0.1,0.5,0.2,0.7c4-1.6,8.2-2.4,12.5-2.3
		c1.2,0,2.5,0.1,3.7,0.2c-0.2,0.4-0.4,0.8-0.6,1.3c-0.1,0.2-0.1,0.5,0.1,0.7c0.1,0.3,0.3,0.5,0.6,0.5c0.1,0,0.2,0,0.3,0
		c0.4,0,0.8-0.3,0.9-0.7l0,0c0.2-0.6,0.5-1.2,1-1.6c2.6,0.4,5.2,0.9,7.7,1.7c3,0.9,6,2,8.9,3.3c-0.5,0.2-1,0.6-1.2,1.1
		c-0.2,0.3-0.2,0.7,0,1c0.2,0.3,0.5,0.5,0.9,0.6c0.3,0,0.6-0.2,0.8-0.5l0,0c0-0.1,0.1-0.2,0.2-0.2l0,0l0.1,0l0.2,0l0.1,0
		c0.1,0,0.1,0,0.2,0h0.1c0.2,0,0.3,0,0.5,0h0.1c0.4,0,0.7-0.2,0.9-0.6c1.5,0.7,2.9,1.4,4.3,2.1l0.3,0.2c2.2,1.2,4.2,2.6,6.1,4.2
		c1.9,1.6,3.5,3.6,4.7,5.8c0.2,0.3,0.2,0.6,0.2,1c0.5,0.6,1,1.3,1.5,2c1.4,2.1,2.6,4.3,3.5,6.6c1.9,4.6,3.4,9.4,4.4,14.3
		c1.1,5.1,1.9,10.1,2.6,14.4c0.9,5.3,1.5,10.7,1.7,16.2c0.2,4.8-0.3,9.6-1.3,14.3c-1,4.7-2.9,9.1-5.4,13.2c-2.3,3.6-5.2,6.8-8.6,9.5
		c-3.3,2.6-7.2,4.5-11.3,5.4c-2.1,0.5-4.2,0.7-6.4,0.7c-3.2,0-6.3-0.5-9.3-1.6c-3-1.1-5.9-2.8-8.3-4.9c-0.5-0.4-0.7-1.1-0.7-1.7
		c0-0.8,0.2-1.5,0.7-2.1c0.5-0.5,1.1-0.8,1.8-0.8c0.7,0,1.4,0.3,1.9,0.8c4,3.4,9,5.2,14.2,5.1c3,0,5.9-0.5,8.7-1.6
		c3.5-1.3,6.6-3.4,9.3-6.1c2.7-2.7,4.9-5.8,6.5-9.2c3.5-7.1,4.9-15.9,4.2-26.8c-0.3-4.9-1-9.6-1.8-14.9l-0.4-3
		c-0.4-2.9-1-6.3-1.7-9.6l-0.2-0.7c-0.7-3.9-1.8-7.7-3.2-11.4c-0.7-1.8-1.6-3.5-2.6-5.5c-0.2-0.4-0.4-0.7-0.6-1.1
		c-0.1,0.1-0.3,0.1-0.4,0.1c-0.1,0-0.3,0-0.4-0.1c-2.7-0.9-5.4-1.4-8.2-1.6c-0.8-0.1-1.6-0.1-2.4-0.1c-0.5,0-1,0-1.5,0
		c-0.4,0-0.8,0-1.3,0c-1.8,0-3.6,0.3-5.3,0.8c-0.2-0.2-0.4-0.3-0.5-0.5l-0.1-0.1h0c-0.1,0-0.1,0-0.2,0c-0.5-0.1-0.9-0.5-1.1-1
		c0,0,0,0,0-0.1l0,0c-0.3-0.2-0.5-0.4-0.8-0.6c-0.1,0-0.2,0-0.2,0c-0.6-0.1-1-0.5-1.1-1.1c-0.1-0.1-0.2-0.2-0.3-0.2l-0.1-0.1
		c-0.1,0-0.2,0.1-0.3,0.1c-0.1,0-0.2,0-0.2,0c-0.4,0-0.8-0.1-1.2-0.3c-0.5-0.3-0.9-0.8-1.1-1.4c-0.1,0-0.1,0-0.2,0
		c-0.8,0-1.6-0.3-2.2-0.7c-0.6-0.4-1.1-1-1.5-1.5c-5.6-2.6-11.5-4.1-17.7-4.5c-0.6,0.1-1.2,0.3-1.8,0.4c-0.1,0-0.3,0.1-0.6,0.2
		c0.7-0.1,1.3-0.1,2-0.1c0.7,0,1.4,0.1,2.1,0.2c3.3,0.6,6.3,2,8.9,4c2.6,2.1,5,4.4,7.2,6.9c0.1,0,0.1,0,0.2,0c0.5,0,1,0.4,1.2,0.9
		c0.2,0.4,0.1,0.9-0.3,1.3l-7.6,7.3c0.1,0.3,0,0.7-0.2,0.9c-0.2,0.3-0.6,0.5-1,0.5c-0.1,0-0.2,0-0.2,0c-1.2-0.3-2.5-0.6-4-1
		c-0.6,0.3-1.2,0.4-1.9,0.4c-0.9,0-1.8-0.3-2.5-0.9c0,0-0.1-0.1-0.2-0.1c0,0-0.1-0.1-0.1-0.1c-0.1,0.1-0.2,0.1-0.3,0.2l0,0
		c-0.3,0.2-0.7,0.3-1.1,0.3c-0.1,0-0.2,0-0.4,0c-0.5-0.1-1-0.4-1.4-0.7c-0.1-0.1-0.3-0.3-0.4-0.4c-0.3-0.3-0.6-0.8-0.9-0.8h0
		c0,0,0,0,0,0c0,0.1-0.6,0.7-0.8,0.8c-0.4,0.3-0.8,0.5-1.3,0.5c-0.1,0-0.2,0-0.2,0c-1-0.3-1.9-1-2.4-2l0-0.1l0,0l0,0v0v0
		c-0.1,0.2-0.3,0.4-0.5,0.6c-0.4,0.4-1,0.6-1.6,0.5c-0.5-0.1-0.9-0.4-1.3-0.8l-0.1-0.1c-0.1-0.1-0.8-1-0.7-1.3l0,0l0,0
		c-0.1,0-0.2,0-0.3,0c-0.3,0-0.5-0.1-0.7-0.3c-1.4-0.3-2.7-0.7-4.1-1.1c-0.1,0.3-0.2,0.6-0.3,0.9c0.5,0.3,0.9,0.6,1.3,1
		c0.2,0.2,0.5,0.4,0.7,0.6l0.8,0.6l0.1,0c0.9,0.7,1.8,1.4,2.6,2l4.6,3.5l0.5-0.1c0.1,0,0.2,0,0.3,0c0.5,0,1,0.4,1.2,0.9l0,0.1
		c0.1,0.3,0.2,0.5,0.4,0.8h0.1c1.1,0,2,0.7,2.3,1.7h0.2c0.2,0,0.5,0,0.7,0c0.4,0,0.7,0.2,1,0.5c0.2,0.3,0.3,0.7,0.2,1l0,0.1l0,0.1
		c0.5,0.2,0.8,0.7,0.9,1.2c0.1,0.2,0.2,0.4,0.3,0.6c0.2,1.1,0,2.2-0.5,3.3c-0.1,0.2-0.1,0.5-0.2,0.7l0,0.1c-0.2,0.7-0.4,1.4-0.7,2.3
		l-0.6,1.9c-1.8,5.8-3.1,11.1-1.9,16.5c0.1,0.3,0,0.6-0.2,0.9c-0.2,0.2-0.5,0.4-0.8,0.4c-0.3,0-0.7-0.2-0.9-0.5
		c-1.5-2.2-3.1-4.3-4.9-6.3l-0.1,0c-1-0.3-1.7-1-2.1-1.9l-0.1-0.2c-0.2,0.1-0.4,0.1-0.6,0.1c-0.1,0-0.3,0-0.4,0
		c-0.5-0.1-0.9-0.4-1.3-0.8c-0.1-0.2-0.3-0.4-0.4-0.6c-0.1-0.3-0.3-0.5-0.5-0.7c-0.1-0.1-0.3-0.1-0.4-0.1c-0.2,0-0.4,0-0.6,0.1
		c-0.2,0-0.4,0.1-0.6,0.1c-0.1,0-0.1,0-0.2,0c-0.4-0.1-0.8-0.2-1.2-0.4c-0.7,1-1.2,2.2-1.3,3.4c0,0.4-0.2,0.8-0.4,1.2
		c0.1,0,0.2,0,0.4,0c0.6,0,1.2,0.1,1.8,0.2c2.6,0.5,4.8,2.3,5.7,4.8c0,0,0,0.1,0,0.1c0,0,0,0-0.1,0c0,0-0.1,0-0.1,0
		c-1-1.6-2.8-2.4-4.7-2.3c-1,0-2,0.2-2.9,0.5c-2.5,0.9-4.1,3.1-4.7,6.2c-0.5,3.1,0.1,6.4,1.8,9c0.7,1.3,1.8,2.3,3.1,2.8
		c0.4,0.1,0.7,0.2,1.1,0.2c0.4,0,0.9-0.1,1.3-0.1c0.4-0.1,0.9-0.1,1.3-0.1c0.4,0,0.7,0,1.1,0.1c1.1,0.4,1.7,1.5,1.4,2.6
		c-0.1,0.4-0.2,0.8-0.4,1.2c0.1,0.3,0.3,0.6,0.4,0.9c0.4,0.9,0.9,1.9,1.4,2.8c1.1,1.7,2.4,3.3,3.8,4.8c1.8,1.9,3.2,3.2,4.5,4.5
		c0.9,0.8,1.8,1.5,2.8,2.2c0.7,0.5,1.3,0.9,2,1.5c1.2,0.8,1.6,2.2,1.1,3.5c-0.4,1-1.4,1.7-2.5,1.8c-0.2,0-0.5,0-0.7-0.1
		c-2.3-1.1-4.5-2.7-6.3-4.5c-1.8-1.7-3.2-3.6-4.4-5.8c-1.1-2.1-1.9-4.3-2.5-6.5l-0.1-0.3c-0.4-1.1-0.6-2.3-0.9-3.4
		c-1,0.5-2.1,0.8-3.2,0.7c-0.4,0-0.8,0-1.2-0.1c-2.3-0.4-4.3-1.5-5.8-3.2c-0.7-0.8-1.4-1.7-1.9-2.7c0,0.5,0.1,1,0.1,1.4l0,0.3
		c1.3,1.5,1.8,3.6,1.3,5.5c1.1,1.2,1.4,2.9,0.8,4.3c1.4,1.4,1,3.7,0.6,4.9c1.4,1.7,1.5,4.1,0.4,6l0,0.1c0.5,0.9,0.8,2,0.7,3.1
		c-0.1,1.1-0.5,2.1-1.2,2.9c0.6,1.1,0.7,2.4,0.3,3.5c-0.3,0.8-1,1.4-1.8,1.6c-0.2,0.1-0.5,0.1-0.7,0.1c-0.6,0-1.1-0.2-1.6-0.6
		c0.7,2.9,0.7,5.9,0.1,8.8c-0.3,1.2-1.3,2-2.5,2c-0.9,0-1.7-0.5-2.1-1.2c0.1,1.5,0,3-0.3,4.5c-0.2,0.9-0.9,1.6-1.8,1.8
		c0.3,0.4,0.4,1,0.1,1.4C93.4,175.4,92.6,175.9,91.7,176z M90.7,160.4c-0.4,0-0.8,0.3-1,0.8c-0.1,0.5,0.2,1.1,0.7,1.3
		c0.6,0.2,1.3,0.3,2,0.3c0.6,0,1-0.5,1-1.1c0-0.5-0.5-1-1-1c-0.5,0-1,0-1.4-0.2C90.9,160.4,90.8,160.4,90.7,160.4z M86.5,149.5
		c-0.7,0-1.4,0.2-2,0.7c-0.2,0.2-0.3,0.5-0.3,0.7c0,0.3,0.1,0.5,0.3,0.7c0.2,0.2,0.4,0.3,0.7,0.3c0.2,0,0.5-0.1,0.6-0.3l0.1-0.1l0,0
		l0,0l0,0c0,0,0.1,0,0.1-0.1l-0.1,0c0,0,0,0,0,0c0,0,0.1,0,0.1,0l0.1,0l0,0h0h0.1c0.1,0,0.2,0,0.3,0c0.3,0,0.5-0.1,0.7-0.3
		c0.2-0.2,0.3-0.4,0.3-0.7C87.5,150,87,149.6,86.5,149.5z M97.9,141.6c-0.6,0-1,0.5-1,1.1c0,0.5,0.4,0.9,1,1h0.2
		c0.9,0.1,1.8-0.1,2.6-0.6c0.4-0.2,0.6-0.7,0.4-1.1c-0.1-0.4-0.5-0.8-0.9-0.8c-0.2,0-0.3,0-0.5,0.1l0,0c-0.4,0.2-0.9,0.3-1.4,0.3
		L97.9,141.6L97.9,141.6z M89.4,135.4c-0.2,0-0.4,0.1-0.6,0.2c-0.3,0.1-0.5,0.3-0.8,0.5c-0.3,0.2-0.4,0.6-0.3,1
		c0.2,0.4,0.5,0.7,1,0.7c0.2,0,0.5-0.1,0.6-0.3c0.1,0,0.1-0.1,0.2-0.1l0.1,0h1c0.1,0,0.2,0,0.3-0.1c0.3,0,0.5,0.1,0.7,0.1h0l0.2,0
		c0.6,0.1,1.1-0.2,1.2-0.8c0-0.1,0-0.1,0-0.2c0.1-0.5-0.2-0.9-0.7-1c-0.6-0.1-1.3-0.2-2-0.2c-0.2,0-0.4,0-0.6,0l-0.1,0L89.4,135.4z
		 M89.3,115.4L89.3,115.4c-0.9,0-1.8,0.3-2.5,0.8c-0.4,0.3-0.5,0.8-0.4,1.2c0.1,0.4,0.4,0.7,0.9,0.7c0.2,0,0.3-0.1,0.5-0.2l0,0
		c0.1-0.1,0.3-0.2,0.4-0.2c0.3,0.1,0.7,0.2,1.1,0.2c0.4,0,0.7-0.1,1.1-0.2l0.1,0l0.1,0c0.1,0.1,0.3,0.1,0.4,0.1c0.5,0,0.9-0.4,1-0.9
		c0.1-0.4-0.1-0.8-0.5-1C90.8,115.6,90.1,115.4,89.3,115.4L89.3,115.4z M90,101.6L90,101.6c0.2,0,0.4,0,0.6,0c0.5,0.1,1,0.2,1.5,0.3
		c0.5,0.1,1.1-0.2,1.2-0.8c0-0.1,0-0.1,0-0.2c0.1-0.5-0.2-0.9-0.7-1l-0.5-0.1c-0.2,0-0.4-0.1-0.6-0.1c-0.1-0.1-0.2-0.1-0.4-0.1h-0.1
		h-0.3c-0.3,0-0.5,0-0.8,0c-0.1,0-0.2,0-0.2,0c-0.5,0-1,0.3-1.4,0.7c-0.2,0.3-0.2,0.6-0.1,0.9c0.1,0.4,0.5,0.7,1,0.7
		C89.6,101.9,89.9,101.8,90,101.6L90,101.6z M79.9,83.6L79.9,83.6c-0.8,0-1.5,0.1-2.3,0.5c-0.7,0.3-1.2,1-1.2,1.8
		c0,0.2,0,0.5,0.2,0.7c0.2,0.2,0.4,0.3,0.7,0.3c0.5,0,0.9-0.3,1-0.7c0.8-0.1,1.5-0.2,2.3-0.2c0.5,0,0.9,0,1.4,0.1
		c0.3-0.3,0.4-0.7,0.3-1.1c-0.1-0.3-0.3-0.5-0.6-0.6c-0.1-0.3-0.3-0.5-0.6-0.6l-0.1,0C80.6,83.7,80.3,83.6,79.9,83.6L79.9,83.6z
		 M118.2,79.7c-0.3,0-0.5,0.1-0.7,0.3c-0.2,0.2-0.4,0.5-0.5,0.8l-0.1,0.2l0,0.1c0,0.1-0.1,0.1-0.1,0.2l0,0l0,0l0,0l0,0
		c-0.2,0.2-0.3,0.5-0.3,0.8c0,0.2,0.1,0.5,0.3,0.7c0.2,0.2,0.5,0.3,0.7,0.3c0.3,0,0.5-0.1,0.7-0.3c0.2-0.2,0.4-0.5,0.5-0.8l0.1-0.2
		c0,0,0-0.1,0.1-0.1c0,0,0.1-0.1,0.1-0.1l0,0l0,0l0,0c0.2-0.2,0.3-0.5,0.3-0.8c0-0.2-0.1-0.5-0.3-0.7
		C118.8,79.8,118.5,79.7,118.2,79.7L118.2,79.7z M97.1,79.1L97.1,79.1L97.1,79.1l0.1,0.1c0.2,0.2,0.4,0.3,0.7,0.3
		c0.2,0,0.5-0.1,0.7-0.3c0.4-0.2,0.6-0.5,0.7-0.9c0.1-0.4-0.1-0.8-0.4-1c-0.6-0.5-1.4-0.7-2.1-0.8c-0.8,0-1.6,0.3-2.2,0.9
		c-0.3,0.3-0.4,0.7-0.2,1c0.2,0.4,0.5,0.7,1,0.7c0.2,0,0.5-0.1,0.6-0.3l0,0c0,0,0.1-0.1,0.1-0.1c0.2,0.2,0.4,0.2,0.6,0.2h0.2h0.1h0
		h0L97.1,79.1L97.1,79.1C97.1,79.2,97.1,79.2,97.1,79.1C97.1,79.2,97.1,79.2,97.1,79.1L97.1,79.1z M112.1,72c-0.1,0-0.2,0-0.3,0
		c-1.2,0.5-2,1.6-2.2,2.9c-0.1,0.5,0.2,1.1,0.7,1.3c0.1,0,0.2,0,0.2,0c0.5,0,0.9-0.3,1-0.7c0.1-0.3,0.2-0.7,0.3-1l0.1-0.2
		c0-0.1,0.1-0.1,0.2-0.2c0.1,0,0.1-0.1,0.2-0.1l0,0c0.5-0.2,0.8-0.8,0.6-1.3C112.9,72.3,112.5,72,112.1,72L112.1,72z M90.2,63.5
		c-0.8-0.1-1.6,0.3-2,1c-0.2,0.3-0.2,0.7,0,1c0.2,0.3,0.5,0.6,0.9,0.6c0.3,0,0.6-0.2,0.8-0.4h0h0l0.3,0h0c0.4,0,0.7,0.1,1.1,0.2
		c0.1,0,0.2,0,0.2,0c0.5,0,0.9-0.4,1-1c0.1-0.5-0.2-0.9-0.7-1l-0.2,0C91.2,63.5,90.7,63.5,90.2,63.5z M133.5,54.1L133.5,54.1
		c-0.3,0-0.5,0.1-0.7,0.3c-0.7,0.7-1.4,1.5-1.8,2.4c-0.3,0.5-0.1,1.1,0.4,1.4c0.5,0.3,1.1,0.1,1.3-0.3c0,0,0,0,0,0
		c0.4-0.7,0.9-1.4,1.5-2l0,0c0.3-0.3,0.4-0.7,0.2-1.1C134.3,54.4,133.9,54.1,133.5,54.1L133.5,54.1z M122.9,53.4L122.9,53.4
		c-0.9,0.6-1.5,1.5-1.8,2.5c-0.1,0.2-0.1,0.5,0.1,0.7c0.1,0.3,0.3,0.4,0.6,0.5c0.1,0,0.2,0,0.3,0c0.4,0,0.8-0.3,0.9-0.7l0,0
		c0.1-0.3,0.2-0.6,0.4-0.9c0.2-0.2,0.4-0.4,0.6-0.5c0.5-0.2,0.7-0.6,0.7-1.1c-0.2,0.1-0.3,0.1-0.5,0.1
		C123.7,54.1,123.2,53.8,122.9,53.4L122.9,53.4z M94.7,50.2L94.7,50.2L94.7,50.2c0.1,0,0.1,0,0.2,0l0.1,0c0,0,0,0,0.1,0.1l0.1,0l0,0
		c0.2,0.2,0.4,0.3,0.7,0.3c0.4,0,0.8-0.3,1-0.7c0.1-0.4,0-0.8-0.2-1c-0.5-0.5-1.2-0.8-1.9-0.8c-0.5,0-0.9,0.1-1.3,0.3
		c-0.2,0.1-0.4,0.3-0.4,0.5c-0.1,0.3-0.1,0.6,0.1,0.9c0.2,0.3,0.5,0.5,0.8,0.5c0.2,0,0.3,0,0.5-0.1h0c0,0,0.1,0,0.1,0h0l0.1,0
		c0,0,0,0,0,0L94.7,50.2L94.7,50.2z M115.8,117c-0.3,0-0.6-0.1-0.8-0.4l0,0c-1.7-2.1-4.1-3.4-6.8-3.8c-0.7-0.1-1.2-0.8-1.2-1.5
		c0-0.6,0.4-1,1-1.1c0,0,0,0,0,0c0.1,0,0.1,0,0.2,0c3.3,0.4,6.4,2,8.5,4.6c0.3,0.4,0.4,0.9,0.2,1.4
		C116.7,116.6,116.3,116.9,115.8,117z"/>
</g>
<g id="FACE" transform="translate(107.474 62.723)">
	<path id="_Ink-3" d="M100.4,78.6c-1.9,0-3.7-0.9-4.9-2.3c-0.9-1.1-1.4-2.5-1.2-3.9c0-0.4,0.4-0.7,0.8-0.6c0.3,0,0.7,0.2,0.9,0.4
		l0.1,0.2c0.9,1.2,2.1,2.7,3.8,2.7c0.2,0,0.4,0,0.6-0.1c0.8-0.2,1.5-0.7,2-1.3c0.3-0.4,0.5-0.9,0.6-1.4c0.1-0.4,0.2-0.8,0.4-1.2
		c0.4-0.6,1-1,1.8-1c0.9,0,1.8,0.6,2,1.5c0.3,1.4-0.1,2.9-1,4c-1.3,1.8-3.3,2.9-5.5,3.1L100.4,78.6z M102.2,64.9L102.2,64.9
		c-2-0.1-4-0.5-5.8-1.3c-0.7-0.3-1.1-1-0.9-1.7c0.1-0.7,0.7-1.2,1.4-1.2c0.2,0,0.4,0,0.5,0.1l0.3,0.1c1.5,0.8,3.1,1.2,4.8,1.4
		c1.1,0.1,2.1-0.4,2.6-1.4c0.3-0.7,0.3-1.5,0-2.3c-0.7-1.5-2.8-2.7-4.5-3.3c-0.3-0.1-0.4-0.4-0.4-0.7c0.1-0.4,0.5-0.7,0.9-0.7h0.2
		c1.7,0,3.4,0.6,4.7,1.7c1.1,1,1.7,2.3,1.9,3.7c0.2,1.3-0.2,2.7-1.1,3.7C105.6,64.4,103.9,65,102.2,64.9z M75,53.8
		c-0.2,0-0.5-0.2-0.5-0.4c-0.1-0.2,0-0.4,0.1-0.5c2.1-1.8,4.6-3.2,7.3-4c-0.4-0.6-0.5-1.4-0.2-2.1c0-0.2,0.1-0.3,0.1-0.4l0.1-0.3
		c0-0.1,0-0.3,0.1-0.4l0,0c0.2-0.7,0.7-1.2,1.3-1.4c0.2,0,0.3-0.1,0.5-0.1c0.3,0,0.5,0.1,0.8,0.2c0.9,0.2,1.6,0.9,1.8,1.7
		c0,0.1,0,0.1,0.1,0.2l0,0.1l-0.1-0.3c0,0.2,0.1,0.3,0.2,0.4c0.1,0.1,0.1,0.2,0.2,0.4c0.1,0.3,0.1,0.7,0.1,1.1c0.3,0,0.6,0,0.8,0
		l0.3,0c1.4,0.1,3,0.4,3.9,1.7c0.2,0.4,0.3,0.9,0.1,1.4c-0.1,0.4-0.5,0.7-0.9,0.8c-0.2,0-0.3,0-0.5,0c-0.6,0-1.3-0.2-1.9-0.4
		c-0.5-0.2-1-0.3-1.5-0.4c-0.4-0.1-0.9-0.1-1.3-0.1c-0.9,0-1.7,0.1-2.6,0.3c-1.5,0.3-3.1,0.8-4.5,1.3c-1,0.3-2,0.7-3.1,1l-0.3,0.1
		C75.1,53.8,75.1,53.8,75,53.8z M115.8,51.7c-0.4,0-0.8-0.2-0.9-0.6l0-0.1c-0.3-0.7-1.2-1.1-2.5-1.1c-0.4,0-0.8,0-1.2,0.1
		c-0.8,0.1-1.5,0.3-2.3,0.5c-0.2,0.1-0.5,0.2-0.8,0.3l-0.3,0.1c-0.1,0-0.6,0.3-0.6,0.4c0,0,0,0,0,0c0,0,0.1,0,0.1,0h0
		c0.1,0,0.1,0,0.1,0.1c0,0,0,0.1-0.1,0.1c-0.1,0-0.2,0.1-0.3,0.1c-0.2,0-0.4-0.1-0.5-0.3c-0.2-0.2-0.3-0.4-0.2-0.7
		c0.1-0.9,1.3-1.5,2.1-1.8c0.1,0,0.2-0.1,0.3-0.1l0,0c0.3-0.1,0.6-0.3,0.9-0.4c-0.2-0.3-0.3-0.6-0.4-0.9c-0.1-0.3-0.2-0.6-0.2-0.9
		c0-0.2,0-0.3,0-0.5l0,0c0-0.1,0-0.2,0-0.3v0c0-0.4,0.2-0.7,0.4-1c0.2-0.3,0.6-0.4,0.9-0.4c0.4,0,0.7,0.1,1,0.4l0.1,0.1
		c0.6,0.3,1,0.8,1.3,1.3c0.3,0.5,0.5,1.1,0.5,1.7c1.4,0,2.7,0.5,3.7,1.6c0.4,0.4,0.5,0.9,0.4,1.4l-0.1,0.3
		C117,51.2,116.5,51.6,115.8,51.7z M73.8,44c-0.3,0-0.5-0.2-0.6-0.4c-0.3-0.9,0-2.2,0.9-3.8c0.8-1.3,1.8-2.3,3-3.1
		c1.3-0.8,2.7-1.4,4.2-1.8l0.4-0.1c0.3-0.1,0.5-0.2,0.8-0.3c0.8-0.3,1.7-0.5,2.6-0.6c0.8,0,1.5,0.3,2.1,0.8c0.7,0.7,0.8,1.8,0.3,2.6
		c-0.9,1.4-2.1,1.5-3.6,1.6c-0.3,0-0.6,0-0.9,0.1c-1.3,0.1-2.7,0.5-3.9,1c-1,0.4-2,1-2.9,1.7c-0.4,0.3-0.8,0.7-1.1,1.1
		c-0.4,0.4-0.8,0.8-1.3,1.2C74,44,73.9,44,73.8,44z M115.7,41.3c-0.7,0-1.3-0.4-1.7-1l0-0.1c-1.5-2.1-3.8-3.6-6.4-4.1l-0.3,0
		c-0.3-0.1-0.6-0.1-0.8-0.1c-0.1,0-0.2,0-0.3,0c-0.2,0-0.4,0.1-0.5,0.2c0,0.1,0,0.1,0,0.2c0,0.1-0.1,0.1-0.2,0.1c0,0-0.1,0-0.1,0
		c-0.3-0.1-0.5-0.4-0.6-0.8c0-0.4,0.2-0.9,0.5-1.2c0.7-0.7,2.1-1,4-1c3.3,0.1,6.4,1.8,8.1,4.6c0.3,0.4,0.4,1,0.2,1.4
		c-0.1,0.6-0.5,1.1-1,1.4C116.4,41.2,116,41.3,115.7,41.3z"/>
</g>
</svg>
