<?xml version="1.0" encoding="utf-8"?>
<!-- Generator: Adobe Illustrator 25.0.0, SVG Export Plug-In . SVG Version: 6.00 Build 0)  -->
<svg version="1.1" id="Warstwa_1" xmlns="http://www.w3.org/2000/svg" xmlns:xlink="http://www.w3.org/1999/xlink" x="0px" y="0px"
	 viewBox="0 0 28.3 28.3" style="enable-background:new 0 0 28.3 28.3;" xml:space="preserve">
<style type="text/css">
	.st0{fill:#18191F;}
</style>
<g id="Group_74" transform="translate(7533 -5482)">
	<g id="Group_73">
		<g id="Ellipse_1" transform="translate(-7526 5482)">
			<g>
				<path class="st0" d="M14.2,8.6h-2c0-2.8-2.2-5-5-5c-2.8,0-5,2.2-5,5h-2c-2.8,0-5,2.2-5,5v6c0,2.8,2.2,5,5,5h14c2.8,0,5-2.2,5-5
					v-6C19.2,10.9,16.9,8.6,14.2,8.6z M12,9.6L12,9.6L12,9.6C12,9.6,12,9.6,12,9.6z M7.2,5.6c1.6,0,3,1.3,3,3h-6
					C4.2,7,5.5,5.6,7.2,5.6z M17.2,19.6c0,1.6-1.4,3-3,3h-14c-1.7,0-3-1.4-3-3v-6c0-1.7,1.3-3,3-3h14c1.6,0,3,1.3,3,3V19.6z"/>
			</g>
		</g>
	</g>
</g>
</svg>
