<?xml version="1.0" encoding="utf-8"?>
<!-- Generator: Adobe Illustrator 25.0.0, SVG Export Plug-In . SVG Version: 6.00 Build 0)  -->
<svg version="1.1" id="Warstwa_1" xmlns="http://www.w3.org/2000/svg" xmlns:xlink="http://www.w3.org/1999/xlink" x="0px" y="0px"
	 viewBox="0 0 26.6 50.6" style="enable-background:new 0 0 26.6 50.6;" xml:space="preserve">
<style type="text/css">
	.st0{fill:#FFF4CC;}
	.st1{clip-path:url(#SVGID_2_);}
	.st2{fill:#FFD465;}
</style>
<path id="mask-2" class="st0" d="M-0.1-2.2h26.6c0.6,0,1.1,0.5,1.1,1v53c0,0.6-0.5,1-1.1,1H-0.1c-0.6,0-1.1-0.5-1.1-1v-53
	C-1.2-1.8-0.7-2.2-0.1-2.2z"/>
<g>
	<defs>
		<path id="SVGID_1_" d="M1.1-1.2h24.3c0.6,0,1.1,0.5,1.1,1.1v51.4c0,0.6-0.5,1.1-1.1,1.1H1.1c-0.6,0-1.1-0.5-1.1-1.1V-0.2
			C0-0.8,0.5-1.2,1.1-1.2z"/>
	</defs>
	<clipPath id="SVGID_2_">
		<use xlink:href="#SVGID_1_"  style="overflow:visible;"/>
	</clipPath>
	<g id="Mask_Group_66" class="st1">
		<path id="Shape" class="st2" d="M-7.8,55.3L-7.8,55.3l2.5-3.7l-4.4-2.6l0-0.2l4.6,2.7l1.4-1.2c0,0,0,0,0,0c0,0,0,0,0.1,0l1,1.1
			l-0.1-7.7l-2-0.2h0c0,0,0,0,0,0c0,0,0,0,0,0h0l-2-1.1l-3.3-1.7l-0.3,0.7l0-0.4l0.2-0.4l-0.2-0.1l0-0.2l3.3,1.7l1.2-3.3
			c-1.6-1.2-2.9-2.2-3.9-3l-0.8,1.5l0.6,0.5c0,0,0,0.1,0,0.1c0,0,0,0-0.1,0c0,0,0,0,0,0l-0.6-0.4l0-0.4l0.7-1.4c0,0,0,0-0.1,0
			c0,0,0,0-0.1,0c-0.2-0.2-0.5-0.3-0.8-0.4l-0.1-1.3l0,0c0.1,0.1,0.3,0.2,0.4,0.3c0.2,0.2,0.4,0.3,0.6,0.5l0,0
			c0.1,0.1,0.2,0.1,0.3,0.2c0.3,0.2,0.6,0.5,0.9,0.7l0,0c0.2,0.1,0.3,0.3,0.5,0.4l0.9-1.5l-1.5-1.1c0,0,0,0-0.1,0c0,0,0,0,0,0
			c0,0,0,0,0,0c0,0,0,0,0-0.1c0,0,0,0,0-0.1l-2.1-1.5l0-0.2l1,0.7l1.4-0.8l1.6-4.2l-1.9-2l-2.8-2.9l0-0.2l2.8,2.9l6.7-8.2l-1.2-1.2
			l-1.9-2.4L-6,13.4l0.7,2.2c0,0,0,0.1,0,0.1l-0.5,0.5c0,0,0,0-0.1,0l-2-0.3l-0.6,0.3l-0.2,1.3c0,0,0,0,0,0.1l-1.1,0.5l-2,2.6l0-0.2
			L-10,18c0,0,0,0,0,0l1.1-0.5l0.2-1.3c0,0,0,0,0-0.1l0.6-0.3l-0.6-0.5c0,0,0,0,0,0c0,0,0,0,0-0.1c0,0,0,0,0,0c0,0,0,0,0,0l0.9-2.4
			L-8.5,12l-0.9,1c0,0,0,0,0,0l-1.6,0.1h0c0,0-0.1,0-0.1-0.1c0,0,0-0.1,0.1-0.1l1.6-0.1l0.8-1l-1.6-1.6l-1.2,1l-1.1,1l0-0.2l1-0.9
			l-1.1-0.9l0-0.4l2.1-2.5l1.3-2c0,0,0,0,0,0c0,0,0,0,0,0L-8,4.6l-1-4.7l-0.3-0.8l0.2,0l0.3,0.7l0,0l0.2,0.7l1.4-1.6l0.2,0l-1.6,1.8
			l1.2,5.5l1.9-2.3l1.5-2L-4.2,1l-1.7-2.2l0.2,0l0.4,0.6l0.6-0.7l0.2,0c0,0,0,0.1,0,0.1l-0.7,0.7l1,1.4l1-0.8l0.3-0.3l-0.1-1.2
			l0.2,0l0.1,1.1l1.4-1.2l0.3,0l-2,1.7L-1.8,1l3.2-0.3l0,0l3.2,0.6c0,0,0,0,0.1,0c0,0,0,0,0,0.1v0L4.7,2.2L7.2,3l1.5-1.7
			c0,0,0,0,0,0l1.5-0.6L9.6-2.5l0.2,0l0.6,3.1l2.7,0l-0.6-3.4l0.2,0l0.6,3.4l1.6,0c0-0.1,0-0.2,0-0.4v0v0c0-0.1,0-0.2,0-0.4
			c-0.2-0.6-0.6-1.6-1-2.8l0.8-0.1c0.4,1.2,0.8,2.1,1,2.7l0,0c0.1,0.3,0.2,0.5,0.2,0.6l3.7,4.8L25.5,5l2.1-1.8
			c0.1-0.1,0.1-0.1,0.2-0.1c0,0,0,0,0.1,0l3.4,0.6c0.1,0,0.2,0.1,0.3,0.2l0.9,1.6l3.8-2l0.1,0.9l-3.7,2c-0.1,0.6-0.3,2-0.5,3.5
			c-0.2,1.3-0.4,3.1-0.4,4.1c0,1,0.1,2.9,0.2,4.7l3.3-0.3l2-1l0,0.2l-2,1l0,0L32.1,19c0.1,1.3,0.2,2.3,0.2,2.9v0l0,0
			c0,0.1,0,0.2,0,0.3l0.9,4.9c0.7-0.1,2.5-0.4,4.9-0.8l0,0.4l0,0.2l-1,0c-0.1,0-0.1,0-0.2,0c-0.1,0-0.1,0-0.2,0l1.2,5
			c0.2-0.1,0.3-0.1,0.6-0.2l0,0.2c-1.3,0.5-2.7,1.1-4,1.7l1.5,4.9c0.3,0.2,0.7,0.3,1.3,0.5c0.5,0.2,1.1,0.4,1.8,0.5l0,0.4
			c-0.9-0.2-2.2-0.6-3-1l1.4,4.5l1.7-2.6l0,0.5l-1.6,2.4l1.7,5.6c0,0.1,0,0.2,0,0.3l-0.5,2l0,0.1l-0.8,0.1l0.1-0.5L37,51.8l-0.5,0
			l1.7-0.8l0.4-1.5L37,44.2c-0.6,0.1-1.7,0.2-2.9,0.4c-1.4,0.2-2.8,0.3-3.3,0.4c0,0.2,0,0.5,0,0.7v0c0,0.2,0,0.4,0,0.6
			c0.1,1,0.1,1.6,0.1,1.8c0,0.3,0.4,1.7,1.1,4.1l-0.3,0c-0.3-1-0.6-1.8-0.7-2.5c-0.2-0.8-0.3-1.3-0.4-1.6l0,0l0,0
			c0-0.2,0-0.6-0.1-1.2v0c0-0.2,0-0.4,0-0.6c0-0.2,0-0.4,0-0.6c0-0.2,0-0.4,0-0.6c-1.1,0.3-9.3,3.2-14.2,4.9l0,0L15.8,50l1,3.4
			l-0.3,0l-1-3.3l0,0c-0.2,0.1-0.4,0.2-0.6,0.2c-0.6,0.2-1.4,0.5-2.2,0.8l0,0c-0.4,0.1-2.2,1-3.2,1.5l0,0l-0.2,0.1
			c0.1,0.2,0.2,0.4,0.2,0.6c0.1,0.2,0.2,0.4,0.2,0.6L8.8,54c-0.1-0.2-0.1-0.3-0.2-0.5c-0.1-0.2-0.1-0.3-0.2-0.5
			c-0.5,0.2-1.2,0.4-2.1,0.5l0.6,0.6l-0.2,0l-0.5-0.6c-0.5,0.1-1,0.1-1.6,0.1c-0.3,0-0.4,0-0.4,0h0c0,0-0.2,0-0.5-0.1
			c-0.2-0.1-0.5-0.1-0.8-0.2c0,0.4-0.1,0.7-0.1,1c0,0,0,0.1,0,0.1l0,0l0,0c0,0,0,0,0,0l-0.9,0.1c0-0.1,0-0.3,0.1-0.4v0v0
			c0-0.3,0.1-0.5,0.1-0.8c0,0,0,0,0-0.1c0,0,0,0,0-0.1c-0.1,0-0.3-0.1-0.4-0.1c-0.2,0-0.3-0.1-0.5-0.1c-0.5-0.1-1-0.2-1.5-0.3l0,0
			c-0.6-0.1-1.1-0.2-1.4-0.3l2.1,2.4l-0.2,0l-2.2-2.5l-1.6-1.7l-1.4,1.2l-2.5,3.6L-7.8,55.3L-7.8,55.3z M6.6,51.5
			C6.6,51.5,6.6,51.5,6.6,51.5c0.1,0.1,0.1,0.1,0.1,0.1c0,0,0,0,0,0l-2.1,0.5l0,0c-0.1,0.4-0.1,0.7-0.2,1c0,0.1,0,0.2-0.1,0.3
			c0,0,0.2,0,0.4,0c0.5,0,1,0,1.5-0.1l0,0c0.4,0,0.8-0.1,1.2-0.2C7.7,53.1,8,53,8.4,52.8c-0.4-0.9-0.7-1.7-0.9-2.3
			c-0.3-0.7-0.6-1.2-0.8-1.5c-0.1-0.2-0.6-0.6-1.3-1.3c-0.4,1.7-0.8,3.5-0.9,4.2L6.6,51.5C6.6,51.5,6.6,51.5,6.6,51.5L6.6,51.5z
			 M4.3,46.8c-0.4,1-0.7,2-0.9,3.1c-0.2,0.8-0.3,1.6-0.5,2.4c0,0.2,0,0.4-0.1,0.6l0,0c0,0.1,0,0.2,0,0.3c0.6,0.1,1.1,0.2,1.2,0.3
			c0-0.1,0-0.2,0-0.3c0.2-0.9,0.6-3.4,1.2-5.5C5,47.4,4.7,47.1,4.3,46.8L4.3,46.8z M2.5,45.3l-1.3,7.5c0.2,0,0.4,0.1,0.6,0.1l0,0
			c0.1,0,0.1,0,0.2,0c0.1-1,0.3-1.9,0.5-2.9c0.3-1.3,0.7-2.6,1.1-3.9l-0.1-0.1L3.4,46C3.1,45.8,2.8,45.5,2.5,45.3L2.5,45.3z
			 M1.2,47.3l-0.9,5.2l0,0h0c0.3,0.1,0.5,0.1,0.8,0.2L2,47.5L1.2,47.3L1.2,47.3L1.2,47.3z M-2.6,41.3l0.1,10.2L-2,52
			c0,0,0.1,0,0.1,0l0,0h0c0.3,0.1,1.1,0.2,1.9,0.4L1,47.2l0.5-2.7C0.2,43.5-1.2,42.4-2.6,41.3L-2.6,41.3L-2.6,41.3L-2.6,41.3z
			 M8.9,41C8.9,41,8.9,41,8.9,41L8.9,41l0.5,0.6c0,0,0,0,0,0.1l-0.3,2.2c0,0,0,0,0,0.1l-1.8,1.4l-0.2,2.8c0.1,0.1,0.2,0.2,0.3,0.3
			c0.4,0.6,0.9,1.9,1.7,3.8c0.7-0.3,3-1.5,3.5-1.6c0,0,0.1,0,0.2-0.1l0,0c0.3-0.1,1.1-0.4,2.1-0.7c0.5-0.2,1-0.4,1.5-0.5l0,0
			c1.5-0.5,2.8-1,4.1-1.4l-0.5-7.6l-0.1-0.7l-3.1-0.4L9.5,40c-0.1,0.1-0.2,0.4-0.5,0.7l0,0l0,0L8.9,41L8.9,41L8.9,41z M6.3,45.1
			L6.3,45.1c-0.2,0.4-0.4,1-0.7,1.8c0.5,0.5,1,0.9,1.3,1.2l0.2-2.6L6.3,45.1L6.3,45.1z M33.7,33.7c-1.6,0.7-3,1.3-3.6,1.5
			c-0.2,0.1-0.4,0.2-0.4,0.2L27,36.8l-1.5,1.9c0,0,0,0,0,0L22,39.3L21.6,40c0,0,0,0,0,0l-1.5,0.4l0.5,7.5c5.9-2,9.2-3.2,9.8-3.3
			c-0.1-1.4-0.1-2.4-0.1-3.2c0-0.9,0-1.5,0.1-1.7c0.1-0.3,0.6-1.2,1.5-2.7C32.5,35.8,33.3,34.5,33.7,33.7L33.7,33.7z M1.6,44.6
			l-0.4,2.5L2,47.3l0.4-2.2l-0.1-0.1C2,44.9,1.8,44.7,1.6,44.6z M9.3,40L9.3,40l-1.9,0.2c-0.6,1-1.1,1.9-1.6,2.9
			c-0.4,0.9-0.8,1.8-1.2,2.8C4.7,46,4.8,46.1,5,46.2c0.2,0.2,0.4,0.3,0.6,0.5c0.3-0.8,0.5-1.4,0.7-1.8c0.4-0.7,0.9-1.6,1.7-2.7
			C8.5,41.3,9,40.5,9.3,40L9.3,40L9.3,40z M6.4,40.3L4,40.4l-2.2,3.2c0.7,0.6,1.4,1.1,2.1,1.7c0.3-0.8,0.7-1.7,1.1-2.5
			C5.4,42,5.9,41.2,6.4,40.3L6.4,40.3z M8.8,41.2c-0.8,1.3-1.8,2.7-2.4,3.7l0.8,0.3L9,43.9l0.3-2.1L8.8,41.2
			C8.8,41.2,8.8,41.2,8.8,41.2L8.8,41.2z M33.9,34.2c-1.1,1.8-3.1,5-3.3,5.6c-0.2,0.4-0.1,2.6,0.1,4.8c0.1,0,0.3,0,0.5-0.1h0
			c0.2,0,0.5-0.1,0.9-0.1l-1-4l0,0c0,0,0-0.1,0.1-0.1l1.4-0.4c0,0,0,0,0,0c0,0,0.1,0,0.1,0.1l0.8,2.4l1.4,0h0c0,0,0.1,0,0.1,0.1
			l0.4,0.8c0,0,0,0.1,0,0.1l-0.9,0.5l0.1,0.3c1.3-0.2,2.2-0.3,2.6-0.3L33.9,34.2L33.9,34.2z M32.4,40L32.4,40l-1.2,0.4l1,4
			c0.6-0.1,1.3-0.1,1.9-0.2L34,43.7c0,0,0-0.1,0-0.1l0.9-0.5l-0.3-0.7l-1.4,0h0c0,0-0.1,0-0.1-0.1L32.4,40z M3.8,40.4l-5.7,0.3
			c1.2,0.9,2.4,1.9,3.6,2.9L3.8,40.4z M-5.7,38.8L-5.7,38.8l-1.2,3.3l0.2,0.1l2,1.1l1.9,0.2l0-2.4c-0.7-0.6-1.4-1.1-2.1-1.7
			C-5.1,39.3-5.4,39-5.7,38.8L-5.7,38.8z M1.3,38.1L1.3,38.1l-3.6,0.7l-0.6,1.1l0,0c0.3,0.2,0.5,0.4,0.8,0.6l3.9-0.2L1.3,38.1
			L1.3,38.1z M4,37L4,37l-1.9,3.3L4,40.3l1.5-2.2L4,37L4,37z M19.8,37.4l0.2,2.9l1.5-0.4l0.4-0.8c0,0,0,0,0,0l3.3-0.5l1.5-1.9
			c0,0,0,0,0,0c0,0,0,0,0,0l2.8-1.4l-0.9-3.1l-3.6,0.3h0c0,0-0.1,0-0.1-0.1l-0.2-3.1l-2.5-3.4L20.9,27c0,0,0,0,0,0l-7.4,3.7l0,0
			c-0.1,0.1-0.2,0.3-0.3,0.5l1.8,1.3l0.8-2.1c0,0,0,0,0,0c0,0,0,0,0,0l3.5-1.2c0,0,0,0,0,0c0,0,0,0,0,0l1.8,1.6c0,0,0,0.1,0,0.1
			L19.8,37.4L19.8,37.4L19.8,37.4z M11.4,28.4l-4.6,3.1l-1.2,0.6l-4.2,6l0.5,2.2l4-6.9c0,0,0,0,0.1,0c0,0,0,0,0,0c0,0,0,0.1,0,0.1
			c0,0,0,0,0,0l-2,3.4l1.4,1.1l5.4-8c0,0,0,0,0,0c0,0,0,0,0,0l0.9-0.6L11.4,28.4L11.4,28.4z M11.9,29.5L11,30.1L4.2,40.2l2.4-0.1
			l0.3-0.4l0.1-0.2c2.1-3.4,3.6-5.7,4.6-7.3l0,0c0.4-0.7,0.7-1.2,1-1.5L11.9,29.5z M13,31.4c-0.8,1.2-2.5,4-5.5,8.7c0,0,0,0,0,0
			l1.9-0.2l7.2-0.7l3.1,0.4l-0.2-2l-2.4-0.6c0,0-0.1,0-0.1-0.1l0,0c0,0,0-0.1,0.1-0.1c0,0,0,0,0,0l2.4,0.6l1.3-6.4l-1.7-1.5
			l-3.4,1.2L13.4,37c0,0,0,0.1-0.1,0.1c0,0,0,0,0,0c0,0,0,0,0-0.1c0,0,0,0,0,0c0,0,0,0,0,0l1.6-4.3L13,31.4L13,31.4z M-3.5,28.4
			L-3.5,28.4l-0.7,0.9l0.8,2.9c0,0,0,0.1,0,0.1L-6,37.5c0.2,0.2,0.5,0.4,0.7,0.6l0,0c0.7,0.6,1.5,1.2,2.2,1.8l0.7-1.1c0,0,0,0,0,0
			L1.3,38l4.2-6c0,0,0,0,0,0c0,0,0,0,0,0l1.2-0.6l-1.6-5l-1.3-1.1l-0.7,0.3l1.3,4.3l0.5-0.2c0,0,0,0,0,0c0,0,0.1,0,0.1,0.1
			c0,0,0,0.1,0,0.1l-0.6,0.2l-1.9,0.5c0,0,0,0,0,0c0,0-0.1,0-0.1-0.1l-0.5-1.1l-1-2.7l-1.2,0.6L0.9,31c0,0,0,0.1,0,0.1l-3.1,1.2
			c0,0,0,0,0,0c0,0,0,0,0,0c0,0,0,0,0-0.1L-3.5,28.4L-3.5,28.4z M-7.2,34.4L-7.2,34.4l-0.9,1.5c0.2,0.2,0.4,0.3,0.6,0.5l0,0
			c0.4,0.3,0.9,0.7,1.4,1l0.8-1.6L-7.2,34.4L-7.2,34.4z M-4.3,29.5l-2.8,4.8l1.9,1.4l1.7-3.5L-4.3,29.5z M28.9,32
			C28.9,32,28.9,32,28.9,32l1,3.2c0.4-0.2,2-0.9,3.9-1.7l-0.2-0.7c0,0,0,0,0-0.1l-1.7-9.2c0-0.2-0.1-0.4-0.2-0.6
			c-0.1-0.1-0.2-0.3-0.3-0.4c-0.1-0.1-0.3-0.1-0.4-0.2c-0.2,0-0.4-0.1-0.5-0.1c-0.4,0-0.8,0.1-1.2,0.2c-0.5,0.1-1.1,0.3-1.6,0.5
			c-1.7,0.7-3.3,1.5-4.8,2.6l-0.3,0.2l2.5,3.4c0,0,0,0,0,0l0.2,3L28.9,32C28.9,32,28.9,32,28.9,32z M-5.7,28.2l-3,5l1.5,1.1l2.9-4.9
			L-5.7,28.2z M36.6,26.8c-0.8,0.1-1.6,0.2-2.2,0.3l0,0c-0.5,0.1-0.9,0.1-1.1,0.2l0.9,5.3l0.2,0.7c1-0.4,2.1-0.9,3.4-1.4L36.6,26.8z
			 M-6.9,27.2l-1.6,4.2c0,0,0,0,0,0c0,0,0,0,0,0l-1.4,0.8l1.1,0.8l3-5L-6.9,27.2z M-1.8,27.8L-1.8,27.8l-1.5,0.5l1.1,3.9l1.6-0.6
			L-1.8,27.8L-1.8,27.8z M-0.5,27.2l-1.2,0.5l1.1,3.7L0.7,31L-0.5,27.2z M10.6,26.9L6.1,29l0.7,2.2l4.5-3L10.6,26.9z M16.2,27.2
			L16.2,27.2L12,29.4l0.6,1.1c0.2-0.3,0.3-0.4,0.3-0.4c0-0.1,0.1-0.1,0.2-0.1l3.5-1.8L16.2,27.2L16.2,27.2z M2.4,27.5
			C2.5,27.5,2.5,27.5,2.4,27.5l0.5,1.4c0,0,0,0.1,0,0.1L2,29.4l0.5,1l1.7-0.4l-1.3-4.2L1,26.6l0.4,1.2L2.4,27.5
			C2.4,27.5,2.4,27.5,2.4,27.5L2.4,27.5z M15.8,26.1L15.8,26.1l-4.2,2.2l0.4,0.9l4.1-2.2L15.8,26.1L15.8,26.1z M2.4,27.6L2.4,27.6
			l-0.9,0.2L2,29.2l0.8-0.4L2.4,27.6L2.4,27.6z M-4.8,25.2l-1.9,1.9l1.1,0.9l1.4,1.2l0.8-0.9L-4.8,25.2z M9.4,24.2l-1.9,1.1
			l-2.1,1.2l0.8,2.5l4.5-2.1L9.4,24.2z M15.1,24.4L15.1,24.4l-4.3,2.4l0.7,1.4l4.2-2.2L15.1,24.4L15.1,24.4z M-2.7,22.6L-4.7,25
			l1.3,3.1l1.6-0.5l1.3-0.6l1.3-0.6l1-0.4L-2.7,22.6z M24.5,22.7L24.5,22.7l-8.2,4.4l0.4,1l3.8-1.9l1.9-1.3c0.8-0.5,1.6-1,2.4-1.5
			L24.5,22.7L24.5,22.7z M-6.9,22.8L-6.9,22.8l-1.9,2.3l1.9,1.9l2-1.9L-6.9,22.8z M24.2,21.7L24.2,21.7l-8.3,4.3l0.3,0.9l8.2-4.4
			L24.2,21.7L24.2,21.7z M12.3,23.1l-2.8,1l1.2,2.5l2.4-1.3L12.3,23.1z M5.5,23.2L5.5,23.2L5,23.9l-1,1.3l1.3,1.1l2.1-1.1L5.5,23.2
			L5.5,23.2z M-2.1,16.9l-3,3.7L2,25.9l1.7-0.8L1.1,23c0,0,0-0.1,0-0.1c0,0,0,0,0.1,0c0,0,0,0,0,0l2.6,2.2l1-1.2L-2.1,16.9z
			 M23.6,20.1l-8.4,4.3l0.6,1.6l8.3-4.3L23.6,20.1z M14.3,22.7l-1.3,0.1L12.5,23l0.7,2.2l1.8-1L14.3,22.7z M6.8,21.6l-1.2,1.5
			L7.4,25l1.8-1L6.8,21.6z M-5.3,20.7l-1.6,1.9l2,2.3l2-2.3L-5.3,20.7z M16,20.4l-1.5,2.2l0.7,1.5l1.7-0.8L16,20.4z M0,9.7l-0.9,1.4
			c0,0,0,0,0,0l-1.6,0.7l1.7,1.9l4,4l6.3,6.2l3-1.1l0.6-0.2l0.3-1.7l-0.4-1.6l-1.5-1c0,0,0,0,0,0c0,0,0,0,0,0l-2.1-3.3l-2,0.2h0
			c0,0,0,0-0.1,0l-4.5-4.9l-0.8,1.2c0,0,0,0,0,0c0,0,0,0,0,0c0,0,0,0-0.1,0L0,9.7L0,9.7z M4.3,19.2l-1.8,2.1l2.4,2.5L5.4,23l1.2-1.5
			L4.3,19.2L4.3,19.2z M29.2,19.1L29.2,19.1l-4.9,2.5l0.6,1.6c0.8-0.4,1.6-0.8,2.5-1.1c0.4-0.2,0.8-0.4,1.1-0.6
			c0.2-0.1,0.3-0.3,0.5-0.5c0.1-0.2,0.2-0.4,0.3-0.6C29.3,20,29.3,19.6,29.2,19.1L29.2,19.1z M17.5,19.8l-1.4,0.5l0.9,3l1.3-0.6
			L17.5,19.8L17.5,19.8C17.5,19.8,17.5,19.8,17.5,19.8L17.5,19.8z M9.3,14.9C9.3,14.9,9.3,14.9,9.3,14.9l2.2,3.3l1.5,1
			c0,0,0,0,0,0.1l0.5,1.7l0,0l0,0l-0.3,1.6l1.2-0.1l1.5-2.3l-1.2-0.6l0,0l0,0L6.1,4.9l-3.4,5.4l4.5,4.8L9.3,14.9
			C9.3,14.9,9.3,14.9,9.3,14.9z M20.1,18.9l-2.5,0.9l0,0c0,0,0.1,0,0.1,0.1l0.7,2.7l2.3-1.2L20.1,18.9L20.1,18.9z M30.4,21.5
			c0.2,0,0.4,0,0.6,0.1c0.2,0,0.3,0.1,0.5,0.2l-0.1-0.3L30,19.6c0,0.4,0,0.7-0.1,1.1c-0.1,0.3-0.2,0.6-0.4,0.9
			C29.8,21.5,30.1,21.5,30.4,21.5L30.4,21.5z M28.4,17.5L28.4,17.5L23.7,20l0.5,1.5l4.9-2.5C28.9,18.4,28.7,18,28.4,17.5L28.4,17.5z
			 M21.8,18.3l-1.5,0.5l0.6,2.5l1.6-0.8L21.8,18.3L21.8,18.3z M1.7,16.6l-1.8,2.1l2.4,2.4l0.9-1l-1.1-1.2c0,0,0-0.1,0-0.1
			c0,0,0,0,0,0l0.8-1L1.7,16.6z M22.8,17.9l-0.9,0.3l0.6,2.2l1-0.5L22.8,17.9z M13.7,14.6l-1.3,1l2.3,3.9l1.3,0.6l0.2-0.1l-1-1.8
			c0,0,0,0,0,0c0,0,0-0.1,0-0.1l0.4-0.4c0,0,0,0,0,0c0,0,0,0,0.1,0c0,0,0,0,0,0.1c0,0,0,0,0,0.1l-0.3,0.4l0.9,1.8l2.4-0.8l-0.2-0.8
			l-3.4-3.9c0,0,0,0,0,0c0,0,0,0,0,0l-0.9,0.7c0,0,0,0-0.1,0c0,0,0,0-0.1,0L13.7,14.6z M3.1,17.9L3.1,17.9l-0.8,0.9L3.4,20L4.2,19
			L3.1,17.9L3.1,17.9z M28.1,12.3L26.7,14l4.7,6l0-0.2l0-0.1c0,0,0-0.1,0-0.1c-0.1-1.9-0.2-3.4-0.3-4.4l-0.1,0h0
			c-0.4-0.1-1-0.3-1.1-0.3C29.9,14.7,29.2,13.8,28.1,12.3L28.1,12.3z M26.7,15.3L26.7,15.3l-3.7,2.5l0.7,2l4.6-2.5
			c0,0,0-0.1-0.1-0.1c0,0,0-0.1-0.1-0.1L26.7,15.3L26.7,15.3z M11.9,0.8l-0.2,3.4c0,0,0,0.1-0.1,0.1L9.8,5l2.7,6.1l6.1,7.1
			c0,0,0,0,0,0c0,0,0,0,0,0l0.2,0.8l4-1.4l3.8-2.6l-2.9-3.7l-3,0c-0.5,0.5-0.9,0.9-1.2,1.2l0.5,0.8l0.5-0.4c0,0,0,0,0,0
			c0,0,0,0,0.1,0l1.1,1.6c0,0,0,0,0,0c0,0,0,0.1,0,0.1c0,0,0,0,0,0c0,0-0.1,0-0.1,0l-1-1.5l-0.5,0.3l0.7,1.1c0,0,0,0,0,0
			c0,0,0,0,0,0.1c0,0,0,0,0,0.1l-0.6,0.3c0,0,0,0,0,0c0,0-0.1,0-0.1-0.1c0,0,0-0.1,0-0.1l0.5-0.2l-1.2-2c-0.7,0.7-1.2,1.2-1.5,1.4
			c-0.2,0.2-0.3,0.3-0.4,0.3c0,0,0,0,0,0c-0.1,0-0.7-0.8-1.3-1.4c-0.6-0.7-1.3-1.5-1.6-1.9c0,0,0,0,0-0.1c0,0,0-0.1,0-0.1
			c0,0,0,0,0,0c0,0,0,0,0.1,0c0.2,0.3,0.5,0.6,0.8,1c0.1,0.1,0.1,0.2,0.2,0.3l2.7-2.5c-0.5-0.4-1.3-1.1-2-1.7
			c-0.7-0.6-1.1-1-1.4-1.2c-0.1-0.1-0.2-0.3-0.2-0.5c-0.1-0.3-0.1-0.5-0.1-0.8c-0.1-1.4,0.1-3.5,0.2-4.6L11.9,0.8z M-2.1,16.6
			C-2.1,16.6-2,16.6-2.1,16.6c0.1,0,0.1,0.1,0.1,0.1l1.8,1.9l1.8-2.1L-1,14l-1.8,2L-2.1,16.6C-2.1,16.6-2.1,16.6-2.1,16.6L-2.1,16.6
			z M-7.6,12.9l-0.9,2.3l0.6,0.5l2,0.3l0.4-0.5l-0.7-2.2L-7.6,12.9z M-2.8,11.9L-5.2,13l1.8,2.4l0.5,0.5l1.8-2L-2.8,11.9z
			 M11.4,13.7l1,1.7l1.3-1c0,0,0,0,0.1,0c0,0,0,0,0.1,0l0.3,0.6l0.8-0.7l0,0l-1.8-2c0,0,0,0,0,0L11.4,13.7
			C11.4,13.7,11.4,13.7,11.4,13.7C11.4,13.7,11.4,13.7,11.4,13.7z M31.6,8.9L31.6,8.9l-0.9,0.3l-2.5,3c0.1,0.2,0.2,0.3,0.3,0.5
			l0.1,0.1l0,0c0.8,1.1,1.3,1.8,1.4,1.9c0.1,0,0.6,0.2,1.1,0.3h0c0-0.1,0-0.3,0-0.4c0-0.2,0-0.3,0-0.5C31.1,12.8,31.4,10.5,31.6,8.9
			L31.6,8.9z M17.1,11.1L17.1,11.1l-1.3,1.2c0.8,1,1.5,1.8,1.7,2c0.1-0.1,0.5-0.4,1.3-1.1h0c0,0,0,0,0,0L17.1,11.1L17.1,11.1z
			 M24.7,7.4L24.7,7.4l-1.3,2.3l3.3,4.2l1.4-1.7c-0.7-1-1.5-2.1-2.2-3.1l0,0C25.4,8.4,25,7.8,24.7,7.4L24.7,7.4z M7,3.5L6.2,4.7
			l5.1,8.9c0,0,0-0.1,0-0.1l1.7-1.4c0,0,0,0,0,0l-0.8-0.9c0,0,0,0,0,0c0,0,0,0,0,0L9.1,3.7L7,3.5L7,3.5z M-6.5,11.5l-1,1.2l1.4,0.5
			l0.7-0.3L-6.5,11.5z M18.5,9.8L17.3,11l1.6,2c0,0,0,0,0,0.1v0c0.1-0.1,0.1-0.1,0.2-0.2l0,0c0.1-0.1,0.2-0.1,0.2-0.2l0,0
			c0,0,0,0,0,0v0c0,0,0-0.1,0-0.1c0,0,0,0,0,0c0,0,0.1,0,0.1,0l0,0c0.4-0.4,0.8-0.8,1.1-1.1c-0.1-0.1-0.5-0.4-0.9-0.7l0,0
			C19.3,10.4,18.9,10.1,18.5,9.8L18.5,9.8z M-4.9,9.5L-4.9,9.5l-1.5,1.9l1.1,1.5l2.4-1.1L-4.9,9.5L-4.9,9.5z M-7.3,10.5L-7.3,10.5
			l-1.2,1.4l0.8,0.8l1.1-1.3L-7.3,10.5L-7.3,10.5z M27.6,4.4L27.6,4.4l-1.7,1.4c-0.1,0.1-0.1,0.1-0.2,0.1l-0.1,0l-0.8,1.3
			c0.2,0.3,0.5,0.6,0.7,1l0,0c0.9,1.2,1.8,2.6,2.7,3.8l1.8-2.2L27.6,4.4L27.6,4.4z M-8.3,8.7l-1.8,1.4l1.6,1.6l1.2-1.4l0.4-0.5
			L-8.3,8.7z M-5.5,4.1L-5.5,4.1l-1.9,2.3l4.6,5.3L-1,11l0.9-1.4l-2.1-2.2l-0.9,1.2c0,0,0,0-0.1,0c0,0,0,0-0.1,0c0,0,0,0,0-0.1
			c0,0,0,0,0-0.1l0.9-1.2l-1.9-2l-0.8,0.9l0,0.6c0,0,0,0.1-0.1,0.1c0,0,0,0,0,0c0,0-0.1,0-0.1-0.1V6.2c0,0,0,0,0-0.1l0.8-0.9
			L-5.5,4.1z M2.3,3.7C2.3,3.7,2.3,3.7,2.3,3.7l0.9,0.8c0,0,0,0,0,0.1c0,0,0,0,0,0.1l-3.2,5l1.8,1.8l5-8L7,3.2L4.5,2.4
			c0,0-0.1-0.1-0.1-0.1l0.1-0.7L1.5,0.9L1.2,2.1c0,0,0,0.1-0.1,0.1l-1.7,0.4c0,0,0,0,0,0c0,0,0,0-0.1,0c0,0,0,0,0-0.1l0,0l0.1-1.4
			l-1.1,0.1l0.1,1.6c0,0,0,0,0,0.1c0,0,0,0-0.1,0h0c0,0-0.1,0-0.1-0.1l-0.1-1.6l-1.2-1l-1,0.8l0.2,0.9l1.5,0.7c0,0,0.1,0.1,0,0.1
			c0,0,0,0.1-0.1,0.1c0,0,0,0,0,0l-1.5-0.7L-5.4,4l1.1,1.1L-3.4,4c0,0,0,0,0.1,0c0,0,0,0,0.1,0c0,0,0,0.1,0,0.1l-0.9,1l2,2l1,1
			l1.9-2.4c0,0,0,0,0.1,0c0,0,0,0,0,0l0.9,0.9l1.4-2.2L2.3,3.9C2.2,3.9,2.2,3.8,2.3,3.7C2.3,3.7,2.3,3.7,2.3,3.7L2.3,3.7z M15.1,0.3
			c0,0.2,0,0.3,0,0.5l0,0c0,0,0,0,0,0c-0.1,1-0.2,2.3-0.3,3.6c0,1.3,0.1,2,0.3,2.3c0.7,0.8,4.1,3.5,5.2,4.3l0,0
			c0.2,0.1,0.3,0.2,0.3,0.3l2.8,0L15.4,0.9l0,0c0,0-0.1-0.1-0.1-0.1c-0.1-0.1-0.1-0.3-0.1-0.4l0,0L15.1,0.3z M-6.8,7.3L-6.8,7.3
			l-1.4,1.3l1.5,1.2c0,0,0,0,0,0c0,0,0,0,0,0.1c0,0,0,0.1,0,0.1l-0.4,0.5l0.6,0.8L-5,9.4L-6.8,7.3z M-7.9,4.7l-1.2,0.8l-1.3,2
			l-2.2,2.6l1.2,1l3-2.5l1.4-1.4l-0.6-0.7c0,0,0,0,0,0L-7.9,4.7z M31.9,6.5L31.9,6.5l-2.6,1.5l0.8,1.7L30.6,9c0,0,0,0,0,0l1-0.3
			c0.1-0.6,0.1-1.1,0.2-1.5v0C31.9,6.9,31.9,6.6,31.9,6.5L31.9,6.5z M25.4,5.9l-5,0.1l2.8,3.5l1.4-2.4L25.4,5.9L25.4,5.9z M0.8,6
			l-1.9,2.4l1.1,1.1l1.6-2.6L0.8,6z M27.9,4.1L27.9,4.1l-0.2,0.2l1.5,3.5l2.7-1.5l-0.9-1.6L27.9,4.1z M10.3,0.8L8.8,1.5L7.1,3.3
			l2,0.2c0,0,0.1,0,0.1,0.1l0.5,1.2l1.8-0.7l0.2-3.4L10.3,0.8z M1.4,0.9l-1.8,0.1l-0.1,1.3L1.1,2L1.4,0.9z"/>
	</g>
</g>
</svg>
