<?xml version="1.0" encoding="utf-8"?>
<!-- Generator: Adobe Illustrator 24.0.1, SVG Export Plug-In . SVG Version: 6.00 Build 0)  -->
<svg version="1.1" id="Warstwa_1" xmlns="http://www.w3.org/2000/svg" xmlns:xlink="http://www.w3.org/1999/xlink" x="0px" y="0px"
	 viewBox="0 0 329.3 334.7" style="enable-background:new 0 0 329.3 334.7;" xml:space="preserve">
<style type="text/css">
	.st0{fill:#FBBC1B;}
	.st1{fill:#FFFFFF;}
	.st2{fill:#010202;}
</style>
<circle id="Oval" class="st0" cx="162.6" cy="161.5" r="154.5"/>
<g id="openpeeps_peep-03" transform="translate(53 44)">
	<g id="BODY" transform="translate(3.845 101.533)">
		<path id="_Background" class="st1" d="M185.4,166.7c-0.6-5.3-0.9-10.7-1.1-16.1s0.1-10.8,0.2-16.1c0.2-10.9,0.6-21.8-0.2-32.7
			c-0.8-10.3-2.7-20.5-5.7-30.3c-1.3-4.9-3.1-9.7-5.3-14.2c-2.4-4.5-6.2-7.4-10.3-10.2c-4.4-2.9-8.8-5.9-13.2-8.8
			c-3.7-2.5-10.4-5.3-13.4-8.6c-3.2-3.5-3.8-12-5.9-16.1c-2.1-4-7.9-6.6-12.4-6.6c-7.5,0-13.1-0.4-19.3,6.5
			c-3.1,3.5-0.6,6.9-3.8,10.3c-3,3-10.5,6.2-14.3,7.9c-4.6,2.1-9.2,4-14,5.6c-4.8,1.7-9.8,3-14.7,4.6c-4.7,1.5-10.8,7.9-14.4,11.2
			c-3.4,3.1-4.2,2.8-6.8,6.5C25,68,19.3,76.4,14.9,85.4c-2.2,4.5-4.4,9.2-5.2,14.2c-0.9,5.3,0,10.4,1.4,15.6
			c1.4,5.2,5.9,10.2,7.4,15.4c0.7,2.4-1.7,5-0.6,7.3c0.5,1.1,1.2,2.2,2,3.1c0.6,0.8,2.9,0.6,3.2,1.5s-1.4,2.9-1.4,3.9
			c0,1.4-0.1,2.8-0.1,4.2l-0.3,8.2l-0.5,16.2c-0.1,1.7-0.1,3.5,0.3,5.2c-0.2-0.1-0.3-0.3-0.4-0.5c-0.4-0.5-1.2-0.1-0.9,0.5
			c0.5,0.9,1.3,1.7,2.3,2.2c1.1,1.6,164.3,5.1,165.1,0.5c0.5-2.6-0.4-5.4-0.7-8C186.1,172.1,185.7,169.4,185.4,166.7z"/>
		<path id="_Ink" class="st2" d="M189.6,185.8c-0.5,0-0.9-0.2-1.2-0.5c-0.7-0.8-1.1-1.9-1.1-2.9c0-0.2,0-0.3-0.1-0.5
			c-0.2-1-0.3-2.1-0.5-3.2c-0.4-2.3-0.7-4.7-1-6.9c-0.6-4.4-1.1-8.9-1.5-13.5c0-1-0.2-2.1-0.5-3.1c-0.3-1.1-0.4-2.2-0.3-3.3
			c-0.1-2.8-0.1-5,0-7c0-0.4,0-0.8,0-1.2c0-0.8,0-1.6,0.1-2.4c-0.7,0.1-1.4,0.2-2,0.3c-0.5,0.1-1.1,0.1-1.6,0.2
			c-0.5,0.1-1,0.2-1.5,0.2c-1.1,0.2-2.1,0.3-3.2,0.4c-0.2,0-0.4,0-0.6,0c0.2,2.1,0.4,2.4,0.6,2.7s0.5,0.6,0.7,2.7
			c0.6,4.8,1.4,9.8,2.4,16.4c0.4,2.5,0.9,5.1,1.3,7.5c0.4,2.4,0.9,4.9,1.3,7.4c0.4,0.8,0.5,1.8,0.2,2.7c-0.3,1-1.2,1.6-2.3,1.6
			c-0.2,0-0.4,0-0.5-0.1c0.2,0.6-0.2,1.3-0.8,1.5l-0.4,0.1c-1,0.3-2,0.5-3.1,0.6h-0.1c-0.8,0-1.6,0-2.4-0.1h0l-0.9,0
			c-2.2-0.1-4.5-0.1-6.7-0.1h-0.4l-7.8,0h-0.6l-5.3,0l-24.6-0.1l-2.8,0l-21.8-0.1l-2,0c-7.4,0-15,0-22.5-0.1c-4.2,0-8.3,0-12.5-0.1
			c-2.9-0.1-5.7-0.1-8.5-0.4c-0.3,0.1-0.6,0.2-0.9,0.3c-0.3,0.1-0.5,0.1-0.8,0.1c-1.5-0.1-2.7-1.3-2.7-2.8c-0.3-2-0.2-4,0.3-5.9
			c0.1-0.4,0.2-0.9,0.4-1.3c0-0.2-0.1-0.4-0.1-0.6c0-0.5,0-1-0.1-1.5v0c0-0.2,0-0.4,0-0.6c0-1-0.1-2.1-0.1-3.1c0-0.5,0-1,0-1.6
			c-0.1-3-0.1-6-0.1-8.9c0-4.1,0.1-8.3,0.2-12.3c-0.3,0-0.7,0-1,0c-1,0-2,0-2.9-0.1c-0.4,0-0.8,0-1.2,0c-2.3-0.1-4.6-0.2-6.9-0.4
			c-4.6-0.4-9.1-1.1-13.6-2l-0.2,0c-0.5-0.1-1-0.2-1.5-0.3c0.1,0.8,0,1.5,0,2.3c0,0.2,0,0.5,0,0.7c0,0.3,0,0.7,0,1v0.1
			c0,1.3,0,2.7,0,4.1c0,2.1-0.1,4.2-0.2,6.3v0c0,1.2-0.1,2.3-0.1,3.5c0,1.3-0.1,2.7-0.1,4v0c-0.1,2-0.1,4.1-0.2,6.1
			c0,1.6-0.1,3.3-0.1,4.9c0,0.3,0,0.7,0,1c0.1,1.4-0.1,2.9-0.6,4.2c-0.4,0.6-1,1-1.7,1c-0.7,0-1.3-0.3-1.7-1
			c-0.5-1.4-0.7-2.8-0.5-4.3v0c0-0.3,0-0.6,0-0.9c0.1-1.9,0.1-3.6,0.2-5.2c0.2-3.9,0.4-7.1,0.6-10.1c0.3-3.7,0.6-7,0.9-10.1
			c0.2-1.7,0.4-3.3,0.7-5l0-0.1c0-0.2,0-0.3,0.1-0.5v0c0.1-0.6,0.2-1.2,0.3-1.8c0-0.3,0-0.6,0.1-0.9c-0.6-0.3-1.3-0.6-1.8-1
			c-1.1-0.9-1.9-2.2-2.2-3.7c-0.3-1.5-0.4-3.1-0.1-4.6c0.1-0.7,0.2-1.5,0.4-2.2c-0.2,0-0.5-0.1-0.6-0.2c-1.3-0.9-2.3-2.3-2.9-3.8
			L14,127c-0.7-1.3-1.3-2.7-2-4.3c-1.2-2.8-2.1-5.7-2.7-8.7c-2.4-11-1.3-22.4,3.2-32.7c2.7-5.6,6-10.8,10-15.6c4-5,8.5-9.7,13.3-14
			c0,0,0.1-0.1,0.2-0.1c0.1,0,0.2,0.1,0.2,0.1c0,0.1,0,0.2,0,0.3c-0.3,0.3-0.6,0.7-0.9,1.2c0.4-0.1,0.8-0.2,1.2-0.2
			c2.7-4.2,6.5-7.6,10.9-10c5.9-3.3,12.5-5.3,18.8-7.3c4.1-1.2,8.3-2.5,12.3-4.2c4.6-1.8,8.8-4.3,12.5-7.6c1.7-1.5,3.2-3.3,4.5-5.2
			c0.6-1,1.2-2,1.7-3.1c0.2-0.4,0.3-0.8,0.5-1.2c0.2-0.7,0.5-1.3,0.9-2c0.3-0.6,1-0.9,1.6-0.9c0.6,0,1.1,0.2,1.5,0.6
			c0.3,0.3,0.5,0.8,0.5,1.3c0,2.7-1.7,5.6-3.1,7.8c-1.5,2.3-3.4,4.4-5.5,6.3c-8.1,7.1-18.6,10-28.8,12.7l0,0l-1.2,0.3
			c-5.1,1.3-10.1,3.1-14.9,5.3c-3.8,1.8-7.3,4.1-10.5,6.9c0.3,0,0.9,0,1.7,0c2.7,0,8.2,0.1,13.4,0.3h0.1c5.3,0.1,10.8,0.3,13.6,0.3
			c0.5,0,0.9,0,1.1,0c8.2-0.2,16.6-0.4,25.8-0.4c7.3,0,15,0.1,23.5,0.2c8.1,0.1,16.3,0.4,24.5,0.7c4,0.1,8.1,0.3,12.5,0.5
			c2.2,0.1,4.2,0.2,6.1,0.3c0.4,0,0.7,0,1.1,0c0.5,0,1.1,0,1.6,0.1c1.6-0.5,3.3-0.7,5-0.7c0.7,0,1.4,0,2.1,0.1c-1.6-1.5-3.2-2.8-5-4
			c-3.5-2.3-7.2-4.2-11-5.9c-4.1-1.8-7.9-3.9-11.6-6.4c-3-2.1-5.6-4.9-7.6-8c-2.1-3.1-3.1-6.7-3.1-10.5c0-0.1,0.1-0.2,0.2-0.2
			c0.1,0,0.2,0.1,0.2,0.1c0.9,4.1,3.1,7.9,6.2,10.7c2.7,2.5,5.8,4.7,9,6.5c2.7,1.5,5.5,2.9,8.2,4.2c1.1,0.5,2.2,1.1,3.3,1.6
			c3.8,1.8,7.4,4.1,10.8,6.7c1.7,1.3,3.3,2.8,4.8,4.3c0.3,0.3,0.5,0.5,0.8,0.8c0.7,0.6,1.3,1.3,1.9,2c0.1,0,0.1,0,0.1,0.1
			c4.9,2.3,8.7,6.5,11.3,12.3c2.2,5.3,3.5,11,3.8,16.7c0.1,1.1,0.1,2.2,0.2,3.4c0.9,5.3,1.3,10.7,1.2,16c0,4.7-0.7,9.3-1.8,13.9
			c-1,4.3-2.9,8.3-5.5,11.9c0.6,1,1,2.1,1.1,3.3c0,0.2,0.1,0.3,0.1,0.4c0,0.1,0,0.2,0.1,0.4v0c0.4,1.3,0.5,2.7,0.3,4.1
			c-0.4,1.4-1.6,2.4-3,2.6h0c-0.1,0-0.1,0-0.2,0c0.1,0.7,0.2,1.5,0.3,2.3c0.1,0.4,0.1,0.9,0.2,1.3c0.3,2.3,0.6,4.7,0.8,6.8
			c0.3,2.2,0.5,2.7,0.8,3.2s0.5,0.9,0.8,3.2c0.5,4.1,1.1,8.4,1.8,13.3c0.3,2.3,0.7,4.6,1,6.9c0.2,1,0.3,2.1,0.5,3.2
			c0,0.1,0,0.2,0.1,0.3v0c0.3,1.1,0.3,2.3-0.2,3.3C190.8,185.5,190.2,185.9,189.6,185.8z M19.2,130.6c-0.1,0.1-0.2,0.2-0.3,0.3
			c0,0.3-0.1,0.5-0.1,0.8c-0.1,0.7-0.2,1.4-0.2,2c-0.1,1.4,0.2,2.8,0.7,4.1c0.8,1.4,2.2,2.4,3.8,2.7c1.2,0.3,2.4,0.5,3.7,0.7
			c0.5,0.1,1,0.1,1.4,0.2c3.9,0.7,7.9,1.1,12,1.5c2,0.2,4.1,0.3,6.2,0.3c0.3,0,0.5,0,0.8,0c0.5,0,1.1,0,1.6,0s1,0,1.6,0
			c0.3,0,0.6,0,0.9,0c0.1-2.7,0.3-5.4,0.4-8.1c-0.2,0.1-0.4,0.1-0.6,0.1c0,0-0.1,0-0.1,0c-4.8-0.3-11.1-0.8-17.5-1.7
			c-3.1-0.4-6.1-1-8.8-1.5C22.9,131.5,21,131.1,19.2,130.6L19.2,130.6z M173.6,130.9L173.6,130.9c0.2,2.7,0.4,5.2,0.6,7.7
			c0.9-0.2,1.9-0.3,2.9-0.3c0.4,0,0.8,0,1.1-0.1l2.8-0.2l1.2-0.1c0.3,0,0.5,0,0.8-0.1c0.4,0,0.9-0.1,1.3-0.1c0,0,0.1,0,0.1,0
			c0.2,0,0.5-0.1,0.7-0.2c0.1-0.3,0.1-0.7,0-1c0-0.1,0-0.2,0-0.2c0-0.6-0.1-1.2-0.2-1.8c0-0.1,0-0.2,0-0.3v0
			c-0.1-0.5-0.2-1.1-0.3-1.6c0-0.1-0.1-0.2-0.1-0.3c-0.2,0-0.4,0.1-0.5,0.1c-0.7,0-1.5-0.3-2-0.8c-0.4,0-0.7,0-1.1-0.1
			c-0.4,0-0.9,0-1.3-0.1c-0.6,0-1.1-0.1-1.7-0.1C176.4,131.2,175,131.1,173.6,130.9L173.6,130.9z M20.5,98.9c-0.4,0-0.8,0.3-0.9,0.6
			c-1,3.1-1.3,6.4-0.9,9.6c0.4,3.2,1.3,6.4,2.5,9.4c0.1,0.4,0.5,0.6,0.9,0.6c0.3,0,0.6-0.1,0.8-0.4c0.1-0.2,0.2-0.5,0.1-0.7
			c-2.8-7.2-3.4-13.1-1.6-18c0.1-0.3,0.1-0.5-0.1-0.8C21.1,99.1,20.8,98.9,20.5,98.9z M29.2,110.6c-0.3,0-0.5,0.1-0.7,0.3
			c-0.2,0.2-0.2,0.4-0.2,0.6c0,2.1,0.6,4.2,1.8,5.9c0.2,0.3,0.5,0.4,0.8,0.4c0.4,0,0.7-0.2,0.9-0.5c0.1-0.3,0.1-0.6-0.1-0.9
			c-1-1.5-1.5-3.2-1.5-5C30.1,111,29.7,110.6,29.2,110.6C29.2,110.6,29.2,110.6,29.2,110.6L29.2,110.6z"/>
	</g>
	<g id="HEAD" transform="translate(52.785 3.36)">
		<path id="_Background-2" class="st1" d="M69.3,12.9c13.4,0,30.2,15.3,35.2,21.8c4.1,5.5,3.6,33.7,3.6,50.5
			c0,3.5-1.6,10.1-2.2,13.5c-2.1,12.3-11.3,22.6-29.4,22.6c-14.8,0-26.2-4.7-37.2-16.7c-2.5-2.7-14.8,7.1-17.3,3.5
			c-6.5,0-12-61.2,0.8-79.6S55.9,12.9,69.3,12.9z"/>
		<path id="_Ink-2" class="st2" d="M40,134.6c-1.1,0-2.1-0.6-2.4-1.7c-0.1-0.5-0.2-1.1-0.4-1.6c-0.3-1-0.6-2-0.9-3l-0.1-0.4
			c-0.1-0.4-0.3-0.8-0.4-1.2c-0.1-0.4-0.3-0.8-0.4-1.3l0-0.1c0,0,0-0.1,0-0.1l0,0l-0.5,1l-1.5,3.2c-0.2,0.5-0.7,0.8-1.2,0.8
			c-0.9,0-1.6-0.7-1.7-1.5v0c0-0.3,0-0.5,0-0.8c-0.1-1.9-0.4-3.8-1-5.6l-0.2,0.2c-2.7,3.3-6,6.8-10.8,7.6c-0.1,0-0.2,0-0.3,0
			c-0.6,0-1.2-0.3-1.5-0.9c-0.2-0.4-0.2-0.9,0.1-1.3c0.3-0.5,0.6-1,0.9-1.5c-0.3-0.1-0.5-0.2-0.7-0.4c-1.7-1-3.2-2.3-4.4-3.9
			c-2.2-2.9-3.4-6.7-3.7-11.7c-0.3-4.4,0.2-8.9,1.3-13.1c0.5-1.8,1.2-3.6,2-5.2c-0.1-0.2-0.1-0.3-0.2-0.5c-0.9-2.4-1.6-4.9-2.2-7.4
			c-1.2-5.1-1.8-10.3-1.9-15.5C8,59.4,9.6,50.1,13,41.3c3.8-9.8,9.3-18.1,15.9-24.1C36.5,10.5,46.3,6.9,56.4,7c0.4,0,0.7,0,1.1,0
			c5.4,0.1,10.8,1.1,15.9,2.9c2.6,0.9,5,2,7.4,3.3c0.8,0.5,1.6,1,2.4,1.6l0.2,0.1c2.1,0.8,3.9,2,5.5,3.6c0.8-0.1,1.5-0.1,2.2-0.1
			c2.6,0,5.1,0.4,7.5,1.1c2.2,0.7,4.3,1.7,6.3,3c1.9,1.3,3.7,2.9,5.1,4.7c1.6,2.1,2.8,4.5,3.4,7c0.6,2.6,0.8,5.2,0.6,7.8l-0.1,0.9
			c-0.4,5.2-1.2,10.9-5,13.9c-0.3,0.2-0.6,0.4-1,0.5c2.6,4.3,4.5,9,5.8,13.9c1.1,4.6,1.8,9.2,2.1,13.9c0.2,4.7,0.1,9.3-0.5,14
			c-1.1,9.3-3.2,18.5-6.2,27.4c-0.4,1-1.3,1.7-2.4,1.7c-0.6,0-1.1-0.3-1.4-0.7c-2-2.6-4.9-4.4-8.2-4.9c-0.6-0.1-1.3-0.1-1.9-0.1
			c-1.4,0.1-2.7-0.1-4-0.6c-0.8-0.4-1.5-1-2-1.7c-2.9,1.1-6,1.7-9.1,1.7c-0.3,0-0.7,0-1,0c-6.4-0.3-12.1-2.6-15.6-6.5
			c-0.6-0.6-0.8-1.4-0.6-2.2c0.5-0.2,1-0.3,1.5-0.4c4.9,3,10.5,4.7,16.2,5c0.2,0,0.4,0,0.6,0c3.8,0,6.6-0.8,8.8-2.5
			c0.6-0.5,1.1-1,1.6-1.5c2.9-1.9,5.3-4.3,7.3-7.2c2-2.9,3.5-6.1,4.4-9.5c1.8-6.4,1.5-13,1-19.2l-0.3-3.4c-0.5-4.8-0.9-9.9-1-14.9h0
			c0.5,0,0.9-0.5,0.9-1c0,0,0,0,0,0c0-0.5-0.3-0.8-0.8-0.9c0,0,0,0,0,0H103c-0.5,0-1,0-1.6,0c-1,0-2,0-3-0.1s-2-0.1-3-0.1
			c-0.6,0-1.2,0-1.8,0.1c0-1.5-0.2-3-0.6-4.4c-0.2-0.4-0.6-0.7-1-0.7c-0.4,0-0.8,0.3-0.8,0.7c-0.2,1.3-0.3,2.6-0.3,3.9
			c-1.8,0-3.5-0.1-5.3-0.2c-2.1-0.1-4.3-0.2-6.4-0.2c-0.8,0-1.6,0-2.4,0c-0.6-0.8-1-1.8-1.2-2.7c-0.1-0.3-0.2-0.7-0.3-1
			c-0.1-0.1-0.1-0.3-0.2-0.5c-0.4,1.6-0.9,3.2-1.5,4.8h-1.2c-6,0-13,0.2-19.6,1.6c-0.4-0.4-0.7-0.9-0.8-1.5
			c-0.4-3.5-1.2-6.9-2.3-10.3L49.6,47l0-0.1l0-0.1c-0.9,1.4-1.9,2.7-3,3.9c-0.6,0.7-1.3,1.3-2.1,2.1c-0.3,0.4-0.7,0.8-1,1.1
			c-0.4,0.4-0.7,0.8-1.1,1.2c0,0.2,0.1,0.3,0.1,0.4c0.2,1.6,0.2,3.2,0.1,4.8c-0.3,2.9-1.1,5.7-2.4,8.3l0,0.3
			c-0.1,1.2-0.5,2.4-1.1,3.4c0.8,0.9,1.5,2.1,1.8,3.3c0.1,0.3,0,0.7-0.2,1c-0.2,0.3-0.6,0.5-1,0.5c-0.3,0-0.6-0.1-0.8-0.4
			c-0.6-0.7-1.3-1.3-2.1-1.8c0,0-0.1,0.1-0.1,0.1c0,0-0.1,0-0.1,0c-1-0.5-2.2-0.8-3.3-0.7c-1.6,0-3.1,0.3-4.5,1
			c-2.4,1.3-3.7,3.9-3.4,7.1c0.3,2.6,1.4,5.9,3.8,7.4c0.5,0.4,1.2,0.6,1.8,0.6c0.4,0,0.8-0.1,1.2-0.2c0.4-0.1,0.7-0.3,1-0.6l0.2-0.2
			c0.6-0.6,1.4-0.9,2.3-1c0.2-0.1,0.4-0.1,0.6-0.1c0.7,0,1.4,0.5,1.6,1.1l0,0.1c0,0.1,0.1,0.2,0.1,0.3c0.2,0.5,0.3,1,0.3,1.5
			c-0.1,0.8-0.4,1.5-1,2.1c-0.1,0.1-0.2,0.2-0.3,0.3c4.5,5.1,7.3,11.4,8.1,18.1c0.4,3.4,0.4,6.8,0,10.2c-0.4,3.4-1.2,6.7-2.4,9.8
			c-0.2,0.5-0.4,1-0.7,1.6C41.6,134.2,40.8,134.7,40,134.6z M23.8,98.3c-0.4,0-0.7,0.2-0.9,0.5c-0.2,0.3-0.1,0.6,0,0.8l0,0
			c0.8,1.4,1.4,2.8,1.8,4.3c0.1,0.3,0.2,0.6,0.3,0.9c0.1,0.4,0.5,0.7,0.9,0.7c0.3,0,0.6-0.1,0.8-0.4c0.2-0.2,0.2-0.5,0.1-0.8
			l-0.1-0.4c-0.1-0.2-0.1-0.3-0.2-0.5v0c-0.5-1.7-1.1-3.3-2-4.8C24.4,98.5,24.1,98.3,23.8,98.3z M30.8,28.6L30.8,28.6
			c-0.2,0-0.5,0.1-0.6,0.2c-3.2,2.8-4.8,6.9-6.4,10.9c-0.5,1.2-0.9,2.3-1.4,3.5c-0.1,0.3-0.1,0.7,0.1,1c0.2,0.3,0.5,0.5,0.9,0.5
			c0.3,0,0.6-0.2,0.7-0.5c0.5-1.1,1-2.3,1.4-3.5c1.5-3.8,3-7.7,5.9-10.4l0.1-0.1c0.3-0.2,0.4-0.6,0.3-0.9
			C31.6,28.8,31.2,28.6,30.8,28.6L30.8,28.6z M81,28.6L81,28.6c-0.5,0-0.9,0.4-1,0.8c-0.1,0.4,0.1,0.7,0.4,0.9l0,0
			c3.6,1.6,5.2,5.3,6.7,8.8l0.1,0.2c0.1,0.3,0.4,0.5,0.7,0.5c0.3,0,0.7-0.2,0.9-0.5c0.2-0.3,0.2-0.6,0.1-1l-0.3-0.6
			c-1.6-3.6-3.4-7.3-7.2-9C81.3,28.6,81.2,28.6,81,28.6L81,28.6z M86.9,26.3L86.9,26.3c-0.4,0-0.8,0.4-0.8,0.8
			c-0.1,0.5,0.2,0.9,0.6,1.1c3.4,1.2,5.6,3.9,7.1,6.1c0.2,0.3,0.5,0.4,0.8,0.4c0.4,0,0.7-0.2,0.9-0.5c0.1-0.3,0.1-0.6-0.1-0.9
			c-2.5-3.7-5-5.9-8.2-7C87.1,26.3,87,26.3,86.9,26.3L86.9,26.3z M35.8,85.2c-0.2,0-0.4,0-0.5-0.1C34,84.9,33.5,84,32.9,83
			c-0.2-0.3-0.3-0.6-0.5-0.9l-0.1-0.2l-0.1-0.2c-0.4-0.8-1.1-1.4-1.9-1.9c-0.1,0-0.2-0.1-0.2-0.3c0-0.1,0-0.2,0.1-0.2l0.4-0.2
			c0.8-0.5,1.7-0.7,2.7-0.8c0.5,0,1,0.1,1.4,0.3c1.5,0.5,2.6,1.6,3.3,3c0.3,0.8,0.2,1.7-0.3,2.5C37.3,84.8,36.6,85.2,35.8,85.2
			L35.8,85.2z"/>
	</g>
	<g id="FACE" transform="translate(103.377 56.338)">
		<path id="_Ink-3" class="st2" d="M33.7,52.4c-1.2,0-2.3-0.2-3.4-0.7c-1.6-0.7-3-1.7-4-3.1c-0.3-0.4-0.5-0.9-0.4-1.5
			c0.1-0.5,0.4-1,0.8-1.3c0.3-0.3,0.8-0.4,1.2-0.4c0.1,0,0.2,0,0.3,0c0.5,0.1,1,0.4,1.2,0.8l0.1,0.1c0.6,0.8,1.4,1.5,2.3,2
			c0.7,0.4,1.5,0.5,2.3,0.5c0.2,0,0.4,0,0.6,0c1.9-0.2,3.2-1.2,4.7-2.7c0.2-0.2,0.3-0.3,0.5-0.6c0.1-0.2,0.3-0.3,0.4-0.3
			c0.1,0,0.2,0,0.3,0c0.3,0,0.6,0.2,0.8,0.4c0.1,0.2,0.2,0.4,0.2,0.6c-0.2,1.5-0.9,2.9-2,3.8c-1.2,1.1-2.7,1.9-4.4,2.2
			C34.7,52.3,34.2,52.4,33.7,52.4z M36.1,38.7L36.1,38.7c-2.4-0.2-4.6-1-6.4-2.6c-0.5-0.4-0.7-1.1-0.4-1.6c0.2-0.7,0.8-1.1,1.5-1.2
			c0.2,0,0.5,0.1,0.7,0.2l0.2,0.2c1.2,0.9,3,2.3,4.8,2.3c0.8,0,1.6-0.3,2.1-0.9c0.6-0.7,0.8-1.6,0.6-2.5c-0.4-2-2.5-3.4-3.2-3.8
			c-0.2-0.2-0.3-0.4-0.2-0.7c0.1-0.4,0.5-0.6,0.9-0.6c0.1,0,0.1,0,0.2,0c1.5,0.2,2.9,1,3.8,2.2c0.8,1.1,1.1,2.4,1,3.7
			c-0.1,1.4-0.7,2.6-1.6,3.6C39,38.2,37.6,38.8,36.1,38.7L36.1,38.7z M16.9,25.4c-1,0-1.8-0.8-1.9-1.8c-0.1-1.2-0.1-2.5,0.1-3.7
			c0-0.4,0.1-0.7,0.1-1.1c0-0.6,0.3-1.2,0.8-1.6c0.5-0.4,1-0.6,1.6-0.6c0.9-0.1,1.8,0.6,1.9,1.6c0.3,2.1,0,4.2-1,6.1
			C18.2,25,17.6,25.4,16.9,25.4z M45,24.6c-0.5,0-1-0.2-1.3-0.6c-0.7-0.9-1.1-1.9-1.2-3c-0.2-1.1,0.2-2.2,1-3c0-0.1,0.1-0.2,0.2-0.2
			c0.4-0.6,1-0.9,1.7-1c0.2,0,0.3,0,0.5,0.1c0.7,0.2,1.3,0.7,1.6,1.4c0.7,1.6,0,4.1-0.6,5.3C46.4,24.3,45.8,24.6,45,24.6z M8.5,15.8
			c-0.1,0-0.2-0.1-0.3-0.2c-0.1-0.1-0.1-0.2,0-0.3c1.4-2.5,3.5-4.5,6.1-5.7c1.3-0.7,2.7-1.2,4.2-1.5l0.4-0.1
			c0.6-0.1,1.2-0.2,1.8-0.2c0.8-0.1,1.7,0.2,2.2,0.8c0.3,0.4,0.5,0.9,0.4,1.4c0,0.3-0.2,0.7-0.4,0.9c-0.7,0.5-1.5,0.8-2.4,0.7
			c-0.2,0-0.4,0-0.6,0h0c-0.2,0-0.4,0-0.6,0s-0.4,0-0.5,0c-1.2,0.1-2.4,0.3-3.5,0.6c-2.4,0.8-4.7,2-6.8,3.5
			C8.6,15.8,8.5,15.8,8.5,15.8z M51.3,14L51.3,14L51.3,14l-0.2,0c-0.7-0.2-1.4-0.5-2.1-0.8l-0.7-0.3c-0.8-0.4-1.6-0.7-2.4-1
			c-1.8-0.6-3.6-1-5.4-1.2c-0.4,0-0.8-0.2-1.1-0.4c-0.3-0.2-0.5-0.6-0.6-0.9c-0.1-0.5-0.1-1,0.2-1.4c0.2-0.3,0.5-0.6,0.9-0.7
			C40.1,7,40.4,7,40.6,7c0.1,0,0.3,0,0.4,0l0.3,0.1c2,0.4,4,1,5.9,1.9c1.9,0.8,3.4,2.2,4.4,4c0.1,0.5,0,0.6-0.1,0.7l0,0l0,0
			C51.5,13.9,51.4,14,51.3,14L51.3,14z"/>
	</g>
	<g id="ACCESORIES" transform="translate(64.607 61.305)">
		<path id="_Ink-4" class="st2" d="M54.7,32.5L54.7,32.5c-3,0.1-6-1-8.2-3c-1.2-1.1-2.2-2.5-2.9-4c-0.8-1.8-1.3-3.8-1.5-5.8
			c-0.3-2.3-0.9-2.5-2.5-2.9c-0.3-0.1-0.6-0.2-1-0.3l-0.3-0.1c-0.3-0.1-0.7-0.1-1.1-0.2c-0.2,0.1-0.3,0.1-0.5,0.1
			c-0.5,0-0.9-0.3-1.4-0.7c-0.3-0.2-0.5-0.5-0.8-0.7c-0.8-0.6-2.3-1.4-5.5-1.4c-4.2,0-10.5,1.5-18.6,4.4c0,0.8-0.4,1.3-1,1.3
			c-0.2,0-0.4-0.1-0.6-0.2c-0.7-0.8-0.8-1.8-0.4-2.8c1.2-2.4,6.6-3.8,10.9-4.5c4.5-0.8,9-1.2,13.5-1.3c0.3,0,0.6,0,0.9,0
			c0.6-0.2,1.2-0.3,1.9-0.3c0.3,0,0.7,0.1,1,0.2c2.2-1.8,8.8-3.2,15.3-3.2c3,0,6.1,0.3,9,1c2.5,0.5,4.7,1.7,6.5,3.5
			c1,0.3,2,0.5,3,0.5c2.8,0,5.4-1.2,8-2.4c1.5-0.8,3.1-1.4,4.7-1.9C86,7.2,89,7,92,7c2.2-0.1,4.5,0.2,6.6,0.7c2,0.6,3.1,1.5,3.2,2.8
			c0.3,1.3,0.2,2.7-0.3,3.9c-0.1,0.2-0.3,0.3-0.5,0.3c-0.2,0-0.4-0.1-0.5-0.2c-2.3,1.7-2.9,4.3-3.5,6.9c-0.3,2.1-1.1,4.1-2.3,5.8
			c-0.7,1-1.7,1.8-2.8,2.3c-1.2,0.6-2.5,0.9-3.8,0.8c-2.8,0-5.5-1.2-7.4-3.3c-1.2-1.3-2.2-2.8-2.8-4.4c-0.9-2.1-1.4-4.3-1.6-6.6
			c-0.7-0.3-1.4-0.4-2.2-0.4c-0.8,0-1.6,0.1-2.4,0.3c-0.7,0.1-1.4,0.2-2,0.3c0.3,2,0.1,4.1-0.5,6c-0.6,1.8-1.5,3.4-2.7,4.8
			C63.4,30.5,59.2,32.5,54.7,32.5L54.7,32.5z M56.4,11.7c-3.8,0-9,0.8-11.7,4.7c-0.8,1.2-1,2.7-0.5,4c2.4,8.2,6.9,9.9,10.3,9.9
			c1.1,0,2.3-0.2,3.4-0.5c2.5-0.7,4.7-2.1,6.4-4.1c1.7-1.9,2.7-4.4,2.9-6.9c0.2-2.2-0.6-4.3-2.1-5.8C62.3,12.1,59.4,11.7,56.4,11.7z
			 M89.4,10.2c-0.8,0-1.5,0.1-2.2,0.3c-1.9,0.5-3.6,1.5-5,2.9c-1.5,1.5-2.6,3.5-2.9,5.7c-0.1,1-0.1,2,0.2,3c0.2,0.9,0.5,1.7,1.1,2.4
			c1.7,1.9,5.1,4,8.3,4c0.9,0,1.8-0.2,2.6-0.6c3.9-2.1,4.7-7.7,5.2-11.4c0.2-1.4-0.3-2.8-1.2-3.8C93.8,11,91.7,10.1,89.4,10.2z"/>
	</g>
</g>
</svg>
