<?xml version="1.0" encoding="utf-8"?>
<!-- Generator: Adobe Illustrator 24.0.1, SVG Export Plug-In . SVG Version: 6.00 Build 0)  -->
<svg version="1.1" xmlns="http://www.w3.org/2000/svg" xmlns:xlink="http://www.w3.org/1999/xlink" x="0px" y="0px"
	 viewBox="0 0 453.3 421.3" style="enable-background:new 0 0 453.3 421.3;" xml:space="preserve">
<style type="text/css">
	.st0{fill:#FEBB44;}
	.st1{fill:#FFFFFF;}
	.st2{fill:#FFFFFF;stroke:#000000;stroke-width:4;stroke-miterlimit:10;}
	.st3{fill:#111110;}
	.st4{fill:#931D1D;}
	.st5{fill:#EAEAEA;stroke:#EAEAEA;stroke-width:0.75;stroke-miterlimit:10;}
	.st6{fill:none;stroke:#EAEAEA;stroke-width:3;stroke-miterlimit:10;}
	.st7{fill:#E5E4E4;}
	.st8{fill:#111110;stroke:#111110;stroke-width:0.75;stroke-miterlimit:10;}
	.st9{fill:none;stroke:#111110;stroke-width:4;stroke-miterlimit:10;}
	.st10{fill:#EAEAEA;}
</style>
<g id="Warstwa_1">
	<g>
		<circle class="st0" cx="-234.6" cy="103.9" r="23.5"/>
		<g>
			<g>
				<path d="M-281.1,92.1c1.6,0.9,2.9,2.2,3.8,3.9c0.9,1.7,1.4,3.7,1.4,5.9c0,2.2-0.5,4.2-1.4,5.9c-0.9,1.7-2.2,3-3.8,3.9
					c-1.6,0.9-3.4,1.4-5.4,1.4c-2.5,0-4.5-0.8-6-2.3v9.7h-7.6V91.1h7.2v2.2c1.4-1.7,3.5-2.5,6.4-2.5
					C-284.5,90.7-282.7,91.2-281.1,92.1z M-284.8,105.7c0.9-0.9,1.3-2.2,1.3-3.8c0-1.6-0.4-2.9-1.3-3.8s-1.9-1.4-3.3-1.4
					c-1.3,0-2.4,0.5-3.3,1.4c-0.9,0.9-1.3,2.2-1.3,3.8c0,1.6,0.4,2.9,1.3,3.8c0.9,0.9,1.9,1.4,3.3,1.4
					C-286.7,107.1-285.6,106.6-284.8,105.7z"/>
				<path d="M-267.7,111.7c-1.9-1-3.3-2.3-4.4-4c-1.1-1.7-1.6-3.6-1.6-5.8c0-2.1,0.5-4.1,1.6-5.8c1.1-1.7,2.5-3,4.4-4
					c1.9-0.9,4-1.4,6.3-1.4c2.3,0,4.5,0.5,6.3,1.4c1.9,0.9,3.3,2.3,4.4,4c1,1.7,1.6,3.6,1.6,5.8c0,2.2-0.5,4.1-1.6,5.8
					c-1,1.7-2.5,3-4.4,4c-1.9,1-4,1.4-6.3,1.4C-263.7,113.1-265.8,112.7-267.7,111.7z M-258.1,105.7c0.9-0.9,1.3-2.2,1.3-3.8
					c0-1.6-0.4-2.9-1.3-3.8c-0.9-0.9-1.9-1.4-3.3-1.4s-2.4,0.5-3.3,1.4c-0.9,0.9-1.3,2.2-1.3,3.8c0,1.6,0.4,2.9,1.3,3.8
					c0.9,0.9,1.9,1.4,3.3,1.4S-259,106.6-258.1,105.7z"/>
				<path d="M-226.6,92.1c1.6,0.9,2.9,2.2,3.8,3.9c0.9,1.7,1.4,3.7,1.4,5.9c0,2.2-0.5,4.2-1.4,5.9c-0.9,1.7-2.2,3-3.8,3.9
					c-1.6,0.9-3.4,1.4-5.4,1.4c-2.5,0-4.5-0.8-6-2.3v9.7h-7.6V91.1h7.2v2.2c1.4-1.7,3.5-2.5,6.4-2.5
					C-230,90.7-228.2,91.2-226.6,92.1z M-230.3,105.7c0.9-0.9,1.3-2.2,1.3-3.8c0-1.6-0.4-2.9-1.3-3.8s-1.9-1.4-3.3-1.4
					s-2.4,0.5-3.3,1.4c-0.9,0.9-1.3,2.2-1.3,3.8c0,1.6,0.4,2.9,1.3,3.8c0.9,0.9,1.9,1.4,3.3,1.4S-231.2,106.6-230.3,105.7z"/>
				<path d="M-211,97.5v15.3h-7.6V97.5c0-1.6,1-3,2.4-3.5v-6.1h-0.4v-1.5h3.5v1.5h-0.4v6.1C-212,94.5-211,95.8-211,97.5z"/>
				<path d="M-191.1,111.9c-0.6,0.4-1.4,0.7-2.3,0.9c-0.9,0.2-1.9,0.3-2.9,0.3c-2.8,0-5-0.7-6.5-2.1c-1.5-1.4-2.3-3.5-2.3-6.2v-7.3
					h-3.2v-5.7h3.2v-5.6h7.6v5.6h5v5.7h-5v7.2c0,0.8,0.2,1.4,0.6,1.8c0.4,0.4,1,0.7,1.7,0.7c0.9,0,1.7-0.2,2.3-0.7L-191.1,111.9z"/>
				<path d="M-170.7,93.2c1.9,1.6,2.8,4.2,2.8,7.5v12h-7.1V110c-1.1,2.1-3.2,3.2-6.4,3.2c-1.7,0-3.1-0.3-4.4-0.9s-2.2-1.4-2.8-2.4
					s-0.9-2.1-0.9-3.4c0-2.1,0.8-3.6,2.4-4.8c1.6-1.1,4-1.7,7.3-1.7h4.3c-0.1-2.3-1.7-3.4-4.6-3.4c-1,0-2.1,0.2-3.2,0.5
					c-1.1,0.3-2,0.8-2.7,1.4l-2.6-5.2c1.2-0.8,2.7-1.4,4.4-1.9s3.4-0.7,5.2-0.7C-175.4,90.7-172.6,91.6-170.7,93.2z M-176.9,107.7
					c0.7-0.4,1.1-1.1,1.4-1.9v-1.9h-3.3c-2.2,0-3.3,0.7-3.3,2.2c0,0.7,0.3,1.2,0.8,1.6c0.5,0.4,1.2,0.6,2.1,0.6
					C-178.4,108.3-177.6,108.1-176.9,107.7z"/>
			</g>
			<g>
				<g>
					<path class="st1" d="M-276,94.8c-0.9-1.6-2.2-2.9-3.7-3.8c-1.5-0.9-3.3-1.3-5.2-1.3c-2.7,0-4.8,0.8-6.1,2.4l-0.6,0.7V90h-6.5
						v28.7h6.9v-10.2l0.6,0.6c1.4,1.5,3.4,2.2,5.8,2.2c1.9,0,3.7-0.5,5.2-1.3c1.5-0.9,2.8-2.2,3.7-3.8c0.9-1.6,1.4-3.6,1.4-5.7
						C-274.7,98.3-275.1,96.4-276,94.8z M-283,104.5c-0.9,1-2.1,1.5-3.5,1.5s-2.6-0.5-3.5-1.5c-0.9-1-1.4-2.3-1.4-4s0.5-3,1.4-4
						c0.9-1,2.1-1.5,3.5-1.5s2.6,0.5,3.5,1.5c0.9,1,1.4,2.3,1.4,4S-282.1,103.5-283,104.5z"/>
					<path d="M-283,96.5c-0.9-1-2.1-1.5-3.5-1.5s-2.6,0.5-3.5,1.5c-0.9,1-1.4,2.3-1.4,4s0.5,3,1.4,4c0.9,1,2.1,1.5,3.5,1.5
						s2.6-0.5,3.5-1.5c0.9-1,1.4-2.3,1.4-4S-282.1,97.4-283,96.5z M-286.6,105.3c-1.2,0-2.2-0.4-3-1.3c-0.8-0.8-1.2-2-1.2-3.5
						s0.4-2.7,1.2-3.5c0.8-0.9,1.8-1.3,3-1.3s2.2,0.4,3,1.3c0.8,0.9,1.2,2,1.2,3.5s-0.4,2.7-1.2,3.5
						C-284.3,104.9-285.3,105.3-286.6,105.3z"/>
					<path d="M-275.4,94.4c-1-1.7-2.3-3.1-4-4c-1.7-1-3.5-1.4-5.6-1.4c-2.6,0-4.6,0.7-6,2v-1.6h-7.9v30.1h8.3v-9.2
						c1.5,1.2,3.4,1.8,5.7,1.8c2,0,3.9-0.5,5.6-1.4c1.7-0.9,3-2.3,4-4c1-1.7,1.5-3.8,1.5-6.1C-274,98.2-274.5,96.2-275.4,94.4z
						 M-276,106.2c-0.9,1.6-2.2,2.9-3.7,3.8c-1.5,0.9-3.3,1.3-5.2,1.3c-2.4,0-4.4-0.7-5.8-2.2l-0.6-0.6v10.2h-6.9V90h6.5v2.8
						l0.6-0.7c1.3-1.6,3.4-2.4,6.1-2.4c1.9,0,3.7,0.5,5.2,1.3c1.5,0.9,2.8,2.2,3.7,3.8c0.9,1.6,1.4,3.6,1.4,5.7
						C-274.7,102.7-275.1,104.6-276,106.2z"/>
				</g>
				<g>
					<path class="st1" d="M-249.5,94.8c-1-1.6-2.4-2.9-4.2-3.8c-1.8-0.9-3.9-1.4-6.2-1.4c-2.3,0-4.3,0.5-6.1,1.4
						c-1.8,0.9-3.2,2.2-4.2,3.9c-1,1.6-1.5,3.5-1.5,5.6c0,2.1,0.5,4,1.5,5.6c1,1.6,2.4,2.9,4.2,3.9c1.8,0.9,3.9,1.4,6.1,1.4
						c2.3,0,4.3-0.5,6.2-1.4c1.8-0.9,3.2-2.2,4.2-3.9c1-1.6,1.5-3.5,1.5-5.6C-248,98.4-248.5,96.5-249.5,94.8z M-256.4,104.5
						c-0.9,1-2.1,1.5-3.5,1.5s-2.6-0.5-3.5-1.5c-0.9-1-1.4-2.3-1.4-4.1c0-1.7,0.5-3,1.4-4c0.9-1,2.1-1.5,3.5-1.5s2.6,0.5,3.5,1.5
						c0.9,1,1.4,2.3,1.4,4C-255,102.2-255.5,103.5-256.4,104.5z"/>
					<path d="M-256.4,96.4c-0.9-1-2.1-1.5-3.5-1.5s-2.6,0.5-3.5,1.5c-0.9,1-1.4,2.3-1.4,4c0,1.7,0.5,3.1,1.4,4.1
						c0.9,1,2.1,1.5,3.5,1.5s2.6-0.5,3.5-1.5c0.9-1,1.4-2.3,1.4-4.1C-255,98.8-255.5,97.4-256.4,96.4z M-259.9,105.3
						c-1.2,0-2.2-0.4-3-1.3c-0.8-0.8-1.2-2-1.2-3.6c0-1.5,0.4-2.7,1.2-3.5c0.8-0.8,1.8-1.2,3-1.2s2.2,0.4,3,1.2
						c0.8,0.8,1.2,2,1.2,3.5c0,1.5-0.4,2.7-1.2,3.6C-257.7,104.9-258.7,105.3-259.9,105.3z"/>
					<path d="M-248.9,94.5c-1.1-1.8-2.6-3.1-4.5-4.1c-1.9-1-4.1-1.5-6.5-1.5s-4.6,0.5-6.5,1.5c-1.9,1-3.4,2.4-4.5,4.1
						c-1.1,1.8-1.6,3.8-1.6,5.9c0,2.2,0.5,4.2,1.6,6c1.1,1.8,2.6,3.1,4.5,4.1c1.9,1,4.1,1.5,6.4,1.5c2.4,0,4.6-0.5,6.5-1.5
						c1.9-1,3.4-2.4,4.5-4.1c1.1-1.8,1.6-3.8,1.6-6C-247.3,98.2-247.9,96.2-248.9,94.5z M-249.5,106.1c-1,1.6-2.4,2.9-4.2,3.9
						c-1.8,0.9-3.9,1.4-6.2,1.4c-2.2,0-4.3-0.5-6.1-1.4c-1.8-0.9-3.2-2.2-4.2-3.9c-1-1.6-1.5-3.5-1.5-5.6c0-2.1,0.5-3.9,1.5-5.6
						c1-1.6,2.4-2.9,4.2-3.9c1.8-0.9,3.9-1.4,6.1-1.4c2.3,0,4.3,0.5,6.2,1.4c1.8,0.9,3.2,2.2,4.2,3.8c1,1.6,1.5,3.5,1.5,5.6
						C-248,102.5-248.5,104.4-249.5,106.1z"/>
				</g>
				<g>
					<path class="st1" d="M-221.6,94.8c-0.9-1.6-2.2-2.9-3.7-3.8c-1.5-0.9-3.3-1.3-5.2-1.3c-2.7,0-4.8,0.8-6.1,2.4l-0.6,0.7V90h-6.5
						v28.7h6.9v-10.2l0.6,0.6c1.4,1.5,3.4,2.2,5.8,2.2c1.9,0,3.7-0.5,5.2-1.3c1.5-0.9,2.8-2.2,3.7-3.8c0.9-1.6,1.4-3.6,1.4-5.7
						C-220.2,98.3-220.7,96.4-221.6,94.8z M-228.6,104.5c-0.9,1-2.1,1.5-3.5,1.5s-2.6-0.5-3.5-1.5c-0.9-1-1.4-2.3-1.4-4
						c0-1.7,0.5-3,1.4-4c0.9-1,2.1-1.5,3.5-1.5s2.6,0.5,3.5,1.5c0.9,1,1.4,2.3,1.4,4S-227.7,103.5-228.6,104.5z"/>
					<path d="M-221,94.4c-1-1.7-2.3-3.1-4-4h0c-1.7-1-3.5-1.4-5.6-1.4c-2.6,0-4.6,0.7-6,2v-1.6h-7.9v30.1h8.3v-9.2
						c1.5,1.2,3.4,1.8,5.7,1.8c2,0,3.9-0.5,5.6-1.4c1.7-0.9,3-2.3,4-4c1-1.7,1.5-3.8,1.5-6.1C-219.5,98.2-220,96.2-221,94.4z
						 M-230.5,111.3c-2.4,0-4.4-0.7-5.8-2.2l-0.6-0.6v10.2h-6.9V90h6.5v2.8l0.6-0.7c1.3-1.6,3.4-2.4,6.1-2.4c1.9,0,3.7,0.5,5.2,1.3
						c1.5,0.9,2.8,2.2,3.7,3.8c0.9,1.6,1.4,3.6,1.4,5.7c0,2.2-0.5,4.1-1.4,5.7c-0.9,1.6-2.2,2.9-3.7,3.8
						C-226.9,110.9-228.6,111.3-230.5,111.3z"/>
					<path d="M-228.6,96.5c-0.9-1-2.1-1.5-3.5-1.5s-2.6,0.5-3.5,1.5c-0.9,1-1.4,2.3-1.4,4c0,1.7,0.5,3,1.4,4c0.9,1,2.1,1.5,3.5,1.5
						s2.6-0.5,3.5-1.5c0.9-1,1.4-2.3,1.4-4S-227.7,97.4-228.6,96.5z M-232.1,105.3c-1.2,0-2.2-0.4-3-1.3c-0.8-0.8-1.2-2-1.2-3.5
						s0.4-2.7,1.2-3.5c0.8-0.9,1.8-1.3,3-1.3s2.2,0.4,3,1.3c0.8,0.9,1.2,2,1.2,3.5s-0.4,2.7-1.2,3.5
						C-229.9,104.9-230.9,105.3-232.1,105.3z"/>
				</g>
				<g>
					<path d="M-211.6,92.2v-5.6h0.4v-2.2h-4.2v2.2h0.3l0,5.6c-1.5,0.7-2.4,2.2-2.4,3.8v15.7h8.3V96
						C-209.2,94.4-210.2,92.9-211.6,92.2z M-209.9,111h-6.9V96c0-1.4,0.9-2.7,2.2-3.2l0.2-0.1V86h-0.4l0-0.8h2.8V86h-0.4v6.7
						l0.2,0.1c1.3,0.5,2.2,1.8,2.2,3.2V111z"/>
					<path class="st1" d="M-209.9,96v15h-6.9V96c0-1.4,0.9-2.7,2.2-3.2l0.2-0.1V86h-0.4l0-0.8h2.8V86h-0.4v6.7l0.2,0.1
						C-210.8,93.3-209.9,94.6-209.9,96z"/>
				</g>
				<g>
					<path class="st1" d="M-191.7,105.6c-0.6,0.3-1.4,0.5-2.1,0.5c-0.8,0-1.4-0.3-1.9-0.8c-0.5-0.5-0.7-1.2-0.7-2.1v-7.5h5v-5h-5
						v-5.6h-6.9v5.6h-3.2v5h3.2v7.6c0,2.6,0.7,4.6,2.2,5.9c1.5,1.3,3.6,2,6.3,2c1,0,2-0.1,2.9-0.3c0.8-0.2,1.4-0.4,2-0.7
						L-191.7,105.6z"/>
					<path d="M-191.4,104.6l-0.4,0.3c-0.6,0.4-1.3,0.6-2.1,0.6c-0.6,0-1.1-0.2-1.4-0.5c-0.3-0.4-0.5-0.9-0.5-1.6v-6.8h5v-6.4h-5
						v-5.6h-8.3v5.6h-3.2v6.4h3.2v6.9c0,2.8,0.8,5,2.4,6.5c1.6,1.4,3.9,2.2,6.8,2.2c1.1,0,2.1-0.1,3-0.3c1-0.2,1.8-0.5,2.4-1
						l0.2-0.2L-191.4,104.6z M-194.9,111.3c-2.7,0-4.8-0.7-6.3-2c-1.4-1.3-2.2-3.3-2.2-5.9v-7.6h-3.2v-5h3.2v-5.6h6.9v5.6h5v5h-5
						v7.5c0,0.9,0.2,1.6,0.7,2.1c0.5,0.5,1.1,0.8,1.9,0.8c0.8,0,1.5-0.2,2.1-0.5l1.6,4.6c-0.6,0.3-1.2,0.6-2,0.7
						C-193,111.2-193.9,111.3-194.9,111.3z"/>
				</g>
				<g>
					<path class="st1" d="M-169.5,92c-1.8-1.6-4.5-2.4-8-2.4c-1.7,0-3.4,0.2-5.1,0.7c-1.5,0.4-2.9,1-4,1.6l2.2,4.5
						c0.7-0.5,1.5-0.9,2.5-1.2c1.1-0.3,2.2-0.5,3.3-0.5c3.1,0,4.8,1.3,5,3.8l0,0.4h-4.7c-3.2,0-5.6,0.5-7.1,1.6
						c-1.5,1.1-2.2,2.6-2.2,4.5c0,1.2,0.3,2.3,0.9,3.2c0.6,0.9,1.5,1.7,2.6,2.2c1.2,0.6,2.6,0.8,4.2,0.8c3.1,0,5-1,6.1-3l0.7,0.2
						v2.5h6.4V99.3C-166.8,96-167.7,93.6-169.5,92z M-173.7,104.5c-0.3,0.9-0.8,1.6-1.6,2c-0.7,0.5-1.6,0.7-2.5,0.7
						c-1,0-1.7-0.2-2.3-0.7c-0.6-0.5-0.9-1.1-0.9-1.9c0-1.2,0.6-2.6,3.7-2.6h3.6L-173.7,104.5z"/>
					<path d="M-177.3,102.1c-3,0-3.7,1.4-3.7,2.6c0,0.8,0.3,1.4,0.9,1.9c0.6,0.4,1.3,0.7,2.3,0.7c0.9,0,1.8-0.2,2.5-0.7
						c0.7-0.5,1.3-1.2,1.6-2l0-2.4H-177.3z M-174.4,104.3c-0.3,0.7-0.7,1.3-1.3,1.6c-0.6,0.4-1.3,0.6-2.1,0.6
						c-0.8,0-1.4-0.2-1.9-0.5c-0.4-0.3-0.6-0.8-0.6-1.3c0-0.5,0-1.9,3-1.9h2.9V104.3z"/>
					<path d="M-169,91.5c-2-1.7-4.8-2.5-8.5-2.5c-1.8,0-3.5,0.2-5.3,0.7c-1.8,0.5-3.3,1.1-4.5,1.9l-0.2,0.2l2.9,5.8l0.3-0.3
						c0.7-0.6,1.6-1,2.6-1.3c1-0.3,2.1-0.5,3.1-0.5c2.6,0,4,0.9,4.2,2.7h-3.9c-3.3,0-5.9,0.6-7.5,1.8c-1.7,1.2-2.5,2.9-2.5,5.1
						c0,1.3,0.3,2.6,1,3.6c0.7,1,1.6,1.9,2.9,2.5c1.3,0.6,2.8,0.9,4.5,0.9c2.8,0,4.8-0.8,6-2.3v2h7.8V99.3
						C-166.1,95.8-167.1,93.2-169,91.5z M-166.8,111h-6.4v-2.5l-0.7-0.2c-1,2-3,3-6.1,3c-1.6,0-3-0.3-4.2-0.8
						c-1.2-0.5-2-1.3-2.6-2.2c-0.6-0.9-0.9-2-0.9-3.2c0-1.9,0.7-3.4,2.2-4.5c1.5-1.1,3.9-1.6,7.1-1.6h4.7l0-0.4
						c-0.2-2.5-1.8-3.8-5-3.8c-1.1,0-2.2,0.2-3.3,0.5c-0.9,0.3-1.8,0.7-2.5,1.2l-2.2-4.5c1.1-0.7,2.5-1.2,4-1.6
						c1.7-0.4,3.4-0.7,5.1-0.7c3.5,0,6.2,0.8,8,2.4c1.8,1.6,2.7,4,2.7,7.3V111z"/>
				</g>
			</g>
			<path d="M-280.9,111.6"/>
			<polygon points="-300.1,91.1 -298.9,89.3 -298.9,91.1 			"/>
			<polygon points="-292.5,120.5 -290.6,119.4 -292.5,119.4 			"/>
			<polygon points="-245.6,91.1 -244.5,89.3 -244.5,91.1 			"/>
			<polygon points="-238,120.5 -236.2,119.4 -238,119.4 			"/>
			<polygon points="-216.6,86.3 -215.4,84.5 -215.4,86.3 			"/>
			<polygon points="-211,112.8 -209.2,111.7 -211,111.7 			"/>
			<polygon points="-205.2,86.3 -204.1,84.5 -204.1,86.3 			"/>
			<polygon points="-208.4,91.9 -207.2,90.1 -207.2,91.9 			"/>
			<polygon points="-191.1,111.9 -189.2,110.6 -191.5,111.3 			"/>
			<polygon points="-192.7,97.6 -190.8,96.5 -192.7,96.5 			"/>
			<polygon points="-188.5,93.3 -187.5,91.7 -187.1,92.5 			"/>
			<polygon points="-167.9,111.7 -166.1,111.7 -167.9,112.8 			"/>
		</g>
	</g>
	<g id="zrLbVH_1_">
		
			<image style="overflow:visible;" width="1500" height="1500" id="zrLbVH_2_" xlink:href="C4DD5ADD255F7EF3.jpg"  transform="matrix(0.2133 0 0 0.2133 53.3341 -337.6696)">
		</image>
	</g>
	<g id="I0iBQO_1_">
		
			<image style="overflow:visible;" width="231" height="218" id="I0iBQO_2_" xlink:href="C4DD5ADD255F7EF1.jpg"  transform="matrix(1 0 0 1 517.4096 89.6346)">
		</image>
	</g>
	<g id="tDO2aT.tif">
		
			<image style="overflow:visible;" width="350" height="368" id="Layer_0" xlink:href="C4DD5ADD255F7EF7.png"  transform="matrix(1 0 0 1 -381.5465 -361.7174)">
		</image>
	</g>
	<g id="ovGm2L.tif">
		
			<image style="overflow:visible;" width="390" height="415" id="Layer_0_1_" xlink:href="C4DD5ADD255F7EF2.png"  transform="matrix(0.7389 0 0 0.7389 -342.3297 210.6667)">
		</image>
	</g>
</g>
<g id="Warstwa_2">
	<circle class="st2" cx="73.3" cy="-115.7" r="12.7"/>
	<circle class="st2" cx="214.4" cy="-228.7" r="18.8"/>
	<circle class="st2" cx="355.5" cy="-115.7" r="12.7"/>
	<line class="st2" x1="73.3" y1="-103" x2="355.5" y2="-103"/>
	<line class="st2" x1="73.3" y1="-128.4" x2="214.4" y2="-172.5"/>
	<line class="st2" x1="354.3" y1="-128.4" x2="213.2" y2="-172.5"/>
	<line class="st2" x1="214.4" y1="-172.5" x2="214.4" y2="-209.9"/>
	<g id="ZNslsQ.tif">
		
			<image style="overflow:visible;" width="325" height="406" id="Layer_0_2_" xlink:href="C4DD5ADD255F7EFD.png"  transform="matrix(0.8688 0 0 0.8688 393.0767 -336.86)">
		</image>
	</g>
	<rect x="-2084.5" y="-539.8" class="st3" width="1298.8" height="1223.8"/>
	<polygon class="st4" points="-1536.3,33.4 -1291,47.8 -1291,122.3 -1356.2,189 -1390.3,167.2 -1455.6,167.2 -1537.7,106.9 	"/>
	<g>
		<path class="st5" d="M-1268.9-42.1L-1268.9-42.1l-142.4-43.7v-23.3c10.5-1,18.8-9.9,18.8-20.7c0-11.5-9.3-20.8-20.8-20.8
			c-11.5,0-20.8,9.4-20.8,20.8h4c0-9.3,7.6-16.8,16.8-16.8c9.3,0,16.8,7.6,16.8,16.8c0,9.3-7.5,16.8-16.8,16.8c-0.7,0-1.3,0-2-0.1
			v27.1l-142.7,44c-6.4,1.6-11.1,7.4-11.1,14.2c0,8.1,6.6,14.7,14.7,14.7h282.2c8.1,0,14.7-6.6,14.7-14.7
			C-1257.5-34.8-1262.4-40.6-1268.9-42.1z M-1269.5-40.2L-1269.5-40.2l-0.1,0C-1269.6-40.2-1269.5-40.2-1269.5-40.2z M-1272.2-17.1
			h-282.2c-5.9,0-10.7-4.8-10.7-10.7c0-5.1,3.6-9.3,8.3-10.4l143-44.1l143.7,44.1h0c4.9,1,8.6,5.3,8.6,10.5
			C-1261.5-21.9-1266.3-17.1-1272.2-17.1z"/>
	</g>
	<g>
		<path class="st1" d="M-1269.5-41.2L-1269.5-41.2l-0.1,0C-1269.6-41.2-1269.5-41.2-1269.5-41.2z"/>
		<path d="M-1269.6-41.2l0.1,0v0C-1269.5-41.2-1269.6-41.2-1269.6-41.2z"/>
	</g>
	<g>
		<path d="M-1269.5-41.2L-1269.5-41.2l-0.1,0C-1269.6-41.2-1269.5-41.2-1269.5-41.2z"/>
	</g>
	<path class="st6" d="M-1537.7-14.6v123.3l82.1,59h65.3l34,21.3l65.2-65.2V-14.6c0-4.7-3.8-8.5-8.5-8.5h-229.6
		C-1533.9-23.1-1537.7-19.3-1537.7-14.6z"/>
	<polygon class="st7" points="-1291,47.8 -1536.3,33 -1536.3,-20.6 -1530.2,-24.2 -1297.4,-23.1 -1290.1,-17.1 	"/>
	<rect x="-2084.5" y="886.1" class="st3" width="1298.8" height="1223.8"/>
	<rect x="-3601.7" y="-539.8" class="st7" width="1298.8" height="1223.8"/>
	<polygon class="st4" points="-3053.4,33.4 -2808.1,47.8 -2808.1,122.3 -2873.4,189 -2907.4,167.2 -2972.7,167.2 -3054.8,106.9 	"/>
	<g>
		<path class="st8" d="M-2786-42.1l-0.1,0l-142.3-43.6v-23.3c10.5-1,18.8-9.9,18.8-20.7c0-11.5-9.3-20.8-20.8-20.8
			c-11.5,0-20.8,9.4-20.8,20.8h4c0-9.3,7.6-16.8,16.8-16.8c9.3,0,16.8,7.6,16.8,16.8c0,9.3-7.6,16.8-16.8,16.8c-0.7,0-1.3,0-2-0.1
			v27.1L-3075-42c-6.4,1.6-11.1,7.4-11.1,14.2c0,8.1,6.6,14.7,14.7,14.7h282.2c8.1,0,14.7-6.6,14.7-14.7
			C-2774.6-34.8-2779.5-40.6-2786-42.1z M-2786.6-40.2L-2786.6-40.2l-0.1,0C-2786.7-40.2-2786.6-40.2-2786.6-40.2z M-2789.3-17.1
			h-282.2c-5.9,0-10.7-4.8-10.7-10.7c0-5.1,3.6-9.3,8.3-10.4l143-44.1l143.7,44.1h0c4.9,1,8.6,5.3,8.6,10.5
			C-2778.6-21.9-2783.4-17.1-2789.3-17.1z"/>
	</g>
	<g>
		<path class="st1" d="M-2786.6-41.2L-2786.6-41.2l-0.1,0C-2786.7-41.2-2786.6-41.2-2786.6-41.2z"/>
		<path d="M-2786.7-41.2l0.1,0v0C-2786.6-41.2-2786.7-41.2-2786.7-41.2z"/>
	</g>
	<g>
		<path d="M-2786.6-41.2L-2786.6-41.2l-0.1,0C-2786.7-41.2-2786.6-41.2-2786.6-41.2z"/>
	</g>
	<polygon class="st1" points="-2808.1,47.8 -3053.4,33 -3053.4,-20.6 -3047.3,-24.2 -2814.6,-23.1 -2807.2,-17.1 	"/>
	<path class="st9" d="M-3054.8-14.6v123.3l82.1,59h65.3l34,21.3l65.2-65.2V-14.6c0-4.7-3.8-8.5-8.5-8.5h-229.6
		C-3051-23.1-3054.8-19.3-3054.8-14.6z"/>
</g>
<g id="Warstwa_3">
	<g>
		<path class="st1" d="M-1268.8,1383.5l-142.1-43.6v-22.7c10.8-1.2,18.8-10.2,18.8-21.1c0-11.7-9.5-21.2-21.2-21.2
			c-11.7,0-21.2,9.5-21.2,21.2v0.4h4.8v-0.4c0-9.1,7.4-16.5,16.4-16.5c9.1,0,16.4,7.4,16.4,16.5c0,9.1-7.4,16.5-16.4,16.5
			c-0.7,0-1.3,0-1.9-0.1l-0.4-0.1v27.2l-142.4,43.9c-6.7,1.7-11.4,7.7-11.4,14.6c0,8.3,6.8,15.1,15,15.1h15.2v122.2l82.8,59.5
			l0.4,0.3h65.3l34.7,21.7l66.5-66.5v-137.1h17.3c8.3,0,15.1-6.8,15.1-15.1C-1257.1,1391.2-1262,1385-1268.8,1383.5z
			 M-1269.5,1384.8L-1269.5,1384.8l-0.1,0C-1269.6,1384.7-1269.5,1384.8-1269.5,1384.8z M-1269.6,1385.8l0.1-0.4l0.4,0.1v0.8
			l-0.6-0.2L-1269.6,1385.8z M-1538.8,1408.4h-15.6c-5.7,0-10.3-4.6-10.3-10.3c0-4.8,3.4-9,8.1-10.1l142.9-44.1l143.6,44
			c4.8,1,8.3,5.2,8.3,10.1c0,5.7-4.6,10.3-10.3,10.3h-17.8c-1.3-4.1-5.1-7.1-9.6-7.1h-229.6
			C-1533.7,1401.3-1537.5,1404.3-1538.8,1408.4z M-1292.5,1549.1l-63.9,64l-33.4-20.9h-65.2l-81.1-58.3v-75l243.7,14.7V1549.1z"/>
		<polygon class="st4" points="-1292.5,1473.6 -1292.5,1549.1 -1356.4,1613 -1389.8,1592.2 -1455.1,1592.2 -1536.2,1533.9 
			-1536.2,1459.3 		"/>
	</g>
	<g>
		<g>
			<path class="st10" d="M-1269.5,1385.4l-0.1,0.4l-0.1,0.3l0.6,0.2v-0.8L-1269.5,1385.4z M-1269.5,1385.8l-0.1,0
				C-1269.6,1385.7-1269.5,1385.8-1269.5,1385.8L-1269.5,1385.8z M-1269.6,1384.7l0.1,0v0
				C-1269.5,1384.8-1269.6,1384.7-1269.6,1384.7z"/>
			<path class="st10" d="M-1269.5,1385.4l-0.1,0.4l-0.1,0.3l0.6,0.2v-0.8L-1269.5,1385.4z M-1269.5,1385.4l-0.1,0.4l-0.1,0.3
				l0.6,0.2v-0.8L-1269.5,1385.4z M-1269.5,1385.4l-0.1,0.4l-0.1,0.3l0.6,0.2v-0.8L-1269.5,1385.4z"/>
		</g>
	</g>
	<g>
		<g>
			<path class="st1" d="M-1269.5,1384.8L-1269.5,1384.8l-0.1,0C-1269.6,1384.7-1269.5,1384.8-1269.5,1384.8z"/>
		</g>
		<g>
			<path d="M-1269.6,1384.7l0.1,0v0C-1269.5,1384.8-1269.6,1384.7-1269.6,1384.7z"/>
		</g>
	</g>
	<g>
		<g>
			<path d="M-1269.5,1384.8L-1269.5,1384.8l-0.1,0C-1269.6,1384.7-1269.5,1384.8-1269.5,1384.8z"/>
		</g>
	</g>
</g>
</svg>
