<?xml version="1.0" encoding="utf-8"?>
<!-- Generator: Adobe Illustrator 24.0.1, SVG Export Plug-In . SVG Version: 6.00 Build 0)  -->
<svg version="1.1" id="Warstwa_1" xmlns="http://www.w3.org/2000/svg" xmlns:xlink="http://www.w3.org/1999/xlink" x="0px" y="0px"
	 viewBox="0 0 156 73.3" style="enable-background:new 0 0 156 73.3;" xml:space="preserve">
<style type="text/css">
	.st0{fill:#FBBC1B;}
	.st1{fill:#FFFFFF;}
</style>
<g>
	<circle class="st0" cx="76.1" cy="38.6" r="23.5"/>
	<g>
		<g>
			<path d="M29.6,26.8c1.6,0.9,2.9,2.2,3.8,3.9c0.9,1.7,1.4,3.7,1.4,5.9c0,2.2-0.5,4.2-1.4,5.9c-0.9,1.7-2.2,3-3.8,3.9
				c-1.6,0.9-3.4,1.4-5.4,1.4c-2.5,0-4.5-0.8-6-2.3v9.7h-7.6V25.8h7.2v2.2c1.4-1.7,3.5-2.5,6.4-2.5C26.2,25.4,28,25.9,29.6,26.8z
				 M25.9,40.4c0.9-0.9,1.3-2.2,1.3-3.8c0-1.6-0.4-2.9-1.3-3.8s-1.9-1.4-3.3-1.4c-1.3,0-2.4,0.5-3.3,1.4c-0.9,0.9-1.3,2.2-1.3,3.8
				c0,1.6,0.4,2.9,1.3,3.8c0.9,0.9,1.9,1.4,3.3,1.4C24,41.8,25,41.3,25.9,40.4z"/>
			<path d="M43,46.4c-1.9-1-3.3-2.3-4.4-4c-1.1-1.7-1.6-3.6-1.6-5.8c0-2.1,0.5-4.1,1.6-5.8c1.1-1.7,2.5-3,4.4-4
				c1.9-0.9,4-1.4,6.3-1.4c2.3,0,4.5,0.5,6.3,1.4c1.9,0.9,3.3,2.3,4.4,4c1,1.7,1.6,3.6,1.6,5.8c0,2.2-0.5,4.1-1.6,5.8
				c-1,1.7-2.5,3-4.4,4c-1.9,1-4,1.4-6.3,1.4C46.9,47.8,44.8,47.3,43,46.4z M52.5,40.4c0.9-0.9,1.3-2.2,1.3-3.8
				c0-1.6-0.4-2.9-1.3-3.8c-0.9-0.9-1.9-1.4-3.3-1.4s-2.4,0.5-3.3,1.4c-0.9,0.9-1.3,2.2-1.3,3.8c0,1.6,0.4,2.9,1.3,3.8
				c0.9,0.9,1.9,1.4,3.3,1.4S51.7,41.3,52.5,40.4z"/>
			<path d="M84,26.8c1.6,0.9,2.9,2.2,3.8,3.9c0.9,1.7,1.4,3.7,1.4,5.9c0,2.2-0.5,4.2-1.4,5.9c-0.9,1.7-2.2,3-3.8,3.9
				c-1.6,0.9-3.4,1.4-5.4,1.4c-2.5,0-4.5-0.8-6-2.3v9.7H65V25.8h7.2v2.2c1.4-1.7,3.5-2.5,6.4-2.5C80.6,25.4,82.4,25.9,84,26.8z
				 M80.3,40.4c0.9-0.9,1.3-2.2,1.3-3.8c0-1.6-0.4-2.9-1.3-3.8s-1.9-1.4-3.3-1.4s-2.4,0.5-3.3,1.4c-0.9,0.9-1.3,2.2-1.3,3.8
				c0,1.6,0.4,2.9,1.3,3.8c0.9,0.9,1.9,1.4,3.3,1.4S79.5,41.3,80.3,40.4z"/>
			<path d="M99.6,32.1v15.3H92V32.1c0-1.6,1-3,2.4-3.5v-6.1h-0.4v-1.5h3.5v1.5h-0.4v6.1C98.6,29.1,99.6,30.5,99.6,32.1z"/>
			<path d="M119.5,46.6c-0.6,0.4-1.4,0.7-2.3,0.9c-0.9,0.2-1.9,0.3-2.9,0.3c-2.8,0-5-0.7-6.5-2.1c-1.5-1.4-2.3-3.5-2.3-6.2v-7.3
				h-3.2v-5.7h3.2v-5.6h7.6v5.6h5v5.7h-5v7.2c0,0.8,0.2,1.4,0.6,1.8c0.4,0.4,1,0.7,1.7,0.7c0.9,0,1.7-0.2,2.3-0.7L119.5,46.6z"/>
			<path d="M139.9,27.9c1.9,1.6,2.8,4.2,2.8,7.5v12h-7.1v-2.8c-1.1,2.1-3.2,3.2-6.4,3.2c-1.7,0-3.1-0.3-4.4-0.9s-2.2-1.4-2.8-2.4
				s-0.9-2.1-0.9-3.4c0-2.1,0.8-3.6,2.4-4.8c1.6-1.1,4-1.7,7.3-1.7h4.3c-0.1-2.3-1.7-3.4-4.6-3.4c-1,0-2.1,0.2-3.2,0.5
				c-1.1,0.3-2,0.8-2.7,1.4l-2.6-5.2c1.2-0.8,2.7-1.4,4.4-1.9c1.7-0.4,3.4-0.7,5.2-0.7C135.3,25.4,138,26.2,139.9,27.9z M133.7,42.4
				c0.7-0.4,1.1-1.1,1.4-1.9v-1.9h-3.3c-2.2,0-3.3,0.7-3.3,2.2c0,0.7,0.3,1.2,0.8,1.6c0.5,0.4,1.2,0.6,2.1,0.6
				C132.3,43,133.1,42.8,133.7,42.4z"/>
		</g>
		<g>
			<g>
				<path class="st1" d="M34.6,29.4c-0.9-1.6-2.2-2.9-3.7-3.8c-1.5-0.9-3.3-1.3-5.2-1.3c-2.7,0-4.8,0.8-6.1,2.4L19,27.4v-2.8h-6.5
					v28.7h6.9V43.2l0.6,0.6c1.4,1.5,3.4,2.2,5.8,2.2c1.9,0,3.7-0.5,5.2-1.3c1.5-0.9,2.8-2.2,3.7-3.8c0.9-1.6,1.4-3.6,1.4-5.7
					C36,33,35.5,31.1,34.6,29.4z M27.7,39.2c-0.9,1-2.1,1.5-3.5,1.5s-2.6-0.5-3.5-1.5c-0.9-1-1.4-2.3-1.4-4s0.5-3,1.4-4
					c0.9-1,2.1-1.5,3.5-1.5s2.6,0.5,3.5,1.5c0.9,1,1.4,2.3,1.4,4S28.6,38.2,27.7,39.2z"/>
				<path d="M27.7,31.1c-0.9-1-2.1-1.5-3.5-1.5s-2.6,0.5-3.5,1.5c-0.9,1-1.4,2.3-1.4,4s0.5,3,1.4,4c0.9,1,2.1,1.5,3.5,1.5
					s2.6-0.5,3.5-1.5c0.9-1,1.4-2.3,1.4-4S28.6,32.1,27.7,31.1z M24.1,40c-1.2,0-2.2-0.4-3-1.3c-0.8-0.8-1.2-2-1.2-3.5
					s0.4-2.7,1.2-3.5c0.8-0.9,1.8-1.3,3-1.3s2.2,0.4,3,1.3c0.8,0.9,1.2,2,1.2,3.5s-0.4,2.7-1.2,3.5C26.3,39.6,25.4,40,24.1,40z"/>
				<path d="M35.2,29.1c-1-1.7-2.3-3.1-4-4c-1.7-1-3.5-1.4-5.6-1.4c-2.6,0-4.6,0.7-6,2V24h-7.9v30.1H20v-9.2
					c1.5,1.2,3.4,1.8,5.7,1.8c2,0,3.9-0.5,5.6-1.4c1.7-0.9,3-2.3,4-4c1-1.7,1.5-3.8,1.5-6.1C36.7,32.9,36.2,30.8,35.2,29.1z
					 M34.6,40.9c-0.9,1.6-2.2,2.9-3.7,3.8c-1.5,0.9-3.3,1.3-5.2,1.3c-2.4,0-4.4-0.7-5.8-2.2l-0.6-0.6v10.2h-6.9V24.7H19v2.8l0.6-0.7
					c1.3-1.6,3.4-2.4,6.1-2.4c1.9,0,3.7,0.5,5.2,1.3c1.5,0.9,2.8,2.2,3.7,3.8c0.9,1.6,1.4,3.6,1.4,5.7C36,37.3,35.5,39.3,34.6,40.9z
					"/>
			</g>
			<g>
				<path class="st1" d="M61.1,29.5c-1-1.6-2.4-2.9-4.2-3.8c-1.8-0.9-3.9-1.4-6.2-1.4c-2.3,0-4.3,0.5-6.1,1.4
					c-1.8,0.9-3.2,2.2-4.2,3.9c-1,1.6-1.5,3.5-1.5,5.6c0,2.1,0.5,4,1.5,5.6c1,1.6,2.4,2.9,4.2,3.9c1.8,0.9,3.9,1.4,6.1,1.4
					c2.3,0,4.3-0.5,6.2-1.4c1.8-0.9,3.2-2.2,4.2-3.9c1-1.6,1.5-3.5,1.5-5.6C62.6,33,62.1,31.1,61.1,29.5z M54.3,39.2
					c-0.9,1-2.1,1.5-3.5,1.5s-2.6-0.5-3.5-1.5c-0.9-1-1.4-2.3-1.4-4.1c0-1.7,0.5-3,1.4-4c0.9-1,2.1-1.5,3.5-1.5s2.6,0.5,3.5,1.5
					c0.9,1,1.4,2.3,1.4,4C55.7,36.8,55.2,38.2,54.3,39.2z"/>
				<path d="M54.3,31.1c-0.9-1-2.1-1.5-3.5-1.5s-2.6,0.5-3.5,1.5c-0.9,1-1.4,2.3-1.4,4c0,1.7,0.5,3.1,1.4,4.1c0.9,1,2.1,1.5,3.5,1.5
					s2.6-0.5,3.5-1.5c0.9-1,1.4-2.3,1.4-4.1C55.7,33.4,55.2,32.1,54.3,31.1z M50.8,40c-1.2,0-2.2-0.4-3-1.3c-0.8-0.8-1.2-2-1.2-3.6
					c0-1.5,0.4-2.7,1.2-3.5c0.8-0.8,1.8-1.2,3-1.2s2.2,0.4,3,1.2c0.8,0.8,1.2,2,1.2,3.5c0,1.5-0.4,2.7-1.2,3.6
					C53,39.6,52,40,50.8,40z"/>
				<path d="M61.7,29.2c-1.1-1.8-2.6-3.1-4.5-4.1c-1.9-1-4.1-1.5-6.5-1.5s-4.6,0.5-6.5,1.5c-1.9,1-3.4,2.4-4.5,4.1
					c-1.1,1.8-1.6,3.8-1.6,5.9c0,2.2,0.5,4.2,1.6,6c1.1,1.8,2.6,3.1,4.5,4.1c1.9,1,4.1,1.5,6.4,1.5c2.4,0,4.6-0.5,6.5-1.5
					c1.9-1,3.4-2.4,4.5-4.1c1.1-1.8,1.6-3.8,1.6-6C63.3,32.9,62.8,30.9,61.7,29.2z M61.1,40.7c-1,1.6-2.4,2.9-4.2,3.9
					C55.1,45.5,53,46,50.8,46c-2.2,0-4.3-0.5-6.1-1.4c-1.8-0.9-3.2-2.2-4.2-3.9c-1-1.6-1.5-3.5-1.5-5.6c0-2.1,0.5-3.9,1.5-5.6
					c1-1.6,2.4-2.9,4.2-3.9c1.8-0.9,3.9-1.4,6.1-1.4c2.3,0,4.3,0.5,6.2,1.4c1.8,0.9,3.2,2.2,4.2,3.8c1,1.6,1.5,3.5,1.5,5.6
					C62.6,37.2,62.1,39.1,61.1,40.7z"/>
			</g>
			<g>
				<path class="st1" d="M89.1,29.4c-0.9-1.6-2.2-2.9-3.7-3.8c-1.5-0.9-3.3-1.3-5.2-1.3c-2.7,0-4.8,0.8-6.1,2.4l-0.6,0.7v-2.8h-6.5
					v28.7h6.9V43.2l0.6,0.6c1.4,1.5,3.4,2.2,5.8,2.2c1.9,0,3.7-0.5,5.2-1.3c1.5-0.9,2.8-2.2,3.7-3.8c0.9-1.6,1.4-3.6,1.4-5.7
					C90.4,33,90,31.1,89.1,29.4z M82.1,39.2c-0.9,1-2.1,1.5-3.5,1.5s-2.6-0.5-3.5-1.5c-0.9-1-1.4-2.3-1.4-4c0-1.7,0.5-3,1.4-4
					c0.9-1,2.1-1.5,3.5-1.5s2.6,0.5,3.5,1.5c0.9,1,1.4,2.3,1.4,4S83,38.2,82.1,39.2z"/>
				<path d="M89.7,29.1c-1-1.7-2.3-3.1-4-4h0c-1.7-1-3.5-1.4-5.6-1.4c-2.6,0-4.6,0.7-6,2V24h-7.9v30.1h8.3v-9.2
					c1.5,1.2,3.4,1.8,5.7,1.8c2,0,3.9-0.5,5.6-1.4c1.7-0.9,3-2.3,4-4c1-1.7,1.5-3.8,1.5-6.1C91.1,32.9,90.7,30.8,89.7,29.1z
					 M80.2,46c-2.4,0-4.4-0.7-5.8-2.2l-0.6-0.6v10.2h-6.9V24.7h6.5v2.8l0.6-0.7c1.3-1.6,3.4-2.4,6.1-2.4c1.9,0,3.7,0.5,5.2,1.3
					c1.5,0.9,2.8,2.2,3.7,3.8c0.9,1.6,1.4,3.6,1.4,5.7c0,2.2-0.5,4.1-1.4,5.7c-0.9,1.6-2.2,2.9-3.7,3.8C83.8,45.6,82.1,46,80.2,46z"
					/>
				<path d="M82.1,31.1c-0.9-1-2.1-1.5-3.5-1.5s-2.6,0.5-3.5,1.5c-0.9,1-1.4,2.3-1.4,4c0,1.7,0.5,3,1.4,4c0.9,1,2.1,1.5,3.5,1.5
					s2.6-0.5,3.5-1.5c0.9-1,1.4-2.3,1.4-4S83,32.1,82.1,31.1z M78.6,40c-1.2,0-2.2-0.4-3-1.3c-0.8-0.8-1.2-2-1.2-3.5
					s0.4-2.7,1.2-3.5c0.8-0.9,1.8-1.3,3-1.3s2.2,0.4,3,1.3c0.8,0.9,1.2,2,1.2,3.5s-0.4,2.7-1.2,3.5C80.8,39.6,79.8,40,78.6,40z"/>
			</g>
			<g>
				<path d="M99,26.9v-5.6h0.4v-2.2h-4.2v2.2h0.3l0,5.6c-1.5,0.7-2.4,2.2-2.4,3.8v15.7h8.3V30.7C101.5,29,100.5,27.6,99,26.9z
					 M100.8,45.6h-6.9v-15c0-1.4,0.9-2.7,2.2-3.2l0.2-0.1v-6.7H96l0-0.8h2.8v0.8h-0.4v6.7l0.2,0.1c1.3,0.5,2.2,1.8,2.2,3.2V45.6z"/>
				<path class="st1" d="M100.8,30.7v15h-6.9v-15c0-1.4,0.9-2.7,2.2-3.2l0.2-0.1v-6.7H96l0-0.8h2.8v0.8h-0.4v6.7l0.2,0.1
					C99.9,28,100.8,29.2,100.8,30.7z"/>
			</g>
			<g>
				<path class="st1" d="M118.9,40.3c-0.6,0.3-1.4,0.5-2.1,0.5c-0.8,0-1.4-0.3-1.9-0.8c-0.5-0.5-0.7-1.2-0.7-2.1v-7.5h5v-5h-5v-5.6
					h-6.9v5.6h-3.2v5h3.2v7.6c0,2.6,0.7,4.6,2.2,5.9c1.5,1.3,3.6,2,6.3,2c1,0,2-0.1,2.9-0.3c0.8-0.2,1.4-0.4,2-0.7L118.9,40.3z"/>
				<path d="M119.3,39.2l-0.4,0.3c-0.6,0.4-1.3,0.6-2.1,0.6c-0.6,0-1.1-0.2-1.4-0.5c-0.3-0.4-0.5-0.9-0.5-1.6v-6.8h5v-6.4h-5v-5.6
					h-8.3v5.6h-3.2v6.4h3.2v6.9c0,2.8,0.8,5,2.4,6.5c1.6,1.4,3.9,2.2,6.8,2.2c1.1,0,2.1-0.1,3-0.3c1-0.2,1.8-0.5,2.4-1l0.2-0.2
					L119.3,39.2z M115.7,46c-2.7,0-4.8-0.7-6.3-2c-1.4-1.3-2.2-3.3-2.2-5.9v-7.6h-3.2v-5h3.2v-5.6h6.9v5.6h5v5h-5V38
					c0,0.9,0.2,1.6,0.7,2.1c0.5,0.5,1.1,0.8,1.9,0.8c0.8,0,1.5-0.2,2.1-0.5l1.6,4.6c-0.6,0.3-1.2,0.6-2,0.7
					C117.7,45.9,116.7,46,115.7,46z"/>
			</g>
			<g>
				<path class="st1" d="M141.2,26.7c-1.8-1.6-4.5-2.4-8-2.4c-1.7,0-3.4,0.2-5.1,0.7c-1.5,0.4-2.9,1-4,1.6l2.2,4.5
					c0.7-0.5,1.5-0.9,2.5-1.2c1.1-0.3,2.2-0.5,3.3-0.5c3.1,0,4.8,1.3,5,3.8l0,0.4h-4.7c-3.2,0-5.6,0.5-7.1,1.6
					c-1.5,1.1-2.2,2.6-2.2,4.5c0,1.2,0.3,2.3,0.9,3.2c0.6,0.9,1.5,1.7,2.6,2.2c1.2,0.6,2.6,0.8,4.2,0.8c3.1,0,5-1,6.1-3l0.7,0.2v2.5
					h6.4V34C143.9,30.7,143,28.2,141.2,26.7z M137,39.2c-0.3,0.9-0.8,1.6-1.6,2c-0.7,0.5-1.6,0.7-2.5,0.7c-1,0-1.7-0.2-2.3-0.7
					c-0.6-0.5-0.9-1.1-0.9-1.9c0-1.2,0.6-2.6,3.7-2.6h3.6L137,39.2z"/>
				<path d="M133.4,36.8c-3,0-3.7,1.4-3.7,2.6c0,0.8,0.3,1.4,0.9,1.9c0.6,0.4,1.3,0.7,2.3,0.7c0.9,0,1.8-0.2,2.5-0.7
					c0.7-0.5,1.3-1.2,1.6-2l0-2.4H133.4z M136.3,39c-0.3,0.7-0.7,1.3-1.3,1.6c-0.6,0.4-1.3,0.6-2.1,0.6c-0.8,0-1.4-0.2-1.9-0.5
					c-0.4-0.3-0.6-0.8-0.6-1.3c0-0.5,0-1.9,3-1.9h2.9V39z"/>
				<path d="M141.6,26.2c-2-1.7-4.8-2.5-8.5-2.5c-1.8,0-3.5,0.2-5.3,0.7c-1.8,0.5-3.3,1.1-4.5,1.9l-0.2,0.2l2.9,5.8l0.3-0.3
					c0.7-0.6,1.6-1,2.6-1.3c1-0.3,2.1-0.5,3.1-0.5c2.6,0,4,0.9,4.2,2.7h-3.9c-3.3,0-5.9,0.6-7.5,1.8c-1.7,1.2-2.5,2.9-2.5,5.1
					c0,1.3,0.3,2.6,1,3.6c0.7,1,1.6,1.9,2.9,2.5c1.3,0.6,2.8,0.9,4.5,0.9c2.8,0,4.8-0.8,6-2.3v2h7.8V34
					C144.6,30.5,143.6,27.9,141.6,26.2z M143.9,45.6h-6.4v-2.5l-0.7-0.2c-1,2-3,3-6.1,3c-1.6,0-3-0.3-4.2-0.8
					c-1.2-0.5-2-1.3-2.6-2.2c-0.6-0.9-0.9-2-0.9-3.2c0-1.9,0.7-3.4,2.2-4.5c1.5-1.1,3.9-1.6,7.1-1.6h4.7l0-0.4
					c-0.2-2.5-1.8-3.8-5-3.8c-1.1,0-2.2,0.2-3.3,0.5c-0.9,0.3-1.8,0.7-2.5,1.2l-2.2-4.5c1.1-0.7,2.5-1.2,4-1.6
					c1.7-0.4,3.4-0.7,5.1-0.7c3.5,0,6.2,0.8,8,2.4c1.8,1.6,2.7,4,2.7,7.3V45.6z"/>
			</g>
		</g>
		<path d="M29.8,46.3"/>
		<polygon points="10.6,25.8 11.7,24 11.7,25.8 		"/>
		<polygon points="18.2,55.2 20,54.1 18.2,54.1 		"/>
		<polygon points="65,25.8 66.2,24 66.2,25.8 		"/>
		<polygon points="72.6,55.2 74.5,54.1 72.6,54.1 		"/>
		<polygon points="94.1,20.9 95.2,19.1 95.2,20.9 		"/>
		<polygon points="99.6,47.4 101.5,46.3 99.6,46.3 		"/>
		<polygon points="105.4,20.9 106.6,19.1 106.6,20.9 		"/>
		<polygon points="102.3,26.6 103.4,24.8 103.4,26.6 		"/>
		<polygon points="119.5,46.6 121.4,45.3 119.2,46 		"/>
		<polygon points="118,32.3 119.8,31.1 118,31.1 		"/>
		<polygon points="122.1,27.9 123.2,26.4 123.6,27.1 		"/>
		<polygon points="142.8,46.3 144.6,46.3 142.8,47.5 		"/>
	</g>
</g>
</svg>
