<?xml version="1.0" encoding="utf-8"?>
<!-- Generator: Adobe Illustrator 25.0.0, SVG Export Plug-In . SVG Version: 6.00 Build 0)  -->
<svg version="1.1" id="Warstwa_1" xmlns="http://www.w3.org/2000/svg" xmlns:xlink="http://www.w3.org/1999/xlink" x="0px" y="0px"
	 viewBox="0 0 26.6 26.6" style="enable-background:new 0 0 26.6 26.6;" xml:space="preserve">
<style type="text/css">
	.st0{fill:#18191F;}
	.st1{clip-path:url(#SVGID_2_);}
</style>
<g id="Group_44" transform="translate(-2 -2)">
	<path id="Combined_Shape-2" class="st0" d="M23.6,24L20,20.3c-3.9,3.1-9.6,2.5-12.7-1.4S4.8,9.4,8.7,6.2s9.6-2.5,12.7,1.4
		c2.6,3.3,2.6,8,0,11.2l3.7,3.7c0.4,0.4,0.4,1,0,1.4S24,24.4,23.6,24L23.6,24z M7.4,13.3c0,3.9,3.1,7,7,7s7-3.1,7-7s-3.1-7-7-7
		C10.5,6.3,7.4,9.4,7.4,13.3z"/>
	<g>
		<defs>
			<path id="SVGID_1_" d="M23.6,24L20,20.3c-3.9,3.1-9.6,2.5-12.7-1.4S4.8,9.4,8.7,6.2s9.6-2.5,12.7,1.4c2.6,3.3,2.6,8,0,11.2
				l3.7,3.7c0.4,0.4,0.4,1,0,1.4S24,24.4,23.6,24L23.6,24z M7.4,13.3c0,3.9,3.1,7,7,7s7-3.1,7-7s-3.1-7-7-7
				C10.5,6.3,7.4,9.4,7.4,13.3z"/>
		</defs>
		<clipPath id="SVGID_2_">
			<use xlink:href="#SVGID_1_"  style="overflow:visible;"/>
		</clipPath>
		<g id="Mask_Group_44" class="st1">
			<g id="COLOR_black">
				<rect id="Rectangle" x="3.4" y="2.3" class="st0" width="24" height="24"/>
			</g>
		</g>
	</g>
</g>
</svg>
