<?xml version="1.0" encoding="utf-8"?>
<!-- Generator: Adobe Illustrator 25.0.0, SVG Export Plug-In . SVG Version: 6.00 Build 0)  -->
<svg version="1.1" id="Warstwa_1" xmlns="http://www.w3.org/2000/svg" xmlns:xlink="http://www.w3.org/1999/xlink" x="0px" y="0px"
	 viewBox="0 0 347.8 325.3" style="enable-background:new 0 0 347.8 325.3;" xml:space="preserve">
<style type="text/css">
	.st0{fill:#1947E5;}
	.st1{fill:#FFFFFF;}
</style>
<rect class="st0" width="347.8" height="325.3"/>
<g id="FACE" transform="translate(107.474 62.723)">
	<path id="_Ink-3" d="M106.4,78.6c-1.9,0-3.7-0.9-4.9-2.3c-0.9-1.1-1.4-2.5-1.2-3.9c0-0.4,0.4-0.7,0.8-0.6c0.3,0,0.7,0.2,0.9,0.4
		l0.1,0.2c0.9,1.2,2.1,2.7,3.8,2.7c0.2,0,0.4,0,0.6-0.1c0.8-0.2,1.5-0.7,2-1.3c0.3-0.4,0.5-0.9,0.6-1.4c0.1-0.4,0.2-0.8,0.4-1.2
		c0.4-0.6,1-1,1.8-1c0.9,0,1.8,0.6,2,1.5c0.3,1.4-0.1,2.9-1,4c-1.3,1.8-3.3,2.9-5.5,3.1L106.4,78.6z M108.2,64.9L108.2,64.9
		c-2-0.1-4-0.5-5.8-1.3c-0.7-0.3-1.1-1-0.9-1.7c0.1-0.7,0.7-1.2,1.4-1.2c0.2,0,0.4,0,0.5,0.1l0.3,0.1c1.5,0.8,3.1,1.2,4.8,1.4
		c1.1,0.1,2.1-0.4,2.6-1.4c0.3-0.7,0.3-1.5,0-2.3c-0.7-1.5-2.8-2.7-4.5-3.3c-0.3-0.1-0.4-0.4-0.4-0.7c0.1-0.4,0.5-0.7,0.9-0.7h0.2
		c1.7,0,3.4,0.6,4.7,1.7c1.1,1,1.7,2.3,1.9,3.7c0.2,1.3-0.2,2.7-1.1,3.7C111.6,64.4,109.9,65,108.2,64.9z M81,53.8
		c-0.2,0-0.5-0.2-0.5-0.4c-0.1-0.2,0-0.4,0.1-0.5c2.1-1.8,4.6-3.2,7.3-4c-0.4-0.6-0.5-1.4-0.2-2.1c0-0.2,0.1-0.3,0.1-0.4l0.1-0.3
		c0-0.1,0-0.3,0.1-0.4l0,0c0.2-0.7,0.7-1.2,1.3-1.4c0.2,0,0.3-0.1,0.5-0.1c0.3,0,0.5,0.1,0.8,0.2c0.9,0.2,1.6,0.9,1.8,1.7
		c0,0.1,0,0.1,0.1,0.2v0.1l-0.1-0.3c0,0.2,0.1,0.3,0.2,0.4c0.1,0.1,0.1,0.2,0.2,0.4c0.1,0.3,0.1,0.7,0.1,1.1c0.3,0,0.6,0,0.8,0H94
		c1.4,0.1,3,0.4,3.9,1.7c0.2,0.4,0.3,0.9,0.1,1.4c-0.1,0.4-0.5,0.7-0.9,0.8c-0.2,0-0.3,0-0.5,0c-0.6,0-1.3-0.2-1.9-0.4
		c-0.5-0.2-1-0.3-1.5-0.4C92.8,51,92.3,51,91.9,51c-0.9,0-1.7,0.1-2.6,0.3c-1.5,0.3-3.1,0.8-4.5,1.3c-1,0.3-2,0.7-3.1,1l-0.3,0.1
		C81.1,53.8,81.1,53.8,81,53.8z M121.8,51.7c-0.4,0-0.8-0.2-0.9-0.6V51c-0.3-0.7-1.2-1.1-2.5-1.1c-0.4,0-0.8,0-1.2,0.1
		c-0.8,0.1-1.5,0.3-2.3,0.5c-0.2,0.1-0.5,0.2-0.8,0.3l-0.3,0.1c-0.1,0-0.6,0.3-0.6,0.4l0,0h0.1l0,0c0.1,0,0.1,0,0.1,0.1
		c0,0,0,0.1-0.1,0.1s-0.2,0.1-0.3,0.1c-0.2,0-0.4-0.1-0.5-0.3c-0.2-0.2-0.3-0.4-0.2-0.7c0.1-0.9,1.3-1.5,2.1-1.8
		c0.1,0,0.2-0.1,0.3-0.1l0,0c0.3-0.1,0.6-0.3,0.9-0.4c-0.2-0.3-0.3-0.6-0.4-0.9c-0.1-0.3-0.2-0.6-0.2-0.9c0-0.2,0-0.3,0-0.5l0,0
		c0-0.1,0-0.2,0-0.3l0,0c0-0.4,0.2-0.7,0.4-1c0.2-0.3,0.6-0.4,0.9-0.4c0.4,0,0.7,0.1,1,0.4l0.1,0.1c0.6,0.3,1,0.8,1.3,1.3
		s0.5,1.1,0.5,1.7c1.4,0,2.7,0.5,3.7,1.6c0.4,0.4,0.5,0.9,0.4,1.4l-0.1,0.3C123,51.2,122.5,51.6,121.8,51.7z M79.8,44
		c-0.3,0-0.5-0.2-0.6-0.4c-0.3-0.9,0-2.2,0.9-3.8c0.8-1.3,1.8-2.3,3-3.1c1.3-0.8,2.7-1.4,4.2-1.8l0.4-0.1c0.3-0.1,0.5-0.2,0.8-0.3
		c0.8-0.3,1.7-0.5,2.6-0.6c0.8,0,1.5,0.3,2.1,0.8c0.7,0.7,0.8,1.8,0.3,2.6c-0.9,1.4-2.1,1.5-3.6,1.6c-0.3,0-0.6,0-0.9,0.1
		c-1.3,0.1-2.7,0.5-3.9,1c-1,0.4-2,1-2.9,1.7c-0.4,0.3-0.8,0.7-1.1,1.1C80.7,43.2,80.3,43.6,79.8,44C80,44,79.9,44,79.8,44z
		 M121.7,41.3c-0.7,0-1.3-0.4-1.7-1v-0.1c-1.5-2.1-3.8-3.6-6.4-4.1h-0.3c-0.3-0.1-0.6-0.1-0.8-0.1c-0.1,0-0.2,0-0.3,0
		c-0.2,0-0.4,0.1-0.5,0.2c0,0.1,0,0.1,0,0.2c0,0.1-0.1,0.1-0.2,0.1h-0.1c-0.3-0.1-0.5-0.4-0.6-0.8c0-0.4,0.2-0.9,0.5-1.2
		c0.7-0.7,2.1-1,4-1c3.3,0.1,6.4,1.8,8.1,4.6c0.3,0.4,0.4,1,0.2,1.4c-0.1,0.6-0.5,1.1-1,1.4C122.4,41.2,122,41.3,121.7,41.3z"/>
</g>
<g id="BODY_1_" transform="translate(8.119 147.941)">
	<path id="_Background_1_" class="st1" d="M99,183.9L99,183.9c-0.6,0-1.1-0.2-1.5-0.7c-0.4-0.6-0.6-1.3-0.5-2
		c0.3-1.7,0.5-3.4,0.7-5.1c0.1-1,0.3-1.9,0.4-2.9c-5.3,1.4-10.7,2.2-16.1,2.2c-4.6,0-9.2-0.6-13.6-1.9c-0.1-0.1-0.1-0.2-0.1-0.3
		s0.3-0.2,0.8-0.2c0.2,0,0.4,0,0.6,0h0.1c0.2,0,0.3,0,0.4,0s0.2,0,0.3,0c-3.5-2.4-5.5-6-6.2-11c-0.6-4.4-0.1-9.3,0.4-13.6
		c0.1-1.2,0.2-2.4,0.3-3.5c0.8-5.2,1.6-10.7,2.3-15.9c3.5-27,7.3-55,23.2-77.5c4.1-5.6,9.2-10.4,14.9-14.2
		c5.7-3.9,12.3-6.4,19.2-7.4l0.4-0.1c0.7-0.1,1.4-0.2,2-0.2c3.5-0.4,7.1-0.8,10.1-2.7c1.5-1.3,2.8-2.8,3.9-4.4
		c1.8-2.4,3.4-4.7,6-4.7l0,0c0.9,0,2.1,0.8,3.4,1.7c0.6,0.4,1.2,0.8,1.9,1.2c0.1-1.4,0.5-2.8,1.1-4.1c0.4-0.9,0.6-1.8,0.8-2.7v-0.2
		c0.1-0.4,0.1-0.9,0.1-1.3c0.1-1.8,0.3-3.6,2.5-5.4c3.8-2.9,11.2-4.9,18-4.9c3.2,0,7.7,0.4,10.8,2.5c4.8,3.4,6.5,8.2,8.3,13.3
		c0.6,1.9,1.3,3.8,2.2,5.7c0.7-0.3,1.4-0.5,2.2-0.4c1.4,0,2.7,0.4,3.9,1.1c1.1,0.6,2,1.5,2.4,2.6c0.6,0.7,0.9,2.3,1.1,3.7
		c0.1,1,0.4,1.9,0.7,2.8c3.6,0.5,7.2,1.5,10.6,2.7c3,1.1,5.8,2.6,8.4,4.4c4.8,3.3,8.6,7.8,11.4,12.9c5.6,10.2,7.7,23.4,9.6,37.1
		c1.4,7.8,3.3,15.8,5.2,23.5c2.4,10,4.9,20.3,6.3,30.6c0.7,5.1,1.1,10.3,1.2,15.4c0.1,5.2-0.3,10.4-1.2,15.6
		c0.6,0.9,1.2,1.9,1.6,2.9c0.5,0.9,0.5,2.1,0,3s-1.4,1.5-2.4,1.5H257c-0.8-0.1-1.7-0.2-2.5-0.2c-2.1-0.2-4.2-0.4-6.3-0.5
		c-4.3-0.2-8.9-0.2-14.1-0.2c-3,0-6.3,0-10.4,0.1h-1.1c-16.5,0.2-33.3,0.5-49.5,0.8l0,0C148.5,183.3,123.6,183.8,99,183.9z
		 M189,92.1L189,92.1c-0.6,2.4,0.3,4.4,1.3,6.5c0.5,1.1,1,2.2,1.4,3.4c0.2,1.1,0.2,2.2,0.1,3.2c0,0.5-0.1,0.9-0.1,1.3
		c0.1,0.8,0.4,1.5,0.8,2.2c0.4,0.9,0.9,1.9,0.8,2.7c-0.5,2.1-1.3,4.1-2.3,6c-0.9,1.6-1.6,3.3-2.1,5.1c-0.5,1.7-0.4,3.4,0.2,5
		c1.5,3,6.1,4.5,9.2,5.5l0,0c1.8,0.6,3.7,1,5.7,0.9c3,0,6.1-0.6,8.9-1.7c3-1.2,5.2-2.8,6.5-4.8c1.2-1.8,2.6-5.4,3.7-8.3
		c0.7-1.8,1.3-3.3,1.7-4.2l0.3-3.6c0.7-9.4,1.2-18.7-0.8-20c-4.5-3.1-12.6-3.8-18.6-3.8c-7.1,0-13.2,0.9-13.5,1.1s-0.6,0.4-0.8,0.5
		c-0.6,0.3-1.1,0.7-1.5,1.3c-0.5,0.1-1.1,0.2-1.8,0.3c-0.4,0.1-0.6,0.4-0.6,0.7c0.1,0.5,0.6,0.8,1.1,0.7
		C188.6,92.2,188.8,92.1,189,92.1L189,92.1z"/>
	<path id="_Ink_1_" d="M99.4,182.3c-0.3,0-0.6-0.1-0.9-0.2h-0.1l-0.1-0.1c-0.8-0.5-1.1-1.4-0.9-2.2c0.4-1.1,0.7-2.1,0.9-3.2
		c0.2-0.9,0.5-1.9,0.8-2.9l-0.5,0.2l-0.7,0.3c-2.9,1.3-5.8,2.3-8.8,3.2s-6.1,1.3-9.2,1.4c-2.1,0-4.2-0.3-6.3-0.8
		c-4.1-1.1-7.3-3.4-8.9-6.5c-1.8-3.4-2.1-7.3-2.2-11c-0.1-4.6,0.1-9.2,0.7-13.8c0.4-3.1,0.9-6.2,1.7-9.2c-0.4-0.4-0.7-0.9-0.8-1.5
		c-0.2-2.4,0-4.8,0.4-7.1c0.1-0.5,0.2-1.1,0.2-1.6c0.4-3,0.8-5.7,1.3-8.4c1-5.8,2.1-11.5,3.3-16.9c2.3-9.9,5.3-19.7,8.9-29.2
		l0.3-0.8c4.1-10.6,8-18.3,12.6-24.9c2.2-3.2,5.1-6.8,9-9.6c3.5-2.4,7.3-4.3,11.3-5.6s8.1-2.3,12.3-2.8c0.6-0.1,1.3-0.2,1.9-0.2
		c3.6-0.5,7.4-0.9,10.8-2.4c-0.4-1-0.1-2.1,0.8-2.7c2.5-1.7,4.8-3.6,7-5.7l0,0c0.3-0.3,0.7-0.6,1-0.9c0.1-0.1,0.3-0.2,0.5-0.2
		c0.3,0,0.5,0.1,0.6,0.4c0.1,0.2,0.1,0.5,0,0.7c-0.8,1.6-1.8,3.2-2.9,4.6c-0.7,0.9-1.5,1.7-2.2,2.5c1.9,1.7,3.6,3.6,5.2,5.7l0.1,0.1
		c0.5,0.6,1,1.2,1.5,1.8c1.5,2,3.1,3.8,4.8,5.6c2.2,2.2,4.8,3.9,7.8,4.9l0.6,0.2c3,1,6.3,2.5,8,5.4c0.1,0.2,0.1,0.4,0,0.6
		c-0.1,0.2-0.3,0.4-0.6,0.4c-0.1,0-0.2,0-0.3-0.1c-1.9-1.1-4-1.8-6.1-2.3c-1.2-0.3-2.4-0.7-3.6-1.1c-3.1-1.2-5.9-3-8.3-5.3
		c-1.9-1.9-3.8-4-5.5-6.2c-0.4-0.4-0.7-0.9-1.1-1.3c-2.1-2.5-4.3-4.8-6.8-6.8c-3.9,2.6-8.5,3.7-12.5,4.7l-0.5,0.1
		c-4.4,1-8.8,2.4-12.9,4.3c-3.7,1.6-7.2,3.7-10.2,6.4c-3.2,3-5.8,6.8-7.9,10.2c-5.4,8.6-8.9,17.9-11.7,25.9
		c-3.2,9.3-6,18.8-8.1,28.4c-1.1,4.7-2,9.6-2.8,14.8c-0.4,2.4-0.7,4.8-1,7.2c-0.1,0.6-0.1,1.3-0.2,1.9c-0.1,2-0.4,3.9-1,5.8
		c-0.2,0.8-1,1.4-1.8,1.5h-0.1l-0.2,2c-0.2,2.6-0.4,5.3-0.5,8.1c-0.1,4.9,0,9.4,0.3,13.5v0.6c0.3,3.3,0.9,7,3.3,9.4
		c2.8,2.7,6.9,3.3,10,3.3h0.3c3.8-0.1,7.6-0.8,11.2-2.1s7.1-2.8,10.6-4.5l0.9-0.4c7.1-3.3,14.3-7.1,21.4-11.4
		c3.5-2.1,7.1-4.3,10.5-6.5c1.7-1.1,3.4-2.2,5.1-3.3c0.3-0.2,0.7-0.5,1-0.7c0.6-0.4,1.2-0.9,1.9-1.2c-0.5-0.4-0.6-1.2-0.3-1.8
		c-1.4-1.3-2.5-2.9-3.1-4.8c-0.6-1.8-1-3.7-1.1-5.6c0-2.5,0.1-4.9,0.5-7.3c0.1-0.4,0.1-0.8,0.1-1.2c0.2-1.5,0.4-2.9,0.6-4.3
		c0-0.2,0.1-0.5,0.1-0.7c0-0.3,0.1-0.7,0.1-1c-7.6,4.2-15.5,7.9-23.5,11.2c-4,1.6-8.1,3.2-12.5,4.6l-0.9,0.3
		c-4,1.4-8.1,2.5-12.3,3.3l0,0c-0.1,0-0.2-0.1-0.2-0.2c0-0.1,0-0.2,0.1-0.2c2.7-1.2,5.5-2.3,8.2-3.3c1.4-0.5,2.8-1.1,4.2-1.6
		l0.7-0.3c-0.1,0-0.2,0-0.2,0c-1.7-0.4-3.4-1-5.1-1.5c-0.7-0.2-1.4-0.5-2.1-0.7s-1.4-0.4-2.1-0.6c-1.6-0.4-3.1-0.9-4.6-1.6
		c-0.1,0-0.1-0.1-0.1-0.2s0.1-0.1,0.2-0.1c0.2,0,0.5,0,0.7,0c1.6,0.1,3.2,0.3,4.8,0.6c0.5,0.1,1,0.2,1.5,0.3l0.8,0.1
		c1.6,0.3,3,0.5,4.3,0.9c0.1-0.5,0.3-0.9,0.7-1.2c3.4-2.5,3.7-7.2,4-11.4c0.1-0.9,0.1-1.7,0.2-2.4l0.3-3.4
		c0.6-5.7,1.2-11.8,2.1-17.7c0-0.1,0.1-0.2,0.2-0.2c0.2,0,0.3,0.1,0.3,0.3c0,5-0.2,10-0.5,14.9c-0.1,2.3-0.2,4.6-0.3,6.9v1.2v0.2
		c-0.2,4.4-0.3,9-3.1,12.4c0.2-0.1,0.4-0.2,0.6-0.2c0.3,0,0.5,0.1,0.7,0.3c0.4,0.4,0.6,0.9,0.6,1.5c2.4-1,5-2.1,7.6-3.3
		c7.9-3.5,16-7.5,23.9-12c0.7-0.4,1.6-0.2,2,0.5l0,0h0.1l0,0h0.1l0,0c0.4-0.2,0.7-0.3,1.1-0.3c0.9,0,1.7,0.4,2.4,1c0,0,0,0,0.1,0.1
		l0,0c1.2-0.5,2.3-1.3,3.3-2.2c2-1.9,3.8-4.1,5.3-6.5c0.7-1.1,1.4-2.2,2-3.2c2-3.3,4.1-6.6,6.9-9.3c3.1-2.8,6.9-4.7,10.9-5.7
		c0-0.1,0-0.2,0.1-0.3c0.1-0.1,0.2-0.2,0.4-0.2c0.1,0,0.2,0,0.2,0.1l0,0l0.4-0.7c0.2-0.3,0.4-0.7,0.5-0.8c0.5-0.6,0.9-1.1,1.4-1.7
		c0.8-1,1.7-1.8,2.8-2.5c0.9-0.5,1.8-0.8,2.8-0.8c1.5,0.1,2.9,0.4,4.3,0.9l0,0c1,0.3,1.9,0.6,2.9,0.9l0,0h0.1L190,85h0.2l0.3,0.1
		c1,0.3,2.1,0.7,2.5,1.7c0.2,0.4,0.2,0.9,0.1,1.4c3.9-1,7.9-1.4,12-1.4c6.6,0.1,13.2,1.1,19.6,3.1c0.4,0.1,0.7,0.4,0.8,0.8
		c1.2,5.8,1.6,11.8,1.1,17.8c-0.4,5.1-1.6,10.2-3.7,14.9l-0.1,0.3c-3,6.4-6.3,10-10.1,11.1c-1.3,0.3-2.6,0.5-3.9,0.5
		c-1.2,0-2.3-0.1-3.5-0.2l0,0c-0.6,0-1.2-0.1-1.8-0.1c-0.7,0-1.3-0.1-2-0.1c-2.3,0-4.6-0.2-6.8-0.5c-2.5-0.3-4.9-1.6-6.4-3.7
		c-1.3-1.9-2.2-3.9-2.7-6.2c-0.3,0.1-0.6,0.2-0.8,0.3c-1.1,0.5-2.1,1.1-2.9,2c-0.8,0.8-1.6,1.7-2.3,2.5c-0.9,1.1-1.8,2.1-2.8,3
		c-1.7,1.5-3.7,2.7-5.8,3.6c-3.6,1.4-7.3,2.4-11.1,3.1l0,0c-0.8,0.2-1.6,0.3-2.4,0.5l-0.3,0.1c-3.4,0.7-7,1.7-10,3.5
		c-0.1,0.5-0.3,1-0.7,1.4c0.6,0.5,0.7,1.4,0.3,2.1c-1.1,1.8-2.9,2.9-4.6,4c-0.3,0.2-0.7,0.4-1,0.7l-0.1,0.1c-2,1.3-4.1,2.6-6.1,3.9
		c-4,2.5-8.1,4.9-12.7,7.4c-7.3,4-14.4,7.5-21.2,10.6c0.2,1.2,0.3,2.4,0.4,3.5c0,1,0.1,1.9,0.2,2.9l0.1,0.3c0.2,0.7-0.1,1.5-0.6,2
		l-0.1,0.1l0,0H101l0,0l0,0c-0.1,0.1-0.1,0.1-0.2,0.2l-0.1,0.1C100.1,182.2,99.8,182.3,99.4,182.3z M140.8,118.7L140.8,118.7
		c0,0.2,0,0.3,0,0.5l0,0l0,0c0,0.3,0,0.5,0,0.8c0,1.1,0,2.3,0,3.5c0,0.9,0,1.8,0,2.6c0,1.5-0.1,3.1,0,4.7c0.2,3.6,0.9,5.4,1.4,6.4
		c0.7,1.3,1.8,2.4,3,3.3c3.1-1.8,6.4-3,9.8-3.8c1.4-0.3,2.8-0.6,4.1-0.9c2.8-0.6,5.6-1.3,8.4-2.1c2-0.6,3.8-1.5,5.5-2.7
		c1.6-1.2,3-2.6,4.3-4.2l0,0l0.3-0.4l0.2-0.3c1.4-1.7,3.1-3.2,5.1-4.1c0.7-0.3,1.4-0.5,2.2-0.7c1.2-0.2,2.4-0.7,3.4-1.4
		c0.8-0.6,0.9-1.5,1-2.4v-0.1c-0.2,0-0.4,0-0.7,0c-0.6,0-1.1-0.1-1.7-0.2c-0.2,0-0.4-0.1-0.7-0.1l-0.5-0.1c-0.9-0.1-1.9-0.2-2.8-0.5
		c-0.1,0-0.1-0.1-0.1-0.2s0.1-0.1,0.1-0.1c1-0.2,2.1-0.4,3.1-0.5h0.1h0.3l0.4-0.1c0.6-0.1,1.1-0.1,1.7-0.2c0.3,0,0.7,0,1,0.1
		c0.2-0.7,0.4-1.3,0.8-2c0.2-0.3,0.3-0.6,0.5-0.8c0.5-0.6,0.9-1.3,1-2.1c0-0.3,0-0.7-0.2-1l-0.1-0.1c-0.1-0.1-0.1-0.2-0.2-0.3h-0.1
		c-0.7,0.2-1.4-0.1-1.8-0.7c-1,0.1-2,0.2-3,0.2c-0.5,0-1,0-1.5,0L184,109c-0.5,0-1.1,0-1.7,0c-0.9,0-1.9-0.1-2.8-0.3
		c-0.1,0-0.2-0.1-0.2-0.2s0-0.2,0.1-0.2c1.6-0.6,3.3-1,5-1.2c0.3,0,0.5-0.1,0.7-0.1c0.7-0.1,1.4-0.2,2.1-0.3c0.3,0,0.7-0.1,1-0.1
		c0.2,0,0.5-0.1,0.7-0.1c0.5-0.1,1-0.1,1.5-0.2c0.9-1.1,1.1-2.6,0.8-3.9s-1.2-2.3-2.5-2.9c-0.4,0.2-0.8,0.2-1.2,0.2
		c-0.3,0-0.7,0-1-0.1c-0.2,0-0.4,0-0.6-0.1c-1.1-0.1-2-0.1-2.9-0.1h0c-0.8,0-1.7,0.1-2.5,0.2c-0.9,0.1-1.7,0.2-2.6,0.2
		c-0.4,0-0.7,0-1.1-0.1c-0.2,0-0.4-0.2-0.4-0.4c0-0.1,0-0.3,0.1-0.4c1.5-1.2,3.6-1.6,5.7-1.9l0.4-0.1c0.2,0,0.3,0,0.5-0.1l0,0
		c0.5-0.1,1.1-0.2,1.7-0.2c0.2-0.4,0.6-0.7,1-0.7c0.1,0,0.3,0,0.4,0h0.1l0,0c0.3,0,0.6-0.2,0.7-0.4c0.4-0.8,0.4-1.7,0.1-2.4
		c-0.5-1.2-2-1.9-4.4-1.9c-0.4,0-0.8,0-1.2,0c-4.5,0.3-9,1.4-13.1,3.5c-4.3,2.2-7.1,6-9.2,9.3l-0.1,0.2c-0.4,0.6-0.8,1.3-1.2,1.9
		c-2,3.3-4.1,6.6-7.2,8.7c-1.9,1.4-4.1,2.4-6.4,3c-0.2,0.3-0.4,0.5-0.8,0.6h-0.2c-0.7,0.1-1.3,0.2-2,0.2
		C141.1,118.8,141,118.8,140.8,118.7L140.8,118.7z M199.7,88.4c-2.2,0-4.5,0.1-6.7,0.1c-0.5,1.4-1.7,2.4-3.2,2.5
		c1.1,1.7,1.2,3.8,0.4,5.6c3.7,1.4,5.6,5.6,4.2,9.3c-0.1,0.3-0.3,0.7-0.5,1c1,1,1.6,2.3,1.5,3.7c-0.2,1.3-0.7,2.6-1.5,3.6
		c-0.1,0.1-0.2,0.3-0.3,0.4c-0.6,1-0.9,2.1-1,3.3c0,0.3-0.1,0.5-0.1,0.8c-0.3,2-1.6,3.5-3.8,4.4l0.1,0.4c0.5,2,1.1,4,2.6,5.4
		c1.7,1.7,4.3,1.8,6.6,1.9h0.5h0.1c1.8,0.1,3.5,0.2,5.3,0.3h0.2l1.2,0.1l1.7,0.1c0.5,0,1.1,0.1,1.8,0.1c1.9,0.1,3.8-0.4,5.4-1.6
		c3.6-2.9,5.9-7.8,7.3-11.4c2.8-7.6,3.4-16.6,1.7-26.7c-4.8-1.6-9.8-2.6-14.8-3.2C205.5,88.5,202.6,88.4,199.7,88.4z M182.6,88
		c2.4,0,4.3,0.5,5.7,1.6l0,0l0,0c0.2-0.4,0.5-0.7,0.8-1l0,0l0.1-0.1l0.2-0.2l-0.4-0.1c-0.6-0.2-1.2-0.5-1.6-0.6
		c-0.2-0.1-0.3-0.1-0.3-0.1l0,0l-0.5-0.2c-0.9-0.3-1.8-0.6-2.7-0.9c-0.2-0.1-0.3-0.1-0.5-0.2c-0.7-0.3-1.4-0.5-2.2-0.5
		c-0.1,0-0.3,0-0.4,0c-1.4,0.2-2.7,1.4-3.9,2.4c-0.3,0.3-0.6,0.6-0.9,0.8l0.7-0.1C178.7,88.2,180.6,88,182.6,88L182.6,88z
		 M231.1,182.1c-0.4,0-0.7-0.3-0.7-0.7l-0.1-1.1c-0.1-1.4-0.4-2.8-0.8-4.1c-0.5-1.6-0.8-3.2-1-4.8c-0.3-2.6-0.4-5.1-0.5-7.8
		l-0.1-1.8c-0.5-10.8-0.4-21.7,0.3-32.5l0.1-0.8c0.7-9.9,2-21.2,7.8-30c0-0.1,0.1-0.1,0.2-0.1c0.1,0,0.1,0,0.2,0.1c0,0,0,0.1,0,0.2
		c-1.3,5.4-2.7,11.2-3.5,17c-1.4,9.5-1.3,19.3-1.2,28.8c0,0.8,0,1.7,0,2.5v0.5c0.1,5,0.1,10.9,0.3,16.9c0,0.7,0.1,1.4,0.1,2.1
		c0.1,2.1,0.2,4.3,0.1,6.5c-0.1,0.9-0.2,1.7-0.3,2.6c-0.1,0.6-0.2,1.3-0.3,1.9c-0.1,1.1-0.1,2.2,0,3.3c0,0.2,0,0.5,0,0.7
		s0,0.3-0.2,0.5C231.4,182,231.3,182.1,231.1,182.1L231.1,182.1z M259.2,181.6c-0.6,0-1.2-0.2-1.6-0.7c-0.3-0.3-0.5-0.8-0.4-1.2
		c0.5-6.2,0.6-12.5,0.4-18.7c-0.3-6.2-0.9-12.5-1.7-18.7c-0.5-3.9-1.3-7.8-2-11.5c-0.3-1.3-0.5-2.7-0.8-4l-0.2-0.8
		c-0.7-3.9-1.5-7.9-2.2-11.8l0,0l-0.3-1.4l-1.3-6.6c-1.7-9-3.7-19.4-6-29.6L243,76c-1.9-8.3-4.9-18.9-11.6-26.8
		c-3.2-3.7-7.1-6.7-11.4-9c-4.3-2.3-8.8-4.3-13.3-6.1c-0.2-0.1-0.2-0.2-0.2-0.4c0-0.1,0.1-0.2,0.3-0.2h0.1l0.7,0.2
		c5.1,1.2,10.4,2.6,15.5,5c4.9,2.4,9.2,5.9,12.5,10.2c6.7,8.7,9.4,19.5,11.3,28.9c1.1,5.4,2.2,11,3.3,16.3
		c1.2,5.9,2.4,11.9,3.6,17.9l0.4,2.1c2.1,10,4.2,20.8,5.8,31.9l0.1,0.8c0.8,5.5,1.4,11.1,1.6,16.7c0.3,5.6,0,11.2-0.8,16.7
		C260.8,181,260,181.7,259.2,181.6L259.2,181.6z M182.6,172.3c-0.5,0-1-0.3-1.2-0.8c-0.8-2.6-0.5-5.6-0.3-8.3c0-0.4,0.1-0.8,0.1-1.2
		l0.2-2.4c0.2-2.1,0.3-4.6,0.5-7.1c0.2-3.3,0.4-6.6,0.5-9.7c0.1-1.1,0.1-2.1,0.2-3.2l0.1-1.6c0-0.2,0-0.3,0-0.5
		c0-1.2,0.2-2.4,0.6-3.5c0.1-0.2,0.2-0.3,0.4-0.2c0.2,0,0.4,0.1,0.5,0.2c0.5,1.2,0.8,2.4,0.8,3.7l0,0c0,0.1,0,0.3,0,0.4v0.1
		c0.1,1.4,0.3,3.2,0.4,5c0.2,3.2,0.2,6.4,0.2,9.5c0,3.6-0.1,6.8-0.2,9.7v0.9c-0.2,2.9-0.4,6-1.8,8.4
		C183.3,172.1,183,172.3,182.6,172.3z M72.9,149.8L72.9,149.8c-0.4-0.1-0.7-0.3-0.8-0.6c-0.2-0.5-0.1-1.1,0.2-1.6
		c0.8-1.6,1.8-3.2,3-4.6l0.3-0.4c1.2-1.5,2.5-3,3.9-4.3l0.4-0.4c0.2-0.2,0.3-0.3,0.5-0.5c1.1-1.1,2.5-2.5,4-2.5c0.1,0,0.1,0,0.2,0
		c0.6,0,1.1,0.5,1.1,1.1c0,0.1,0,0.2,0,0.3c-0.3,1.2-1.3,2-2.3,2.7c-0.3,0.2-0.5,0.4-0.8,0.6c-1.3,1-2.5,2.2-3.6,3.3c-1,1-2,2-3,3.1
		l-0.4,0.4c-0.1,0.1-0.2,0.2-0.4,0.4c-0.8,0.8-2.4,2.4-2.2,2.9l0,0L72.9,149.8C73,149.8,72.9,149.8,72.9,149.8z M169.5,118.4
		c-1.2,0-2.2-0.9-2.5-2.3c-0.1-0.6-0.2-1.3-0.1-1.9c0.1-0.7,0-1.5-0.2-2.2c-0.2-0.3-0.3-0.7-0.6-1c-0.2-0.3-0.4-0.6-0.5-1
		c-0.3-0.7-0.4-1.4-0.5-2.1c0-0.6,0.1-1.2,0.3-1.8c0.3-0.9,0.5-1.8,0.1-2.5c-0.1-0.2-0.1-0.3,0-0.5c0.1-0.1,0.2-0.2,0.3-0.2l0,0l0,0
		c1,0.2,1.8,1,2,2c0.1,0.5,0.2,0.9,0.2,1.4c0.1,1,0.3,1.9,0.8,2.7c0.9,1.2,1.5,2.6,1.6,4.1c0,0.2,0,0.4,0,0.6c0,0.5,0.1,1,0.2,1.4
		l0.1,0.5c0.1,0.5,0.2,1,0.2,1.5s-0.3,0.9-0.8,1C170,118.4,169.7,118.4,169.5,118.4z M121.2,93.5c-1,0-2-0.1-2.9-0.2
		c-0.1,0-0.2-0.1-0.2-0.2s0.1-0.3,0.2-0.3c1.9-0.5,3.9-0.9,5.9-1c0.5-0.1,0.9-0.1,1.4-0.2c2.1-0.3,4.9-0.6,7.6-1s5.2-0.8,7.6-1.3
		c1.2-0.2,2.3-0.4,3.4-0.7c0.2,0,0.5-0.1,0.7-0.2c0.6-0.2,1.2-0.3,1.8-0.3c0.3,0,0.6,0.1,0.9,0.2c0.3,0.1,0.5,0.4,0.6,0.7
		c0.1,0.3,0,0.5-0.2,0.7c-0.7,0.6-1.6,0.9-2.6,1c-0.2,0-0.4,0.1-0.5,0.1h-0.1c-1.3,0.2-2.6,0.5-3.9,0.7c-2.5,0.4-5,0.8-7.4,1.1
		c-2.9,0.4-5.4,0.6-7.7,0.8l-1,0.1C123.6,93.4,122.4,93.5,121.2,93.5z M182.8,81.7c-0.3,0-0.6-0.2-0.8-0.4c-0.9-1.7-1.6-3.5-2-5.4
		c-0.2-0.9-0.5-1.9-0.8-2.8c-0.4-1.2-0.9-2.4-1.3-3.6c-0.5-1.4-1.1-2.9-1.6-4.4c-1.4-4.1-1.9-7.6-1.5-10.8l0,0l0,0l-0.3-0.6
		c-0.7-1.7-1.7-3.3-3-4.6c-0.4-0.3-0.7-0.7-1.1-1c-1.2-1-2.3-2.1-3.2-3.4c-2-2.9-1.5-6-1-9.1c0.1-1,0.3-1.9,0.4-2.9v-0.5
		c0.1-1,0.1-2-0.5-2.6c-0.6-0.5-1.3-0.8-2.1-0.9c-0.3-0.1-0.6-0.2-0.8-0.2c-2.2-0.7-4.3-1.7-6.3-2.7c-1.9-1-3.8-2.1-5.5-3.4
		l-0.9-0.7c-1.4-1-2.7-2.2-3.8-3.6c0-0.1,0-0.2,0-0.2c0-0.1,0.1-0.1,0.2-0.1c0,0,0,0,0.1,0c1.2,0.5,2.3,1.1,3.3,1.8
		c0.4,0.2,0.7,0.5,1.1,0.7c0-0.1,0-0.1,0.1-0.2c1.8-3.2,2.6-6.9,2.2-10.5c0-0.4,0.1-0.7,0.3-1c0.3-0.3,0.7-0.4,1.1-0.4
		c0.8,0,1.6,0.6,1.6,1.4c0.3,4.2-0.6,8.4-2.7,12c0,0,0,0,0,0.1l0,0c1.5,0.8,2.7,1.4,3.9,1.9c1.8,0.8,3.5,1.4,5.2,2
		c0.4,0.1,0.9,0.3,1.4,0.4c1.2,0.2,2.4,0.7,3.5,1.4c2.6,2.1,1.9,6.3,1.3,9.3l0,0c0,0.2-0.1,0.3-0.1,0.5l-0.1,0.5
		c-0.4,1.5-0.3,3.1,0.2,4.6c0.7,1.4,1.8,2.6,3,3.6l0.3,0.3l0.3,0.2c1.2,1,2.3,2.3,3.2,3.6c0.7-1.3,1.5-2.6,2.5-3.7l0,0l0.4-0.5
		c0.6-0.8,0.4-1.2,0-1.8c-0.1-0.1-0.2-0.3-0.3-0.5c-0.6-0.9-0.8-2-0.6-3c0.3-2.1,2.2-3.6,3.5-4.5c1.1-0.7,2.2-1.4,3.4-2
		c0.8-0.5,1.7-0.9,2.5-1.4c4-2.4,7.9-5.2,11.4-8.4h0.1c0,0,0.1,0,0.1,0.1v0.1c-2.7,4.2-6.1,7.9-10,10.9c-1.4,1.1-2.9,2-4.3,2.9l0,0
		l-0.8,0.5l-0.5,0.3c-0.8,0.4-1.4,1-1.9,1.8c-0.2,0.6,0.1,1.1,0.4,1.5c0.1,0.1,0.2,0.3,0.3,0.4c1,1.8,0.8,3.6-0.8,5.6l-0.1,0.1
		c-1.4,1.5-2.3,3.3-2.8,5.3c-1.1,4.6,0.4,9.4,1.9,13.5l0.1,0.2c0.2,0.6,0.4,1.1,0.6,1.7c0.6,1.7,1.3,3.5,1.8,5.2l0.2,0.6
		c0.7,2.2,1.2,4.3,0.5,6.5C183.6,81.5,183.2,81.7,182.8,81.7z M190.9,51c-0.2,0-0.4,0-0.6,0c-1.2-0.1-2.4-0.4-3.4-1
		c-0.4-0.3-0.8-0.6-1.2-1c-0.8-0.7-1.6-1.4-2.4-1.4c-0.2,0-0.3,0-0.5,0.1l0,0c-0.1,0-0.1-0.1-0.2-0.1c0-0.1,0-0.1,0-0.2
		c0.4-0.3,0.8-0.5,1.3-0.5c1,0.1,1.9,0.5,2.7,1c0.5,0.3,1.1,0.6,1.6,0.8c2.6,0.8,5.4-0.1,7-2.2c1.8-2.3,3.4-4.6,4.9-7.1
		c0.8-1.2,1.4-2.5,2-3.8c0.3-0.7,0.6-1.5,0.7-2.3c0.1-0.6,0.3-1.2,0.5-1.8c0.3-0.7,1-1.2,1.8-1.2c0.4,0,0.9,0.2,1.2,0.5
		s0.4,0.7,0.4,1.1c-0.2,1.4-0.6,2.7-1.2,4l0,0l-0.1,0.3l-0.1,0.2c-0.6,1.4-1.3,2.8-2.2,4.2c-1.7,2.5-3.5,4.9-5.6,7.2
		C195.8,49.8,193.4,51,190.9,51L190.9,51z M205.7,29.4c-0.4,0-0.8-0.2-1.1-0.5c-2.9-2.8-4.8-5.3-5.6-7.7c0-0.1,0-0.2,0-0.2
		c0.1-0.1,0.1-0.1,0.2-0.1h0.1c0.8,0.5,1.6,1.2,2.3,1.8c0.3,0.3,0.7,0.6,1,0.9c1.2,1,2.4,2,3.7,2.9c0.7,0.5,0.9,1.5,0.4,2.2
		C206.6,29.2,206.2,29.4,205.7,29.4L205.7,29.4z M197.1,24.5c-0.4,0-0.7-0.1-1-0.4c-1.6-1.3-2.8-3.1-3.4-5c-0.6-2-0.7-4.1-0.2-6.1
		c0.1-0.6,0.7-1.1,1.4-1.1c0.5,0,1,0.2,1.3,0.6c0.3,0.3,0.4,0.8,0.3,1.2v0.1c-0.8,3,0.3,6.2,2.7,8.1l0.1,0.1
		c0.4,0.3,0.6,0.9,0.4,1.4C198.4,24.1,197.8,24.5,197.1,24.5L197.1,24.5z"/>
</g>
<g id="HEAD_1_" transform="translate(54.629 6.076)">
	<path id="_Background-2" class="st1" d="M173.6,103.5c0-5.7-0.3-11.4-1.1-17.1c-0.7-5.4-3.2-10.5-7-14.5
		c-8.3-8.5-20.4-10.6-31.6-12.5l-19.2-3.2c-5.8-1-12.1-2.6-18-1.2c-2.8,0.8-5.5,2.2-7.6,4.2c-2.2,1.8-4.5,3.8-6,6.3s-2,5.4-2.5,8.2
		c-0.5,3.1-1,6.3-1.3,9.5c-0.6,6.4-0.7,12.8-0.2,19.2c0.2,3.1,0.5,6.2,1,9.3c0.2,1.5,0.5,3,0.7,4.6c0.1,0.4,0.1,0.9,0.2,1.4
		c-0.6,1.7-0.9,3.5-0.9,5.3c0.1,5.2,4.5,8.5,8.9,10.3c2.6,1,5.3,1.7,7.8,2.9c2.7,1.2,4.5,3.1,6.3,5.4c3.4,4.3,7.4,8,11.9,11.2
		c9.5,6.7,21.5,9.9,33,7.5c2.8-0.6,5.5-1.5,8-2.8c2.5-1.4,4.7-3.5,6.2-6c3-4.6,5.3-9.6,6.9-14.9c1.7-5.3,2.9-10.7,3.6-16.2
		C173.5,114.6,173.7,109,173.6,103.5L173.6,103.5z"/>
	<path id="_Ink-2_1_" d="M142.2,162.3L142.2,162.3c-3,0-6-0.6-8.7-1.9c-2.9-1.4-5.3-3.6-7.1-6.3l-0.1-0.1c-0.5-0.8-0.5-1.1-0.4-1.2
		c0-0.1,0.1-0.1,0.1-0.1c0.5,0.2,0.9,0.5,1.2,0.9c2.2,1.9,4.6,3.4,7.3,4.5c2.5,1,5.2,1.5,7.9,1.5c5.6,0,11.1-2.2,15.7-6.3
		c4.2-3.7,7.6-8.7,9.9-15.1c2.2-6.4,3.5-13.1,3.7-19.9c0.3-7.1-0.1-14.1-1.2-21.1c-1-6.4-2.6-12.7-4.9-18.7
		c-3.2-0.4-6.4-0.5-9.7-0.5c-5.3,0-10.6,0.5-15.8,1.4s-10.3,2.4-15.2,4.3c-4.9,1.9-9.6,4.4-14,7.3s-8.5,6.4-12.1,10.3l1.1,6.8
		c0.1,0.4,0.1,0.8,0.2,1.2c0.1,0.8,0.3,1.5,0.4,2.3c0.2,0.7,0,1.5-0.4,2.1c-0.3,0.4-0.9,0.7-1.4,0.7c-1.1,0-2.4-0.9-3.6-1.7
		c-0.6-0.4-1.2-0.8-1.9-1.2c-0.5-0.1-1-0.1-1.5-0.1c-0.2,0-0.4,0-0.6,0c-5.5,0.7-7.7,6.1-7.3,10.8c0.1,2.3,0.9,4.5,2.2,6.4
		c1.3,1.8,3.4,2.8,5.7,2.8c1,0,1.9-0.2,2.8-0.5c0.3-0.2,0.7-0.4,1.1-0.4c0.5,0,1,0.4,1.2,0.9c1.4,1.4,2.7,3,3.7,4.7
		c1.8,2.7,3.8,5.3,6.2,7.6c1.6,1.7,3.4,3.2,5.3,4.6c0.4,0.4,0.9,0.7,1.4,1c1.4,0.9,2.9,1.9,2.1,3.3c-0.2,0.5-0.8,0.9-1.3,0.9
		c-2.3,0-6.2-3.7-8.3-6c-2.6-2.6-4.9-5.5-6.9-8.5c-3.5,1.3-7.2,1.9-10.9,1.8c-3.1,0-6.2-0.3-9.3-0.6l-1.2-0.1
		c-6.8-0.4-12.5-2-16.8-4.8c-3.9-2.5-6.9-6.3-8.3-10.8c-1.2-3.8-1.5-7.7-0.9-11.6c0.6-4.5,1.9-8.9,3.8-13c2.2-4.7,5-9.2,8.2-13.2
		c3.6-4.5,7.7-8.7,12.3-12.3c5.8-4.2,12-7.7,18.7-10.3c0.4-0.2,0.6-0.5,0.5-0.9c0-0.3-0.3-0.6-0.6-0.6c-0.1,0-0.2,0-0.3,0.1
		c-4.4,1.8-8.6,3.8-12.7,6.2v-1.4c-0.1-2.4,0.1-4.8,0.5-7.2c0.2-1.5,0.6-3,1.1-4.4c0.4-2,3.3-6.2,8.1-10.1
		c6.1-4.9,13.4-8.1,21.1-9.1c1-0.1,2-0.2,2.9-0.2c4,0,7.9,0.9,11.4,2.5c3.9,1.8,6.8,4.3,8.4,7.2c7.1-1.7,14.3-2.6,21.6-2.6
		c6.6-0.1,13.2,0.9,19.6,2.9c6.4,2,12.2,5.4,17.1,10c2.6,2.7,4.5,6.1,5.4,9.7c0.8,3.3,0.8,6.7-0.1,10c-0.7,3-1.9,6-3.5,8.6
		c-1.6,2.7-3.6,5.3-5.8,7.6c-4.2,4.5-9.2,8.1-13.7,9.8c0.5,2.4,0.3,11.3-1.3,21.2c-2.5,15.6-6.9,23.8-10.1,27.8
		c-2.6,3.4-6,6.2-9.8,8.2C150.7,161.1,146.5,162.2,142.2,162.3z M94.5,108.7L94.5,108.7c-0.2,0.2-0.3,0.2-0.5,0.2
		c0.2,0.1,0.4,0.2,0.5,0.2l0,0C94.5,109,94.5,108.9,94.5,108.7L94.5,108.7L94.5,108.7z M98.9,122.6c-0.3-0.1-0.6-0.3-0.8-0.6v-0.1
		l0,0c0.1,0.2,0.2,0.3,0.1,0.4c0,0,0,0-0.1,0c-0.3-0.1-0.6-0.3-0.8-0.6l0,0c-0.1-0.1-0.2-0.2-0.3-0.3l0,0l0,0c-1-1-2.2-1.8-3.6-2.2
		c-0.2,0-0.4-0.1-0.5-0.1c-0.7-0.2-1.4-0.3-2.2-0.3c-0.1,0-0.2-0.1-0.2-0.2c-0.5,0-0.7-0.1-0.7-0.3c0-0.1,0.2-0.3,0.4-0.3l0,0h-0.1
		c-0.5,0-0.8-0.2-0.8-0.3c0-0.1,0.1-0.1,0.4-0.2h0.1l0,0c-0.2,0-0.3-0.1-0.3-0.3c0-0.2,0.2-0.3,0.3-0.3h0.1c0-0.1,0-0.2,0-0.2
		c0-0.1,0.1-0.1,0.3-0.1h0.1l0,0h0.1h0.1c0-0.1,0.1-0.1,0.2-0.1l0.1-0.1c0,0,0,0,0.1,0l0,0c0.2-0.2,0.4-0.2,0.6-0.2
		c0.3,0,0.6,0.1,0.8,0.2h0.1c0.2,0.1,0.4,0.1,0.6,0.1l0,0c1.3,0.2,2.5,0.7,3.5,1.4c0.5,0.3,1,0.6,1.5,1l0,0l0,0l0,0
		c0.4,0.3,1.8,1.7,1.7,2c0,0,0,0.1-0.1,0.1s-0.2,0-0.3-0.1c-0.1-0.1-0.2-0.2-0.3-0.4l0,0l0.1,0.1c0.2,0.4,0.4,0.6,0.3,0.7l0,0
		c-0.5-0.3-1-0.7-1.4-1.2l0,0l0.4,0.5l0,0l0.1,0.1l0.1,0.1c0.7,0.6,1,1.3,0.9,1.4c0,0,0,0-0.1,0c-0.2,0-0.5-0.4-1-0.9
		c0.1,0.1,0.1,0.2,0.1,0.3l0.1,0.1C98.8,122.1,99,122.5,98.9,122.6L98.9,122.6L98.9,122.6z"/>
</g>
<g id="FACE_1_" transform="translate(146.312 80.847)">
	<path id="_Ink-3_1_" d="M56.7,69.9L56.7,69.9c-0.2,0-0.3,0-0.5,0c-1.3-0.1-2.6-0.5-3.7-1.3c-1.1-0.8-1.9-1.8-2.4-3.1
		c-0.7-1.8-1-4.8,0.8-6H51c0.4,0.6,0.7,1.2,0.9,1.9c0.2,0.6,0.4,1.2,0.7,1.7c0.7,1.1,1.8,1.8,3.1,2c0.1,0,0.2,0,0.3,0
		c0.8,0.1,1.6-0.4,2-1.1c0.2-0.3,0.2-0.7,0.1-1L58,62.7c-0.3-0.9-0.3-1.9,0.2-2.7c0.4-0.7,1.1-1.2,1.9-1.2c0.1,0,0.1,0,0.2,0
		c1.1,0.1,2.1,0.7,2.6,1.7c0.9,1.7,0.5,4.2-0.4,5.7C61.5,68.6,59.2,69.9,56.7,69.9z M59.4,51.3L59.4,51.3c-2.1,0-4.4-0.9-6.9-2.7
		c-0.5-0.4-0.7-1.1-0.4-1.7c0.2-0.7,0.9-1.2,1.6-1.3c0.3,0,0.5,0.1,0.8,0.2l0.3,0.2c1.3,1,3.2,2.5,5.1,2.5c0.9,0,1.7-0.4,2.3-1
		c0.6-0.8,0.8-1.8,0.6-2.7c-0.4-2.1-2.7-3.6-3.4-4.1c-0.2-0.2-0.3-0.5-0.2-0.7c0.1-0.4,0.5-0.7,0.9-0.7c0.1,0,0.1,0,0.2,0
		c1.6,0.2,3.1,1.1,4.1,2.4c0.8,1.2,1.2,2.6,1,4c-0.1,1.5-0.7,2.8-1.7,3.9C62.5,50.7,61,51.3,59.4,51.3z M38.4,43L38.4,43
		c-2.3-0.1-4.3-1.4-5.3-3.5c-0.8-1.8-0.8-3.8-0.1-6.1c0-0.1,0.1-0.1,0.1-0.1h0.1c0.8,0.8,1.4,1.8,2,2.7l0.6,1c0.5,0.8,1.2,1.6,2,1.6
		h0.1H38h0.1c0.2,0,0.2,0,0.3-0.3l0,0c0.1-0.1,0.1-0.3,0.1-0.4c0-0.1,0-0.2,0-0.2v-0.1l0,0c0-0.2,0-0.4-0.1-0.6v-0.1
		c0-0.3,0-0.6-0.1-0.9c-0.1-1.2-0.2-2.5,0.4-3.5c0.5-0.7,1.3-1.2,2.2-1.2c1.1,0,2.1,0.7,2.4,1.8c0.2,0.7,0.2,1.4,0,2
		c-0.1,0.4-0.1,0.8-0.1,1.3c0,1-0.1,2-0.3,2.9C42.5,41.6,40.6,43,38.4,43z M69.9,41.7c-0.1,0-0.2,0-0.4,0c-1.6-0.1-3.1-1.1-3.9-2.5
		c-0.7-1.3-1.4-3.8-0.5-5.1l0.1-0.1h0.1c0.5,0.5,0.8,1.2,1,1.9c0.1,0.4,0.3,0.7,0.4,1.1c0.6,1.2,1.4,1.9,2.4,2c0.1,0,0.2,0,0.3,0
		c0.3,0,0.6-0.1,0.8-0.3c0.2-0.4,0.2-0.8,0.1-1.2c-0.2-0.5-0.4-1-0.6-1.5c-0.4-0.7-0.6-1.4-0.7-2.1c-0.1-0.5,0.1-1,0.4-1.4
		c0.9-0.9,2.5-0.9,3.4,0.1c0.1,0.1,0.1,0.2,0.2,0.3c0.5,0.9,0.8,1.9,0.8,3l0.1,0.5c0.2,1.1,0.1,2.2-0.3,3.2
		C72.9,40.8,71.4,41.7,69.9,41.7z M29.6,30.2c-0.1,0-0.1,0-0.1-0.1c-0.4-1.5,0.6-3,1.6-4.5c1.1-1.5,2.5-2.8,4-3.9s3.1-1.9,4.8-2.5
		l0.5-0.2c1.1-0.5,2.3-0.7,3.5-0.8c0.8,0,1.6,0.3,2.2,0.8c0.9,0.9,1.1,2.2,0.4,3.3c-0.7,1.2-1.8,1.3-3.1,1.5c-0.1,0-0.3,0-0.4,0.1
		c-1.5,0.2-3,0.6-4.5,1.2c-1.6,0.7-3.1,1.5-4.5,2.5c-0.4,0.3-0.8,0.6-1.2,0.9C31.9,29.3,30.8,29.9,29.6,30.2L29.6,30.2z M69.5,30.2
		c-1.6,0-3.2-0.1-4.8-0.3c-1.4-0.2-2.8-0.5-4.1-0.8L60,28.9h-0.2c-1.1-0.2-2.2-0.7-3.1-1.4c-0.1-0.1-0.2-0.3-0.1-0.4
		c0-0.2,0.2-0.3,0.4-0.4c0.8-0.3,1.6-0.4,2.4-0.3c0.4,0,0.7,0,1.1,0l0,0c0.4,0,0.7,0,1,0c0.1,0,0.2,0,0.3,0c1.6,0,3.4-0.2,5.3-0.4
		c1.2-0.1,2.5-0.4,3.7-0.6c0.5-0.1,0.9-0.2,1.4-0.3h0.2C72.7,25,73,25,73.3,25c0.7,0,1.5,0.3,2,0.8c0.6,0.6,0.8,1.5,0.6,2.4
		c-0.2,0.9-0.9,1.5-1.8,1.8C72.6,30.1,71.1,30.2,69.5,30.2L69.5,30.2z"/>
</g>
<g id="FACIAL_HAIR" transform="translate(116.532 112.892)">
	<path id="_Ink-4" d="M88.1,57.7L88.1,57.7c-2.1,0-4.3-0.2-6-0.4c-5.2-0.5-10.3-1.6-15.2-3.3c-2.3-0.8-4.7-1.7-7.3-2.8
		c-0.3-0.2-0.7-0.3-1.1-0.5c-2-0.8-4-1.8-6-2.9c-1.6-1.1-3-2.3-4.3-3.7c-0.2-0.2-0.5-0.5-0.7-0.7c-2.5-2.4-4.8-5-6.9-7.7
		c-2.1-2.7-3.4-5-3.9-8.1c-0.8-5-0.1-10.2,0.6-15.2c0.1-0.4,0.1-0.8,0.2-1.2c0-0.1,0.1-0.2,0.2-0.2c0.1,0,0.1,0,0.1,0.1V11l0,0v-0.1
		c0-0.1,0-0.2,0.1-0.2c0.1-0.1,0.2-0.1,0.3-0.1c0.2,0,0.3,0.1,0.3,0.2c1.3,4.4,3.6,8.4,6.7,11.8c3.9,4.2,8.9,7.3,13.7,10.3
		c0.5,0.3,1,0.6,1.5,0.9c0.2-0.2,0.4-0.3,0.6-0.3c0.4-1.8,1.2-3.5,2.3-4.9c1-1.5,2.2-2.8,3.6-4c5.4-4.5,12.2-7,19.2-7.1
		c3.2,0,6.3,0.6,9.3,1.8c3.9,1.7,7.1,4.6,9.3,8.2c0.6,1.1,1.2,2.3,1.6,3.5c0.2,0.5,1.7,6.7,0.8,10.2c-1,3.4-2.6,6.6-4.7,9.4
		c-1.9,2.6-4.5,4.7-7.4,5.9C92.8,57.4,90.4,57.8,88.1,57.7z M85.2,24.3c-2.4,0-4.7,0.2-7,0.8c-5.2,1.2-9.5,4.8-11.7,9.6
		c-0.2,1.1-0.1,2.1,0.1,3.2c1.9,1.3,3.9,2.4,6.1,3.1c2.2,0.7,4.5,1.1,6.7,1.1c0.8,0,1.5,0,2.3-0.1c0.4-0.4,0.7-1,1.1-1.5
		c1.4-2,3-4.2,5.3-4.5c0.2,0,0.4,0,0.6,0c1.8,0,3.2,1.3,4.5,2.5c0.7,0.7,1.5,1.4,2.4,1.9c0.1,0.1,0.3,0.2,0.5,0.2
		c1.6-0.1,3.2-0.6,4.6-1.4c1.2-0.9,2-2.2,2.2-3.7c-0.1-0.3-0.1-0.6-0.2-0.9c-0.5-2-1.4-3.9-2.6-5.6c-1-1.5-2.4-2.6-4-3.3
		c-1.8-0.6-3.7-1-5.7-1.1H90C88.1,24.4,86.6,24.3,85.2,24.3z"/>
</g>
</svg>
