<?xml version="1.0" encoding="utf-8"?>
<!-- Generator: Adobe Illustrator 25.0.0, SVG Export Plug-In . SVG Version: 6.00 Build 0)  -->
<svg version="1.1" id="Warstwa_1" xmlns="http://www.w3.org/2000/svg" xmlns:xlink="http://www.w3.org/1999/xlink" x="0px" y="0px"
	 viewBox="0 0 28.3 28.3" style="enable-background:new 0 0 28.3 28.3;" xml:space="preserve">
<style type="text/css">
	.st0{fill:#FD5838;}
	.st1{clip-path:url(#SVGID_2_);}
</style>
<g id="Group_41">
	<path id="Combined_Shape-2" class="st0" d="M20.2,25.2h-14c-1.7,0-3-1.3-3-3v-14c0-1.7,1.3-3,3-3h5.3c0.6,0,1,0.4,1,1s-0.4,1-1,1
		H6.2c-0.6,0-1,0.4-1,1v14c0,0.6,0.4,1,1,1h14c0.6,0,1-0.4,1-1v-5.3c0-0.6,0.4-1,1-1s1,0.4,1,1v5.3C23.2,23.8,21.8,25.2,20.2,25.2z
		 M14.2,19.2h-4c-0.6,0-1-0.4-1-1v-4c0-0.3,0.1-0.5,0.3-0.7l10-10c0.4-0.4,1-0.4,1.4,0c0,0,0,0,0,0l4,4c0.4,0.4,0.4,1,0,1.4l-10,10
		C14.7,19.1,14.4,19.2,14.2,19.2z M20.2,5.6L20.2,5.6l-9,9v2.6h2.6l9-9L20.2,5.6z"/>
	<g>
		<defs>
			<path id="SVGID_1_" d="M20.2,25.2h-14c-1.7,0-3-1.3-3-3v-14c0-1.7,1.3-3,3-3h5.3c0.6,0,1,0.4,1,1s-0.4,1-1,1H6.2
				c-0.6,0-1,0.4-1,1v14c0,0.6,0.4,1,1,1h14c0.6,0,1-0.4,1-1v-5.3c0-0.6,0.4-1,1-1s1,0.4,1,1v5.3C23.2,23.8,21.8,25.2,20.2,25.2z
				 M14.2,19.2h-4c-0.6,0-1-0.4-1-1v-4c0-0.3,0.1-0.5,0.3-0.7l10-10c0.4-0.4,1-0.4,1.4,0c0,0,0,0,0,0l4,4c0.4,0.4,0.4,1,0,1.4
				l-10,10C14.7,19.1,14.4,19.2,14.2,19.2z M20.2,5.6L20.2,5.6l-9,9v2.6h2.6l9-9L20.2,5.6z"/>
		</defs>
		<clipPath id="SVGID_2_">
			<use xlink:href="#SVGID_1_"  style="overflow:visible;"/>
		</clipPath>
		<g id="Mask_Group_41" class="st1">
			<g id="COLOR_black">
				<rect id="Rectangle" x="2.2" y="2.2" class="st0" width="24" height="24"/>
			</g>
		</g>
	</g>
</g>
</svg>
