<?xml version="1.0" encoding="utf-8"?>
<!-- Generator: Adobe Illustrator 25.0.0, SVG Export Plug-In . SVG Version: 6.00 Build 0)  -->
<svg version="1.1" id="Warstwa_1" xmlns="http://www.w3.org/2000/svg" xmlns:xlink="http://www.w3.org/1999/xlink" x="0px" y="0px"
	 viewBox="0 0 28.3 28.3" style="enable-background:new 0 0 28.3 28.3;" xml:space="preserve">
<style type="text/css">
	.st0{fill:#FFBB56;}
</style>
<g id="feather_message-circle" transform="translate(0.508 0.5)">
	<path id="Subtraction_22" class="st0" d="M3.3,25.2c-0.4,0-0.7-0.2-0.9-0.5c-0.2-0.3-0.3-0.7-0.2-1l2-6.1c-2.5-5.5,0-12,5.5-14.4
		c1.4-0.6,2.9-0.9,4.4-0.9h0h0.6c5.6,0.3,10,4.8,10.3,10.3v0.6c0,6-4.9,10.9-10.9,10.9h0c-1.5,0-3-0.3-4.4-0.9l-6.1,2
		C3.6,25.2,3.4,25.2,3.3,25.2z M14.2,4.5c-3,0-5.7,1.6-7.3,4.1c-0.8,1.4-1.3,2.9-1.3,4.5c0,1.3,0.3,2.7,0.9,3.8
		c0.1,0.3,0.2,0.6,0.1,0.9l-1.5,4.4l4.4-1.5c0.1,0,0.2-0.1,0.4-0.1c0.2,0,0.4,0,0.5,0.1c1.2,0.6,2.5,0.9,3.8,0.9h0
		c4.8,0,8.6-3.9,8.6-8.6v-0.5c-0.1-2.1-1-4.1-2.5-5.6c-1.5-1.5-3.5-2.4-5.6-2.5C14.8,4.5,14.2,4.5,14.2,4.5z"/>
</g>
</svg>
