<?xml version="1.0" encoding="utf-8"?>
<!-- Generator: Adobe Illustrator 25.0.0, SVG Export Plug-In . SVG Version: 6.00 Build 0)  -->
<svg version="1.1" id="Warstwa_1" xmlns="http://www.w3.org/2000/svg" xmlns:xlink="http://www.w3.org/1999/xlink" x="0px" y="0px"
	 viewBox="0 0 28.3 28.3" style="enable-background:new 0 0 28.3 28.3;" xml:space="preserve">
<style type="text/css">
	.st0{fill:#18191F;}
</style>
<g id="feather_message-circle" transform="translate(3.773 0.566) rotate(8)">
	<path id="Subtraction_22" class="st0" d="M2.5,23.9c-0.4,0-0.7-0.2-0.9-0.5c-0.2-0.3-0.3-0.7-0.2-1l2-6.1C1,10.8,3.5,4.3,9,1.9
		c1.4-0.6,2.9-0.9,4.4-0.9h0l0.6,0c5.6,0.3,10,4.8,10.3,10.3v0.6c0,6-4.9,10.9-10.9,10.9h0c-1.5,0-3-0.3-4.4-0.9l-6.1,2
		C2.8,23.9,2.7,23.9,2.5,23.9z M13.4,3.2c-3,0-5.7,1.6-7.3,4.1c-0.8,1.4-1.3,2.9-1.3,4.5c0,1.3,0.3,2.7,0.9,3.8
		c0.1,0.3,0.2,0.6,0.1,0.9L4.3,21l4.4-1.5c0.1,0,0.2-0.1,0.4-0.1c0.2,0,0.4,0,0.5,0.1c1.2,0.6,2.5,0.9,3.8,0.9h0
		c4.8,0,8.6-3.9,8.6-8.6v-0.5c-0.1-2.1-1-4.1-2.5-5.6c-1.5-1.5-3.5-2.4-5.6-2.5C14,3.2,13.4,3.2,13.4,3.2z"/>
</g>
</svg>
