<?xml version="1.0" encoding="utf-8"?>
<!-- Generator: Adobe Illustrator 24.0.1, SVG Export Plug-In . SVG Version: 6.00 Build 0)  -->
<svg version="1.1" id="Warstwa_1" xmlns="http://www.w3.org/2000/svg" xmlns:xlink="http://www.w3.org/1999/xlink" x="0px" y="0px"
	 viewBox="0 0 174.5 79.3" style="enable-background:new 0 0 174.5 79.3;" xml:space="preserve">
<style type="text/css">
	.st0{fill:#FBBC1B;}
	.st1{fill:#FFFFFF;}
	.st2{fill:#010202;}
</style>
<circle class="st0" cx="85.1" cy="40.5" r="23.5"/>
<g>
	<g>
		<path d="M38.6,28.7c1.6,0.9,2.9,2.2,3.8,3.9c0.9,1.7,1.4,3.7,1.4,5.9c0,2.2-0.5,4.2-1.4,5.9c-0.9,1.7-2.2,3-3.8,3.9
			c-1.6,0.9-3.4,1.4-5.4,1.4c-2.5,0-4.5-0.8-6-2.3v9.7h-7.6V27.7h7.2v2.2c1.4-1.7,3.5-2.5,6.4-2.5C35.2,27.3,37,27.8,38.6,28.7z
			 M34.9,42.3c0.9-0.9,1.3-2.2,1.3-3.8c0-1.6-0.4-2.9-1.3-3.8s-1.9-1.4-3.3-1.4c-1.3,0-2.4,0.5-3.3,1.4c-0.9,0.9-1.3,2.2-1.3,3.8
			c0,1.6,0.4,2.9,1.3,3.8c0.9,0.9,1.9,1.4,3.3,1.4C33,43.7,34.1,43.2,34.9,42.3z"/>
		<path d="M52,48.3c-1.9-1-3.3-2.3-4.4-4c-1.1-1.7-1.6-3.6-1.6-5.8c0-2.1,0.5-4.1,1.6-5.8c1.1-1.7,2.5-3,4.4-4
			c1.9-0.9,4-1.4,6.3-1.4c2.3,0,4.5,0.5,6.3,1.4c1.9,0.9,3.3,2.3,4.4,4c1,1.7,1.6,3.6,1.6,5.8c0,2.2-0.5,4.1-1.6,5.8
			c-1,1.7-2.5,3-4.4,4c-1.9,1-4,1.4-6.3,1.4C56,49.7,53.9,49.3,52,48.3z M61.6,42.3c0.9-0.9,1.3-2.2,1.3-3.8c0-1.6-0.4-2.9-1.3-3.8
			c-0.9-0.9-1.9-1.4-3.3-1.4s-2.4,0.5-3.3,1.4c-0.9,0.9-1.3,2.2-1.3,3.8c0,1.6,0.4,2.9,1.3,3.8c0.9,0.9,1.9,1.4,3.3,1.4
			S60.7,43.2,61.6,42.3z"/>
		<path d="M93.1,28.7c1.6,0.9,2.9,2.2,3.8,3.9c0.9,1.7,1.4,3.7,1.4,5.9c0,2.2-0.5,4.2-1.4,5.9c-0.9,1.7-2.2,3-3.8,3.9
			c-1.6,0.9-3.4,1.4-5.4,1.4c-2.5,0-4.5-0.8-6-2.3v9.7H74V27.7h7.2v2.2c1.4-1.7,3.5-2.5,6.4-2.5C89.7,27.3,91.5,27.8,93.1,28.7z
			 M89.4,42.3c0.9-0.9,1.3-2.2,1.3-3.8c0-1.6-0.4-2.9-1.3-3.8s-1.9-1.4-3.3-1.4s-2.4,0.5-3.3,1.4c-0.9,0.9-1.3,2.2-1.3,3.8
			c0,1.6,0.4,2.9,1.3,3.8c0.9,0.9,1.9,1.4,3.3,1.4S88.5,43.2,89.4,42.3z"/>
		<path d="M108.7,34.1v15.3h-7.6V34.1c0-1.6,1-3,2.4-3.5v-6.1h-0.4v-1.5h3.5v1.5h-0.4v6.1C107.7,31.1,108.7,32.4,108.7,34.1z"/>
		<path d="M128.5,48.5c-0.6,0.4-1.4,0.7-2.3,0.9c-0.9,0.2-1.9,0.3-2.9,0.3c-2.8,0-5-0.7-6.5-2.1c-1.5-1.4-2.3-3.5-2.3-6.2v-7.3h-3.2
			v-5.7h3.2v-5.6h7.6v5.6h5v5.7h-5v7.2c0,0.8,0.2,1.4,0.6,1.8c0.4,0.4,1,0.7,1.7,0.7c0.9,0,1.7-0.2,2.3-0.7L128.5,48.5z"/>
		<path d="M148.9,29.8c1.9,1.6,2.8,4.2,2.8,7.5v12h-7.1v-2.8c-1.1,2.1-3.2,3.2-6.4,3.2c-1.7,0-3.1-0.3-4.4-0.9s-2.2-1.4-2.8-2.4
			s-0.9-2.1-0.9-3.4c0-2.1,0.8-3.6,2.4-4.8c1.6-1.1,4-1.7,7.3-1.7h4.3c-0.1-2.3-1.7-3.4-4.6-3.4c-1,0-2.1,0.2-3.2,0.5
			c-1.1,0.3-2,0.8-2.7,1.4l-2.6-5.2c1.2-0.8,2.7-1.4,4.4-1.9s3.4-0.7,5.2-0.7C144.3,27.3,147.1,28.2,148.9,29.8z M142.7,44.3
			c0.7-0.4,1.1-1.1,1.4-1.9v-1.9h-3.3c-2.2,0-3.3,0.7-3.3,2.2c0,0.7,0.3,1.2,0.8,1.6c0.5,0.4,1.2,0.6,2.1,0.6
			C141.3,44.9,142.1,44.7,142.7,44.3z"/>
	</g>
	<g>
		<g>
			<path class="st1" d="M43.7,31.4c-0.9-1.6-2.2-2.9-3.7-3.8c-1.5-0.9-3.3-1.3-5.2-1.3c-2.7,0-4.8,0.8-6.1,2.4L28,29.4v-2.8h-6.5
				v28.7h6.9V45.1l0.6,0.6c1.4,1.5,3.4,2.2,5.8,2.2c1.9,0,3.7-0.5,5.2-1.3c1.5-0.9,2.8-2.2,3.7-3.8c0.9-1.6,1.4-3.6,1.4-5.7
				C45,34.9,44.6,33,43.7,31.4z M36.7,41.1c-0.9,1-2.1,1.5-3.5,1.5c-1.4,0-2.6-0.5-3.5-1.5c-0.9-1-1.4-2.3-1.4-4s0.5-3,1.4-4
				c0.9-1,2.1-1.5,3.5-1.5c1.4,0,2.6,0.5,3.5,1.5c0.9,1,1.4,2.3,1.4,4S37.6,40.1,36.7,41.1z"/>
			<path d="M36.7,33.1c-0.9-1-2.1-1.5-3.5-1.5c-1.4,0-2.6,0.5-3.5,1.5c-0.9,1-1.4,2.3-1.4,4s0.5,3,1.4,4c0.9,1,2.1,1.5,3.5,1.5
				c1.4,0,2.6-0.5,3.5-1.5c0.9-1,1.4-2.3,1.4-4S37.6,34,36.7,33.1z M33.1,41.9c-1.2,0-2.2-0.4-3-1.3c-0.8-0.8-1.2-2-1.2-3.5
				s0.4-2.7,1.2-3.5c0.8-0.9,1.8-1.3,3-1.3c1.2,0,2.2,0.4,3,1.3c0.8,0.9,1.2,2,1.2,3.5s-0.4,2.7-1.2,3.5
				C35.4,41.5,34.4,41.9,33.1,41.9z"/>
			<path d="M44.3,31c-1-1.7-2.3-3.1-4-4c-1.7-1-3.5-1.4-5.6-1.4c-2.6,0-4.6,0.7-6,2v-1.6h-7.9V56H29v-9.2c1.5,1.2,3.4,1.8,5.7,1.8
				c2,0,3.9-0.5,5.6-1.4c1.7-0.9,3-2.3,4-4c1-1.7,1.5-3.8,1.5-6.1C45.7,34.8,45.2,32.8,44.3,31z M43.7,42.8
				c-0.9,1.6-2.2,2.9-3.7,3.8c-1.5,0.9-3.3,1.3-5.2,1.3c-2.4,0-4.4-0.7-5.8-2.2l-0.6-0.6v10.2h-6.9V26.6H28v2.8l0.6-0.7
				c1.3-1.6,3.4-2.4,6.1-2.4c1.9,0,3.7,0.5,5.2,1.3c1.5,0.9,2.8,2.2,3.7,3.8c0.9,1.6,1.4,3.6,1.4,5.7C45,39.3,44.6,41.2,43.7,42.8z"
				/>
		</g>
		<g>
			<path class="st1" d="M70.2,31.4c-1-1.6-2.4-2.9-4.2-3.8c-1.8-0.9-3.9-1.4-6.2-1.4c-2.3,0-4.3,0.5-6.1,1.4
				c-1.8,0.9-3.2,2.2-4.2,3.9c-1,1.6-1.5,3.5-1.5,5.6c0,2.1,0.5,4,1.5,5.6c1,1.6,2.4,2.9,4.2,3.9c1.8,0.9,3.9,1.4,6.1,1.4
				c2.3,0,4.3-0.5,6.2-1.4c1.8-0.9,3.2-2.2,4.2-3.9c1-1.6,1.5-3.5,1.5-5.6C71.7,35,71.2,33.1,70.2,31.4z M63.3,41.1
				c-0.9,1-2.1,1.5-3.5,1.5s-2.6-0.5-3.5-1.5c-0.9-1-1.4-2.3-1.4-4.1c0-1.7,0.5-3,1.4-4c0.9-1,2.1-1.5,3.5-1.5s2.6,0.5,3.5,1.5
				c0.9,1,1.4,2.3,1.4,4C64.7,38.8,64.2,40.1,63.3,41.1z"/>
			<path d="M63.3,33c-0.9-1-2.1-1.5-3.5-1.5s-2.6,0.5-3.5,1.5c-0.9,1-1.4,2.3-1.4,4c0,1.7,0.5,3.1,1.4,4.1c0.9,1,2.1,1.5,3.5,1.5
				s2.6-0.5,3.5-1.5c0.9-1,1.4-2.3,1.4-4.1C64.7,35.4,64.2,34,63.3,33z M59.8,41.9c-1.2,0-2.2-0.4-3-1.3c-0.8-0.8-1.2-2-1.2-3.6
				c0-1.5,0.4-2.7,1.2-3.5c0.8-0.8,1.8-1.2,3-1.2s2.2,0.4,3,1.2c0.8,0.8,1.2,2,1.2,3.5c0,1.5-0.4,2.7-1.2,3.6
				C62,41.5,61,41.9,59.8,41.9z"/>
			<path d="M70.8,31.1c-1.1-1.8-2.6-3.1-4.5-4.1c-1.9-1-4.1-1.5-6.5-1.5S55.2,26,53.3,27c-1.9,1-3.4,2.4-4.5,4.1
				c-1.1,1.8-1.6,3.8-1.6,5.9c0,2.2,0.5,4.2,1.6,6c1.1,1.8,2.6,3.1,4.5,4.1c1.9,1,4.1,1.5,6.4,1.5c2.4,0,4.6-0.5,6.5-1.5
				c1.9-1,3.4-2.4,4.5-4.1c1.1-1.8,1.6-3.8,1.6-6C72.4,34.8,71.8,32.8,70.8,31.1z M70.2,42.7c-1,1.6-2.4,2.9-4.2,3.9
				c-1.8,0.9-3.9,1.4-6.2,1.4c-2.2,0-4.3-0.5-6.1-1.4c-1.8-0.9-3.2-2.2-4.2-3.9c-1-1.6-1.5-3.5-1.5-5.6c0-2.1,0.5-3.9,1.5-5.6
				c1-1.6,2.4-2.9,4.2-3.9c1.8-0.9,3.9-1.4,6.1-1.4c2.3,0,4.3,0.5,6.2,1.4c1.8,0.9,3.2,2.2,4.2,3.8c1,1.6,1.5,3.5,1.5,5.6
				C71.7,39.1,71.2,41,70.2,42.7z"/>
		</g>
		<g>
			<path class="st1" d="M98.1,31.4c-0.9-1.6-2.2-2.9-3.7-3.8c-1.5-0.9-3.3-1.3-5.2-1.3c-2.7,0-4.8,0.8-6.1,2.4l-0.6,0.7v-2.8h-6.5
				v28.7h6.9V45.1l0.6,0.6c1.4,1.5,3.4,2.2,5.8,2.2c1.9,0,3.7-0.5,5.2-1.3c1.5-0.9,2.8-2.2,3.7-3.8c0.9-1.6,1.4-3.6,1.4-5.7
				C99.5,34.9,99,33,98.1,31.4z M91.1,41.1c-0.9,1-2.1,1.5-3.5,1.5S85,42.1,84,41.1c-0.9-1-1.4-2.3-1.4-4c0-1.7,0.5-3,1.4-4
				c0.9-1,2.1-1.5,3.5-1.5s2.6,0.5,3.5,1.5c0.9,1,1.4,2.3,1.4,4S92,40.1,91.1,41.1z"/>
			<path d="M98.7,31c-1-1.7-2.3-3.1-4-4h0c-1.7-1-3.5-1.4-5.6-1.4c-2.6,0-4.6,0.7-6,2v-1.6h-7.9V56h8.3v-9.2
				c1.5,1.2,3.4,1.8,5.7,1.8c2,0,3.9-0.5,5.6-1.4c1.7-0.9,3-2.3,4-4c1-1.7,1.5-3.8,1.5-6.1C100.2,34.8,99.7,32.8,98.7,31z
				 M89.2,47.9c-2.4,0-4.4-0.7-5.8-2.2l-0.6-0.6v10.2h-6.9V26.6h6.5v2.8l0.6-0.7c1.3-1.6,3.4-2.4,6.1-2.4c1.9,0,3.7,0.5,5.2,1.3
				c1.5,0.9,2.8,2.2,3.7,3.8c0.9,1.6,1.4,3.6,1.4,5.7c0,2.2-0.5,4.1-1.4,5.7c-0.9,1.6-2.2,2.9-3.7,3.8
				C92.8,47.5,91.1,47.9,89.2,47.9z"/>
			<path d="M91.1,33.1c-0.9-1-2.1-1.5-3.5-1.5S85,32.1,84,33.1c-0.9,1-1.4,2.3-1.4,4c0,1.7,0.5,3,1.4,4c0.9,1,2.1,1.5,3.5,1.5
				s2.6-0.5,3.5-1.5c0.9-1,1.4-2.3,1.4-4S92,34,91.1,33.1z M87.6,41.9c-1.2,0-2.2-0.4-3-1.3c-0.8-0.8-1.2-2-1.2-3.5s0.4-2.7,1.2-3.5
				c0.8-0.9,1.8-1.3,3-1.3s2.2,0.4,3,1.3c0.8,0.9,1.2,2,1.2,3.5s-0.4,2.7-1.2,3.5C89.8,41.5,88.8,41.9,87.6,41.9z"/>
		</g>
		<g>
			<path d="M108.1,28.8v-5.6h0.4v-2.2h-4.2v2.2h0.3l0,5.6c-1.5,0.7-2.4,2.2-2.4,3.8v15.7h8.3V32.6C110.5,31,109.5,29.5,108.1,28.8z
				 M109.8,47.6h-6.9v-15c0-1.4,0.9-2.7,2.2-3.2l0.2-0.1v-6.7H105l0-0.8h2.8v0.8h-0.4v6.7l0.2,0.1c1.3,0.5,2.2,1.8,2.2,3.2V47.6z"/>
			<path class="st1" d="M109.8,32.6v15h-6.9v-15c0-1.4,0.9-2.7,2.2-3.2l0.2-0.1v-6.7H105l0-0.8h2.8v0.8h-0.4v6.7l0.2,0.1
				C108.9,29.9,109.8,31.2,109.8,32.6z"/>
		</g>
		<g>
			<path class="st1" d="M128,42.2c-0.6,0.3-1.4,0.5-2.1,0.5c-0.8,0-1.4-0.3-1.9-0.8c-0.5-0.5-0.7-1.2-0.7-2.1v-7.5h5v-5h-5v-5.6
				h-6.9v5.6h-3.2v5h3.2V40c0,2.6,0.7,4.6,2.2,5.9c1.5,1.3,3.6,2,6.3,2c1,0,2-0.1,2.9-0.3c0.8-0.2,1.4-0.4,2-0.7L128,42.2z"/>
			<path d="M128.3,41.2l-0.4,0.3c-0.6,0.4-1.3,0.6-2.1,0.6c-0.6,0-1.1-0.2-1.4-0.5c-0.3-0.4-0.5-0.9-0.5-1.6v-6.8h5v-6.4h-5v-5.6
				h-8.3v5.6h-3.2v6.4h3.2V40c0,2.8,0.8,5,2.4,6.5c1.6,1.4,3.9,2.2,6.8,2.2c1.1,0,2.1-0.1,3-0.3c1-0.2,1.8-0.5,2.4-1l0.2-0.2
				L128.3,41.2z M124.8,47.9c-2.7,0-4.8-0.7-6.3-2c-1.4-1.3-2.2-3.3-2.2-5.9v-7.6h-3.2v-5h3.2v-5.6h6.9v5.6h5v5h-5v7.5
				c0,0.9,0.2,1.6,0.7,2.1c0.5,0.5,1.1,0.8,1.9,0.8c0.8,0,1.5-0.2,2.1-0.5l1.6,4.6c-0.6,0.3-1.2,0.6-2,0.7
				C126.7,47.8,125.8,47.9,124.8,47.9z"/>
		</g>
		<g>
			<path class="st1" d="M150.2,28.6c-1.8-1.6-4.5-2.4-8-2.4c-1.7,0-3.4,0.2-5.1,0.7c-1.5,0.4-2.9,1-4,1.6l2.2,4.5
				c0.7-0.5,1.5-0.9,2.5-1.2c1.1-0.3,2.2-0.5,3.3-0.5c3.1,0,4.8,1.3,5,3.8l0,0.4h-4.7c-3.2,0-5.6,0.5-7.1,1.6
				c-1.5,1.1-2.2,2.6-2.2,4.5c0,1.2,0.3,2.3,0.9,3.2c0.6,0.9,1.5,1.7,2.6,2.2c1.2,0.6,2.6,0.8,4.2,0.8c3.1,0,5-1,6.1-3l0.7,0.2v2.5
				h6.4V35.9C152.9,32.6,152,30.2,150.2,28.6z M146,41.1c-0.3,0.9-0.8,1.6-1.6,2c-0.7,0.5-1.6,0.7-2.5,0.7c-1,0-1.7-0.2-2.3-0.7
				c-0.6-0.5-0.9-1.1-0.9-1.9c0-1.2,0.6-2.6,3.7-2.6h3.6L146,41.1z"/>
			<path d="M142.4,38.7c-3,0-3.7,1.4-3.7,2.6c0,0.8,0.3,1.4,0.9,1.9c0.6,0.4,1.3,0.7,2.3,0.7c0.9,0,1.8-0.2,2.5-0.7
				c0.7-0.5,1.3-1.2,1.6-2l0-2.4H142.4z M145.3,40.9c-0.3,0.7-0.7,1.3-1.3,1.6c-0.6,0.4-1.3,0.6-2.1,0.6c-0.8,0-1.4-0.2-1.9-0.5
				c-0.4-0.3-0.6-0.8-0.6-1.3c0-0.5,0-1.9,3-1.9h2.9V40.9z"/>
			<path d="M150.7,28.1c-2-1.7-4.8-2.5-8.5-2.5c-1.8,0-3.5,0.2-5.3,0.7c-1.8,0.5-3.3,1.1-4.5,1.9l-0.2,0.2l2.9,5.8l0.3-0.3
				c0.7-0.6,1.6-1,2.6-1.3c1-0.3,2.1-0.5,3.1-0.5c2.6,0,4,0.9,4.2,2.7h-3.9c-3.3,0-5.9,0.6-7.5,1.8c-1.7,1.2-2.5,2.9-2.5,5.1
				c0,1.3,0.3,2.6,1,3.6c0.7,1,1.6,1.9,2.9,2.5c1.3,0.6,2.8,0.9,4.5,0.9c2.8,0,4.8-0.8,6-2.3v2h7.8V35.9
				C153.6,32.4,152.6,29.8,150.7,28.1z M152.9,47.6h-6.4v-2.5l-0.7-0.2c-1,2-3,3-6.1,3c-1.6,0-3-0.3-4.2-0.8c-1.2-0.5-2-1.3-2.6-2.2
				c-0.6-0.9-0.9-2-0.9-3.2c0-1.9,0.7-3.4,2.2-4.5c1.5-1.1,3.9-1.6,7.1-1.6h4.7l0-0.4c-0.2-2.5-1.8-3.8-5-3.8
				c-1.1,0-2.2,0.2-3.3,0.5c-0.9,0.3-1.8,0.7-2.5,1.2l-2.2-4.5c1.1-0.7,2.5-1.2,4-1.6c1.7-0.4,3.4-0.7,5.1-0.7c3.5,0,6.2,0.8,8,2.4
				c1.8,1.6,2.7,4,2.7,7.3V47.6z"/>
		</g>
	</g>
	<polygon points="19.6,27.7 20.7,25.9 20.7,27.7 	"/>
	<polygon points="27.2,57.1 29,56 27.2,56 	"/>
	<polygon points="74,27.7 75.2,25.9 75.2,27.7 	"/>
	<polygon points="81.6,57.1 83.5,56 81.6,56 	"/>
	<polygon points="103.1,22.9 104.3,21.1 104.3,22.9 	"/>
	<polygon points="108.7,49.4 110.5,48.3 108.7,48.3 	"/>
	<polygon points="114.5,22.9 115.6,21.1 115.6,22.9 	"/>
	<polygon points="111.3,28.5 112.4,26.7 112.4,28.5 	"/>
	<polygon points="128.5,48.5 130.5,47.2 128.2,47.9 	"/>
	<polygon points="127,34.2 128.9,33.1 127,33.1 	"/>
	<polygon points="131.1,29.9 132.2,28.3 132.6,29.1 	"/>
	<polygon points="151.8,48.3 153.6,48.3 151.8,49.4 	"/>
</g>
</svg>
