<?xml version="1.0" encoding="utf-8"?>
<!-- Generator: Adobe Illustrator 25.0.0, SVG Export Plug-In . SVG Version: 6.00 Build 0)  -->
<svg version="1.1" id="Warstwa_1" xmlns="http://www.w3.org/2000/svg" xmlns:xlink="http://www.w3.org/1999/xlink" x="0px" y="0px"
	 viewBox="0 0 34 34" style="enable-background:new 0 0 34 34;" xml:space="preserve">
<style type="text/css">
	.st0{fill:#18181E;}
	.st1{clip-path:url(#SVGID_2_);}
</style>
<g id="Group_52">
	<path id="Combined_Shape-2" class="st0" d="M6.3,26.8c-0.2-0.3-0.2-0.6-0.1-0.9l3.4-8.8L6.2,8.2C6.1,7.9,6.1,7.6,6.3,7.3
		C6.6,6.9,7.1,6.7,7.5,7l19.2,9.2c0.5,0.2,0.7,0.8,0.5,1.3c-0.1,0.2-0.3,0.4-0.5,0.5L7.5,27.2C7.1,27.4,6.6,27.2,6.3,26.8z M9,24.3
		l12.9-6.2H11.4L9,24.3z M21.9,16.1L9,9.9l2.4,6.2H21.9z"/>
	<g>
		<defs>
			<path id="SVGID_1_" d="M6.3,26.8c-0.2-0.3-0.2-0.6-0.1-0.9l3.4-8.8L6.2,8.2C6.1,7.9,6.1,7.6,6.3,7.3C6.6,6.9,7.1,6.7,7.5,7
				l19.2,9.2c0.5,0.2,0.7,0.8,0.5,1.3c-0.1,0.2-0.3,0.4-0.5,0.5L7.5,27.2C7.1,27.4,6.6,27.2,6.3,26.8z M9,24.3l12.9-6.2H11.4L9,24.3
				z M21.9,16.1L9,9.9l2.4,6.2H21.9z"/>
		</defs>
		<clipPath id="SVGID_2_">
			<use xlink:href="#SVGID_1_"  style="overflow:visible;"/>
		</clipPath>
		<g id="Mask_Group_52" class="st1">
			<g id="COLOR_black">
				<rect id="Rectangle" x="4.7" y="5.1" class="st0" width="24" height="24"/>
			</g>
		</g>
	</g>
</g>
</svg>
